<?xml version="1.0" encoding="utf-8"?>
<!-- Generator: Adobe Illustrator 24.0.2, SVG Export Plug-In . SVG Version: 6.00 Build 0)  -->
<svg version="1.1" id="off" xmlns="http://www.w3.org/2000/svg" xmlns:xlink="http://www.w3.org/1999/xlink" x="0px" y="0px"
	 viewBox="0 0 217.2 91.6" style="enable-background:new 0 0 217.2 91.6;" xml:space="preserve">
<style type="text/css">
	.st0{fill:#E9762F;}
	.st1{fill:#7382A3;}
	.st2{fill:#A4AAC2;}
	.st3{fill:#FFFFFF;}
	.st4{display:none;fill:#3F3F3F;}
	.st5{fill:#3F3F3F;}
	.st6{fill:none;stroke:#E9762E;stroke-width:0.5941;stroke-miterlimit:10;}
	.st7{clip-path:url(#SVGID_2_);}
	.st8{fill:#727276;}
	.st9{fill:#E9762E;}
	.st10{clip-path:url(#SVGID_6_);}
	.st11{fill:#E9762E;stroke:#E9762E;stroke-width:0.5;stroke-miterlimit:10;}
	.st12{fill:#E9762E;stroke:#E9762E;stroke-width:0.3868;stroke-miterlimit:10;}
	.st13{fill:#E9762E;stroke:#E9762E;stroke-width:0.5162;stroke-miterlimit:10;}
	.st14{fill:#FFFDFD;}
	.st15{fill:none;stroke:#3F3F3F;stroke-width:2.9348;stroke-miterlimit:10;}
	.st16{fill:#E9762E;stroke:#E9762E;stroke-width:0.75;stroke-miterlimit:10;}
	.st17{fill:#3F3F3F;stroke:#3F3F3F;stroke-width:0.25;stroke-miterlimit:10;}
	.st18{fill:#444444;}
	.st19{fill:#292929;}
	.st20{fill:#FFD400;}
	.st21{fill:#FF9F00;}
	.st22{fill:#6E6E6E;}
</style>
<path class="st15" d="M198,89.6H19.2c-8.7,0-15.7-7-15.7-15.7V17.7C3.5,9,10.5,2,19.2,2H198c8.7,0,15.7,7,15.7,15.7v56.2
	C213.7,82.6,206.7,89.6,198,89.6z"/>
<g>
	<path class="st16" d="M15.5,30.7v3.1H15v-9h2.4c0.7,0.1,1.3,0.4,1.7,0.9c0.6,0.6,0.9,1.3,0.9,2.1c0,0.8-0.3,1.5-0.9,2.1
		s-1.3,0.9-2.1,0.9H15.5z M15.5,25.3v4.8h1.5c0.7,0,1.2-0.2,1.7-0.7s0.7-1,0.7-1.7c0-0.7-0.2-1.2-0.7-1.7s-1-0.7-1.7-0.7H15.5z"/>
	<path class="st16" d="M23,33.9c-0.7,0-1.2-0.2-1.6-0.6s-0.6-0.9-0.6-1.5v-3.4h0.5v3.4c0,0.5,0.2,0.9,0.5,1.2
		c0.3,0.3,0.8,0.5,1.3,0.5c0.5,0,0.9-0.2,1.2-0.5c0.3-0.3,0.5-0.7,0.5-1.2v-3.4h0.5v3.4c0,0.6-0.2,1.1-0.6,1.5S23.7,33.9,23,33.9z"
		/>
	<path class="st16" d="M26.9,29.5v4.3h-0.5v-5.5h0.5v0.4c0.5-0.5,1-0.7,1.6-0.7c0.7,0,1.2,0.2,1.6,0.6c0.4,0.4,0.6,0.9,0.6,1.5v3.7
		h-0.5v-3.6c0-0.5-0.2-0.9-0.5-1.2s-0.7-0.5-1.2-0.5c-0.5,0-0.9,0.2-1.2,0.5C27.1,29.1,27,29.3,26.9,29.5z"/>
	<path class="st16" d="M32.7,28.3v-2.3h0.5v2.3h1.1v0.5h-1.1v5h-0.5v-5h-1.1v-0.5H32.7z"/>
	<path class="st16" d="M38,27.8c0.9,0,1.6,0.3,2.2,0.9c0.6,0.6,0.9,1.3,0.9,2.2c0,0.8-0.3,1.6-0.9,2.2c-0.6,0.6-1.3,0.9-2.2,0.9
		c-0.8,0-1.6-0.3-2.2-0.9c-0.6-0.6-0.9-1.3-0.9-2.2c0-0.9,0.3-1.6,0.9-2.2C36.5,28.1,37.2,27.8,38,27.8z M36.2,29.1
		c-0.5,0.5-0.7,1.1-0.7,1.8s0.2,1.3,0.7,1.8c0.5,0.5,1.1,0.7,1.8,0.7s1.3-0.2,1.8-0.7c0.5-0.5,0.7-1.1,0.7-1.8s-0.2-1.3-0.7-1.8
		c-0.5-0.5-1.1-0.7-1.8-0.7S36.7,28.6,36.2,29.1z"/>
	<path class="st16" d="M51,33.8h-0.5v-1.1c-0.1,0.1-0.2,0.3-0.3,0.4c-0.6,0.6-1.3,0.9-2.2,0.9c-0.8,0-1.6-0.3-2.2-0.9
		c-0.6-0.6-0.9-1.3-0.9-2.2c0-0.9,0.3-1.6,0.9-2.2c0.6-0.6,1.3-0.9,2.2-0.9c0.9,0,1.6,0.3,2.2,0.9c0.1,0.1,0.2,0.2,0.3,0.4v-4.2H51
		V33.8z M50.5,31.4v-1c-0.1-0.5-0.3-0.9-0.7-1.3c-0.5-0.5-1.1-0.7-1.8-0.7s-1.3,0.3-1.8,0.7c-0.5,0.5-0.7,1.1-0.7,1.8
		s0.2,1.3,0.7,1.8c0.5,0.5,1.1,0.7,1.8,0.7s1.3-0.3,1.8-0.7C50.2,32.3,50.4,31.9,50.5,31.4z"/>
	<path class="st16" d="M52.4,30.6c0,0.1,0,0.2,0,0.3c0,0.7,0.2,1.3,0.7,1.8c0.5,0.5,1.1,0.7,1.8,0.7s1.3-0.3,1.8-0.7
		c0.1-0.1,0.2-0.2,0.2-0.3l0.5,0.2c-0.1,0.1-0.2,0.3-0.4,0.5c-0.6,0.6-1.3,0.9-2.2,0.9c-0.8,0-1.6-0.3-2.2-0.9
		c-0.6-0.6-0.9-1.3-0.9-2.2c0-0.9,0.3-1.6,0.9-2.2c0.6-0.6,1.3-0.9,2.2-0.9c0.9,0,1.6,0.3,2.2,0.9c0.5,0.5,0.8,1.2,0.8,1.9H52.4z
		 M52.5,30.1h4.8c-0.1-0.4-0.3-0.7-0.6-1c-0.5-0.5-1.1-0.7-1.8-0.7s-1.3,0.3-1.8,0.7C52.9,29.4,52.7,29.7,52.5,30.1z"/>
	<path class="st16" d="M63.6,28.7c-0.4,0.1-0.7,0.3-1.1,0.7c-0.3,0.4-0.5,0.8-0.5,1.2v3.2h-0.5v-5.5H62v1.2c0.2-0.6,0.6-1,1.3-1.2
		L63.6,28.7z"/>
	<path class="st16" d="M64.5,30.6c0,0.1,0,0.2,0,0.3c0,0.7,0.2,1.3,0.7,1.8c0.5,0.5,1.1,0.7,1.8,0.7c0.7,0,1.3-0.3,1.8-0.7
		c0.1-0.1,0.2-0.2,0.2-0.3l0.5,0.2c-0.1,0.1-0.2,0.3-0.4,0.5c-0.6,0.6-1.3,0.9-2.2,0.9c-0.8,0-1.6-0.3-2.2-0.9
		c-0.6-0.6-0.9-1.3-0.9-2.2c0-0.9,0.3-1.6,0.9-2.2c0.6-0.6,1.3-0.9,2.2-0.9c0.9,0,1.6,0.3,2.2,0.9c0.5,0.5,0.8,1.2,0.8,1.9H64.5z
		 M64.6,30.1h4.8c-0.1-0.4-0.3-0.7-0.6-1c-0.5-0.5-1.1-0.7-1.8-0.7c-0.7,0-1.3,0.3-1.8,0.7C64.9,29.4,64.7,29.7,64.6,30.1z"/>
	<path class="st16" d="M72.3,30.8c-0.4-0.2-0.7-0.4-0.9-0.6C71.1,30,71,29.7,71,29.3c0-0.4,0.1-0.7,0.4-0.9c0.3-0.3,0.6-0.4,0.9-0.4
		c0.4,0,0.7,0.1,0.9,0.4c0.2,0.2,0.3,0.5,0.3,0.8v0l-0.4,0.2c0-0.3-0.1-0.5-0.3-0.6s-0.3-0.2-0.6-0.2c-0.2,0-0.4,0.1-0.6,0.2
		s-0.2,0.4-0.2,0.6c0,0.2,0.1,0.4,0.2,0.6c0.1,0.1,0.3,0.2,0.6,0.4c0.5,0.3,0.8,0.5,1,0.7c0.3,0.3,0.5,0.7,0.5,1.1
		c0,0.5-0.2,0.8-0.5,1.2s-0.7,0.5-1.2,0.5s-0.8-0.2-1.2-0.5s-0.5-0.7-0.5-1.1l0.5-0.1c0,0.3,0.1,0.6,0.3,0.8
		c0.2,0.2,0.5,0.3,0.8,0.3s0.6-0.1,0.8-0.3c0.2-0.2,0.3-0.5,0.3-0.8c0-0.3-0.1-0.6-0.3-0.8C72.9,31.2,72.7,31.1,72.3,30.8z"/>
	<path class="st16" d="M75.7,28.3v-2.3h0.5v2.3h1.1v0.5h-1.1v5h-0.5v-5h-1.1v-0.5H75.7z"/>
	<path class="st16" d="M84,33.8h-0.5v-1.1c-0.1,0.1-0.2,0.3-0.3,0.4c-0.6,0.6-1.3,0.9-2.2,0.9c-0.8,0-1.6-0.3-2.2-0.9
		c-0.6-0.6-0.9-1.3-0.9-2.2c0-0.9,0.3-1.6,0.9-2.2c0.6-0.6,1.3-0.9,2.2-0.9c0.9,0,1.6,0.3,2.2,0.9c0.1,0.1,0.2,0.2,0.3,0.4v-0.8H84
		V33.8z M83.5,31.4v-1c-0.1-0.5-0.3-0.9-0.7-1.3c-0.5-0.5-1.1-0.7-1.8-0.7c-0.7,0-1.3,0.3-1.8,0.7s-0.7,1.1-0.7,1.8s0.2,1.3,0.7,1.8
		c0.5,0.5,1.1,0.7,1.8,0.7c0.7,0,1.3-0.3,1.8-0.7C83.2,32.3,83.4,31.9,83.5,31.4z"/>
	<path class="st16" d="M87.4,33.9c-0.7,0-1.2-0.2-1.6-0.6s-0.6-0.9-0.6-1.5v-3.4h0.5v3.4c0,0.5,0.2,0.9,0.5,1.2
		c0.3,0.3,0.8,0.5,1.3,0.5c0.5,0,0.9-0.2,1.2-0.5c0.3-0.3,0.5-0.7,0.5-1.2v-3.4h0.5v3.4c0,0.6-0.2,1.1-0.6,1.5S88.1,33.9,87.4,33.9z
		"/>
	<path class="st16" d="M92.8,28.7c-0.4,0.1-0.7,0.3-1.1,0.7c-0.3,0.4-0.5,0.8-0.5,1.2v3.2h-0.5v-5.5h0.5v1.2c0.2-0.6,0.6-1,1.3-1.2
		L92.8,28.7z"/>
	<path class="st16" d="M99.3,33.8h-0.5v-1.1c-0.1,0.1-0.2,0.3-0.3,0.4c-0.6,0.6-1.3,0.9-2.2,0.9c-0.8,0-1.6-0.3-2.2-0.9
		c-0.6-0.6-0.9-1.3-0.9-2.2c0-0.9,0.3-1.6,0.9-2.2c0.6-0.6,1.3-0.9,2.2-0.9c0.9,0,1.6,0.3,2.2,0.9c0.1,0.1,0.2,0.2,0.3,0.4v-0.8h0.5
		V33.8z M98.8,31.4v-1c-0.1-0.5-0.3-0.9-0.7-1.3c-0.5-0.5-1.1-0.7-1.8-0.7c-0.7,0-1.3,0.3-1.8,0.7s-0.7,1.1-0.7,1.8s0.2,1.3,0.7,1.8
		c0.5,0.5,1.1,0.7,1.8,0.7c0.7,0,1.3-0.3,1.8-0.7C98.5,32.3,98.7,31.9,98.8,31.4z"/>
	<path class="st16" d="M105.3,32.5l0.5,0.2c-0.1,0.1-0.2,0.3-0.3,0.4c-0.6,0.6-1.3,0.9-2.2,0.9c-0.8,0-1.6-0.3-2.2-0.9
		c-0.6-0.6-0.9-1.3-0.9-2.2c0-0.9,0.3-1.6,0.9-2.2c0.6-0.6,1.3-0.9,2.2-0.9c0.9,0,1.6,0.3,2.2,0.9c0.1,0.1,0.2,0.3,0.3,0.4l-0.5,0.2
		c-0.1-0.1-0.1-0.1-0.2-0.2c-0.5-0.5-1.1-0.7-1.8-0.7c-0.7,0-1.3,0.2-1.8,0.7s-0.7,1.1-0.7,1.8c0,0.7,0.2,1.3,0.7,1.8
		s1.1,0.7,1.8,0.7c0.7,0,1.3-0.3,1.8-0.7C105.2,32.6,105.2,32.5,105.3,32.5z"/>
	<path class="st16" d="M107.5,26.5c0.1,0.1,0.1,0.2,0.1,0.3c0,0.1,0,0.3-0.1,0.4s-0.2,0.1-0.4,0.1c-0.1,0-0.3,0-0.4-0.1
		s-0.1-0.2-0.1-0.4c0-0.1,0-0.3,0.1-0.3s0.2-0.1,0.4-0.1C107.3,26.3,107.4,26.4,107.5,26.5z M107.4,28.3v5.5h-0.5v-5.5H107.4z"/>
	<path class="st16" d="M111.7,27.8c0.9,0,1.6,0.3,2.2,0.9s0.9,1.3,0.9,2.2c0,0.8-0.3,1.6-0.9,2.2c-0.6,0.6-1.3,0.9-2.2,0.9
		c-0.8,0-1.6-0.3-2.2-0.9c-0.6-0.6-0.9-1.3-0.9-2.2c0-0.9,0.3-1.6,0.9-2.2C110.1,28.1,110.8,27.8,111.7,27.8z M109.9,29.1
		c-0.5,0.5-0.7,1.1-0.7,1.8s0.2,1.3,0.7,1.8c0.5,0.5,1.1,0.7,1.8,0.7c0.7,0,1.3-0.2,1.8-0.7c0.5-0.5,0.7-1.1,0.7-1.8
		s-0.2-1.3-0.7-1.8s-1.1-0.7-1.8-0.7C111,28.3,110.4,28.6,109.9,29.1z M112.9,26.1l-1.4,1h-0.5l0.9-1H112.9z"/>
	<path class="st16" d="M116.4,29.5v4.3h-0.5v-5.5h0.5v0.4c0.5-0.5,1-0.7,1.6-0.7c0.7,0,1.2,0.2,1.6,0.6s0.6,0.9,0.6,1.5v3.7h-0.5
		v-3.6c0-0.5-0.2-0.9-0.5-1.2c-0.3-0.3-0.7-0.5-1.2-0.5c-0.5,0-0.9,0.2-1.2,0.5C116.6,29.1,116.4,29.3,116.4,29.5z"/>
	<path class="st17" d="M124.6,30.6c0,0.1,0,0.2,0,0.3c0,0.7,0.2,1.3,0.7,1.8c0.5,0.5,1.1,0.7,1.8,0.7c0.7,0,1.3-0.3,1.8-0.7
		c0.1-0.1,0.2-0.2,0.2-0.3l0.5,0.2c-0.1,0.1-0.2,0.3-0.4,0.5c-0.6,0.6-1.3,0.9-2.2,0.9c-0.8,0-1.6-0.3-2.2-0.9
		c-0.6-0.6-0.9-1.3-0.9-2.2c0-0.9,0.3-1.6,0.9-2.2c0.6-0.6,1.3-0.9,2.2-0.9c0.9,0,1.6,0.3,2.2,0.9c0.5,0.5,0.8,1.2,0.8,1.9H124.6z
		 M124.6,30.1h4.8c-0.1-0.4-0.3-0.7-0.6-1c-0.5-0.5-1.1-0.7-1.8-0.7c-0.7,0-1.3,0.3-1.8,0.7C125,29.4,124.8,29.7,124.6,30.1z"/>
	<path class="st17" d="M132.3,30.8c-0.4-0.2-0.7-0.4-0.9-0.6c-0.3-0.3-0.4-0.6-0.4-0.9c0-0.4,0.1-0.7,0.4-0.9
		c0.3-0.3,0.6-0.4,0.9-0.4c0.4,0,0.7,0.1,0.9,0.4c0.2,0.2,0.3,0.5,0.3,0.8v0l-0.4,0.2c0-0.3-0.1-0.5-0.3-0.6s-0.3-0.2-0.6-0.2
		c-0.2,0-0.4,0.1-0.6,0.2s-0.2,0.4-0.2,0.6c0,0.2,0.1,0.4,0.2,0.6c0.1,0.1,0.3,0.2,0.6,0.4c0.5,0.3,0.8,0.5,1,0.7
		c0.3,0.3,0.5,0.7,0.5,1.1c0,0.5-0.2,0.8-0.5,1.2s-0.7,0.5-1.2,0.5s-0.8-0.2-1.2-0.5s-0.5-0.7-0.5-1.1l0.5-0.1
		c0,0.3,0.1,0.6,0.3,0.8c0.2,0.2,0.5,0.3,0.8,0.3s0.6-0.1,0.8-0.3c0.2-0.2,0.3-0.5,0.3-0.8c0-0.3-0.1-0.6-0.3-0.8
		C132.9,31.2,132.7,31.1,132.3,30.8z"/>
	<path class="st17" d="M140.1,33.9c-0.7,0-1.2-0.2-1.6-0.6s-0.6-0.9-0.6-1.5v-3.4h0.5v3.4c0,0.5,0.2,0.9,0.5,1.2
		c0.3,0.3,0.8,0.5,1.3,0.5c0.5,0,0.9-0.2,1.2-0.5c0.3-0.3,0.5-0.7,0.5-1.2v-3.4h0.5v3.4c0,0.6-0.2,1.1-0.6,1.5
		S140.7,33.9,140.1,33.9z"/>
	<path class="st17" d="M144,29.5v4.3h-0.5v-5.5h0.5v0.4c0.5-0.5,1-0.7,1.6-0.7c0.7,0,1.2,0.2,1.6,0.6s0.6,0.9,0.6,1.5v3.7h-0.5v-3.6
		c0-0.5-0.2-0.9-0.5-1.2c-0.3-0.3-0.7-0.5-1.2-0.5c-0.5,0-0.9,0.2-1.2,0.5C144.2,29.1,144,29.3,144,29.5z"/>
	<path class="st17" d="M155,33.8h-0.5v-1.1c-0.1,0.1-0.2,0.3-0.3,0.4c-0.6,0.6-1.3,0.9-2.2,0.9c-0.8,0-1.6-0.3-2.2-0.9
		c-0.6-0.6-0.9-1.3-0.9-2.2c0-0.9,0.3-1.6,0.9-2.2c0.6-0.6,1.3-0.9,2.2-0.9c0.9,0,1.6,0.3,2.2,0.9c0.1,0.1,0.2,0.2,0.3,0.4v-0.8h0.5
		V33.8z M154.5,31.4v-1c-0.1-0.5-0.3-0.9-0.7-1.3c-0.5-0.5-1.1-0.7-1.8-0.7c-0.7,0-1.3,0.3-1.8,0.7s-0.7,1.1-0.7,1.8
		s0.2,1.3,0.7,1.8c0.5,0.5,1.1,0.7,1.8,0.7c0.7,0,1.3-0.3,1.8-0.7C154.1,32.3,154.4,31.9,154.5,31.4z"/>
	<path class="st17" d="M163.8,32.5l0.5,0.2c-0.1,0.1-0.2,0.3-0.3,0.4c-0.6,0.6-1.3,0.9-2.2,0.9c-0.8,0-1.6-0.3-2.2-0.9
		c-0.6-0.6-0.9-1.3-0.9-2.2c0-0.9,0.3-1.6,0.9-2.2c0.6-0.6,1.3-0.9,2.2-0.9c0.9,0,1.6,0.3,2.2,0.9c0.1,0.1,0.2,0.3,0.3,0.4l-0.5,0.2
		c-0.1-0.1-0.1-0.1-0.2-0.2c-0.5-0.5-1.1-0.7-1.8-0.7c-0.7,0-1.3,0.2-1.8,0.7s-0.7,1.1-0.7,1.8c0,0.7,0.2,1.3,0.7,1.8
		s1.1,0.7,1.8,0.7c0.7,0,1.3-0.3,1.8-0.7C163.7,32.6,163.7,32.5,163.8,32.5z"/>
	<path class="st17" d="M168.2,27.8c0.9,0,1.6,0.3,2.2,0.9s0.9,1.3,0.9,2.2c0,0.8-0.3,1.6-0.9,2.2c-0.6,0.6-1.3,0.9-2.2,0.9
		c-0.8,0-1.6-0.3-2.2-0.9c-0.6-0.6-0.9-1.3-0.9-2.2c0-0.9,0.3-1.6,0.9-2.2C166.6,28.1,167.3,27.8,168.2,27.8z M166.4,29.1
		c-0.5,0.5-0.7,1.1-0.7,1.8s0.2,1.3,0.7,1.8c0.5,0.5,1.1,0.7,1.8,0.7c0.7,0,1.3-0.2,1.8-0.7c0.5-0.5,0.7-1.1,0.7-1.8
		s-0.2-1.3-0.7-1.8s-1.1-0.7-1.8-0.7C167.5,28.3,166.9,28.6,166.4,29.1z"/>
	<path class="st17" d="M172.3,28.3h0.5V29c0.1-0.1,0.2-0.3,0.3-0.4c0.6-0.6,1.3-0.9,2.2-0.9c0.9,0,1.6,0.3,2.2,0.9s0.9,1.3,0.9,2.2
		c0,0.8-0.3,1.6-0.9,2.2c-0.6,0.6-1.3,0.9-2.2,0.9c-0.8,0-1.6-0.3-2.2-0.9c-0.1-0.1-0.2-0.2-0.3-0.4v3.2h-0.5V28.3z M172.8,30.3v1.1
		c0.1,0.5,0.3,0.9,0.7,1.3c0.5,0.5,1.1,0.7,1.8,0.7c0.7,0,1.3-0.2,1.8-0.7s0.7-1.1,0.7-1.8s-0.2-1.3-0.7-1.8s-1.1-0.7-1.8-0.7
		c-0.7,0-1.3,0.3-1.8,0.7C173.1,29.4,172.9,29.9,172.8,30.3z"/>
	<path class="st17" d="M180.1,26.5c0.1,0.1,0.1,0.2,0.1,0.3c0,0.1,0,0.3-0.1,0.4s-0.2,0.1-0.4,0.1c-0.1,0-0.3,0-0.4-0.1
		s-0.1-0.2-0.1-0.4c0-0.1,0-0.3,0.1-0.3s0.2-0.1,0.4-0.1C179.9,26.3,180,26.4,180.1,26.5z M180,28.3v5.5h-0.5v-5.5H180z"/>
	<path class="st17" d="M187.3,33.8h-0.5v-1.1c-0.1,0.1-0.2,0.3-0.3,0.4c-0.6,0.6-1.3,0.9-2.2,0.9c-0.8,0-1.6-0.3-2.2-0.9
		c-0.6-0.6-0.9-1.3-0.9-2.2c0-0.9,0.3-1.6,0.9-2.2c0.6-0.6,1.3-0.9,2.2-0.9c0.9,0,1.6,0.3,2.2,0.9c0.1,0.1,0.2,0.2,0.3,0.4v-0.8h0.5
		V33.8z M186.8,31.4v-1c-0.1-0.5-0.3-0.9-0.7-1.3c-0.5-0.5-1.1-0.7-1.8-0.7c-0.7,0-1.3,0.3-1.8,0.7s-0.7,1.1-0.7,1.8
		s0.2,1.3,0.7,1.8c0.5,0.5,1.1,0.7,1.8,0.7c0.7,0,1.3-0.3,1.8-0.7C186.5,32.3,186.7,31.9,186.8,31.4z"/>
	<path class="st17" d="M197.3,33.8h-0.5v-1.1c-0.1,0.1-0.2,0.3-0.3,0.4c-0.6,0.6-1.3,0.9-2.2,0.9c-0.8,0-1.6-0.3-2.2-0.9
		c-0.6-0.6-0.9-1.3-0.9-2.2c0-0.9,0.3-1.6,0.9-2.2c0.6-0.6,1.3-0.9,2.2-0.9c0.9,0,1.6,0.3,2.2,0.9c0.1,0.1,0.2,0.2,0.3,0.4v-4.2h0.5
		V33.8z M196.8,31.4v-1c-0.1-0.5-0.3-0.9-0.7-1.3c-0.5-0.5-1.1-0.7-1.8-0.7c-0.7,0-1.3,0.3-1.8,0.7s-0.7,1.1-0.7,1.8
		s0.2,1.3,0.7,1.8c0.5,0.5,1.1,0.7,1.8,0.7c0.7,0,1.3-0.3,1.8-0.7C196.5,32.3,196.7,31.9,196.8,31.4z"/>
	<path class="st17" d="M198.8,30.6c0,0.1,0,0.2,0,0.3c0,0.7,0.2,1.3,0.7,1.8c0.5,0.5,1.1,0.7,1.8,0.7c0.7,0,1.3-0.3,1.8-0.7
		c0.1-0.1,0.2-0.2,0.2-0.3l0.5,0.2c-0.1,0.1-0.2,0.3-0.4,0.5c-0.6,0.6-1.3,0.9-2.2,0.9c-0.8,0-1.6-0.3-2.2-0.9
		c-0.6-0.6-0.9-1.3-0.9-2.2c0-0.9,0.3-1.6,0.9-2.2c0.6-0.6,1.3-0.9,2.2-0.9c0.9,0,1.6,0.3,2.2,0.9c0.5,0.5,0.8,1.2,0.8,1.9H198.8z
		 M198.9,30.1h4.8c-0.1-0.4-0.3-0.7-0.6-1c-0.5-0.5-1.1-0.7-1.8-0.7c-0.7,0-1.3,0.3-1.8,0.7C199.2,29.4,199,29.7,198.9,30.1z"/>
	<path class="st17" d="M16.4,46.4c-0.4-0.2-0.7-0.4-0.9-0.6c-0.3-0.3-0.4-0.6-0.4-0.9c0-0.4,0.1-0.7,0.4-0.9
		c0.3-0.3,0.6-0.4,0.9-0.4s0.7,0.1,0.9,0.4c0.2,0.2,0.3,0.5,0.3,0.8v0l-0.4,0.2c0-0.3-0.1-0.5-0.3-0.6s-0.3-0.2-0.6-0.2
		c-0.2,0-0.4,0.1-0.6,0.2c-0.2,0.2-0.2,0.4-0.2,0.6c0,0.2,0.1,0.4,0.2,0.6c0.1,0.1,0.3,0.2,0.6,0.4c0.5,0.3,0.8,0.5,1,0.7
		c0.3,0.3,0.5,0.7,0.5,1.1c0,0.5-0.2,0.8-0.5,1.2s-0.7,0.5-1.2,0.5c-0.5,0-0.8-0.2-1.2-0.5s-0.5-0.7-0.5-1.1l0.5-0.1
		c0,0.3,0.1,0.6,0.3,0.8c0.2,0.2,0.5,0.3,0.8,0.3c0.3,0,0.6-0.1,0.8-0.3c0.2-0.2,0.3-0.5,0.3-0.8c0-0.3-0.1-0.6-0.3-0.8
		C17,46.8,16.7,46.7,16.4,46.4z"/>
	<path class="st17" d="M19.3,46.2c0,0.1,0,0.2,0,0.3c0,0.7,0.2,1.3,0.7,1.8c0.5,0.5,1.1,0.7,1.8,0.7s1.3-0.3,1.8-0.7
		c0.1-0.1,0.2-0.2,0.2-0.3l0.5,0.2c-0.1,0.1-0.2,0.3-0.4,0.5c-0.6,0.6-1.3,0.9-2.2,0.9c-0.8,0-1.6-0.3-2.2-0.9
		c-0.6-0.6-0.9-1.3-0.9-2.2c0-0.9,0.3-1.6,0.9-2.2c0.6-0.6,1.3-0.9,2.2-0.9c0.9,0,1.6,0.3,2.2,0.9c0.5,0.5,0.8,1.2,0.8,1.9H19.3z
		 M19.4,45.7h4.8c-0.1-0.4-0.3-0.7-0.6-1c-0.5-0.5-1.1-0.7-1.8-0.7s-1.3,0.3-1.8,0.7C19.7,45,19.5,45.3,19.4,45.7z"/>
	<path class="st17" d="M30.9,48.3c-0.1,0.1-0.2,0.2-0.3,0.3c-0.6,0.6-1.3,0.9-2.2,0.9c-0.8,0-1.6-0.3-2.2-0.9
		c-0.6-0.6-0.9-1.3-0.9-2.2c0-0.9,0.3-1.6,0.9-2.2c0.6-0.6,1.3-0.9,2.2-0.9c0.9,0,1.6,0.3,2.2,0.9c0.1,0.1,0.2,0.2,0.3,0.4v-0.8h0.5
		v4.3c0,0.8-0.3,1.5-0.9,2.1c-0.6,0.6-1.3,0.9-2.2,0.9s-1.6-0.3-2.2-0.9c-0.1-0.1-0.2-0.3-0.3-0.4l0.5-0.2c0.1,0.1,0.1,0.1,0.2,0.2
		c0.5,0.5,1.1,0.7,1.8,0.7c0.7,0,1.3-0.3,1.8-0.7C30.6,49.4,30.9,48.9,30.9,48.3z M30.9,45.9c-0.1-0.5-0.3-0.9-0.7-1.3
		c-0.5-0.5-1.1-0.7-1.8-0.7s-1.3,0.3-1.8,0.7c-0.5,0.5-0.7,1.1-0.7,1.8s0.2,1.3,0.7,1.8c0.5,0.5,1.1,0.7,1.8,0.7s1.3-0.2,1.8-0.7
		c0.4-0.4,0.6-0.8,0.7-1.3V45.9z"/>
	<path class="st17" d="M34.7,49.5c-0.7,0-1.2-0.2-1.6-0.6s-0.6-0.9-0.6-1.5v-3.4H33v3.4c0,0.5,0.2,0.9,0.5,1.2
		c0.3,0.3,0.8,0.5,1.3,0.5c0.5,0,0.9-0.2,1.2-0.5c0.3-0.3,0.5-0.7,0.5-1.2v-3.4h0.5v3.4c0,0.6-0.2,1.1-0.6,1.5S35.4,49.5,34.7,49.5z
		"/>
	<path class="st17" d="M40.1,44.3c-0.4,0.1-0.7,0.3-1.1,0.7s-0.5,0.8-0.5,1.2v3.2H38v-5.5h0.5v1.2c0.2-0.6,0.6-1,1.3-1.2L40.1,44.3z
		"/>
	<path class="st17" d="M41.4,42.1c0.1,0.1,0.1,0.2,0.1,0.3c0,0.1,0,0.3-0.1,0.4c-0.1,0.1-0.2,0.1-0.4,0.1c-0.1,0-0.3,0-0.4-0.1
		c-0.1-0.1-0.1-0.2-0.1-0.4c0-0.1,0-0.3,0.1-0.3c0.1-0.1,0.2-0.1,0.4-0.1C41.2,41.9,41.3,42,41.4,42.1z M41.3,43.9v5.5h-0.5v-5.5
		H41.3z"/>
	<path class="st17" d="M48.6,49.4h-0.5v-1.1c-0.1,0.1-0.2,0.3-0.3,0.4c-0.6,0.6-1.3,0.9-2.2,0.9c-0.8,0-1.6-0.3-2.2-0.9
		c-0.6-0.6-0.9-1.3-0.9-2.2c0-0.9,0.3-1.6,0.9-2.2c0.6-0.6,1.3-0.9,2.2-0.9c0.9,0,1.6,0.3,2.2,0.9c0.1,0.1,0.2,0.2,0.3,0.4v-4.2h0.5
		V49.4z M48.1,47v-1c-0.1-0.5-0.3-0.9-0.7-1.3c-0.5-0.5-1.1-0.7-1.8-0.7s-1.3,0.3-1.8,0.7c-0.5,0.5-0.7,1.1-0.7,1.8s0.2,1.3,0.7,1.8
		c0.5,0.5,1.1,0.7,1.8,0.7s1.3-0.3,1.8-0.7C47.8,47.9,48,47.5,48.1,47z"/>
	<path class="st17" d="M55.8,49.4h-0.5v-1.1c-0.1,0.1-0.2,0.3-0.3,0.4c-0.6,0.6-1.3,0.9-2.2,0.9c-0.8,0-1.6-0.3-2.2-0.9
		c-0.6-0.6-0.9-1.3-0.9-2.2c0-0.9,0.3-1.6,0.9-2.2c0.6-0.6,1.3-0.9,2.2-0.9c0.9,0,1.6,0.3,2.2,0.9c0.1,0.1,0.2,0.2,0.3,0.4v-0.8h0.5
		V49.4z M55.2,47v-1c-0.1-0.5-0.3-0.9-0.7-1.3c-0.5-0.5-1.1-0.7-1.8-0.7s-1.3,0.3-1.8,0.7c-0.5,0.5-0.7,1.1-0.7,1.8s0.2,1.3,0.7,1.8
		c0.5,0.5,1.1,0.7,1.8,0.7s1.3-0.3,1.8-0.7C54.9,47.9,55.2,47.5,55.2,47z"/>
	<path class="st17" d="M62.9,49.4h-0.5v-1.1c-0.1,0.1-0.2,0.3-0.3,0.4c-0.6,0.6-1.3,0.9-2.2,0.9c-0.8,0-1.6-0.3-2.2-0.9
		c-0.6-0.6-0.9-1.3-0.9-2.2c0-0.9,0.3-1.6,0.9-2.2c0.6-0.6,1.3-0.9,2.2-0.9c0.9,0,1.6,0.3,2.2,0.9c0.1,0.1,0.2,0.2,0.3,0.4v-4.2h0.5
		V49.4z M62.4,47v-1c-0.1-0.5-0.3-0.9-0.7-1.3c-0.5-0.5-1.1-0.7-1.8-0.7c-0.7,0-1.3,0.3-1.8,0.7c-0.5,0.5-0.7,1.1-0.7,1.8
		s0.3,1.3,0.7,1.8c0.5,0.5,1.1,0.7,1.8,0.7c0.7,0,1.3-0.3,1.8-0.7C62,47.9,62.3,47.5,62.4,47z"/>
	<path class="st17" d="M73.2,49.4h-0.5v-1.1c-0.1,0.1-0.2,0.3-0.3,0.4c-0.6,0.6-1.3,0.9-2.2,0.9c-0.8,0-1.6-0.3-2.2-0.9
		c-0.6-0.6-0.9-1.3-0.9-2.2c0-0.9,0.3-1.6,0.9-2.2c0.6-0.6,1.3-0.9,2.2-0.9c0.9,0,1.6,0.3,2.2,0.9c0.1,0.1,0.2,0.2,0.3,0.4v-4.2h0.5
		V49.4z M72.7,47v-1c-0.1-0.5-0.3-0.9-0.7-1.3c-0.5-0.5-1.1-0.7-1.8-0.7c-0.7,0-1.3,0.3-1.8,0.7s-0.7,1.1-0.7,1.8s0.2,1.3,0.7,1.8
		c0.5,0.5,1.1,0.7,1.8,0.7c0.7,0,1.3-0.3,1.8-0.7C72.4,47.9,72.6,47.5,72.7,47z"/>
	<path class="st17" d="M74.6,46.2c0,0.1,0,0.2,0,0.3c0,0.7,0.2,1.3,0.7,1.8c0.5,0.5,1.1,0.7,1.8,0.7c0.7,0,1.3-0.3,1.8-0.7
		c0.1-0.1,0.2-0.2,0.2-0.3l0.5,0.2c-0.1,0.1-0.2,0.3-0.4,0.5c-0.6,0.6-1.3,0.9-2.2,0.9c-0.8,0-1.6-0.3-2.2-0.9
		c-0.6-0.6-0.9-1.3-0.9-2.2c0-0.9,0.3-1.6,0.9-2.2c0.6-0.6,1.3-0.9,2.2-0.9c0.9,0,1.6,0.3,2.2,0.9c0.5,0.5,0.8,1.2,0.8,1.9H74.6z
		 M74.7,45.7h4.8c-0.1-0.4-0.3-0.7-0.6-1c-0.5-0.5-1.1-0.7-1.8-0.7c-0.7,0-1.3,0.3-1.8,0.7C75.1,45,74.9,45.3,74.7,45.7z"/>
	<path class="st17" d="M84.8,40.4v9h-0.5v-9H84.8z"/>
	<path class="st17" d="M92,49.4h-0.5v-1.1c-0.1,0.1-0.2,0.3-0.3,0.4c-0.6,0.6-1.3,0.9-2.2,0.9c-0.8,0-1.6-0.3-2.2-0.9
		c-0.6-0.6-0.9-1.3-0.9-2.2c0-0.9,0.3-1.6,0.9-2.2c0.6-0.6,1.3-0.9,2.2-0.9c0.9,0,1.6,0.3,2.2,0.9c0.1,0.1,0.2,0.2,0.3,0.4v-0.8H92
		V49.4z M91.5,47v-1c-0.1-0.5-0.3-0.9-0.7-1.3c-0.5-0.5-1.1-0.7-1.8-0.7c-0.7,0-1.3,0.3-1.8,0.7s-0.7,1.1-0.7,1.8s0.2,1.3,0.7,1.8
		c0.5,0.5,1.1,0.7,1.8,0.7c0.7,0,1.3-0.3,1.8-0.7C91.2,47.9,91.4,47.5,91.5,47z"/>
	<path class="st17" d="M97.2,42.1c0.1,0.1,0.1,0.2,0.1,0.3c0,0.1,0,0.3-0.1,0.4s-0.2,0.1-0.4,0.1c-0.1,0-0.3,0-0.4-0.1
		s-0.1-0.2-0.1-0.4c0-0.1,0-0.3,0.1-0.3s0.2-0.1,0.4-0.1C96.9,41.9,97.1,42,97.2,42.1z M97.1,43.9v5.5h-0.5v-5.5H97.1z"/>
	<path class="st17" d="M98.9,45.1v4.3h-0.5v-5.5h0.5v0.4c0.5-0.5,1-0.7,1.6-0.7c0.7,0,1.2,0.2,1.6,0.6s0.6,0.9,0.6,1.5v3.7h-0.5
		v-3.6c0-0.5-0.2-0.9-0.5-1.2c-0.3-0.3-0.7-0.5-1.2-0.5c-0.5,0-0.9,0.2-1.2,0.5C99.2,44.7,99,44.9,98.9,45.1z"/>
	<path class="st17" d="M104.6,44.4v5h-0.5v-5h-0.6v-0.5h0.6v-1.5c0-0.4,0.2-0.8,0.5-1.1c0.3-0.3,0.7-0.4,1.1-0.4
		c0.2,0,0.4,0,0.7,0.1l-0.2,0.5c-0.2-0.1-0.3-0.1-0.5-0.1c-0.3,0-0.5,0.1-0.7,0.3c-0.2,0.2-0.3,0.5-0.3,0.8v1.5h1.1v0.5H104.6z"/>
	<path class="st17" d="M109.4,43.4c0.9,0,1.6,0.3,2.2,0.9s0.9,1.3,0.9,2.2c0,0.8-0.3,1.6-0.9,2.2c-0.6,0.6-1.3,0.9-2.2,0.9
		c-0.8,0-1.6-0.3-2.2-0.9c-0.6-0.6-0.9-1.3-0.9-2.2c0-0.9,0.3-1.6,0.9-2.2C107.8,43.7,108.5,43.4,109.4,43.4z M107.6,44.7
		c-0.5,0.5-0.7,1.1-0.7,1.8s0.2,1.3,0.7,1.8c0.5,0.5,1.1,0.7,1.8,0.7c0.7,0,1.3-0.2,1.8-0.7c0.5-0.5,0.7-1.1,0.7-1.8
		s-0.2-1.3-0.7-1.8s-1.1-0.7-1.8-0.7C108.7,43.9,108.1,44.2,107.6,44.7z"/>
	<path class="st17" d="M115.5,44.3c-0.4,0.1-0.7,0.3-1.1,0.7c-0.3,0.4-0.5,0.8-0.5,1.2v3.2h-0.5v-5.5h0.5v1.2c0.2-0.6,0.6-1,1.3-1.2
		L115.5,44.3z"/>
	<path class="st17" d="M116.1,43.9h0.5V44c0.3-0.3,0.7-0.5,1.1-0.5c0.5,0,0.8,0.2,1.2,0.5c0.1,0.1,0.2,0.2,0.2,0.3
		c0.1-0.1,0.1-0.2,0.2-0.3c0.3-0.3,0.7-0.5,1.2-0.5s0.8,0.2,1.2,0.5c0.3,0.3,0.5,0.7,0.5,1.1v4.3h-0.5v-4.3h0c0-0.3-0.1-0.5-0.3-0.7
		c-0.2-0.2-0.5-0.3-0.8-0.3c-0.3,0-0.6,0.1-0.8,0.3c-0.2,0.2-0.3,0.5-0.3,0.8v4.2h-0.5v-4.3h0c0-0.3-0.1-0.5-0.3-0.7
		c-0.2-0.2-0.5-0.3-0.8-0.3s-0.6,0.1-0.8,0.3c-0.2,0.2-0.3,0.4-0.3,0.7v4.3h-0.5V43.9z"/>
	<path class="st17" d="M129.3,49.4h-0.5v-1.1c-0.1,0.1-0.2,0.3-0.3,0.4c-0.6,0.6-1.3,0.9-2.2,0.9c-0.8,0-1.6-0.3-2.2-0.9
		c-0.6-0.6-0.9-1.3-0.9-2.2c0-0.9,0.3-1.6,0.9-2.2c0.6-0.6,1.3-0.9,2.2-0.9c0.9,0,1.6,0.3,2.2,0.9c0.1,0.1,0.2,0.2,0.3,0.4v-0.8h0.5
		V49.4z M128.8,47v-1c-0.1-0.5-0.3-0.9-0.7-1.3c-0.5-0.5-1.1-0.7-1.8-0.7c-0.7,0-1.3,0.3-1.8,0.7s-0.7,1.1-0.7,1.8s0.2,1.3,0.7,1.8
		c0.5,0.5,1.1,0.7,1.8,0.7c0.7,0,1.3-0.3,1.8-0.7C128.5,47.9,128.7,47.5,128.8,47z"/>
	<path class="st17" d="M135.3,48.1l0.5,0.2c-0.1,0.1-0.2,0.3-0.3,0.4c-0.6,0.6-1.3,0.9-2.2,0.9c-0.8,0-1.6-0.3-2.2-0.9
		c-0.6-0.6-0.9-1.3-0.9-2.2c0-0.9,0.3-1.6,0.9-2.2c0.6-0.6,1.3-0.9,2.2-0.9c0.9,0,1.6,0.3,2.2,0.9c0.1,0.1,0.2,0.3,0.3,0.4l-0.5,0.2
		c-0.1-0.1-0.1-0.1-0.2-0.2c-0.5-0.5-1.1-0.7-1.8-0.7c-0.7,0-1.3,0.2-1.8,0.7s-0.7,1.1-0.7,1.8c0,0.7,0.2,1.3,0.7,1.8
		s1.1,0.7,1.8,0.7c0.7,0,1.3-0.3,1.8-0.7C135.2,48.2,135.2,48.1,135.3,48.1z"/>
	<path class="st17" d="M137.5,42.1c0.1,0.1,0.1,0.2,0.1,0.3c0,0.1,0,0.3-0.1,0.4s-0.2,0.1-0.4,0.1c-0.1,0-0.3,0-0.4-0.1
		s-0.1-0.2-0.1-0.4c0-0.1,0-0.3,0.1-0.3s0.2-0.1,0.4-0.1C137.3,41.9,137.4,42,137.5,42.1z M137.4,43.9v5.5h-0.5v-5.5H137.4z"/>
	<path class="st17" d="M141.7,43.4c0.9,0,1.6,0.3,2.2,0.9s0.9,1.3,0.9,2.2c0,0.8-0.3,1.6-0.9,2.2c-0.6,0.6-1.3,0.9-2.2,0.9
		c-0.8,0-1.6-0.3-2.2-0.9c-0.6-0.6-0.9-1.3-0.9-2.2c0-0.9,0.3-1.6,0.9-2.2C140.1,43.7,140.8,43.4,141.7,43.4z M139.9,44.7
		c-0.5,0.5-0.7,1.1-0.7,1.8s0.2,1.3,0.7,1.8c0.5,0.5,1.1,0.7,1.8,0.7c0.7,0,1.3-0.2,1.8-0.7c0.5-0.5,0.7-1.1,0.7-1.8
		s-0.2-1.3-0.7-1.8s-1.1-0.7-1.8-0.7C141,43.9,140.4,44.2,139.9,44.7z M142.9,41.7l-1.4,1h-0.5l0.9-1H142.9z"/>
	<path class="st17" d="M146.4,45.1v4.3h-0.5v-5.5h0.5v0.4c0.5-0.5,1-0.7,1.6-0.7c0.7,0,1.2,0.2,1.6,0.6s0.6,0.9,0.6,1.5v3.7h-0.5
		v-3.6c0-0.5-0.2-0.9-0.5-1.2c-0.3-0.3-0.7-0.5-1.2-0.5c-0.5,0-0.9,0.2-1.2,0.5C146.6,44.7,146.4,44.9,146.4,45.1z"/>
	<path class="st17" d="M159.4,48.1l0.5,0.2c-0.1,0.1-0.2,0.3-0.3,0.4c-0.6,0.6-1.3,0.9-2.2,0.9c-0.8,0-1.6-0.3-2.2-0.9
		c-0.6-0.6-0.9-1.3-0.9-2.2c0-0.9,0.3-1.6,0.9-2.2c0.6-0.6,1.3-0.9,2.2-0.9c0.9,0,1.6,0.3,2.2,0.9c0.1,0.1,0.2,0.3,0.3,0.4l-0.5,0.2
		c-0.1-0.1-0.1-0.1-0.2-0.2c-0.5-0.5-1.1-0.7-1.8-0.7c-0.7,0-1.3,0.2-1.8,0.7s-0.7,1.1-0.7,1.8c0,0.7,0.2,1.3,0.7,1.8
		s1.1,0.7,1.8,0.7c0.7,0,1.3-0.3,1.8-0.7C159.3,48.2,159.3,48.1,159.4,48.1z"/>
	<path class="st17" d="M163.8,43.4c0.9,0,1.6,0.3,2.2,0.9s0.9,1.3,0.9,2.2c0,0.8-0.3,1.6-0.9,2.2c-0.6,0.6-1.3,0.9-2.2,0.9
		c-0.8,0-1.6-0.3-2.2-0.9c-0.6-0.6-0.9-1.3-0.9-2.2c0-0.9,0.3-1.6,0.9-2.2C162.2,43.7,162.9,43.4,163.8,43.4z M162,44.7
		c-0.5,0.5-0.7,1.1-0.7,1.8s0.2,1.3,0.7,1.8c0.5,0.5,1.1,0.7,1.8,0.7c0.7,0,1.3-0.2,1.8-0.7c0.5-0.5,0.7-1.1,0.7-1.8
		s-0.2-1.3-0.7-1.8s-1.1-0.7-1.8-0.7C163.1,43.9,162.5,44.2,162,44.7z"/>
	<path class="st17" d="M168.5,45.1v4.3h-0.5v-5.5h0.5v0.4c0.5-0.5,1-0.7,1.6-0.7c0.7,0,1.2,0.2,1.6,0.6s0.6,0.9,0.6,1.5v3.7h-0.5
		v-3.6c0-0.5-0.2-0.9-0.5-1.2c-0.3-0.3-0.7-0.5-1.2-0.5c-0.5,0-0.9,0.2-1.2,0.5C168.7,44.7,168.5,44.9,168.5,45.1z"/>
	<path class="st17" d="M174.2,43.9v-2.3h0.5v2.3h1.1v0.5h-1.1v5h-0.5v-5h-1.1v-0.5H174.2z"/>
	<path class="st17" d="M176.9,46.2c0,0.1,0,0.2,0,0.3c0,0.7,0.2,1.3,0.7,1.8c0.5,0.5,1.1,0.7,1.8,0.7c0.7,0,1.3-0.3,1.8-0.7
		c0.1-0.1,0.2-0.2,0.2-0.3l0.5,0.2c-0.1,0.1-0.2,0.3-0.4,0.5c-0.6,0.6-1.3,0.9-2.2,0.9c-0.8,0-1.6-0.3-2.2-0.9
		c-0.6-0.6-0.9-1.3-0.9-2.2c0-0.9,0.3-1.6,0.9-2.2c0.6-0.6,1.3-0.9,2.2-0.9c0.9,0,1.6,0.3,2.2,0.9c0.5,0.5,0.8,1.2,0.8,1.9H176.9z
		 M177,45.7h4.8c-0.1-0.4-0.3-0.7-0.6-1c-0.5-0.5-1.1-0.7-1.8-0.7c-0.7,0-1.3,0.3-1.8,0.7C177.4,45,177.1,45.3,177,45.7z"/>
	<path class="st17" d="M183.8,45.1v4.3h-0.5v-5.5h0.5v0.4c0.5-0.5,1-0.7,1.6-0.7c0.7,0,1.2,0.2,1.6,0.6s0.6,0.9,0.6,1.5v3.7h-0.5
		v-3.6c0-0.5-0.2-0.9-0.5-1.2c-0.3-0.3-0.7-0.5-1.2-0.5c-0.5,0-0.9,0.2-1.2,0.5C184,44.7,183.9,44.9,183.8,45.1z"/>
	<path class="st17" d="M189.6,42.1c0.1,0.1,0.1,0.2,0.1,0.3c0,0.1,0,0.3-0.1,0.4s-0.2,0.1-0.4,0.1c-0.1,0-0.3,0-0.4-0.1
		s-0.1-0.2-0.1-0.4c0-0.1,0-0.3,0.1-0.3s0.2-0.1,0.4-0.1C189.4,41.9,189.5,42,189.6,42.1z M189.5,43.9v5.5H189v-5.5H189.5z"/>
	<path class="st17" d="M196.8,49.4h-0.5v-1.1c-0.1,0.1-0.2,0.3-0.3,0.4c-0.6,0.6-1.3,0.9-2.2,0.9c-0.8,0-1.6-0.3-2.2-0.9
		c-0.6-0.6-0.9-1.3-0.9-2.2c0-0.9,0.3-1.6,0.9-2.2c0.6-0.6,1.3-0.9,2.2-0.9c0.9,0,1.6,0.3,2.2,0.9c0.1,0.1,0.2,0.2,0.3,0.4v-4.2h0.5
		V49.4z M196.3,47v-1c-0.1-0.5-0.3-0.9-0.7-1.3c-0.5-0.5-1.1-0.7-1.8-0.7c-0.7,0-1.3,0.3-1.8,0.7s-0.7,1.1-0.7,1.8s0.2,1.3,0.7,1.8
		c0.5,0.5,1.1,0.7,1.8,0.7c0.7,0,1.3-0.3,1.8-0.7C196,47.9,196.2,47.5,196.3,47z"/>
	<path class="st17" d="M203.9,49.4h-0.5v-1.1c-0.1,0.1-0.2,0.3-0.3,0.4c-0.6,0.6-1.3,0.9-2.2,0.9c-0.8,0-1.6-0.3-2.2-0.9
		c-0.6-0.6-0.9-1.3-0.9-2.2c0-0.9,0.3-1.6,0.9-2.2c0.6-0.6,1.3-0.9,2.2-0.9c0.9,0,1.6,0.3,2.2,0.9c0.1,0.1,0.2,0.2,0.3,0.4v-0.8h0.5
		V49.4z M203.4,47v-1c-0.1-0.5-0.3-0.9-0.7-1.3c-0.5-0.5-1.1-0.7-1.8-0.7c-0.7,0-1.3,0.3-1.8,0.7s-0.7,1.1-0.7,1.8s0.2,1.3,0.7,1.8
		c0.5,0.5,1.1,0.7,1.8,0.7c0.7,0,1.3-0.3,1.8-0.7C203.1,47.9,203.3,47.5,203.4,47z"/>
	<path class="st17" d="M15.2,61.8c0,0.1,0,0.2,0,0.3c0,0.7,0.2,1.3,0.7,1.8c0.5,0.5,1.1,0.7,1.8,0.7s1.3-0.3,1.8-0.7
		c0.1-0.1,0.2-0.2,0.2-0.3l0.5,0.2c-0.1,0.1-0.2,0.3-0.4,0.5c-0.6,0.6-1.3,0.9-2.2,0.9c-0.8,0-1.6-0.3-2.2-0.9
		c-0.6-0.6-0.9-1.3-0.9-2.2c0-0.9,0.3-1.6,0.9-2.2c0.6-0.6,1.3-0.9,2.2-0.9c0.9,0,1.6,0.3,2.2,0.9c0.5,0.5,0.8,1.2,0.8,1.9H15.2z
		 M15.3,61.3h4.8c-0.1-0.4-0.3-0.7-0.6-1c-0.5-0.5-1.1-0.7-1.8-0.7s-1.3,0.3-1.8,0.7C15.6,60.6,15.4,60.9,15.3,61.3z"/>
	<path class="st17" d="M22.1,60.7V65h-0.5v-5.5h0.5v0.4c0.5-0.5,1-0.7,1.6-0.7c0.7,0,1.2,0.2,1.6,0.6c0.4,0.4,0.6,0.9,0.6,1.5V65
		h-0.5v-3.6c0-0.5-0.2-0.9-0.5-1.2s-0.7-0.5-1.2-0.5c-0.5,0-0.9,0.2-1.2,0.5C22.3,60.3,22.2,60.5,22.1,60.7z"/>
	<path class="st17" d="M30.4,61.8c0,0.1,0,0.2,0,0.3c0,0.7,0.2,1.3,0.7,1.8c0.5,0.5,1.1,0.7,1.8,0.7s1.3-0.3,1.8-0.7
		c0.1-0.1,0.2-0.2,0.2-0.3l0.5,0.2c-0.1,0.1-0.2,0.3-0.4,0.5c-0.6,0.6-1.3,0.9-2.2,0.9c-0.8,0-1.6-0.3-2.2-0.9
		c-0.6-0.6-0.9-1.3-0.9-2.2c0-0.9,0.3-1.6,0.9-2.2c0.6-0.6,1.3-0.9,2.2-0.9c0.9,0,1.6,0.3,2.2,0.9c0.5,0.5,0.8,1.2,0.8,1.9H30.4z
		 M30.5,61.3h4.8c-0.1-0.4-0.3-0.7-0.6-1c-0.5-0.5-1.1-0.7-1.8-0.7s-1.3,0.3-1.8,0.7C30.8,60.6,30.6,60.9,30.5,61.3z"/>
	<path class="st17" d="M37.3,56v9h-0.5v-9H37.3z"/>
	<path class="st17" d="M43.1,62c-0.4-0.2-0.7-0.4-0.9-0.6c-0.3-0.3-0.4-0.6-0.4-0.9c0-0.4,0.1-0.7,0.4-0.9c0.3-0.3,0.6-0.4,0.9-0.4
		s0.7,0.1,0.9,0.4c0.2,0.2,0.3,0.5,0.3,0.8v0l-0.4,0.2c0-0.3-0.1-0.5-0.3-0.6s-0.3-0.2-0.6-0.2c-0.2,0-0.4,0.1-0.6,0.2
		s-0.2,0.4-0.2,0.6c0,0.2,0.1,0.4,0.2,0.6c0.1,0.1,0.3,0.2,0.6,0.4c0.5,0.3,0.8,0.5,1,0.7c0.3,0.3,0.5,0.7,0.5,1.1
		c0,0.5-0.2,0.8-0.5,1.2S43.4,65,43,65s-0.8-0.2-1.2-0.5s-0.5-0.7-0.5-1.1l0.5-0.1c0,0.3,0.1,0.6,0.3,0.8c0.2,0.2,0.5,0.3,0.8,0.3
		s0.6-0.1,0.8-0.3c0.2-0.2,0.3-0.5,0.3-0.8c0-0.3-0.1-0.6-0.3-0.8C43.7,62.4,43.4,62.3,43.1,62z"/>
	<path class="st17" d="M46.4,57.7c0.1,0.1,0.1,0.2,0.1,0.3c0,0.1,0,0.3-0.1,0.4c-0.1,0.1-0.2,0.1-0.4,0.1c-0.1,0-0.3,0-0.4-0.1
		c-0.1-0.1-0.1-0.2-0.1-0.4c0-0.1,0-0.3,0.1-0.3c0.1-0.1,0.2-0.1,0.4-0.1C46.2,57.5,46.3,57.6,46.4,57.7z M46.3,59.5V65h-0.5v-5.5
		H46.3z"/>
	<path class="st17" d="M49.2,62c-0.4-0.2-0.7-0.4-0.9-0.6c-0.3-0.3-0.4-0.6-0.4-0.9c0-0.4,0.1-0.7,0.4-0.9c0.3-0.3,0.6-0.4,0.9-0.4
		s0.7,0.1,0.9,0.4c0.2,0.2,0.3,0.5,0.3,0.8v0L50,60.5c0-0.3-0.1-0.5-0.3-0.6s-0.3-0.2-0.6-0.2c-0.2,0-0.4,0.1-0.6,0.2
		s-0.2,0.4-0.2,0.6c0,0.2,0.1,0.4,0.2,0.6c0.1,0.1,0.3,0.2,0.6,0.4c0.5,0.3,0.8,0.5,1,0.7c0.3,0.3,0.5,0.7,0.5,1.1
		c0,0.5-0.2,0.8-0.5,1.2S49.5,65,49.1,65s-0.8-0.2-1.2-0.5s-0.5-0.7-0.5-1.1l0.5-0.1c0,0.3,0.1,0.6,0.3,0.8c0.2,0.2,0.5,0.3,0.8,0.3
		s0.6-0.1,0.8-0.3c0.2-0.2,0.3-0.5,0.3-0.8c0-0.3-0.1-0.6-0.3-0.8C49.8,62.4,49.5,62.3,49.2,62z"/>
	<path class="st17" d="M52.5,59.5v-2.3H53v2.3h1.1V60H53v5h-0.5v-5h-1.1v-0.5H52.5z"/>
	<path class="st17" d="M55.2,61.8c0,0.1,0,0.2,0,0.3c0,0.7,0.2,1.3,0.7,1.8c0.5,0.5,1.1,0.7,1.8,0.7c0.7,0,1.3-0.3,1.8-0.7
		c0.1-0.1,0.2-0.2,0.2-0.3l0.5,0.2c-0.1,0.1-0.2,0.3-0.4,0.5c-0.6,0.6-1.3,0.9-2.2,0.9c-0.8,0-1.6-0.3-2.2-0.9
		c-0.6-0.6-0.9-1.3-0.9-2.2c0-0.9,0.3-1.6,0.9-2.2c0.6-0.6,1.3-0.9,2.2-0.9c0.9,0,1.6,0.3,2.2,0.9c0.5,0.5,0.8,1.2,0.8,1.9H55.2z
		 M55.3,61.3h4.8c-0.1-0.4-0.3-0.7-0.6-1c-0.5-0.5-1.1-0.7-1.8-0.7c-0.7,0-1.3,0.3-1.8,0.7C55.6,60.6,55.4,60.9,55.3,61.3z"/>
	<path class="st17" d="M61.6,59.5h0.5v0.1c0.3-0.3,0.7-0.5,1.1-0.5c0.5,0,0.8,0.2,1.2,0.5c0.1,0.1,0.2,0.2,0.2,0.3
		c0.1-0.1,0.1-0.2,0.2-0.3c0.3-0.3,0.7-0.5,1.2-0.5s0.8,0.2,1.2,0.5c0.3,0.3,0.5,0.7,0.5,1.1V65h-0.5v-4.3h0c0-0.3-0.1-0.5-0.3-0.7
		c-0.2-0.2-0.5-0.3-0.8-0.3c-0.3,0-0.6,0.1-0.8,0.3c-0.2,0.2-0.3,0.5-0.3,0.8V65h-0.5v-4.3h0c0-0.3-0.1-0.5-0.3-0.7
		c-0.2-0.2-0.5-0.3-0.8-0.3s-0.6,0.1-0.8,0.3c-0.2,0.2-0.3,0.4-0.3,0.7V65h-0.5V59.5z"/>
	<path class="st17" d="M74.8,65h-0.5v-1.1c-0.1,0.1-0.2,0.3-0.3,0.4c-0.6,0.6-1.3,0.9-2.2,0.9c-0.8,0-1.6-0.3-2.2-0.9
		c-0.6-0.6-0.9-1.3-0.9-2.2c0-0.9,0.3-1.6,0.9-2.2c0.6-0.6,1.3-0.9,2.2-0.9c0.9,0,1.6,0.3,2.2,0.9c0.1,0.1,0.2,0.2,0.3,0.4v-0.8h0.5
		V65z M74.3,62.6v-1c-0.1-0.5-0.3-0.9-0.7-1.3c-0.5-0.5-1.1-0.7-1.8-0.7c-0.7,0-1.3,0.3-1.8,0.7s-0.7,1.1-0.7,1.8s0.2,1.3,0.7,1.8
		c0.5,0.5,1.1,0.7,1.8,0.7c0.7,0,1.3-0.3,1.8-0.7C74,63.5,74.2,63.1,74.3,62.6z"/>
	<path class="st17" d="M79.6,67.1h-0.6l1.5-3.1l-2.1-4.5H79l1.8,3.8l1.8-3.8h0.6L79.6,67.1z"/>
	<path class="st17" d="M92.7,67.1h-0.5v-3.2c-0.1,0.1-0.2,0.3-0.3,0.4c-0.6,0.6-1.3,0.9-2.2,0.9c-0.8,0-1.6-0.3-2.2-0.9
		c-0.6-0.6-0.9-1.3-0.9-2.2c0-0.9,0.3-1.6,0.9-2.2c0.6-0.6,1.3-0.9,2.2-0.9c0.9,0,1.6,0.3,2.2,0.9c0.1,0.1,0.2,0.2,0.3,0.4v-0.8h0.5
		V67.1z M92.2,62.6v-1c-0.1-0.5-0.3-0.9-0.7-1.3c-0.5-0.5-1.1-0.7-1.8-0.7c-0.7,0-1.3,0.3-1.8,0.7s-0.7,1.1-0.7,1.8s0.2,1.3,0.7,1.8
		c0.5,0.5,1.1,0.7,1.8,0.7c0.7,0,1.3-0.2,1.8-0.7C91.9,63.5,92.1,63.1,92.2,62.6z"/>
	<path class="st17" d="M96.1,65.1c-0.7,0-1.2-0.2-1.6-0.6s-0.6-0.9-0.6-1.5v-3.4h0.5v3.4c0,0.5,0.2,0.9,0.5,1.2
		c0.3,0.3,0.8,0.5,1.3,0.5c0.5,0,0.9-0.2,1.2-0.5c0.3-0.3,0.5-0.7,0.5-1.2v-3.4h0.5v3.4c0,0.6-0.2,1.1-0.6,1.5S96.8,65.1,96.1,65.1z
		"/>
	<path class="st17" d="M99.8,61.8c0,0.1,0,0.2,0,0.3c0,0.7,0.2,1.3,0.7,1.8c0.5,0.5,1.1,0.7,1.8,0.7c0.7,0,1.3-0.3,1.8-0.7
		c0.1-0.1,0.2-0.2,0.2-0.3l0.5,0.2c-0.1,0.1-0.2,0.3-0.4,0.5c-0.6,0.6-1.3,0.9-2.2,0.9c-0.8,0-1.6-0.3-2.2-0.9
		c-0.6-0.6-0.9-1.3-0.9-2.2c0-0.9,0.3-1.6,0.9-2.2c0.6-0.6,1.3-0.9,2.2-0.9c0.9,0,1.6,0.3,2.2,0.9c0.5,0.5,0.8,1.2,0.8,1.9H99.8z
		 M99.9,61.3h4.8c-0.1-0.4-0.3-0.7-0.6-1c-0.5-0.5-1.1-0.7-1.8-0.7c-0.7,0-1.3,0.3-1.8,0.7C100.2,60.6,100,60.9,99.9,61.3z"/>
	<path class="st17" d="M110.5,62c-0.4-0.2-0.7-0.4-0.9-0.6c-0.3-0.3-0.4-0.6-0.4-0.9c0-0.4,0.1-0.7,0.4-0.9c0.3-0.3,0.6-0.4,0.9-0.4
		c0.4,0,0.7,0.1,0.9,0.4c0.2,0.2,0.3,0.5,0.3,0.8v0l-0.4,0.2c0-0.3-0.1-0.5-0.3-0.6s-0.3-0.2-0.6-0.2c-0.2,0-0.4,0.1-0.6,0.2
		s-0.2,0.4-0.2,0.6c0,0.2,0.1,0.4,0.2,0.6c0.1,0.1,0.3,0.2,0.6,0.4c0.5,0.3,0.8,0.5,1,0.7c0.3,0.3,0.5,0.7,0.5,1.1
		c0,0.5-0.2,0.8-0.5,1.2s-0.7,0.5-1.2,0.5s-0.8-0.2-1.2-0.5s-0.5-0.7-0.5-1.1l0.5-0.1c0,0.3,0.1,0.6,0.3,0.8
		c0.2,0.2,0.5,0.3,0.8,0.3s0.6-0.1,0.8-0.3c0.2-0.2,0.3-0.5,0.3-0.8c0-0.3-0.1-0.6-0.3-0.8C111.1,62.4,110.9,62.3,110.5,62z"/>
	<path class="st17" d="M113.4,61.8c0,0.1,0,0.2,0,0.3c0,0.7,0.2,1.3,0.7,1.8c0.5,0.5,1.1,0.7,1.8,0.7c0.7,0,1.3-0.3,1.8-0.7
		c0.1-0.1,0.2-0.2,0.2-0.3l0.5,0.2c-0.1,0.1-0.2,0.3-0.4,0.5c-0.6,0.6-1.3,0.9-2.2,0.9c-0.8,0-1.6-0.3-2.2-0.9
		c-0.6-0.6-0.9-1.3-0.9-2.2c0-0.9,0.3-1.6,0.9-2.2c0.6-0.6,1.3-0.9,2.2-0.9c0.9,0,1.6,0.3,2.2,0.9c0.5,0.5,0.8,1.2,0.8,1.9H113.4z
		 M113.5,61.3h4.8c-0.1-0.4-0.3-0.7-0.6-1c-0.5-0.5-1.1-0.7-1.8-0.7c-0.7,0-1.3,0.3-1.8,0.7C113.9,60.6,113.7,60.9,113.5,61.3z"/>
	<path class="st17" d="M127.5,63.7l0.5,0.2c-0.1,0.1-0.2,0.3-0.3,0.4c-0.6,0.6-1.3,0.9-2.2,0.9c-0.8,0-1.6-0.3-2.2-0.9
		c-0.6-0.6-0.9-1.3-0.9-2.2c0-0.9,0.3-1.6,0.9-2.2c0.6-0.6,1.3-0.9,2.2-0.9c0.9,0,1.6,0.3,2.2,0.9c0.1,0.1,0.2,0.3,0.3,0.4l-0.5,0.2
		c-0.1-0.1-0.1-0.1-0.2-0.2c-0.5-0.5-1.1-0.7-1.8-0.7c-0.7,0-1.3,0.2-1.8,0.7s-0.7,1.1-0.7,1.8c0,0.7,0.2,1.3,0.7,1.8
		c0.5,0.5,1.1,0.7,1.8,0.7c0.7,0,1.3-0.3,1.8-0.7C127.4,63.8,127.5,63.7,127.5,63.7z"/>
	<path class="st17" d="M129.6,56v9h-0.5v-9H129.6z"/>
	<path class="st17" d="M136.9,65h-0.5v-1.1c-0.1,0.1-0.2,0.3-0.3,0.4c-0.6,0.6-1.3,0.9-2.2,0.9c-0.8,0-1.6-0.3-2.2-0.9
		c-0.6-0.6-0.9-1.3-0.9-2.2c0-0.9,0.3-1.6,0.9-2.2c0.6-0.6,1.3-0.9,2.2-0.9c0.9,0,1.6,0.3,2.2,0.9c0.1,0.1,0.2,0.2,0.3,0.4v-0.8h0.5
		V65z M136.4,62.6v-1c-0.1-0.5-0.3-0.9-0.7-1.3c-0.5-0.5-1.1-0.7-1.8-0.7c-0.7,0-1.3,0.3-1.8,0.7s-0.7,1.1-0.7,1.8s0.2,1.3,0.7,1.8
		c0.5,0.5,1.1,0.7,1.8,0.7c0.7,0,1.3-0.3,1.8-0.7C136,63.5,136.3,63.1,136.4,62.6z"/>
	<path class="st17" d="M139.5,62c-0.4-0.2-0.7-0.4-0.9-0.6c-0.3-0.3-0.4-0.6-0.4-0.9c0-0.4,0.1-0.7,0.4-0.9c0.3-0.3,0.6-0.4,0.9-0.4
		c0.4,0,0.7,0.1,0.9,0.4c0.2,0.2,0.3,0.5,0.3,0.8v0l-0.4,0.2c0-0.3-0.1-0.5-0.3-0.6s-0.3-0.2-0.6-0.2c-0.2,0-0.4,0.1-0.6,0.2
		s-0.2,0.4-0.2,0.6c0,0.2,0.1,0.4,0.2,0.6c0.1,0.1,0.3,0.2,0.6,0.4c0.5,0.3,0.8,0.5,1,0.7c0.3,0.3,0.5,0.7,0.5,1.1
		c0,0.5-0.2,0.8-0.5,1.2s-0.7,0.5-1.2,0.5s-0.8-0.2-1.2-0.5s-0.5-0.7-0.5-1.1l0.5-0.1c0,0.3,0.1,0.6,0.3,0.8
		c0.2,0.2,0.5,0.3,0.8,0.3s0.6-0.1,0.8-0.3c0.2-0.2,0.3-0.5,0.3-0.8c0-0.3-0.1-0.6-0.3-0.8C140.1,62.4,139.9,62.3,139.5,62z"/>
	<path class="st17" d="M142.9,57.7c0.1,0.1,0.1,0.2,0.1,0.3c0,0.1,0,0.3-0.1,0.4s-0.2,0.1-0.4,0.1c-0.1,0-0.3,0-0.4-0.1
		S142,58.2,142,58c0-0.1,0-0.3,0.1-0.3s0.2-0.1,0.4-0.1C142.7,57.5,142.8,57.6,142.9,57.7z M142.8,59.5V65h-0.5v-5.5H142.8z"/>
	<path class="st17" d="M144.7,60v5h-0.5v-5h-0.6v-0.5h0.6V58c0-0.4,0.2-0.8,0.5-1.1c0.3-0.3,0.7-0.4,1.1-0.4c0.2,0,0.4,0,0.7,0.1
		l-0.2,0.5c-0.2-0.1-0.3-0.1-0.5-0.1c-0.3,0-0.5,0.1-0.7,0.3c-0.2,0.2-0.3,0.5-0.3,0.8v1.5h1.1V60H144.7z"/>
	<path class="st17" d="M147.3,57.7c0.1,0.1,0.1,0.2,0.1,0.3c0,0.1,0,0.3-0.1,0.4s-0.2,0.1-0.4,0.1c-0.1,0-0.3,0-0.4-0.1
		s-0.1-0.2-0.1-0.4c0-0.1,0-0.3,0.1-0.3s0.2-0.1,0.4-0.1C147.1,57.5,147.2,57.6,147.3,57.7z M147.2,59.5V65h-0.5v-5.5H147.2z"/>
	<path class="st17" d="M153.4,63.7l0.5,0.2c-0.1,0.1-0.2,0.3-0.3,0.4c-0.6,0.6-1.3,0.9-2.2,0.9c-0.8,0-1.6-0.3-2.2-0.9
		c-0.6-0.6-0.9-1.3-0.9-2.2c0-0.9,0.3-1.6,0.9-2.2c0.6-0.6,1.3-0.9,2.2-0.9c0.9,0,1.6,0.3,2.2,0.9c0.1,0.1,0.2,0.3,0.3,0.4l-0.5,0.2
		c-0.1-0.1-0.1-0.1-0.2-0.2c-0.5-0.5-1.1-0.7-1.8-0.7c-0.7,0-1.3,0.2-1.8,0.7s-0.7,1.1-0.7,1.8c0,0.7,0.2,1.3,0.7,1.8
		c0.5,0.5,1.1,0.7,1.8,0.7c0.7,0,1.3-0.3,1.8-0.7C153.3,63.8,153.3,63.7,153.4,63.7z"/>
	<path class="st17" d="M160.8,65h-0.5v-1.1c-0.1,0.1-0.2,0.3-0.3,0.4c-0.6,0.6-1.3,0.9-2.2,0.9c-0.8,0-1.6-0.3-2.2-0.9
		c-0.6-0.6-0.9-1.3-0.9-2.2c0-0.9,0.3-1.6,0.9-2.2c0.6-0.6,1.3-0.9,2.2-0.9c0.9,0,1.6,0.3,2.2,0.9c0.1,0.1,0.2,0.2,0.3,0.4v-0.8h0.5
		V65z M160.3,62.6v-1c-0.1-0.5-0.3-0.9-0.7-1.3c-0.5-0.5-1.1-0.7-1.8-0.7c-0.7,0-1.3,0.3-1.8,0.7s-0.7,1.1-0.7,1.8s0.2,1.3,0.7,1.8
		c0.5,0.5,1.1,0.7,1.8,0.7c0.7,0,1.3-0.3,1.8-0.7C160,63.5,160.2,63.1,160.3,62.6z"/>
	<path class="st17" d="M169.7,63.7l0.5,0.2c-0.1,0.1-0.2,0.3-0.3,0.4c-0.6,0.6-1.3,0.9-2.2,0.9c-0.8,0-1.6-0.3-2.2-0.9
		c-0.6-0.6-0.9-1.3-0.9-2.2c0-0.9,0.3-1.6,0.9-2.2c0.6-0.6,1.3-0.9,2.2-0.9c0.9,0,1.6,0.3,2.2,0.9c0.1,0.1,0.2,0.3,0.3,0.4l-0.5,0.2
		c-0.1-0.1-0.1-0.1-0.2-0.2c-0.5-0.5-1.1-0.7-1.8-0.7c-0.7,0-1.3,0.2-1.8,0.7s-0.7,1.1-0.7,1.8c0,0.7,0.2,1.3,0.7,1.8
		c0.5,0.5,1.1,0.7,1.8,0.7c0.7,0,1.3-0.3,1.8-0.7C169.6,63.8,169.7,63.7,169.7,63.7z"/>
	<path class="st17" d="M174.1,59c0.9,0,1.6,0.3,2.2,0.9s0.9,1.3,0.9,2.2c0,0.8-0.3,1.6-0.9,2.2c-0.6,0.6-1.3,0.9-2.2,0.9
		c-0.8,0-1.6-0.3-2.2-0.9c-0.6-0.6-0.9-1.3-0.9-2.2c0-0.9,0.3-1.6,0.9-2.2C172.5,59.3,173.3,59,174.1,59z M172.3,60.3
		c-0.5,0.5-0.7,1.1-0.7,1.8s0.2,1.3,0.7,1.8c0.5,0.5,1.1,0.7,1.8,0.7c0.7,0,1.3-0.2,1.8-0.7c0.5-0.5,0.7-1.1,0.7-1.8
		s-0.2-1.3-0.7-1.8s-1.1-0.7-1.8-0.7C173.4,59.5,172.8,59.8,172.3,60.3z"/>
	<path class="st17" d="M178.8,60.7V65h-0.5v-5.5h0.5v0.4c0.5-0.5,1-0.7,1.6-0.7c0.7,0,1.2,0.2,1.6,0.6s0.6,0.9,0.6,1.5V65h-0.5v-3.6
		c0-0.5-0.2-0.9-0.5-1.2c-0.3-0.3-0.7-0.5-1.2-0.5c-0.5,0-0.9,0.2-1.2,0.5C179,60.3,178.9,60.5,178.8,60.7z"/>
	<path class="st17" d="M189,65.1c-0.7,0-1.2-0.2-1.6-0.6s-0.6-0.9-0.6-1.5v-3.4h0.5v3.4c0,0.5,0.2,0.9,0.5,1.2
		c0.3,0.3,0.8,0.5,1.3,0.5c0.5,0,0.9-0.2,1.2-0.5c0.3-0.3,0.5-0.7,0.5-1.2v-3.4h0.5v3.4c0,0.6-0.2,1.1-0.6,1.5S189.7,65.1,189,65.1z
		"/>
	<path class="st17" d="M192.9,60.7V65h-0.5v-5.5h0.5v0.4c0.5-0.5,1-0.7,1.6-0.7c0.7,0,1.2,0.2,1.6,0.6s0.6,0.9,0.6,1.5V65h-0.5v-3.6
		c0-0.5-0.2-0.9-0.5-1.2c-0.3-0.3-0.7-0.5-1.2-0.5c-0.5,0-0.9,0.2-1.2,0.5C193.2,60.3,193,60.5,192.9,60.7z"/>
	<path class="st17" d="M203.9,65h-0.5v-1.1c-0.1,0.1-0.2,0.3-0.3,0.4c-0.6,0.6-1.3,0.9-2.2,0.9c-0.8,0-1.6-0.3-2.2-0.9
		c-0.6-0.6-0.9-1.3-0.9-2.2c0-0.9,0.3-1.6,0.9-2.2c0.6-0.6,1.3-0.9,2.2-0.9c0.9,0,1.6,0.3,2.2,0.9c0.1,0.1,0.2,0.2,0.3,0.4v-0.8h0.5
		V65z M203.4,62.6v-1c-0.1-0.5-0.3-0.9-0.7-1.3c-0.5-0.5-1.1-0.7-1.8-0.7c-0.7,0-1.3,0.3-1.8,0.7s-0.7,1.1-0.7,1.8s0.2,1.3,0.7,1.8
		c0.5,0.5,1.1,0.7,1.8,0.7c0.7,0,1.3-0.3,1.8-0.7C203.1,63.5,203.3,63.1,203.4,62.6z"/>
	<path class="st17" d="M15.5,75.6v5H15v-5h-0.6v-0.5H15v-1.5c0-0.4,0.2-0.8,0.5-1.1c0.3-0.3,0.7-0.4,1.1-0.4c0.2,0,0.4,0,0.7,0.1
		l-0.2,0.5c-0.2-0.1-0.3-0.1-0.5-0.1c-0.3,0-0.5,0.1-0.7,0.3c-0.2,0.2-0.3,0.5-0.3,0.8v1.5h1.1v0.5H15.5z"/>
	<path class="st17" d="M17.6,77.4c0,0.1,0,0.2,0,0.3c0,0.7,0.2,1.3,0.7,1.8c0.5,0.5,1.1,0.7,1.8,0.7s1.3-0.3,1.8-0.7
		c0.1-0.1,0.2-0.2,0.2-0.3l0.5,0.2c-0.1,0.1-0.2,0.3-0.4,0.5c-0.6,0.6-1.3,0.9-2.2,0.9c-0.8,0-1.6-0.3-2.2-0.9
		c-0.6-0.6-0.9-1.3-0.9-2.2c0-0.9,0.3-1.6,0.9-2.2c0.6-0.6,1.3-0.9,2.2-0.9c0.9,0,1.6,0.3,2.2,0.9c0.5,0.5,0.8,1.2,0.8,1.9H17.6z
		 M17.7,76.9h4.8c-0.1-0.4-0.3-0.7-0.6-1c-0.5-0.5-1.1-0.7-1.8-0.7s-1.3,0.3-1.8,0.7C18.1,76.2,17.9,76.5,17.7,76.9z"/>
	<path class="st17" d="M28.8,79.3l0.5,0.2c-0.1,0.1-0.2,0.3-0.3,0.4c-0.6,0.6-1.3,0.9-2.2,0.9c-0.8,0-1.6-0.3-2.2-0.9
		c-0.6-0.6-0.9-1.3-0.9-2.2c0-0.9,0.3-1.6,0.9-2.2c0.6-0.6,1.3-0.9,2.2-0.9c0.9,0,1.6,0.3,2.2,0.9c0.1,0.1,0.2,0.3,0.3,0.4l-0.5,0.2
		c-0.1-0.1-0.1-0.1-0.2-0.2c-0.5-0.5-1.1-0.7-1.8-0.7c-0.7,0-1.3,0.2-1.8,0.7c-0.5,0.5-0.7,1.1-0.7,1.8c0,0.7,0.2,1.3,0.7,1.8
		c0.5,0.5,1.1,0.7,1.8,0.7c0.7,0,1.3-0.3,1.8-0.7C28.6,79.4,28.7,79.3,28.8,79.3z"/>
	<path class="st17" d="M30.2,71.6h0.5v3.8c0.4-0.4,0.9-0.6,1.5-0.6c0.6,0,1.2,0.2,1.6,0.6c0.4,0.4,0.6,0.9,0.6,1.5v3.7H34v-3.6
		c0-0.5-0.2-0.9-0.5-1.2s-0.7-0.5-1.2-0.5c-0.5,0-0.9,0.2-1.2,0.5c-0.2,0.1-0.3,0.3-0.3,0.5v4.4h-0.5V71.6z"/>
	<path class="st17" d="M41.6,80.6h-0.5v-1.1c-0.1,0.1-0.2,0.3-0.3,0.4c-0.6,0.6-1.3,0.9-2.2,0.9c-0.8,0-1.6-0.3-2.2-0.9
		c-0.6-0.6-0.9-1.3-0.9-2.2c0-0.9,0.3-1.6,0.9-2.2c0.6-0.6,1.3-0.9,2.2-0.9c0.9,0,1.6,0.3,2.2,0.9c0.1,0.1,0.2,0.2,0.3,0.4v-0.8h0.5
		V80.6z M41.1,78.2v-1c-0.1-0.5-0.3-0.9-0.7-1.3c-0.5-0.5-1.1-0.7-1.8-0.7s-1.3,0.3-1.8,0.7c-0.5,0.5-0.7,1.1-0.7,1.8
		s0.2,1.3,0.7,1.8c0.5,0.5,1.1,0.7,1.8,0.7s1.3-0.3,1.8-0.7C40.8,79.1,41,78.7,41.1,78.2z"/>
	<path class="st17" d="M46.7,82.7h-0.6l1.5-3.1l-2.1-4.5h0.6l1.8,3.8l1.8-3.8h0.6L46.7,82.7z"/>
	<path class="st17" d="M54.2,71.6h0.5v3.8c0.4-0.4,0.9-0.6,1.5-0.6c0.6,0,1.2,0.2,1.6,0.6s0.6,0.9,0.6,1.5v3.7h-0.5v-3.6
		c0-0.5-0.2-0.9-0.5-1.2c-0.3-0.3-0.7-0.5-1.2-0.5c-0.5,0-0.9,0.2-1.2,0.5c-0.2,0.1-0.3,0.3-0.3,0.5v4.4h-0.5V71.6z"/>
	<path class="st17" d="M62.6,74.6c0.9,0,1.6,0.3,2.2,0.9s0.9,1.3,0.9,2.2c0,0.8-0.3,1.6-0.9,2.2c-0.6,0.6-1.3,0.9-2.2,0.9
		c-0.8,0-1.6-0.3-2.2-0.9c-0.6-0.6-0.9-1.3-0.9-2.2c0-0.9,0.3-1.6,0.9-2.2C61,74.9,61.7,74.6,62.6,74.6z M60.8,75.9
		C60.3,76.4,60,77,60,77.7s0.2,1.3,0.7,1.8c0.5,0.5,1.1,0.7,1.8,0.7c0.7,0,1.3-0.2,1.8-0.7c0.5-0.5,0.7-1.1,0.7-1.8
		s-0.2-1.3-0.7-1.8s-1.1-0.7-1.8-0.7C61.9,75.1,61.3,75.4,60.8,75.9z"/>
	<path class="st17" d="M68.7,75.5c-0.4,0.1-0.7,0.3-1.1,0.7c-0.3,0.4-0.5,0.8-0.5,1.2v3.2h-0.5v-5.5h0.5v1.2c0.2-0.6,0.6-1,1.3-1.2
		L68.7,75.5z"/>
	<path class="st17" d="M75.3,80.6h-0.5v-1.1c-0.1,0.1-0.2,0.3-0.3,0.4c-0.6,0.6-1.3,0.9-2.2,0.9c-0.8,0-1.6-0.3-2.2-0.9
		c-0.6-0.6-0.9-1.3-0.9-2.2c0-0.9,0.3-1.6,0.9-2.2c0.6-0.6,1.3-0.9,2.2-0.9c0.9,0,1.6,0.3,2.2,0.9c0.1,0.1,0.2,0.2,0.3,0.4v-0.8h0.5
		V80.6z M74.7,78.2v-1c-0.1-0.5-0.3-0.9-0.7-1.3c-0.5-0.5-1.1-0.7-1.8-0.7c-0.7,0-1.3,0.3-1.8,0.7s-0.7,1.1-0.7,1.8s0.2,1.3,0.7,1.8
		c0.5,0.5,1.1,0.7,1.8,0.7c0.7,0,1.3-0.3,1.8-0.7C74.4,79.1,74.7,78.7,74.7,78.2z"/>
	<path class="st17" d="M79.9,77.4c0,0.1,0,0.2,0,0.3c0,0.7,0.2,1.3,0.7,1.8c0.5,0.5,1.1,0.7,1.8,0.7c0.7,0,1.3-0.3,1.8-0.7
		c0.1-0.1,0.2-0.2,0.2-0.3l0.5,0.2c-0.1,0.1-0.2,0.3-0.4,0.5c-0.6,0.6-1.3,0.9-2.2,0.9c-0.8,0-1.6-0.3-2.2-0.9
		c-0.6-0.6-0.9-1.3-0.9-2.2c0-0.9,0.3-1.6,0.9-2.2c0.6-0.6,1.3-0.9,2.2-0.9c0.9,0,1.6,0.3,2.2,0.9c0.5,0.5,0.8,1.2,0.8,1.9H79.9z
		 M80,76.9h4.8c-0.1-0.4-0.3-0.7-0.6-1c-0.5-0.5-1.1-0.7-1.8-0.7c-0.7,0-1.3,0.3-1.8,0.7C80.4,76.2,80.1,76.5,80,76.9z"/>
	<path class="st17" d="M87.7,77.6c-0.4-0.2-0.7-0.4-0.9-0.6c-0.3-0.3-0.4-0.6-0.4-0.9c0-0.4,0.1-0.7,0.4-0.9
		c0.3-0.3,0.6-0.4,0.9-0.4c0.4,0,0.7,0.1,0.9,0.4c0.2,0.2,0.3,0.5,0.3,0.8v0l-0.4,0.2c0-0.3-0.1-0.5-0.3-0.6s-0.3-0.2-0.6-0.2
		c-0.2,0-0.4,0.1-0.6,0.2s-0.2,0.4-0.2,0.6c0,0.2,0.1,0.4,0.2,0.6c0.1,0.1,0.3,0.2,0.6,0.4c0.5,0.3,0.8,0.5,1,0.7
		c0.3,0.3,0.5,0.7,0.5,1.1c0,0.5-0.2,0.8-0.5,1.2s-0.7,0.5-1.2,0.5s-0.8-0.2-1.2-0.5S86,79.4,86,79.1l0.5-0.1c0,0.3,0.1,0.6,0.3,0.8
		c0.2,0.2,0.5,0.3,0.8,0.3s0.6-0.1,0.8-0.3c0.2-0.2,0.3-0.5,0.3-0.8c0-0.3-0.1-0.6-0.3-0.8C88.3,78,88.1,77.9,87.7,77.6z"/>
	<path class="st17" d="M90.3,75.1h0.5v0.8c0.1-0.1,0.2-0.3,0.3-0.4c0.6-0.6,1.3-0.9,2.2-0.9c0.9,0,1.6,0.3,2.2,0.9s0.9,1.3,0.9,2.2
		c0,0.8-0.3,1.6-0.9,2.2c-0.6,0.6-1.3,0.9-2.2,0.9c-0.8,0-1.6-0.3-2.2-0.9c-0.1-0.1-0.2-0.2-0.3-0.4v3.2h-0.5V75.1z M90.8,77.1v1.1
		c0.1,0.5,0.3,0.9,0.7,1.3c0.5,0.5,1.1,0.7,1.8,0.7c0.7,0,1.3-0.2,1.8-0.7s0.7-1.1,0.7-1.8s-0.2-1.3-0.7-1.8s-1.1-0.7-1.8-0.7
		c-0.7,0-1.3,0.3-1.8,0.7C91.2,76.2,90.9,76.7,90.8,77.1z"/>
	<path class="st17" d="M97.7,77.4c0,0.1,0,0.2,0,0.3c0,0.7,0.2,1.3,0.7,1.8c0.5,0.5,1.1,0.7,1.8,0.7c0.7,0,1.3-0.3,1.8-0.7
		c0.1-0.1,0.2-0.2,0.2-0.3l0.5,0.2c-0.1,0.1-0.2,0.3-0.4,0.5c-0.6,0.6-1.3,0.9-2.2,0.9c-0.8,0-1.6-0.3-2.2-0.9
		c-0.6-0.6-0.9-1.3-0.9-2.2c0-0.9,0.3-1.6,0.9-2.2c0.6-0.6,1.3-0.9,2.2-0.9c0.9,0,1.6,0.3,2.2,0.9c0.5,0.5,0.8,1.2,0.8,1.9H97.7z
		 M97.8,76.9h4.8c-0.1-0.4-0.3-0.7-0.6-1c-0.5-0.5-1.1-0.7-1.8-0.7c-0.7,0-1.3,0.3-1.8,0.7C98.1,76.2,97.9,76.5,97.8,76.9z"/>
	<path class="st17" d="M108.8,79.3l0.5,0.2c-0.1,0.1-0.2,0.3-0.3,0.4c-0.6,0.6-1.3,0.9-2.2,0.9c-0.8,0-1.6-0.3-2.2-0.9
		c-0.6-0.6-0.9-1.3-0.9-2.2c0-0.9,0.3-1.6,0.9-2.2c0.6-0.6,1.3-0.9,2.2-0.9c0.9,0,1.6,0.3,2.2,0.9c0.1,0.1,0.2,0.3,0.3,0.4l-0.5,0.2
		c-0.1-0.1-0.1-0.1-0.2-0.2c-0.5-0.5-1.1-0.7-1.8-0.7c-0.7,0-1.3,0.2-1.8,0.7s-0.7,1.1-0.7,1.8c0,0.7,0.2,1.3,0.7,1.8
		s1.1,0.7,1.8,0.7c0.7,0,1.3-0.3,1.8-0.7C108.7,79.4,108.7,79.3,108.8,79.3z"/>
	<path class="st17" d="M111.9,72.9l-1.4,1H110l0.9-1H111.9z M110.9,75.1v5.5h-0.5v-5.5H110.9z"/>
	<path class="st17" d="M112.9,75.6v5h-0.5v-5h-0.6v-0.5h0.6v-1.5c0-0.4,0.2-0.8,0.5-1.1c0.3-0.3,0.7-0.4,1.1-0.4
		c0.2,0,0.4,0,0.7,0.1l-0.2,0.5c-0.2-0.1-0.3-0.1-0.5-0.1c-0.3,0-0.5,0.1-0.7,0.3c-0.2,0.2-0.3,0.5-0.3,0.8v1.5h1.1v0.5H112.9z"/>
	<path class="st17" d="M115.5,73.3c0.1,0.1,0.1,0.2,0.1,0.3c0,0.1,0,0.3-0.1,0.4s-0.2,0.1-0.4,0.1c-0.1,0-0.3,0-0.4-0.1
		s-0.1-0.2-0.1-0.4c0-0.1,0-0.3,0.1-0.3s0.2-0.1,0.4-0.1C115.2,73.1,115.4,73.2,115.5,73.3z M115.4,75.1v5.5h-0.5v-5.5H115.4z"/>
	<path class="st17" d="M121.5,79.3l0.5,0.2c-0.1,0.1-0.2,0.3-0.3,0.4c-0.6,0.6-1.3,0.9-2.2,0.9c-0.8,0-1.6-0.3-2.2-0.9
		c-0.6-0.6-0.9-1.3-0.9-2.2c0-0.9,0.3-1.6,0.9-2.2c0.6-0.6,1.3-0.9,2.2-0.9c0.9,0,1.6,0.3,2.2,0.9c0.1,0.1,0.2,0.3,0.3,0.4l-0.5,0.2
		c-0.1-0.1-0.1-0.1-0.2-0.2c-0.5-0.5-1.1-0.7-1.8-0.7c-0.7,0-1.3,0.2-1.8,0.7S117,77,117,77.7c0,0.7,0.2,1.3,0.7,1.8
		s1.1,0.7,1.8,0.7c0.7,0,1.3-0.3,1.8-0.7C121.4,79.4,121.4,79.3,121.5,79.3z"/>
	<path class="st17" d="M128.9,80.6h-0.5v-1.1c-0.1,0.1-0.2,0.3-0.3,0.4c-0.6,0.6-1.3,0.9-2.2,0.9c-0.8,0-1.6-0.3-2.2-0.9
		c-0.6-0.6-0.9-1.3-0.9-2.2c0-0.9,0.3-1.6,0.9-2.2c0.6-0.6,1.3-0.9,2.2-0.9c0.9,0,1.6,0.3,2.2,0.9c0.1,0.1,0.2,0.2,0.3,0.4v-0.8h0.5
		V80.6z M128.4,78.2v-1c-0.1-0.5-0.3-0.9-0.7-1.3c-0.5-0.5-1.1-0.7-1.8-0.7c-0.7,0-1.3,0.3-1.8,0.7s-0.7,1.1-0.7,1.8
		s0.2,1.3,0.7,1.8c0.5,0.5,1.1,0.7,1.8,0.7c0.7,0,1.3-0.3,1.8-0.7C128.1,79.1,128.3,78.7,128.4,78.2z"/>
	<path class="st17" d="M130.5,79.8c0.1,0.1,0.1,0.2,0.1,0.4c0,0.1,0,0.3-0.1,0.4c-0.1,0.1-0.2,0.1-0.4,0.1c-0.1,0-0.3,0-0.4-0.1
		c-0.1-0.1-0.1-0.2-0.1-0.4c0-0.1,0-0.3,0.1-0.4c0.1-0.1,0.2-0.1,0.4-0.1C130.2,79.7,130.4,79.7,130.5,79.8z"/>
</g>
<g>
	<path class="st18" d="M117.8,19.2L111,6.7c-0.5-0.8-1.4-1.4-2.4-1.4s-1.9,0.5-2.4,1.4c0,0,0,0,0,0l-6.7,12.4
		c-0.5,0.9-0.5,1.9,0,2.8c0.5,0.9,1.4,1.4,2.4,1.4h13.5c1,0,1.9-0.5,2.4-1.4C118.3,21.1,118.3,20,117.8,19.2z"/>
	<path class="st19" d="M117.8,22c-0.5,0.9-1.4,1.4-2.4,1.4h-6.7v-18c1,0,1.9,0.5,2.4,1.4l6.8,12.4C118.3,20,118.3,21.1,117.8,22z"/>
	<path class="st20" d="M101.9,22.2c-0.6,0-1.1-0.3-1.5-0.8c-0.3-0.5-0.3-1.2,0-1.7l0,0l6.7-12.4c0,0,0,0,0,0
		c0.3-0.5,0.8-0.8,1.4-0.8c0.6,0,1.1,0.3,1.4,0.8l6.7,12.4l0,0c0.3,0.5,0.3,1.1,0,1.7c-0.3,0.5-0.8,0.8-1.5,0.8H101.9z"/>
	<path class="st21" d="M116.8,19.7L110,7.3c-0.3-0.5-0.8-0.8-1.4-0.8v15.7h6.7c0.6,0,1.1-0.3,1.5-0.8
		C117.1,20.9,117.1,20.2,116.8,19.7L116.8,19.7z"/>
	<path class="st22" d="M108.6,9.9c-0.9,0-1.7,0.7-1.7,1.7V15c0,0.9,0.7,1.7,1.7,1.7s1.7-0.7,1.7-1.7v-3.4
		C110.3,10.7,109.5,9.9,108.6,9.9z"/>
	<path class="st22" d="M108.6,17.8c-0.9,0-1.7,0.7-1.7,1.7c0,0.9,0.7,1.7,1.7,1.7s1.7-0.7,1.7-1.7C110.3,18.5,109.5,17.8,108.6,17.8
		z"/>
	<g>
		<path class="st18" d="M110.3,19.5c0,0.9-0.7,1.7-1.7,1.7v-3.4C109.5,17.8,110.3,18.5,110.3,19.5z"/>
		<path class="st18" d="M110.3,11.6V15c0,0.9-0.7,1.7-1.7,1.7V9.9C109.5,9.9,110.3,10.7,110.3,11.6z"/>
	</g>
</g>
</svg>
