<?xml version="1.0" encoding="utf-8"?>
<!-- Generator: Adobe Illustrator 24.0.2, SVG Export Plug-In . SVG Version: 6.00 Build 0)  -->
<svg version="1.1" id="off" xmlns="http://www.w3.org/2000/svg" xmlns:xlink="http://www.w3.org/1999/xlink" x="0px" y="0px"
	 viewBox="0 0 70.8 22.7" style="enable-background:new 0 0 70.8 22.7;" xml:space="preserve">
<style type="text/css">
	.st0{fill:#E9762F;}
	.st1{fill:#7382A3;}
	.st2{fill:#A4AAC2;}
	.st3{fill:#FFFFFF;}
	.st4{display:none;fill:#3F3F3F;}
	.st5{fill:#3F3F3F;}
	.st6{fill:none;stroke:#E9762E;stroke-width:0.5941;stroke-miterlimit:10;}
	.st7{clip-path:url(#SVGID_2_);}
	.st8{fill:#727276;}
	.st9{fill:#E9762E;}
	.st10{clip-path:url(#SVGID_6_);}
	.st11{fill:#E9762E;stroke:#E9762E;stroke-width:0.5;stroke-miterlimit:10;}
	.st12{fill:#E9762E;stroke:#E9762E;stroke-width:0.5162;stroke-miterlimit:10;}
	.st13{fill:#E9762E;stroke:#E9762E;stroke-width:0.3135;stroke-miterlimit:10;}
	.st14{fill:#E9762E;stroke:#E9762E;stroke-width:0.3868;stroke-miterlimit:10;}
	.st15{fill:#E9762E;stroke:#E9762E;stroke-width:0.3578;stroke-miterlimit:10;}
	.st16{fill:#E9762E;stroke:#E9762E;stroke-width:0.3826;stroke-miterlimit:10;}
</style>
<path class="st5" d="M59.5,22.7H11.4C5.1,22.7,0,17.6,0,11.4v0C0,5.1,5.1,0,11.4,0l48.1,0c6.3,0,11.4,5.1,11.4,11.4v0
	C70.8,17.6,65.7,22.7,59.5,22.7z"/>
<g>
	<path class="st12" d="M27.3,10.3c0.3,0.1,0.7,0.4,0.9,0.6c0.6,0.6,0.9,1.3,0.9,2.1c0,0.8-0.3,1.5-0.9,2.1c-0.5,0.5-1.1,0.8-1.8,0.9
		h-3V6.8h2.8c0.5,0,1,0.2,1.3,0.6c0.4,0.4,0.6,0.8,0.6,1.3s-0.2,1-0.6,1.3C27.4,10.1,27.4,10.2,27.3,10.3z M23.9,7.3V10h2.4
		c0.4,0,0.7-0.2,0.9-0.3c0.3-0.3,0.4-0.6,0.4-1c0-0.4-0.1-0.7-0.4-1c-0.3-0.3-0.6-0.4-1-0.4H23.9z M26.1,15.6c0.7,0,1.3-0.2,1.8-0.7
		s0.7-1.1,0.7-1.8s-0.2-1.3-0.7-1.8s-1.1-0.7-1.8-0.7h-2.1v5H26.1z"/>
	<path class="st12" d="M36.2,16.1h-0.5v-1.2c-0.1,0.1-0.2,0.3-0.3,0.4c-0.6,0.6-1.4,0.9-2.3,0.9c-0.9,0-1.6-0.3-2.2-0.9
		c-0.6-0.6-0.9-1.4-0.9-2.2c0-0.9,0.3-1.6,0.9-2.3c0.6-0.6,1.4-0.9,2.2-0.9c0.9,0,1.6,0.3,2.3,0.9c0.1,0.1,0.2,0.3,0.3,0.4v-0.8h0.5
		V16.1z M35.7,13.6v-1c-0.1-0.5-0.3-1-0.7-1.3c-0.5-0.5-1.1-0.8-1.9-0.8c-0.7,0-1.3,0.3-1.9,0.8s-0.8,1.1-0.8,1.9
		c0,0.7,0.3,1.3,0.8,1.9c0.5,0.5,1.1,0.8,1.9,0.8c0.7,0,1.3-0.3,1.9-0.8C35.4,14.5,35.6,14.1,35.7,13.6z"/>
	<path class="st12" d="M42.4,14.7l0.5,0.2c-0.1,0.1-0.2,0.3-0.3,0.4c-0.6,0.6-1.4,0.9-2.3,0.9c-0.9,0-1.6-0.3-2.2-0.9
		c-0.6-0.6-0.9-1.4-0.9-2.3s0.3-1.6,0.9-2.2s1.4-0.9,2.2-0.9c0.9,0,1.6,0.3,2.3,0.9c0.1,0.1,0.2,0.3,0.3,0.4l-0.5,0.2
		c-0.1-0.1-0.1-0.1-0.2-0.2c-0.5-0.5-1.1-0.8-1.9-0.8c-0.7,0-1.3,0.3-1.9,0.8c-0.5,0.5-0.8,1.1-0.8,1.9c0,0.7,0.3,1.3,0.8,1.9
		s1.1,0.8,1.9,0.8c0.7,0,1.3-0.3,1.9-0.8C42.2,14.9,42.3,14.8,42.4,14.7z"/>
	<path class="st12" d="M46.7,10.4l-1.4,1.7l2.2,4h-0.6l-1.9-3.5l-0.5,0.6v2.9h-0.5V8h0.5v4.4l1.6-2H46.7z"/>
	<path class="st12" d="M50.3,16.2c-0.7,0-1.3-0.2-1.7-0.6c-0.4-0.4-0.6-1-0.6-1.6v-3.6h0.5v3.5c0,0.5,0.2,0.9,0.5,1.2
		c0.3,0.3,0.8,0.5,1.3,0.5c0.5,0,0.9-0.2,1.2-0.5c0.3-0.3,0.5-0.8,0.5-1.2v-3.5h0.5v3.6c0,0.6-0.2,1.2-0.6,1.6
		C51.5,16,51,16.2,50.3,16.2z"/>
	<path class="st12" d="M53.8,10.4h0.5v0.8c0.1-0.1,0.2-0.3,0.3-0.4c0.6-0.6,1.4-0.9,2.2-0.9c0.9,0,1.6,0.3,2.2,0.9
		c0.6,0.6,0.9,1.4,0.9,2.3c0,0.9-0.3,1.6-0.9,2.2c-0.6,0.6-1.4,0.9-2.2,0.9c-0.9,0-1.6-0.3-2.2-0.9c-0.1-0.1-0.2-0.2-0.3-0.4v3.3
		h-0.5V10.4z M54.3,12.5v1.1c0.1,0.5,0.3,0.9,0.7,1.3c0.5,0.5,1.1,0.8,1.9,0.8c0.7,0,1.3-0.3,1.9-0.8c0.5-0.5,0.8-1.1,0.8-1.9
		c0-0.7-0.3-1.3-0.8-1.9s-1.1-0.8-1.9-0.8c-0.7,0-1.3,0.3-1.9,0.8C54.6,11.6,54.4,12,54.3,12.5z"/>
</g>
<g>
	<path class="st3" d="M20.7,6.7c0-0.2-0.2-0.4-0.4-0.3l-0.3,0.1c-0.9-1.1-2.7-0.8-3.1,0.5c0,0.1,0,0.2,0.1,0.2c0.1,0,0.2,0,0.2-0.1
		c0.4-1,1.7-1.3,2.4-0.5l-0.2,0.1c-0.2,0.1-0.2,0.3-0.1,0.5l0.7,0.5c0,0,0,0,0,0c0.2,0.1,0.4,0,0.4-0.2L20.7,6.7z M20.2,7.3L19.8,7
		l0.5-0.2L20.2,7.3z"/>
	<path class="st3" d="M20.3,8.1c-0.1,0-0.2,0-0.2,0.1c-0.4,1-1.7,1.3-2.4,0.5l0.2-0.1C18,8.5,18,8.2,17.8,8.1c0,0-0.7-0.5-0.7-0.5
		c-0.2-0.1-0.4,0-0.4,0.2l-0.2,0.8c0,0.2,0.2,0.4,0.4,0.3l0.3-0.1c0.9,1.1,2.7,0.9,3.2-0.5C20.4,8.2,20.4,8.1,20.3,8.1L20.3,8.1z
		 M17,8.5L17.1,8l0.4,0.3L17,8.5z"/>
	<path class="st3" d="M17.2,5.1C14.2,4.2,9,4.8,9,6.4v9.2c0,1.1,2.5,1.7,4.9,1.7s4.9-0.6,4.9-1.7c0-0.4,0-2.3,0-2.7
		c0-0.1-0.1-0.2-0.2-0.2s-0.2,0.1-0.2,0.2v0.4c0,0.6-1.8,1.3-4.5,1.3c-2.7,0-4.5-0.7-4.5-1.3v-1.6c1.6,1.3,7.5,1.3,9.1,0V12
		c0,0.1,0.1,0.2,0.2,0.2s0.2-0.1,0.2-0.2c0-0.3,0-1.1,0-1.4c0.5,0,0.9-0.2,1.3-0.4c0.1-0.1,0.1-0.2,0.1-0.3S20,9.9,20,9.9
		c-1.7,1-3.9-0.3-3.9-2.2c0-1.5,1.2-2.6,2.6-2.6c1.4,0,2.6,1.2,2.6,2.6c0,0.7-0.2,1.3-0.7,1.8c-0.1,0.1-0.1,0.2,0,0.3
		c0.1,0.1,0.2,0.1,0.3,0c0.5-0.6,0.8-1.3,0.8-2C21.6,5.4,19.2,4,17.2,5.1z M18.5,13.9v1.6c0,0.6-1.8,1.3-4.5,1.3
		c-2.7,0-4.5-0.7-4.5-1.3v-1.6C11,15.2,16.9,15.2,18.5,13.9z M16.8,10c0.5,0.4,1,0.6,1.7,0.6V11c0,0.6-1.8,1.3-4.5,1.3
		c-2.7,0-4.5-0.7-4.5-1.3V9.3C10.6,10.3,14.3,10.6,16.8,10L16.8,10z M16.5,9.7c-3.2,0.7-7.1-0.1-7.1-1.1V7c1.1,0.9,4.2,1.2,6.3,0.9
		C15.8,8.6,16,9.2,16.5,9.7z M15.7,7.6C12.5,8,9.4,7.2,9.4,6.4c0-1,4.3-1.7,7.4-1C16.1,5.9,15.7,6.7,15.7,7.6z"/>
</g>
</svg>
