<?xml version="1.0" encoding="utf-8"?>
<!-- Generator: Adobe Illustrator 24.0.2, SVG Export Plug-In . SVG Version: 6.00 Build 0)  -->
<svg version="1.1" id="off" xmlns="http://www.w3.org/2000/svg" xmlns:xlink="http://www.w3.org/1999/xlink" x="0px" y="0px"
	 viewBox="0 0 217.2 91.6" style="enable-background:new 0 0 217.2 91.6;" xml:space="preserve">
<style type="text/css">
	.st0{fill:#E9762E;}
	.st1{fill:#E9762F;}
	.st2{fill:#7382A3;}
	.st3{fill:#A4AAC2;}
	.st4{fill:#FFFFFF;}
	.st5{display:none;fill:#3F3F3F;}
	.st6{fill:#3F3F3F;}
	.st7{fill:none;stroke:#E9762E;stroke-width:0.5941;stroke-miterlimit:10;}
	.st8{clip-path:url(#SVGID_2_);}
	.st9{fill:#727276;}
	.st10{clip-path:url(#SVGID_6_);}
	.st11{fill:#E9762E;stroke:#E9762E;stroke-width:0.5;stroke-miterlimit:10;}
	.st12{fill:#E9762E;stroke:#E9762E;stroke-width:0.3868;stroke-miterlimit:10;}
	.st13{fill:#E9762E;stroke:#E9762E;stroke-width:0.5162;stroke-miterlimit:10;}
	.st14{fill:#FFFDFD;}
	.st15{fill:none;stroke:#3F3F3F;stroke-width:2.9348;stroke-miterlimit:10;}
	.st16{fill:#E9762E;stroke:#E9762E;stroke-width:0.75;stroke-miterlimit:10;}
	.st17{fill:#3F3F3F;stroke:#3F3F3F;stroke-width:0.25;stroke-miterlimit:10;}
	.st18{fill:#444444;}
	.st19{fill:#292929;}
	.st20{fill:#FFD400;}
	.st21{fill:#FF9F00;}
	.st22{fill:#6E6E6E;}
</style>
<path class="st15" d="M198,89.6H19.2c-8.7,0-15.7-7-15.7-15.7V17.7C3.5,9,10.5,2,19.2,2H198c8.7,0,15.7,7,15.7,15.7v56.2
	C213.7,82.6,206.7,89.6,198,89.6z"/>
<g>
	<path class="st18" d="M117.8,19.2L111,6.7c-0.5-0.8-1.4-1.4-2.4-1.4s-1.9,0.5-2.4,1.4c0,0,0,0,0,0l-6.7,12.4
		c-0.5,0.9-0.5,1.9,0,2.8c0.5,0.9,1.4,1.4,2.4,1.4h13.5c1,0,1.9-0.5,2.4-1.4C118.3,21.1,118.3,20,117.8,19.2z"/>
	<path class="st19" d="M117.8,22c-0.5,0.9-1.4,1.4-2.4,1.4h-6.7v-18c1,0,1.9,0.5,2.4,1.4l6.8,12.4C118.3,20,118.3,21.1,117.8,22z"/>
	<path class="st20" d="M101.9,22.2c-0.6,0-1.1-0.3-1.5-0.8c-0.3-0.5-0.3-1.2,0-1.7l0,0l6.7-12.4c0,0,0,0,0,0
		c0.3-0.5,0.8-0.8,1.4-0.8c0.6,0,1.1,0.3,1.4,0.8l6.7,12.4l0,0c0.3,0.5,0.3,1.1,0,1.7c-0.3,0.5-0.8,0.8-1.5,0.8H101.9z"/>
	<path class="st21" d="M116.8,19.7L110,7.3c-0.3-0.5-0.8-0.8-1.4-0.8v15.7h6.7c0.6,0,1.1-0.3,1.5-0.8
		C117.1,20.9,117.1,20.2,116.8,19.7L116.8,19.7z"/>
	<path class="st22" d="M108.6,9.9c-0.9,0-1.7,0.7-1.7,1.7V15c0,0.9,0.7,1.7,1.7,1.7s1.7-0.7,1.7-1.7v-3.4
		C110.3,10.7,109.5,9.9,108.6,9.9z"/>
	<path class="st22" d="M108.6,17.8c-0.9,0-1.7,0.7-1.7,1.7c0,0.9,0.7,1.7,1.7,1.7s1.7-0.7,1.7-1.7C110.3,18.5,109.5,17.8,108.6,17.8
		z"/>
	<g>
		<path class="st18" d="M110.3,19.5c0,0.9-0.7,1.7-1.7,1.7v-3.4C109.5,17.8,110.3,18.5,110.3,19.5z"/>
		<path class="st18" d="M110.3,11.6V15c0,0.9-0.7,1.7-1.7,1.7V9.9C109.5,9.9,110.3,10.7,110.3,11.6z"/>
	</g>
</g>
<g>
	<g>
		<path class="st16" d="M13.3,33.7h-1.8V37H11v-9.7h2.5c0.7,0.1,1.4,0.4,1.9,0.9c0.6,0.6,0.9,1.4,0.9,2.2c0,0.9-0.3,1.6-0.9,2.2
			c-0.4,0.4-0.9,0.7-1.5,0.8l2.2,3.4h-0.7L13.3,33.7z M11.5,27.9v5.2h1.6c0.7,0,1.3-0.3,1.8-0.8c0.5-0.5,0.8-1.1,0.8-1.8
			c0-0.7-0.3-1.3-0.8-1.8s-1.1-0.8-1.8-0.8H11.5z"/>
		<path class="st16" d="M17.5,33.6c0,0.1,0,0.2,0,0.3c0,0.8,0.3,1.4,0.8,1.9s1.2,0.8,1.9,0.8s1.4-0.3,1.9-0.8
			c0.1-0.1,0.2-0.2,0.3-0.3l0.6,0.2c-0.1,0.1-0.2,0.3-0.4,0.5c-0.6,0.7-1.4,1-2.4,1c-0.9,0-1.7-0.3-2.3-1c-0.6-0.7-1-1.4-1-2.3
			c0-0.9,0.3-1.7,1-2.4c0.6-0.6,1.4-1,2.3-1c0.9,0,1.7,0.3,2.4,1c0.6,0.6,0.9,1.3,0.9,2H17.5z M17.6,33h5.2
			c-0.1-0.4-0.3-0.8-0.6-1.1c-0.5-0.5-1.2-0.8-1.9-0.8s-1.4,0.3-1.9,0.8C17.9,32.2,17.7,32.6,17.6,33z"/>
		<path class="st16" d="M25.8,33.8c-0.5-0.3-0.8-0.5-1-0.6c-0.3-0.3-0.4-0.6-0.4-1c0-0.4,0.1-0.7,0.4-1c0.3-0.3,0.6-0.4,1-0.4
			s0.7,0.1,1,0.4c0.3,0.3,0.4,0.5,0.4,0.9v0l-0.5,0.2c0-0.3-0.1-0.5-0.3-0.7s-0.3-0.2-0.6-0.2c-0.2,0-0.4,0.1-0.6,0.3
			S25,31.9,25,32.2c0,0.2,0.1,0.4,0.3,0.6c0.1,0.1,0.3,0.3,0.6,0.5c0.5,0.3,0.9,0.5,1.1,0.7c0.3,0.3,0.5,0.8,0.5,1.2
			c0,0.5-0.2,0.9-0.5,1.3c-0.3,0.3-0.8,0.5-1.2,0.5s-0.9-0.2-1.2-0.5c-0.3-0.3-0.5-0.7-0.5-1.1l0.5-0.1c0,0.4,0.1,0.6,0.4,0.9
			c0.2,0.2,0.5,0.4,0.9,0.4s0.6-0.1,0.9-0.4c0.2-0.2,0.4-0.5,0.4-0.9c0-0.3-0.1-0.6-0.4-0.9C26.5,34.3,26.2,34.1,25.8,33.8z"/>
		<path class="st16" d="M28.7,31.1h0.5v0.8c0.1-0.1,0.2-0.3,0.3-0.4c0.6-0.6,1.4-1,2.3-1s1.7,0.3,2.3,1c0.6,0.6,1,1.4,1,2.3
			c0,0.9-0.3,1.7-1,2.3c-0.6,0.6-1.4,1-2.3,1s-1.7-0.3-2.3-1c-0.1-0.1-0.2-0.3-0.3-0.4v3.5h-0.5V31.1z M29.2,33.3v1.1
			c0.1,0.5,0.3,1,0.7,1.4c0.5,0.5,1.2,0.8,1.9,0.8s1.4-0.3,1.9-0.8c0.5-0.5,0.8-1.2,0.8-1.9s-0.3-1.4-0.8-1.9
			c-0.5-0.5-1.2-0.8-1.9-0.8s-1.4,0.3-1.9,0.8C29.6,32.3,29.3,32.8,29.2,33.3z"/>
		<path class="st16" d="M42.7,37h-0.5v-1.2c-0.1,0.1-0.2,0.3-0.3,0.4c-0.6,0.7-1.4,1-2.4,1c-0.9,0-1.7-0.3-2.3-1
			c-0.6-0.7-1-1.4-1-2.3c0-0.9,0.3-1.7,1-2.4c0.6-0.6,1.4-1,2.3-1c0.9,0,1.7,0.3,2.4,1c0.1,0.1,0.2,0.3,0.3,0.4v-0.8h0.5V37z
			 M42.1,34.4v-1.1c-0.1-0.5-0.4-1-0.8-1.4c-0.5-0.5-1.2-0.8-1.9-0.8s-1.4,0.3-1.9,0.8c-0.5,0.5-0.8,1.2-0.8,1.9s0.3,1.4,0.8,1.9
			s1.2,0.8,1.9,0.8s1.4-0.3,1.9-0.8C41.8,35.4,42,34.9,42.1,34.4z"/>
		<path class="st16" d="M44.6,27.3V37H44v-9.7H44.6z"/>
		<path class="st16" d="M52.4,37h-0.5v-1.2c-0.1,0.1-0.2,0.3-0.3,0.4c-0.6,0.7-1.4,1-2.4,1c-0.9,0-1.7-0.3-2.3-1
			c-0.6-0.7-1-1.4-1-2.3c0-0.9,0.3-1.7,1-2.4c0.6-0.6,1.4-1,2.3-1c0.9,0,1.7,0.3,2.4,1c0.1,0.1,0.2,0.3,0.3,0.4v-4.6h0.5V37z
			 M51.9,34.4v-1.1c-0.1-0.5-0.4-1-0.8-1.4c-0.5-0.5-1.2-0.8-1.9-0.8s-1.4,0.3-1.9,0.8c-0.5,0.5-0.8,1.2-0.8,1.9s0.3,1.4,0.8,1.9
			s1.2,0.8,1.9,0.8s1.4-0.3,1.9-0.8C51.5,35.4,51.8,34.9,51.9,34.4z"/>
		<path class="st16" d="M56.8,30.5c0.9,0,1.7,0.3,2.3,1c0.6,0.6,1,1.4,1,2.4c0,0.9-0.3,1.7-1,2.3c-0.6,0.6-1.4,1-2.3,1
			c-0.9,0-1.7-0.3-2.3-1c-0.6-0.7-1-1.4-1-2.3c0-0.9,0.3-1.7,1-2.4C55.1,30.9,55.9,30.5,56.8,30.5z M54.9,31.9
			c-0.5,0.5-0.8,1.2-0.8,1.9s0.3,1.4,0.8,1.9s1.2,0.8,1.9,0.8c0.8,0,1.4-0.3,1.9-0.8c0.5-0.5,0.8-1.2,0.8-1.9s-0.3-1.4-0.8-1.9
			c-0.5-0.5-1.2-0.8-1.9-0.8C56.1,31.1,55.4,31.4,54.9,31.9z"/>
		<path class="st16" d="M67.9,30.5c0.9,0,1.7,0.3,2.3,1c0.6,0.6,1,1.4,1,2.4c0,0.9-0.3,1.7-1,2.3c-0.6,0.6-1.4,1-2.3,1
			c-0.9,0-1.7-0.3-2.3-1c-0.6-0.7-1-1.4-1-2.3c0-0.9,0.3-1.7,1-2.4C66.2,30.9,67,30.5,67.9,30.5z M66,31.9c-0.5,0.5-0.8,1.2-0.8,1.9
			s0.3,1.4,0.8,1.9c0.5,0.5,1.2,0.8,1.9,0.8c0.8,0,1.4-0.3,1.9-0.8c0.5-0.5,0.8-1.2,0.8-1.9s-0.3-1.4-0.8-1.9
			c-0.5-0.5-1.2-0.8-1.9-0.8C67.1,31.1,66.5,31.4,66,31.9z"/>
		<path class="st16" d="M80,30.9c0.4,0.2,0.7,0.4,1,0.7c0.6,0.6,0.9,1.4,0.9,2.2c0,0.9-0.3,1.6-0.9,2.2c-0.5,0.5-1.1,0.8-1.9,0.9
			h-3.1v-9.7h2.9c0.6,0,1,0.2,1.4,0.6c0.4,0.4,0.6,0.9,0.6,1.4s-0.2,1-0.6,1.4C80.2,30.8,80.1,30.9,80,30.9z M76.5,27.9v2.8H79
			c0.4,0,0.7-0.2,0.9-0.4c0.3-0.3,0.4-0.6,0.4-1c0-0.4-0.1-0.7-0.4-1c-0.3-0.3-0.6-0.4-1-0.4H76.5z M78.7,36.5
			c0.7,0,1.3-0.3,1.8-0.8c0.5-0.5,0.8-1.1,0.8-1.8s-0.3-1.3-0.8-1.8c-0.5-0.5-1.1-0.8-1.8-0.8h-2.2v5.2H78.7z"/>
		<path class="st16" d="M89.3,37h-0.5v-1.2c-0.1,0.1-0.2,0.3-0.3,0.4c-0.6,0.7-1.4,1-2.4,1c-0.9,0-1.7-0.3-2.3-1
			c-0.7-0.7-1-1.4-1-2.3c0-0.9,0.3-1.7,1-2.4c0.6-0.6,1.4-1,2.3-1c0.9,0,1.7,0.3,2.4,1c0.1,0.1,0.2,0.3,0.3,0.4v-0.8h0.5V37z
			 M88.8,34.4v-1.1c-0.1-0.5-0.4-1-0.8-1.4c-0.5-0.5-1.2-0.8-1.9-0.8s-1.4,0.3-1.9,0.8c-0.5,0.5-0.8,1.2-0.8,1.9s0.3,1.4,0.8,1.9
			c0.5,0.5,1.2,0.8,1.9,0.8s1.4-0.3,1.9-0.8C88.4,35.4,88.7,34.9,88.8,34.4z"/>
		<path class="st16" d="M95.7,35.6l0.6,0.2c-0.1,0.1-0.2,0.3-0.4,0.4c-0.6,0.7-1.4,1-2.4,1c-0.9,0-1.7-0.3-2.3-1
			c-0.7-0.7-1-1.4-1-2.3s0.3-1.7,1-2.3c0.6-0.6,1.4-1,2.3-1c0.9,0,1.7,0.3,2.4,1c0.1,0.1,0.3,0.3,0.4,0.4l-0.6,0.2
			c-0.1-0.1-0.1-0.1-0.2-0.2c-0.5-0.5-1.2-0.8-1.9-0.8c-0.8,0-1.4,0.3-1.9,0.8c-0.5,0.5-0.8,1.2-0.8,1.9s0.3,1.4,0.8,1.9
			c0.5,0.5,1.2,0.8,1.9,0.8c0.8,0,1.4-0.3,1.9-0.8C95.6,35.7,95.7,35.7,95.7,35.6z"/>
		<path class="st16" d="M100.2,31.1l-1.5,1.8l2.3,4.1h-0.7l-2-3.7L97.9,34v3h-0.5v-8.5h0.5v4.6l1.6-2H100.2z"/>
		<path class="st16" d="M104,37.1c-0.7,0-1.3-0.2-1.8-0.7s-0.7-1-0.7-1.7v-3.7h0.5v3.7c0,0.5,0.2,0.9,0.5,1.3
			c0.4,0.4,0.8,0.5,1.3,0.5c0.5,0,0.9-0.2,1.3-0.5c0.4-0.4,0.5-0.8,0.5-1.3v-3.7h0.5v3.7c0,0.7-0.2,1.2-0.7,1.7S104.7,37.1,104,37.1
			z"/>
		<path class="st16" d="M107.6,31.1h0.5v0.8c0.1-0.1,0.2-0.3,0.3-0.4c0.6-0.6,1.4-1,2.3-1s1.7,0.3,2.3,1c0.6,0.6,1,1.4,1,2.3
			c0,0.9-0.3,1.7-1,2.3c-0.6,0.6-1.4,1-2.3,1s-1.7-0.3-2.3-1c-0.1-0.1-0.2-0.3-0.3-0.4v3.5h-0.5V31.1z M108.2,33.3v1.1
			c0.1,0.5,0.3,1,0.7,1.4c0.5,0.5,1.2,0.8,1.9,0.8s1.4-0.3,1.9-0.8c0.5-0.5,0.8-1.2,0.8-1.9s-0.3-1.4-0.8-1.9
			c-0.5-0.5-1.2-0.8-1.9-0.8s-1.4,0.3-1.9,0.8C108.5,32.3,108.3,32.8,108.2,33.3z"/>
		<path class="st17" d="M118.4,34.1c0,0.1,0,0.2,0,0.3c0,0.6,0.2,1.2,0.7,1.7s1,0.7,1.7,0.7s1.2-0.2,1.7-0.7
			c0.1-0.1,0.2-0.2,0.2-0.2l0.5,0.2c-0.1,0.1-0.2,0.2-0.4,0.4c-0.6,0.6-1.2,0.8-2,0.8c-0.8,0-1.5-0.3-2-0.8s-0.8-1.2-0.8-2
			c0-0.8,0.3-1.5,0.8-2c0.6-0.6,1.2-0.8,2-0.8c0.8,0,1.5,0.3,2,0.8c0.5,0.5,0.7,1.1,0.7,1.8H118.4z M118.5,33.6h4.5
			c-0.1-0.4-0.3-0.7-0.6-0.9c-0.5-0.5-1-0.7-1.7-0.7s-1.2,0.2-1.7,0.7C118.8,32.9,118.6,33.2,118.5,33.6z"/>
		<path class="st17" d="M125.6,34.3c-0.4-0.2-0.7-0.4-0.8-0.6c-0.2-0.2-0.4-0.5-0.4-0.9s0.1-0.6,0.4-0.9c0.2-0.2,0.5-0.4,0.9-0.4
			s0.6,0.1,0.8,0.3c0.2,0.2,0.3,0.5,0.3,0.7v0l-0.4,0.2c0-0.3-0.1-0.5-0.2-0.6s-0.3-0.2-0.5-0.2c-0.2,0-0.4,0.1-0.5,0.2
			s-0.2,0.3-0.2,0.5s0.1,0.4,0.2,0.5c0.1,0.1,0.3,0.2,0.5,0.4c0.4,0.2,0.8,0.5,0.9,0.6c0.3,0.3,0.4,0.7,0.4,1.1
			c0,0.4-0.1,0.8-0.4,1.1s-0.6,0.4-1.1,0.4s-0.8-0.1-1.1-0.4s-0.4-0.6-0.4-1l0.5-0.1c0,0.3,0.1,0.6,0.3,0.8s0.5,0.3,0.7,0.3
			s0.5-0.1,0.7-0.3s0.3-0.5,0.3-0.7c0-0.3-0.1-0.5-0.3-0.7C126.1,34.7,125.9,34.5,125.6,34.3z"/>
		<path class="st17" d="M133,37.1c-0.6,0-1.1-0.2-1.5-0.6s-0.6-0.8-0.6-1.4v-3.2h0.5v3.1c0,0.4,0.2,0.8,0.5,1.1
			c0.3,0.3,0.7,0.5,1.2,0.5c0.4,0,0.8-0.2,1.1-0.5s0.5-0.7,0.5-1.1v-3.1h0.5v3.2c0,0.6-0.2,1-0.6,1.4S133.6,37.1,133,37.1z"/>
		<path class="st17" d="M136.6,33.1V37h-0.5v-5.1h0.5v0.3c0.4-0.4,0.9-0.6,1.5-0.6c0.6,0,1.1,0.2,1.5,0.6c0.4,0.4,0.6,0.9,0.6,1.4
			V37h-0.5v-3.4c0-0.4-0.2-0.8-0.5-1.1s-0.7-0.5-1.1-0.5c-0.4,0-0.8,0.2-1.1,0.5C136.8,32.7,136.7,32.9,136.6,33.1z"/>
		<path class="st17" d="M146.8,37h-0.5v-1c-0.1,0.1-0.2,0.2-0.3,0.3c-0.6,0.6-1.2,0.8-2,0.8c-0.8,0-1.5-0.3-2-0.8s-0.8-1.2-0.8-2
			c0-0.8,0.3-1.5,0.8-2c0.6-0.6,1.2-0.8,2-0.8c0.8,0,1.5,0.3,2,0.8c0.1,0.1,0.2,0.2,0.3,0.3v-0.7h0.5V37z M146.3,34.8v-0.9
			c-0.1-0.5-0.3-0.9-0.6-1.2c-0.5-0.5-1-0.7-1.7-0.7s-1.2,0.2-1.7,0.7s-0.7,1-0.7,1.7s0.2,1.2,0.7,1.7s1,0.7,1.7,0.7
			s1.2-0.2,1.7-0.7C146,35.6,146.2,35.2,146.3,34.8z"/>
		<path class="st17" d="M155.3,35.8l0.5,0.2c-0.1,0.1-0.2,0.2-0.3,0.4c-0.6,0.6-1.2,0.8-2,0.8c-0.8,0-1.5-0.3-2-0.8s-0.8-1.2-0.8-2
			s0.3-1.5,0.8-2c0.6-0.6,1.2-0.8,2-0.8c0.8,0,1.5,0.3,2,0.8c0.1,0.1,0.2,0.2,0.3,0.4l-0.5,0.2c-0.1-0.1-0.1-0.1-0.2-0.2
			c-0.5-0.5-1-0.7-1.7-0.7c-0.6,0-1.2,0.2-1.7,0.7s-0.7,1-0.7,1.7s0.2,1.2,0.7,1.7s1,0.7,1.7,0.7c0.6,0,1.2-0.2,1.7-0.7
			C155.2,35.9,155.2,35.8,155.3,35.8z"/>
		<path class="st17" d="M159.3,31.5c0.8,0,1.5,0.3,2,0.8c0.6,0.6,0.8,1.2,0.8,2c0,0.8-0.3,1.5-0.8,2s-1.2,0.8-2,0.8
			c-0.8,0-1.5-0.3-2-0.8s-0.8-1.2-0.8-2c0-0.8,0.3-1.5,0.8-2C157.9,31.7,158.5,31.5,159.3,31.5z M157.7,32.7c-0.5,0.5-0.7,1-0.7,1.7
			s0.2,1.2,0.7,1.7s1,0.7,1.7,0.7s1.2-0.2,1.7-0.7s0.7-1,0.7-1.7s-0.2-1.2-0.7-1.7s-1-0.7-1.7-0.7S158.1,32.2,157.7,32.7z"/>
		<path class="st17" d="M163.1,31.9h0.5v0.7c0.1-0.1,0.2-0.2,0.3-0.3c0.6-0.6,1.2-0.8,2-0.8s1.5,0.3,2,0.8c0.6,0.6,0.8,1.2,0.8,2
			c0,0.8-0.3,1.5-0.8,2s-1.2,0.8-2,0.8s-1.5-0.3-2-0.8c-0.1-0.1-0.2-0.2-0.3-0.3v3h-0.5V31.9z M163.6,33.8v1
			c0.1,0.4,0.3,0.8,0.6,1.2c0.5,0.5,1,0.7,1.7,0.7s1.2-0.2,1.7-0.7s0.7-1,0.7-1.7s-0.2-1.2-0.7-1.7s-1-0.7-1.7-0.7s-1.2,0.2-1.7,0.7
			C163.9,33,163.7,33.4,163.6,33.8z"/>
		<path class="st17" d="M170.3,30.3c0.1,0.1,0.1,0.2,0.1,0.3c0,0.1,0,0.2-0.1,0.3s-0.2,0.1-0.3,0.1c-0.1,0-0.2,0-0.3-0.1
			s-0.1-0.2-0.1-0.3c0-0.1,0-0.2,0.1-0.3s0.2-0.1,0.3-0.1C170.1,30.1,170.2,30.2,170.3,30.3z M170.2,31.9V37h-0.5v-5.1H170.2z"/>
		<path class="st17" d="M177,37h-0.5v-1c-0.1,0.1-0.2,0.2-0.3,0.3c-0.6,0.6-1.2,0.8-2,0.8c-0.8,0-1.5-0.3-2-0.8s-0.8-1.2-0.8-2
			c0-0.8,0.3-1.5,0.8-2c0.6-0.6,1.2-0.8,2-0.8c0.8,0,1.5,0.3,2,0.8c0.1,0.1,0.2,0.2,0.3,0.3v-0.7h0.5V37z M176.5,34.8v-0.9
			c-0.1-0.5-0.3-0.9-0.6-1.2c-0.5-0.5-1-0.7-1.7-0.7s-1.2,0.2-1.7,0.7s-0.7,1-0.7,1.7s0.2,1.2,0.7,1.7s1,0.7,1.7,0.7
			s1.2-0.2,1.7-0.7C176.2,35.6,176.4,35.2,176.5,34.8z"/>
		<path class="st17" d="M186.5,37h-0.5v-1c-0.1,0.1-0.2,0.2-0.3,0.3c-0.6,0.6-1.2,0.8-2,0.8c-0.8,0-1.5-0.3-2-0.8s-0.8-1.2-0.8-2
			c0-0.8,0.3-1.5,0.8-2c0.6-0.6,1.2-0.8,2-0.8c0.8,0,1.5,0.3,2,0.8c0.1,0.1,0.2,0.2,0.3,0.3v-3.9h0.5V37z M186.1,34.8v-0.9
			c-0.1-0.5-0.3-0.9-0.6-1.2c-0.5-0.5-1-0.7-1.7-0.7s-1.2,0.2-1.7,0.7s-0.7,1-0.7,1.7s0.2,1.2,0.7,1.7s1,0.7,1.7,0.7
			s1.2-0.2,1.7-0.7C185.8,35.6,186,35.2,186.1,34.8z"/>
		<path class="st17" d="M187.9,34.1c0,0.1,0,0.2,0,0.3c0,0.6,0.2,1.2,0.7,1.7s1,0.7,1.7,0.7s1.2-0.2,1.7-0.7
			c0.1-0.1,0.2-0.2,0.2-0.2l0.5,0.2c-0.1,0.1-0.2,0.2-0.4,0.4c-0.6,0.6-1.2,0.8-2,0.8c-0.8,0-1.5-0.3-2-0.8s-0.8-1.2-0.8-2
			c0-0.8,0.3-1.5,0.8-2c0.6-0.6,1.2-0.8,2-0.8c0.8,0,1.5,0.3,2,0.8c0.5,0.5,0.7,1.1,0.7,1.8H187.9z M188,33.6h4.5
			c-0.1-0.4-0.3-0.7-0.6-0.9c-0.5-0.5-1-0.7-1.7-0.7s-1.2,0.2-1.7,0.7C188.3,32.9,188.1,33.2,188,33.6z"/>
		<path class="st17" d="M197.3,28.7V37h-0.5v-8.3H197.3z"/>
		<path class="st17" d="M201.2,31.5c0.8,0,1.5,0.3,2,0.8c0.6,0.6,0.8,1.2,0.8,2c0,0.8-0.3,1.5-0.8,2s-1.2,0.8-2,0.8
			c-0.8,0-1.5-0.3-2-0.8s-0.8-1.2-0.8-2c0-0.8,0.3-1.5,0.8-2C199.7,31.7,200.4,31.5,201.2,31.5z M199.5,32.7c-0.5,0.5-0.7,1-0.7,1.7
			s0.2,1.2,0.7,1.7s1,0.7,1.7,0.7s1.2-0.2,1.7-0.7s0.7-1,0.7-1.7s-0.2-1.2-0.7-1.7s-1-0.7-1.7-0.7S200,32.2,199.5,32.7z"/>
		<path class="st17" d="M206.3,34.3c-0.4-0.2-0.7-0.4-0.8-0.6c-0.2-0.2-0.4-0.5-0.4-0.9s0.1-0.6,0.4-0.9c0.2-0.2,0.5-0.4,0.9-0.4
			s0.6,0.1,0.8,0.3c0.2,0.2,0.3,0.5,0.3,0.7v0l-0.4,0.2c0-0.3-0.1-0.5-0.2-0.6s-0.3-0.2-0.5-0.2c-0.2,0-0.4,0.1-0.5,0.2
			s-0.2,0.3-0.2,0.5s0.1,0.4,0.2,0.5c0.1,0.1,0.3,0.2,0.5,0.4c0.4,0.2,0.8,0.5,0.9,0.6c0.3,0.3,0.4,0.7,0.4,1.1
			c0,0.4-0.1,0.8-0.4,1.1s-0.6,0.4-1.1,0.4s-0.8-0.1-1.1-0.4s-0.4-0.6-0.4-1l0.5-0.1c0,0.3,0.1,0.6,0.3,0.8s0.5,0.3,0.7,0.3
			s0.5-0.1,0.7-0.3s0.3-0.5,0.3-0.7c0-0.3-0.1-0.5-0.3-0.7C206.9,34.7,206.7,34.5,206.3,34.3z"/>
		<path class="st17" d="M16.2,51.4h-0.5v-1c-0.1,0.1-0.2,0.2-0.3,0.3c-0.6,0.6-1.2,0.8-2,0.8c-0.8,0-1.5-0.3-2-0.8s-0.8-1.2-0.8-2
			c0-0.8,0.3-1.5,0.8-2s1.2-0.8,2-0.8c0.8,0,1.5,0.3,2,0.8c0.1,0.1,0.2,0.2,0.3,0.3v-3.9h0.5V51.4z M15.8,49.2v-0.9
			c-0.1-0.5-0.3-0.9-0.6-1.2c-0.5-0.5-1-0.7-1.7-0.7s-1.2,0.2-1.7,0.7s-0.7,1-0.7,1.7s0.2,1.2,0.7,1.7s1,0.7,1.7,0.7
			s1.2-0.2,1.7-0.7C15.5,50,15.7,49.6,15.8,49.2z"/>
		<path class="st17" d="M22.8,51.4h-0.5v-1c-0.1,0.1-0.2,0.2-0.3,0.3c-0.6,0.6-1.2,0.8-2,0.8c-0.8,0-1.5-0.3-2-0.8s-0.8-1.2-0.8-2
			c0-0.8,0.3-1.5,0.8-2s1.2-0.8,2-0.8c0.8,0,1.5,0.3,2,0.8c0.1,0.1,0.2,0.2,0.3,0.3v-0.7h0.5V51.4z M22.4,49.2v-0.9
			c-0.1-0.5-0.3-0.9-0.6-1.2c-0.5-0.5-1-0.7-1.7-0.7s-1.2,0.2-1.7,0.7s-0.7,1-0.7,1.7s0.2,1.2,0.7,1.7s1,0.7,1.7,0.7
			s1.2-0.2,1.7-0.7C22,50,22.3,49.6,22.4,49.2z"/>
		<path class="st17" d="M24.6,46.3v-2.2H25v2.2h1v0.5h-1v4.6h-0.5v-4.6h-1v-0.5H24.6z"/>
		<path class="st17" d="M29.5,45.9c0.8,0,1.5,0.3,2,0.8s0.8,1.2,0.8,2c0,0.8-0.3,1.5-0.8,2s-1.2,0.8-2,0.8c-0.8,0-1.5-0.3-2-0.8
			s-0.8-1.2-0.8-2c0-0.8,0.3-1.5,0.8-2S28.7,45.9,29.5,45.9z M27.9,47.1c-0.5,0.5-0.7,1-0.7,1.7s0.2,1.2,0.7,1.7s1,0.7,1.7,0.7
			s1.2-0.2,1.7-0.7s0.7-1,0.7-1.7s-0.2-1.2-0.7-1.7s-1-0.7-1.7-0.7S28.3,46.6,27.9,47.1z"/>
		<path class="st17" d="M34.7,48.7c-0.4-0.2-0.7-0.4-0.8-0.6c-0.2-0.2-0.4-0.5-0.4-0.9s0.1-0.6,0.4-0.9s0.5-0.4,0.9-0.4
			s0.6,0.1,0.8,0.3c0.2,0.2,0.3,0.5,0.3,0.7v0l-0.4,0.2c0-0.3-0.1-0.5-0.2-0.6s-0.3-0.2-0.5-0.2c-0.2,0-0.4,0.1-0.5,0.2
			S34,47.1,34,47.3s0.1,0.4,0.2,0.5c0.1,0.1,0.3,0.2,0.5,0.4c0.4,0.2,0.8,0.5,0.9,0.6c0.3,0.3,0.4,0.7,0.4,1.1
			c0,0.4-0.1,0.8-0.4,1.1s-0.6,0.4-1.1,0.4s-0.8-0.1-1.1-0.4s-0.4-0.6-0.4-1l0.5-0.1c0,0.3,0.1,0.6,0.3,0.8s0.5,0.3,0.7,0.3
			s0.5-0.1,0.7-0.3s0.3-0.5,0.3-0.7c0-0.3-0.1-0.5-0.3-0.7C35.2,49.1,35,48.9,34.7,48.7z"/>
		<path class="st17" d="M42.8,45.9c0.8,0,1.5,0.3,2,0.8s0.8,1.2,0.8,2c0,0.8-0.3,1.5-0.8,2s-1.2,0.8-2,0.8c-0.8,0-1.5-0.3-2-0.8
			s-0.8-1.2-0.8-2c0-0.8,0.3-1.5,0.8-2S42,45.9,42.8,45.9z M41.1,47.1c-0.5,0.5-0.7,1-0.7,1.7s0.2,1.2,0.7,1.7s1,0.7,1.7,0.7
			s1.2-0.2,1.7-0.7s0.7-1,0.7-1.7s-0.2-1.2-0.7-1.7s-1-0.7-1.7-0.7S41.6,46.6,41.1,47.1z"/>
		<path class="st17" d="M48.4,46.7c-0.3,0.1-0.7,0.3-1,0.6S47,48.1,47,48.5v2.9h-0.5v-5.1H47v1.1c0.2-0.5,0.6-0.9,1.2-1.1L48.4,46.7
			z"/>
		<path class="st17" d="M49.7,44.7c0.1,0.1,0.1,0.2,0.1,0.3c0,0.1,0,0.2-0.1,0.3s-0.2,0.1-0.3,0.1c-0.1,0-0.2,0-0.3-0.1
			s-0.1-0.2-0.1-0.3c0-0.1,0-0.2,0.1-0.3s0.2-0.1,0.3-0.1C49.5,44.5,49.6,44.6,49.7,44.7z M49.6,46.3v5.1h-0.5v-5.1H49.6z"/>
		<path class="st17" d="M55.7,50.4c-0.1,0.1-0.2,0.2-0.3,0.3c-0.6,0.6-1.2,0.8-2,0.8c-0.8,0-1.5-0.3-2-0.8s-0.8-1.2-0.8-2
			c0-0.8,0.3-1.5,0.8-2s1.2-0.8,2-0.8c0.8,0,1.5,0.3,2,0.8c0.1,0.1,0.2,0.2,0.3,0.3v-0.7h0.5v3.9c0,0.8-0.3,1.4-0.8,2
			c-0.6,0.6-1.2,0.8-2,0.8s-1.5-0.3-2-0.8c-0.1-0.1-0.2-0.2-0.3-0.4l0.5-0.2c0.1,0.1,0.1,0.1,0.2,0.2c0.5,0.5,1,0.7,1.7,0.7
			c0.6,0,1.2-0.2,1.7-0.7C55.5,51.5,55.7,51,55.7,50.4z M55.7,48.2c-0.1-0.4-0.3-0.8-0.6-1.2c-0.5-0.5-1-0.7-1.7-0.7
			s-1.2,0.2-1.7,0.7s-0.7,1-0.7,1.7s0.2,1.2,0.7,1.7s1,0.7,1.7,0.7s1.2-0.2,1.7-0.7c0.3-0.3,0.5-0.7,0.6-1.2V48.2z"/>
		<path class="st17" d="M57.9,44.7C58,44.8,58,44.9,58,45c0,0.1,0,0.2-0.1,0.3s-0.2,0.1-0.3,0.1c-0.1,0-0.2,0-0.3-0.1
			s-0.1-0.2-0.1-0.3c0-0.1,0-0.2,0.1-0.3s0.2-0.1,0.3-0.1C57.7,44.5,57.8,44.6,57.9,44.7z M57.8,46.3v5.1h-0.5v-5.1H57.8z"/>
		<path class="st17" d="M59.5,47.5v3.9h-0.5v-5.1h0.5v0.3C60,46.2,60.5,46,61,46c0.6,0,1.1,0.2,1.5,0.6s0.6,0.9,0.6,1.4v3.4h-0.5
			v-3.4c0-0.4-0.2-0.8-0.5-1.1s-0.7-0.5-1.1-0.5c-0.4,0-0.8,0.2-1.1,0.5C59.7,47.1,59.6,47.3,59.5,47.5z"/>
		<path class="st17" d="M69.7,51.4h-0.5v-1c-0.1,0.1-0.2,0.2-0.3,0.3c-0.6,0.6-1.2,0.8-2,0.8c-0.8,0-1.5-0.3-2-0.8s-0.8-1.2-0.8-2
			c0-0.8,0.3-1.5,0.8-2s1.2-0.8,2-0.8c0.8,0,1.5,0.3,2,0.8c0.1,0.1,0.2,0.2,0.3,0.3v-0.7h0.5V51.4z M69.2,49.2v-0.9
			c-0.1-0.5-0.3-0.9-0.6-1.2c-0.5-0.5-1-0.7-1.7-0.7s-1.2,0.2-1.7,0.7s-0.7,1-0.7,1.7s0.2,1.2,0.7,1.7s1,0.7,1.7,0.7
			s1.2-0.2,1.7-0.7C68.9,50,69.1,49.6,69.2,49.2z"/>
		<path class="st17" d="M71.3,43.1v8.3h-0.5v-8.3H71.3z"/>
		<path class="st17" d="M72.8,48.5c0,0.1,0,0.2,0,0.3c0,0.6,0.2,1.2,0.7,1.7s1,0.7,1.7,0.7s1.2-0.2,1.7-0.7c0.1-0.1,0.2-0.2,0.2-0.2
			l0.5,0.2c-0.1,0.1-0.2,0.2-0.4,0.4c-0.6,0.6-1.2,0.8-2,0.8c-0.8,0-1.5-0.3-2-0.8s-0.8-1.2-0.8-2c0-0.8,0.3-1.5,0.8-2
			s1.2-0.8,2-0.8c0.8,0,1.5,0.3,2,0.8c0.5,0.5,0.7,1.1,0.7,1.8H72.8z M72.9,48h4.5c-0.1-0.4-0.3-0.7-0.6-0.9c-0.5-0.5-1-0.7-1.7-0.7
			s-1.2,0.2-1.7,0.7C73.2,47.3,73,47.6,72.9,48z"/>
		<path class="st17" d="M80,48.7c-0.4-0.2-0.7-0.4-0.8-0.6c-0.2-0.2-0.4-0.5-0.4-0.9s0.1-0.6,0.4-0.9S79.7,46,80,46s0.6,0.1,0.8,0.3
			c0.2,0.2,0.3,0.5,0.3,0.7v0l-0.4,0.2c0-0.3-0.1-0.5-0.2-0.6s-0.3-0.2-0.5-0.2c-0.2,0-0.4,0.1-0.5,0.2s-0.2,0.3-0.2,0.5
			s0.1,0.4,0.2,0.5c0.1,0.1,0.3,0.2,0.5,0.4c0.4,0.2,0.8,0.5,0.9,0.6c0.3,0.3,0.4,0.7,0.4,1.1c0,0.4-0.1,0.8-0.4,1.1
			s-0.6,0.4-1.1,0.4s-0.8-0.1-1.1-0.4s-0.4-0.6-0.4-1l0.5-0.1c0,0.3,0.1,0.6,0.3,0.8s0.5,0.3,0.7,0.3s0.5-0.1,0.7-0.3
			s0.3-0.5,0.3-0.7c0-0.3-0.1-0.5-0.3-0.7C80.5,49.1,80.3,48.9,80,48.7z"/>
		<path class="st17" d="M90.8,53.4h-0.5v-3c-0.1,0.1-0.2,0.2-0.3,0.3c-0.6,0.6-1.2,0.8-2,0.8c-0.8,0-1.5-0.3-2-0.8s-0.8-1.2-0.8-2
			c0-0.8,0.3-1.5,0.8-2s1.2-0.8,2-0.8c0.8,0,1.5,0.3,2,0.8c0.1,0.1,0.2,0.2,0.3,0.3v-0.7h0.5V53.4z M90.3,49.2v-0.9
			c-0.1-0.5-0.3-0.9-0.6-1.2c-0.5-0.5-1-0.7-1.7-0.7s-1.2,0.2-1.7,0.7s-0.7,1-0.7,1.7s0.2,1.2,0.7,1.7s1,0.7,1.7,0.7
			s1.2-0.2,1.7-0.7C90,50,90.3,49.6,90.3,49.2z"/>
		<path class="st17" d="M93.9,51.5c-0.6,0-1.1-0.2-1.5-0.6s-0.6-0.8-0.6-1.4v-3.2h0.5v3.1c0,0.4,0.2,0.8,0.5,1.1
			c0.3,0.3,0.7,0.5,1.2,0.5c0.4,0,0.8-0.2,1.1-0.5s0.5-0.7,0.5-1.1v-3.1H96v3.2c0,0.6-0.2,1-0.6,1.4S94.5,51.5,93.9,51.5z"/>
		<path class="st17" d="M97.3,48.5c0,0.1,0,0.2,0,0.3c0,0.6,0.2,1.2,0.7,1.7s1,0.7,1.7,0.7s1.2-0.2,1.7-0.7c0.1-0.1,0.2-0.2,0.2-0.2
			l0.5,0.2c-0.1,0.1-0.2,0.2-0.4,0.4c-0.6,0.6-1.2,0.8-2,0.8c-0.8,0-1.5-0.3-2-0.8s-0.8-1.2-0.8-2c0-0.8,0.3-1.5,0.8-2
			s1.2-0.8,2-0.8c0.8,0,1.5,0.3,2,0.8c0.5,0.5,0.7,1.1,0.7,1.8H97.3z M97.4,48h4.5c-0.1-0.4-0.3-0.7-0.6-0.9c-0.5-0.5-1-0.7-1.7-0.7
			s-1.2,0.2-1.7,0.7C97.7,47.3,97.5,47.6,97.4,48z"/>
		<path class="st17" d="M107.5,48.7c-0.4-0.2-0.7-0.4-0.8-0.6c-0.2-0.2-0.4-0.5-0.4-0.9s0.1-0.6,0.4-0.9s0.5-0.4,0.9-0.4
			s0.6,0.1,0.8,0.3c0.2,0.2,0.3,0.5,0.3,0.7v0l-0.4,0.2c0-0.3-0.1-0.5-0.2-0.6s-0.3-0.2-0.5-0.2c-0.2,0-0.4,0.1-0.5,0.2
			s-0.2,0.3-0.2,0.5s0.1,0.4,0.2,0.5c0.1,0.1,0.3,0.2,0.5,0.4c0.4,0.2,0.8,0.5,0.9,0.6c0.3,0.3,0.4,0.7,0.4,1.1
			c0,0.4-0.1,0.8-0.4,1.1s-0.6,0.4-1.1,0.4s-0.8-0.1-1.1-0.4s-0.4-0.6-0.4-1l0.5-0.1c0,0.3,0.1,0.6,0.3,0.8s0.5,0.3,0.7,0.3
			s0.5-0.1,0.7-0.3s0.3-0.5,0.3-0.7c0-0.3-0.1-0.5-0.3-0.7C108,49.1,107.8,48.9,107.5,48.7z"/>
		<path class="st17" d="M110.1,48.5c0,0.1,0,0.2,0,0.3c0,0.6,0.2,1.2,0.7,1.7s1,0.7,1.7,0.7s1.2-0.2,1.7-0.7
			c0.1-0.1,0.2-0.2,0.2-0.2l0.5,0.2c-0.1,0.1-0.2,0.2-0.4,0.4c-0.6,0.6-1.2,0.8-2,0.8c-0.8,0-1.5-0.3-2-0.8s-0.8-1.2-0.8-2
			c0-0.8,0.3-1.5,0.8-2s1.2-0.8,2-0.8c0.8,0,1.5,0.3,2,0.8c0.5,0.5,0.7,1.1,0.7,1.8H110.1z M110.2,48h4.5c-0.1-0.4-0.3-0.7-0.6-0.9
			c-0.5-0.5-1-0.7-1.7-0.7s-1.2,0.2-1.7,0.7C110.5,47.3,110.3,47.6,110.2,48z"/>
		<path class="st17" d="M120.8,46.7c-0.3,0.1-0.7,0.3-1,0.6s-0.5,0.7-0.5,1.1v2.9h-0.5v-5.1h0.5v1.1c0.2-0.5,0.6-0.9,1.2-1.1
			L120.8,46.7z"/>
		<path class="st17" d="M121.6,48.5c0,0.1,0,0.2,0,0.3c0,0.6,0.2,1.2,0.7,1.7s1,0.7,1.7,0.7s1.2-0.2,1.7-0.7
			c0.1-0.1,0.2-0.2,0.2-0.2l0.5,0.2c-0.1,0.1-0.2,0.2-0.4,0.4c-0.6,0.6-1.2,0.8-2,0.8c-0.8,0-1.5-0.3-2-0.8s-0.8-1.2-0.8-2
			c0-0.8,0.3-1.5,0.8-2s1.2-0.8,2-0.8c0.8,0,1.5,0.3,2,0.8c0.5,0.5,0.7,1.1,0.7,1.8H121.6z M121.7,48h4.5c-0.1-0.4-0.3-0.7-0.6-0.9
			c-0.5-0.5-1-0.7-1.7-0.7s-1.2,0.2-1.7,0.7C122,47.3,121.8,47.6,121.7,48z"/>
		<path class="st17" d="M133,51.4h-0.5v-1c-0.1,0.1-0.2,0.2-0.3,0.3c-0.6,0.6-1.2,0.8-2,0.8c-0.8,0-1.5-0.3-2-0.8s-0.8-1.2-0.8-2
			c0-0.8,0.3-1.5,0.8-2s1.2-0.8,2-0.8c0.8,0,1.5,0.3,2,0.8c0.1,0.1,0.2,0.2,0.3,0.3v-0.7h0.5V51.4z M132.5,49.2v-0.9
			c-0.1-0.5-0.3-0.9-0.6-1.2c-0.5-0.5-1-0.7-1.7-0.7s-1.2,0.2-1.7,0.7s-0.7,1-0.7,1.7s0.2,1.2,0.7,1.7s1,0.7,1.7,0.7
			s1.2-0.2,1.7-0.7C132.2,50,132.4,49.6,132.5,49.2z"/>
		<path class="st17" d="M134.6,43.1v8.3h-0.5v-8.3H134.6z"/>
		<path class="st17" d="M136.5,44.7c0.1,0.1,0.1,0.2,0.1,0.3c0,0.1,0,0.2-0.1,0.3s-0.2,0.1-0.3,0.1c-0.1,0-0.2,0-0.3-0.1
			s-0.1-0.2-0.1-0.3c0-0.1,0-0.2,0.1-0.3s0.2-0.1,0.3-0.1C136.3,44.5,136.4,44.6,136.5,44.7z M136.4,46.3v5.1h-0.5v-5.1H136.4z"/>
		<path class="st17" d="M140.1,46.9h-2.6v-0.5h3.4l-2.6,4.5h2.8v0.5h-3.6L140.1,46.9z"/>
		<path class="st17" d="M147.5,51.4H147v-1c-0.1,0.1-0.2,0.2-0.3,0.3c-0.6,0.6-1.2,0.8-2,0.8c-0.8,0-1.5-0.3-2-0.8s-0.8-1.2-0.8-2
			c0-0.8,0.3-1.5,0.8-2s1.2-0.8,2-0.8c0.8,0,1.5,0.3,2,0.8c0.1,0.1,0.2,0.2,0.3,0.3v-0.7h0.5V51.4z M147,49.2v-0.9
			c-0.1-0.5-0.3-0.9-0.6-1.2c-0.5-0.5-1-0.7-1.7-0.7s-1.2,0.2-1.7,0.7s-0.7,1-0.7,1.7s0.2,1.2,0.7,1.7s1,0.7,1.7,0.7
			s1.2-0.2,1.7-0.7C146.7,50,146.9,49.6,147,49.2z"/>
		<path class="st17" d="M156,50.2l0.5,0.2c-0.1,0.1-0.2,0.2-0.3,0.4c-0.6,0.6-1.2,0.8-2,0.8c-0.8,0-1.5-0.3-2-0.8s-0.8-1.2-0.8-2
			s0.3-1.5,0.8-2s1.2-0.8,2-0.8c0.8,0,1.5,0.3,2,0.8c0.1,0.1,0.2,0.2,0.3,0.4l-0.5,0.2c-0.1-0.1-0.1-0.1-0.2-0.2
			c-0.5-0.5-1-0.7-1.7-0.7c-0.6,0-1.2,0.2-1.7,0.7s-0.7,1-0.7,1.7s0.2,1.2,0.7,1.7s1,0.7,1.7,0.7c0.6,0,1.2-0.2,1.7-0.7
			C155.9,50.3,155.9,50.2,156,50.2z"/>
		<path class="st17" d="M160,45.9c0.8,0,1.5,0.3,2,0.8s0.8,1.2,0.8,2c0,0.8-0.3,1.5-0.8,2s-1.2,0.8-2,0.8c-0.8,0-1.5-0.3-2-0.8
			s-0.8-1.2-0.8-2c0-0.8,0.3-1.5,0.8-2S159.2,45.9,160,45.9z M158.4,47.1c-0.5,0.5-0.7,1-0.7,1.7s0.2,1.2,0.7,1.7s1,0.7,1.7,0.7
			s1.2-0.2,1.7-0.7s0.7-1,0.7-1.7s-0.2-1.2-0.7-1.7s-1-0.7-1.7-0.7S158.8,46.6,158.4,47.1z"/>
		<path class="st17" d="M164.3,47.5v3.9h-0.5v-5.1h0.5v0.3c0.4-0.4,0.9-0.6,1.5-0.6c0.6,0,1.1,0.2,1.5,0.6s0.6,0.9,0.6,1.4v3.4h-0.5
			v-3.4c0-0.4-0.2-0.8-0.5-1.1s-0.7-0.5-1.1-0.5c-0.4,0-0.8,0.2-1.1,0.5C164.5,47.1,164.4,47.3,164.3,47.5z"/>
		<path class="st17" d="M172.2,48.5c0,0.1,0,0.2,0,0.3c0,0.6,0.2,1.2,0.7,1.7s1,0.7,1.7,0.7s1.2-0.2,1.7-0.7
			c0.1-0.1,0.2-0.2,0.2-0.2l0.5,0.2c-0.1,0.1-0.2,0.2-0.4,0.4c-0.6,0.6-1.2,0.8-2,0.8c-0.8,0-1.5-0.3-2-0.8s-0.8-1.2-0.8-2
			c0-0.8,0.3-1.5,0.8-2s1.2-0.8,2-0.8c0.8,0,1.5,0.3,2,0.8c0.5,0.5,0.7,1.1,0.7,1.8H172.2z M172.3,48h4.5c-0.1-0.4-0.3-0.7-0.6-0.9
			c-0.5-0.5-1-0.7-1.7-0.7s-1.2,0.2-1.7,0.7C172.6,47.3,172.4,47.6,172.3,48z"/>
		<path class="st17" d="M178.6,43.1v8.3h-0.5v-8.3H178.6z"/>
		<path class="st17" d="M183.4,46.8v4.6h-0.5v-4.6h-0.5v-0.5h0.5v-1.4c0-0.4,0.2-0.7,0.4-1c0.3-0.3,0.6-0.4,1-0.4
			c0.2,0,0.4,0,0.6,0.1l-0.1,0.4c-0.1-0.1-0.3-0.1-0.4-0.1c-0.2,0-0.5,0.1-0.7,0.3c-0.2,0.2-0.3,0.4-0.3,0.7v1.3h1v0.5H183.4z"/>
		<path class="st17" d="M185.8,44.7c0.1,0.1,0.1,0.2,0.1,0.3c0,0.1,0,0.2-0.1,0.3s-0.2,0.1-0.3,0.1c-0.1,0-0.2,0-0.3-0.1
			S185,45.1,185,45c0-0.1,0-0.2,0.1-0.3s0.2-0.1,0.3-0.1C185.6,44.5,185.7,44.6,185.8,44.7z M185.7,46.3v5.1h-0.5v-5.1H185.7z"/>
		<path class="st17" d="M187.4,47.5v3.9h-0.5v-5.1h0.5v0.3c0.4-0.4,0.9-0.6,1.5-0.6c0.6,0,1.1,0.2,1.5,0.6s0.6,0.9,0.6,1.4v3.4h-0.5
			v-3.4c0-0.4-0.2-0.8-0.5-1.1s-0.7-0.5-1.1-0.5c-0.4,0-0.8,0.2-1.1,0.5C187.6,47.1,187.5,47.3,187.4,47.5z"/>
		<path class="st17" d="M200.5,51.4h-0.5v-1c-0.1,0.1-0.2,0.2-0.3,0.3c-0.6,0.6-1.2,0.8-2,0.8c-0.8,0-1.5-0.3-2-0.8s-0.8-1.2-0.8-2
			c0-0.8,0.3-1.5,0.8-2s1.2-0.8,2-0.8c0.8,0,1.5,0.3,2,0.8c0.1,0.1,0.2,0.2,0.3,0.3v-3.9h0.5V51.4z M200.1,49.2v-0.9
			c-0.1-0.5-0.3-0.9-0.6-1.2c-0.5-0.5-1-0.7-1.7-0.7s-1.2,0.2-1.7,0.7s-0.7,1-0.7,1.7s0.2,1.2,0.7,1.7s1,0.7,1.7,0.7
			s1.2-0.2,1.7-0.7C199.8,50,200,49.6,200.1,49.2z"/>
		<path class="st17" d="M201.9,48.5c0,0.1,0,0.2,0,0.3c0,0.6,0.2,1.2,0.7,1.7s1,0.7,1.7,0.7s1.2-0.2,1.7-0.7
			c0.1-0.1,0.2-0.2,0.2-0.2l0.5,0.2c-0.1,0.1-0.2,0.2-0.4,0.4c-0.6,0.6-1.2,0.8-2,0.8c-0.8,0-1.5-0.3-2-0.8s-0.8-1.2-0.8-2
			c0-0.8,0.3-1.5,0.8-2s1.2-0.8,2-0.8c0.8,0,1.5,0.3,2,0.8c0.5,0.5,0.7,1.1,0.7,1.8H201.9z M202,48h4.5c-0.1-0.4-0.3-0.7-0.6-0.9
			c-0.5-0.5-1-0.7-1.7-0.7s-1.2,0.2-1.7,0.7C202.3,47.3,202.1,47.6,202,48z"/>
		<path class="st17" d="M16.2,65.8h-0.5v-1c-0.1,0.1-0.2,0.2-0.3,0.3c-0.6,0.6-1.2,0.8-2,0.8c-0.8,0-1.5-0.3-2-0.8s-0.8-1.2-0.8-2
			c0-0.8,0.3-1.5,0.8-2s1.2-0.8,2-0.8c0.8,0,1.5,0.3,2,0.8c0.1,0.1,0.2,0.2,0.3,0.3v-3.9h0.5V65.8z M15.8,63.6v-0.9
			c-0.1-0.5-0.3-0.9-0.6-1.2c-0.5-0.5-1-0.7-1.7-0.7s-1.2,0.2-1.7,0.7s-0.7,1-0.7,1.7s0.2,1.2,0.7,1.7s1,0.7,1.7,0.7
			s1.2-0.2,1.7-0.7C15.5,64.4,15.7,64,15.8,63.6z"/>
		<path class="st17" d="M18,59.1c0.1,0.1,0.1,0.2,0.1,0.3c0,0.1,0,0.2-0.1,0.3s-0.2,0.1-0.3,0.1c-0.1,0-0.2,0-0.3-0.1
			s-0.1-0.2-0.1-0.3c0-0.1,0-0.2,0.1-0.3s0.2-0.1,0.3-0.1C17.8,58.9,17.9,59,18,59.1z M17.9,60.7v5.1h-0.5v-5.1H17.9z"/>
		<path class="st17" d="M20.5,63.1c-0.4-0.2-0.7-0.4-0.8-0.6c-0.2-0.2-0.4-0.5-0.4-0.9s0.1-0.6,0.4-0.9s0.5-0.4,0.9-0.4
			s0.6,0.1,0.8,0.3c0.2,0.2,0.3,0.5,0.3,0.7v0l-0.4,0.2c0-0.3-0.1-0.5-0.2-0.6s-0.3-0.2-0.5-0.2c-0.2,0-0.4,0.1-0.5,0.2
			s-0.2,0.3-0.2,0.5s0.1,0.4,0.2,0.5c0.1,0.1,0.3,0.2,0.5,0.4c0.4,0.2,0.8,0.5,0.9,0.6c0.3,0.3,0.4,0.7,0.4,1.1
			c0,0.4-0.1,0.8-0.4,1.1s-0.6,0.4-1.1,0.4s-0.8-0.1-1.1-0.4s-0.4-0.6-0.4-1l0.5-0.1c0,0.3,0.1,0.6,0.3,0.8s0.5,0.3,0.7,0.3
			s0.5-0.1,0.7-0.3s0.3-0.5,0.3-0.7c0-0.3-0.1-0.5-0.3-0.7C21.1,63.5,20.9,63.3,20.5,63.1z"/>
		<path class="st17" d="M22.9,60.7h0.5v0.7c0.1-0.1,0.2-0.2,0.3-0.3c0.6-0.6,1.2-0.8,2-0.8s1.5,0.3,2,0.8s0.8,1.2,0.8,2
			c0,0.8-0.3,1.5-0.8,2s-1.2,0.8-2,0.8s-1.5-0.3-2-0.8c-0.1-0.1-0.2-0.2-0.3-0.3v3h-0.5V60.7z M23.4,62.6v1c0.1,0.4,0.3,0.8,0.6,1.2
			c0.5,0.5,1,0.7,1.7,0.7s1.2-0.2,1.7-0.7s0.7-1,0.7-1.7s-0.2-1.2-0.7-1.7s-1-0.7-1.7-0.7S24.5,61,24,61.5
			C23.7,61.8,23.5,62.2,23.4,62.6z"/>
		<path class="st17" d="M32.2,60.3c0.8,0,1.5,0.3,2,0.8s0.8,1.2,0.8,2c0,0.8-0.3,1.5-0.8,2S33,66,32.2,66c-0.8,0-1.5-0.3-2-0.8
			s-0.8-1.2-0.8-2c0-0.8,0.3-1.5,0.8-2S31.4,60.3,32.2,60.3z M30.5,61.5c-0.5,0.5-0.7,1-0.7,1.7s0.2,1.2,0.7,1.7s1,0.7,1.7,0.7
			s1.2-0.2,1.7-0.7s0.7-1,0.7-1.7s-0.2-1.2-0.7-1.7s-1-0.7-1.7-0.7S31,61,30.5,61.5z"/>
		<path class="st17" d="M36.5,61.9v3.9H36v-5.1h0.5v0.3c0.4-0.4,0.9-0.6,1.5-0.6c0.6,0,1.1,0.2,1.5,0.6s0.6,0.9,0.6,1.4v3.4h-0.5
			v-3.4c0-0.4-0.2-0.8-0.5-1.1s-0.7-0.5-1.1-0.5c-0.4,0-0.8,0.2-1.1,0.5C36.7,61.5,36.6,61.7,36.5,61.9z"/>
		<path class="st17" d="M41.4,62.9c0,0.1,0,0.2,0,0.3c0,0.6,0.2,1.2,0.7,1.7s1,0.7,1.7,0.7s1.2-0.2,1.7-0.7c0.1-0.1,0.2-0.2,0.2-0.2
			l0.5,0.2c-0.1,0.1-0.2,0.2-0.4,0.4c-0.6,0.6-1.2,0.8-2,0.8c-0.8,0-1.5-0.3-2-0.8s-0.8-1.2-0.8-2c0-0.8,0.3-1.5,0.8-2
			s1.2-0.8,2-0.8c0.8,0,1.5,0.3,2,0.8c0.5,0.5,0.7,1.1,0.7,1.8H41.4z M41.5,62.4h4.5c-0.1-0.4-0.3-0.7-0.6-0.9
			c-0.5-0.5-1-0.7-1.7-0.7s-1.2,0.2-1.7,0.7C41.8,61.7,41.6,62,41.5,62.4z"/>
		<path class="st17" d="M49.1,61.1c-0.3,0.1-0.7,0.3-1,0.6s-0.5,0.7-0.5,1.1v2.9h-0.5v-5.1h0.5v1.1c0.2-0.5,0.6-0.9,1.2-1.1
			L49.1,61.1z"/>
		<path class="st17" d="M58.1,65.8h-0.5v-1c-0.1,0.1-0.2,0.2-0.3,0.3c-0.6,0.6-1.2,0.8-2,0.8c-0.8,0-1.5-0.3-2-0.8s-0.8-1.2-0.8-2
			c0-0.8,0.3-1.5,0.8-2s1.2-0.8,2-0.8c0.8,0,1.5,0.3,2,0.8c0.1,0.1,0.2,0.2,0.3,0.3v-3.9h0.5V65.8z M57.6,63.6v-0.9
			c-0.1-0.5-0.3-0.9-0.6-1.2c-0.5-0.5-1-0.7-1.7-0.7s-1.2,0.2-1.7,0.7s-0.7,1-0.7,1.7s0.2,1.2,0.7,1.7s1,0.7,1.7,0.7
			s1.2-0.2,1.7-0.7C57.3,64.4,57.5,64,57.6,63.6z"/>
		<path class="st17" d="M59.4,62.9c0,0.1,0,0.2,0,0.3c0,0.6,0.2,1.2,0.7,1.7s1,0.7,1.7,0.7s1.2-0.2,1.7-0.7c0.1-0.1,0.2-0.2,0.2-0.2
			l0.5,0.2c-0.1,0.1-0.2,0.2-0.4,0.4c-0.6,0.6-1.2,0.8-2,0.8c-0.8,0-1.5-0.3-2-0.8s-0.8-1.2-0.8-2c0-0.8,0.3-1.5,0.8-2
			s1.2-0.8,2-0.8c0.8,0,1.5,0.3,2,0.8c0.5,0.5,0.7,1.1,0.7,1.8H59.4z M59.5,62.4H64c-0.1-0.4-0.3-0.7-0.6-0.9
			c-0.5-0.5-1-0.7-1.7-0.7s-1.2,0.2-1.7,0.7C59.8,61.7,59.6,62,59.5,62.4z"/>
		<path class="st17" d="M70.3,65.9c-0.6,0-1.1-0.2-1.5-0.6s-0.6-0.8-0.6-1.4v-3.2h0.5v3.1c0,0.4,0.2,0.8,0.5,1.1
			c0.3,0.3,0.7,0.5,1.2,0.5c0.4,0,0.8-0.2,1.1-0.5s0.5-0.7,0.5-1.1v-3.1h0.5v3.2c0,0.6-0.2,1-0.6,1.4S70.9,65.9,70.3,65.9z"/>
		<path class="st17" d="M73.9,61.9v3.9h-0.5v-5.1h0.5v0.3c0.4-0.4,0.9-0.6,1.5-0.6c0.6,0,1.1,0.2,1.5,0.6s0.6,0.9,0.6,1.4v3.4H77
			v-3.4c0-0.4-0.2-0.8-0.5-1.1s-0.7-0.5-1.1-0.5c-0.4,0-0.8,0.2-1.1,0.5C74.1,61.5,74,61.7,73.9,61.9z"/>
		<path class="st17" d="M81.6,60.7H82v0.1c0.3-0.3,0.6-0.4,1-0.4c0.4,0,0.8,0.1,1.1,0.4c0.1,0.1,0.1,0.2,0.2,0.3
			c0.1-0.1,0.1-0.2,0.2-0.3c0.3-0.3,0.6-0.4,1.1-0.4s0.8,0.1,1.1,0.4c0.3,0.3,0.4,0.6,0.4,1v3.9h-0.5v-3.9h0c0-0.3-0.1-0.5-0.3-0.7
			c-0.2-0.2-0.5-0.3-0.7-0.3c-0.3,0-0.5,0.1-0.7,0.3s-0.3,0.5-0.3,0.8v3.8h-0.5v-3.9h0c0-0.3-0.1-0.5-0.3-0.7
			c-0.2-0.2-0.5-0.3-0.7-0.3s-0.5,0.1-0.7,0.3c-0.2,0.2-0.3,0.4-0.3,0.6v4h-0.5V60.7z"/>
		<path class="st17" d="M88.5,62.9c0,0.1,0,0.2,0,0.3c0,0.6,0.2,1.2,0.7,1.7s1,0.7,1.7,0.7s1.2-0.2,1.7-0.7c0.1-0.1,0.2-0.2,0.2-0.2
			l0.5,0.2c-0.1,0.1-0.2,0.2-0.4,0.4c-0.6,0.6-1.2,0.8-2,0.8c-0.8,0-1.5-0.3-2-0.8s-0.8-1.2-0.8-2c0-0.8,0.3-1.5,0.8-2
			s1.2-0.8,2-0.8c0.8,0,1.5,0.3,2,0.8c0.5,0.5,0.7,1.1,0.7,1.8H88.5z M88.6,62.4h4.5c-0.1-0.4-0.3-0.7-0.6-0.9
			c-0.5-0.5-1-0.7-1.7-0.7s-1.2,0.2-1.7,0.7C88.9,61.7,88.7,62,88.6,62.4z"/>
		<path class="st17" d="M99.9,65.8h-0.5v-1c-0.1,0.1-0.2,0.2-0.3,0.3c-0.6,0.6-1.2,0.8-2,0.8c-0.8,0-1.5-0.3-2-0.8s-0.8-1.2-0.8-2
			c0-0.8,0.3-1.5,0.8-2s1.2-0.8,2-0.8c0.8,0,1.5,0.3,2,0.8c0.1,0.1,0.2,0.2,0.3,0.3v-3.9h0.5V65.8z M99.4,63.6v-0.9
			c-0.1-0.5-0.3-0.9-0.6-1.2c-0.5-0.5-1-0.7-1.7-0.7s-1.2,0.2-1.7,0.7s-0.7,1-0.7,1.7s0.2,1.2,0.7,1.7s1,0.7,1.7,0.7
			s1.2-0.2,1.7-0.7C99.1,64.4,99.3,64,99.4,63.6z"/>
		<path class="st17" d="M101.6,59.1c0.1,0.1,0.1,0.2,0.1,0.3c0,0.1,0,0.2-0.1,0.3s-0.2,0.1-0.3,0.1c-0.1,0-0.2,0-0.3-0.1
			s-0.1-0.2-0.1-0.3c0-0.1,0-0.2,0.1-0.3s0.2-0.1,0.3-0.1C101.4,58.9,101.6,59,101.6,59.1z M101.5,60.7v5.1h-0.5v-5.1H101.5z"/>
		<path class="st17" d="M105.5,60.3c0.8,0,1.5,0.3,2,0.8s0.8,1.2,0.8,2c0,0.8-0.3,1.5-0.8,2s-1.2,0.8-2,0.8c-0.8,0-1.5-0.3-2-0.8
			s-0.8-1.2-0.8-2c0-0.8,0.3-1.5,0.8-2S104.7,60.3,105.5,60.3z M103.8,61.5c-0.5,0.5-0.7,1-0.7,1.7s0.2,1.2,0.7,1.7s1,0.7,1.7,0.7
			s1.2-0.2,1.7-0.7s0.7-1,0.7-1.7s-0.2-1.2-0.7-1.7s-1-0.7-1.7-0.7S104.3,61,103.8,61.5z"/>
		<path class="st17" d="M112.3,60.7h0.5v0.7c0.1-0.1,0.2-0.2,0.3-0.3c0.6-0.6,1.2-0.8,2-0.8s1.5,0.3,2,0.8s0.8,1.2,0.8,2
			c0,0.8-0.3,1.5-0.8,2s-1.2,0.8-2,0.8s-1.5-0.3-2-0.8c-0.1-0.1-0.2-0.2-0.3-0.3v3h-0.5V60.7z M112.8,62.6v1
			c0.1,0.4,0.3,0.8,0.6,1.2c0.5,0.5,1,0.7,1.7,0.7s1.2-0.2,1.7-0.7s0.7-1,0.7-1.7s-0.2-1.2-0.7-1.7s-1-0.7-1.7-0.7s-1.2,0.2-1.7,0.7
			C113.1,61.8,112.8,62.2,112.8,62.6z"/>
		<path class="st17" d="M124.3,65.8h-0.5v-1c-0.1,0.1-0.2,0.2-0.3,0.3c-0.6,0.6-1.2,0.8-2,0.8c-0.8,0-1.5-0.3-2-0.8s-0.8-1.2-0.8-2
			c0-0.8,0.3-1.5,0.8-2s1.2-0.8,2-0.8c0.8,0,1.5,0.3,2,0.8c0.1,0.1,0.2,0.2,0.3,0.3v-0.7h0.5V65.8z M123.8,63.6v-0.9
			c-0.1-0.5-0.3-0.9-0.6-1.2c-0.5-0.5-1-0.7-1.7-0.7s-1.2,0.2-1.7,0.7s-0.7,1-0.7,1.7s0.2,1.2,0.7,1.7s1,0.7,1.7,0.7
			s1.2-0.2,1.7-0.7C123.5,64.4,123.7,64,123.8,63.6z"/>
		<path class="st17" d="M127.2,61.1c-0.3,0.1-0.7,0.3-1,0.6s-0.5,0.7-0.5,1.1v2.9h-0.5v-5.1h0.5v1.1c0.2-0.5,0.6-0.9,1.2-1.1
			L127.2,61.1z"/>
		<path class="st17" d="M133.3,65.8h-0.5v-1c-0.1,0.1-0.2,0.2-0.3,0.3c-0.6,0.6-1.2,0.8-2,0.8c-0.8,0-1.5-0.3-2-0.8s-0.8-1.2-0.8-2
			c0-0.8,0.3-1.5,0.8-2s1.2-0.8,2-0.8c0.8,0,1.5,0.3,2,0.8c0.1,0.1,0.2,0.2,0.3,0.3v-0.7h0.5V65.8z M132.8,63.6v-0.9
			c-0.1-0.5-0.3-0.9-0.6-1.2c-0.5-0.5-1-0.7-1.7-0.7s-1.2,0.2-1.7,0.7s-0.7,1-0.7,1.7s0.2,1.2,0.7,1.7s1,0.7,1.7,0.7
			s1.2-0.2,1.7-0.7C132.5,64.4,132.7,64,132.8,63.6z"/>
		<path class="st17" d="M139.1,61.1c-0.3,0.1-0.7,0.3-1,0.6s-0.5,0.7-0.5,1.1v2.9h-0.5v-5.1h0.5v1.1c0.2-0.5,0.6-0.9,1.2-1.1
			L139.1,61.1z"/>
		<path class="st17" d="M139.9,62.9c0,0.1,0,0.2,0,0.3c0,0.6,0.2,1.2,0.7,1.7s1,0.7,1.7,0.7s1.2-0.2,1.7-0.7
			c0.1-0.1,0.2-0.2,0.2-0.2l0.5,0.2c-0.1,0.1-0.2,0.2-0.4,0.4c-0.6,0.6-1.2,0.8-2,0.8c-0.8,0-1.5-0.3-2-0.8s-0.8-1.2-0.8-2
			c0-0.8,0.3-1.5,0.8-2s1.2-0.8,2-0.8c0.8,0,1.5,0.3,2,0.8c0.5,0.5,0.7,1.1,0.7,1.8H139.9z M140,62.4h4.5c-0.1-0.4-0.3-0.7-0.6-0.9
			c-0.5-0.5-1-0.7-1.7-0.7s-1.2,0.2-1.7,0.7C140.3,61.7,140.1,62,140,62.4z"/>
		<path class="st17" d="M150.2,64.6l0.5,0.2c-0.1,0.1-0.2,0.2-0.3,0.4c-0.6,0.6-1.2,0.8-2,0.8c-0.8,0-1.5-0.3-2-0.8s-0.8-1.2-0.8-2
			s0.3-1.5,0.8-2s1.2-0.8,2-0.8c0.8,0,1.5,0.3,2,0.8c0.1,0.1,0.2,0.2,0.3,0.4l-0.5,0.2c-0.1-0.1-0.1-0.1-0.2-0.2
			c-0.5-0.5-1-0.7-1.7-0.7c-0.6,0-1.2,0.2-1.7,0.7s-0.7,1-0.7,1.7s0.2,1.2,0.7,1.7s1,0.7,1.7,0.7c0.6,0,1.2-0.2,1.7-0.7
			C150.1,64.7,150.2,64.6,150.2,64.6z"/>
		<path class="st17" d="M153.6,65.9c-0.6,0-1.1-0.2-1.5-0.6s-0.6-0.8-0.6-1.4v-3.2h0.5v3.1c0,0.4,0.2,0.8,0.5,1.1
			c0.3,0.3,0.7,0.5,1.2,0.5c0.4,0,0.8-0.2,1.1-0.5s0.5-0.7,0.5-1.1v-3.1h0.5v3.2c0,0.6-0.2,1-0.6,1.4S154.2,65.9,153.6,65.9z"/>
		<path class="st17" d="M156.7,60.7h0.5v0.7c0.1-0.1,0.2-0.2,0.3-0.3c0.6-0.6,1.2-0.8,2-0.8s1.5,0.3,2,0.8s0.8,1.2,0.8,2
			c0,0.8-0.3,1.5-0.8,2s-1.2,0.8-2,0.8s-1.5-0.3-2-0.8c-0.1-0.1-0.2-0.2-0.3-0.3v3h-0.5V60.7z M157.2,62.6v1
			c0.1,0.4,0.3,0.8,0.6,1.2c0.5,0.5,1,0.7,1.7,0.7s1.2-0.2,1.7-0.7s0.7-1,0.7-1.7s-0.2-1.2-0.7-1.7s-1-0.7-1.7-0.7s-1.2,0.2-1.7,0.7
			C157.5,61.8,157.3,62.2,157.2,62.6z"/>
		<path class="st17" d="M163.5,62.9c0,0.1,0,0.2,0,0.3c0,0.6,0.2,1.2,0.7,1.7s1,0.7,1.7,0.7s1.2-0.2,1.7-0.7
			c0.1-0.1,0.2-0.2,0.2-0.2l0.5,0.2c-0.1,0.1-0.2,0.2-0.4,0.4c-0.6,0.6-1.2,0.8-2,0.8c-0.8,0-1.5-0.3-2-0.8s-0.8-1.2-0.8-2
			c0-0.8,0.3-1.5,0.8-2s1.2-0.8,2-0.8c0.8,0,1.5,0.3,2,0.8c0.5,0.5,0.7,1.1,0.7,1.8H163.5z M163.6,62.4h4.5
			c-0.1-0.4-0.3-0.7-0.6-0.9c-0.5-0.5-1-0.7-1.7-0.7s-1.2,0.2-1.7,0.7C163.9,61.7,163.7,62,163.6,62.4z"/>
		<path class="st17" d="M171.2,61.1c-0.3,0.1-0.7,0.3-1,0.6s-0.5,0.7-0.5,1.1v2.9h-0.5v-5.1h0.5v1.1c0.2-0.5,0.6-0.9,1.2-1.1
			L171.2,61.1z"/>
		<path class="st17" d="M177.2,65.8h-0.5v-1c-0.1,0.1-0.2,0.2-0.3,0.3c-0.6,0.6-1.2,0.8-2,0.8c-0.8,0-1.5-0.3-2-0.8s-0.8-1.2-0.8-2
			c0-0.8,0.3-1.5,0.8-2s1.2-0.8,2-0.8c0.8,0,1.5,0.3,2,0.8c0.1,0.1,0.2,0.2,0.3,0.3v-0.7h0.5V65.8z M176.7,63.6v-0.9
			c-0.1-0.5-0.3-0.9-0.6-1.2c-0.5-0.5-1-0.7-1.7-0.7s-1.2,0.2-1.7,0.7s-0.7,1-0.7,1.7s0.2,1.2,0.7,1.7s1,0.7,1.7,0.7
			s1.2-0.2,1.7-0.7C176.4,64.4,176.7,64,176.7,63.6z"/>
		<path class="st17" d="M180.1,61.1c-0.3,0.1-0.7,0.3-1,0.6s-0.5,0.7-0.5,1.1v2.9h-0.5v-5.1h0.5v1.1c0.2-0.5,0.6-0.9,1.2-1.1
			L180.1,61.1z"/>
		<path class="st17" d="M181.2,57.5v8.3h-0.5v-8.3H181.2z"/>
		<path class="st17" d="M185.1,60.3c0.8,0,1.5,0.3,2,0.8s0.8,1.2,0.8,2c0,0.8-0.3,1.5-0.8,2s-1.2,0.8-2,0.8c-0.8,0-1.5-0.3-2-0.8
			s-0.8-1.2-0.8-2c0-0.8,0.3-1.5,0.8-2S184.3,60.3,185.1,60.3z M183.5,61.5c-0.5,0.5-0.7,1-0.7,1.7s0.2,1.2,0.7,1.7s1,0.7,1.7,0.7
			s1.2-0.2,1.7-0.7s0.7-1,0.7-1.7s-0.2-1.2-0.7-1.7s-1-0.7-1.7-0.7S183.9,61,183.5,61.5z"/>
		<path class="st17" d="M190.3,63.1c-0.4-0.2-0.7-0.4-0.8-0.6c-0.2-0.2-0.4-0.5-0.4-0.9s0.1-0.6,0.4-0.9s0.5-0.4,0.9-0.4
			s0.6,0.1,0.8,0.3c0.2,0.2,0.3,0.5,0.3,0.7v0l-0.4,0.2c0-0.3-0.1-0.5-0.2-0.6s-0.3-0.2-0.5-0.2c-0.2,0-0.4,0.1-0.5,0.2
			s-0.2,0.3-0.2,0.5s0.1,0.4,0.2,0.5c0.1,0.1,0.3,0.2,0.5,0.4c0.4,0.2,0.8,0.5,0.9,0.6c0.3,0.3,0.4,0.7,0.4,1.1
			c0,0.4-0.1,0.8-0.4,1.1s-0.6,0.4-1.1,0.4s-0.8-0.1-1.1-0.4s-0.4-0.6-0.4-1l0.5-0.1c0,0.3,0.1,0.6,0.3,0.8s0.5,0.3,0.7,0.3
			s0.5-0.1,0.7-0.3s0.3-0.5,0.3-0.7c0-0.3-0.1-0.5-0.3-0.7C190.9,63.5,190.6,63.3,190.3,63.1z"/>
		<path class="st17" d="M196,62.9c0,0.1,0,0.2,0,0.3c0,0.6,0.2,1.2,0.7,1.7s1,0.7,1.7,0.7s1.2-0.2,1.7-0.7c0.1-0.1,0.2-0.2,0.2-0.2
			l0.5,0.2c-0.1,0.1-0.2,0.2-0.4,0.4c-0.6,0.6-1.2,0.8-2,0.8c-0.8,0-1.5-0.3-2-0.8s-0.8-1.2-0.8-2c0-0.8,0.3-1.5,0.8-2
			s1.2-0.8,2-0.8c0.8,0,1.5,0.3,2,0.8c0.5,0.5,0.7,1.1,0.7,1.8H196z M196,62.4h4.5c-0.1-0.4-0.3-0.7-0.6-0.9c-0.5-0.5-1-0.7-1.7-0.7
			s-1.2,0.2-1.7,0.7C196.4,61.7,196.2,62,196,62.4z"/>
		<path class="st17" d="M202.3,61.9v3.9h-0.5v-5.1h0.5v0.3c0.4-0.4,0.9-0.6,1.5-0.6c0.6,0,1.1,0.2,1.5,0.6s0.6,0.9,0.6,1.4v3.4h-0.5
			v-3.4c0-0.4-0.2-0.8-0.5-1.1s-0.7-0.5-1.1-0.5c-0.4,0-0.8,0.2-1.1,0.5C202.5,61.5,202.4,61.7,202.3,61.9z"/>
		<path class="st17" d="M15.2,79l0.5,0.2c-0.1,0.1-0.2,0.2-0.3,0.4c-0.6,0.6-1.2,0.8-2,0.8c-0.8,0-1.5-0.3-2-0.8s-0.8-1.2-0.8-2
			s0.3-1.5,0.8-2s1.2-0.8,2-0.8c0.8,0,1.5,0.3,2,0.8c0.1,0.1,0.2,0.2,0.3,0.4L15.2,76c-0.1-0.1-0.1-0.1-0.2-0.2
			c-0.5-0.5-1-0.7-1.7-0.7c-0.6,0-1.2,0.2-1.7,0.7s-0.7,1-0.7,1.7s0.2,1.2,0.7,1.7s1,0.7,1.7,0.7c0.6,0,1.2-0.2,1.7-0.7
			C15.1,79.1,15.1,79,15.2,79z"/>
		<path class="st17" d="M22,80.2h-0.5v-1c-0.1,0.1-0.2,0.2-0.3,0.3c-0.6,0.6-1.2,0.8-2,0.8c-0.8,0-1.5-0.3-2-0.8s-0.8-1.2-0.8-2
			c0-0.8,0.3-1.5,0.8-2s1.2-0.8,2-0.8c0.8,0,1.5,0.3,2,0.8c0.1,0.1,0.2,0.2,0.3,0.3v-0.7H22V80.2z M21.5,78v-0.9
			c-0.1-0.5-0.3-0.9-0.6-1.2c-0.5-0.5-1-0.7-1.7-0.7s-1.2,0.2-1.7,0.7s-0.7,1-0.7,1.7s0.2,1.2,0.7,1.7s1,0.7,1.7,0.7
			s1.2-0.2,1.7-0.7C21.2,78.8,21.5,78.4,21.5,78z"/>
		<path class="st17" d="M24.4,77.5c-0.4-0.2-0.7-0.4-0.8-0.6c-0.2-0.2-0.4-0.5-0.4-0.9s0.1-0.6,0.4-0.9s0.5-0.4,0.9-0.4
			s0.6,0.1,0.8,0.3c0.2,0.2,0.3,0.5,0.3,0.7v0l-0.4,0.2c0-0.3-0.1-0.5-0.2-0.6s-0.3-0.2-0.5-0.2c-0.2,0-0.4,0.1-0.5,0.2
			s-0.2,0.3-0.2,0.5s0.1,0.4,0.2,0.5c0.1,0.1,0.3,0.2,0.5,0.4c0.4,0.2,0.8,0.5,0.9,0.6c0.3,0.3,0.4,0.7,0.4,1.1
			c0,0.4-0.1,0.8-0.4,1.1s-0.6,0.4-1.1,0.4s-0.8-0.1-1.1-0.4s-0.4-0.6-0.4-1l0.5-0.1c0,0.3,0.1,0.6,0.3,0.8s0.5,0.3,0.7,0.3
			s0.5-0.1,0.7-0.3s0.3-0.5,0.3-0.7c0-0.3-0.1-0.5-0.3-0.7C25,77.9,24.8,77.7,24.4,77.5z"/>
		<path class="st17" d="M29.6,74.7c0.8,0,1.5,0.3,2,0.8s0.8,1.2,0.8,2c0,0.8-0.3,1.5-0.8,2s-1.2,0.8-2,0.8c-0.8,0-1.5-0.3-2-0.8
			s-0.8-1.2-0.8-2c0-0.8,0.3-1.5,0.8-2S28.8,74.7,29.6,74.7z M27.9,75.9c-0.5,0.5-0.7,1-0.7,1.7s0.2,1.2,0.7,1.7s1,0.7,1.7,0.7
			s1.2-0.2,1.7-0.7s0.7-1,0.7-1.7s-0.2-1.2-0.7-1.7s-1-0.7-1.7-0.7S28.4,75.4,27.9,75.9z"/>
		<path class="st17" d="M41.9,80.2h-0.5v-1c-0.1,0.1-0.2,0.2-0.3,0.3c-0.6,0.6-1.2,0.8-2,0.8c-0.8,0-1.5-0.3-2-0.8s-0.8-1.2-0.8-2
			c0-0.8,0.3-1.5,0.8-2s1.2-0.8,2-0.8c0.8,0,1.5,0.3,2,0.8c0.1,0.1,0.2,0.2,0.3,0.3v-3.9h0.5V80.2z M41.4,78v-0.9
			c-0.1-0.5-0.3-0.9-0.6-1.2c-0.5-0.5-1-0.7-1.7-0.7s-1.2,0.2-1.7,0.7s-0.7,1-0.7,1.7s0.2,1.2,0.7,1.7s1,0.7,1.7,0.7
			s1.2-0.2,1.7-0.7C41.1,78.8,41.3,78.4,41.4,78z"/>
		<path class="st17" d="M43.2,77.3c0,0.1,0,0.2,0,0.3c0,0.6,0.2,1.2,0.7,1.7s1,0.7,1.7,0.7s1.2-0.2,1.7-0.7c0.1-0.1,0.2-0.2,0.2-0.2
			l0.5,0.2c-0.1,0.1-0.2,0.2-0.4,0.4c-0.6,0.6-1.2,0.8-2,0.8c-0.8,0-1.5-0.3-2-0.8s-0.8-1.2-0.8-2c0-0.8,0.3-1.5,0.8-2
			s1.2-0.8,2-0.8c0.8,0,1.5,0.3,2,0.8c0.5,0.5,0.7,1.1,0.7,1.8H43.2z M43.3,76.8h4.5c-0.1-0.4-0.3-0.7-0.6-0.9
			c-0.5-0.5-1-0.7-1.7-0.7s-1.2,0.2-1.7,0.7C43.6,76.1,43.4,76.4,43.3,76.8z"/>
		<path class="st17" d="M53.4,77.5c-0.4-0.2-0.7-0.4-0.8-0.6c-0.2-0.2-0.4-0.5-0.4-0.9s0.1-0.6,0.4-0.9s0.5-0.4,0.9-0.4
			s0.6,0.1,0.8,0.3c0.2,0.2,0.3,0.5,0.3,0.7v0l-0.4,0.2c0-0.3-0.1-0.5-0.2-0.6s-0.3-0.2-0.5-0.2c-0.2,0-0.4,0.1-0.5,0.2
			s-0.2,0.3-0.2,0.5s0.1,0.4,0.2,0.5c0.1,0.1,0.3,0.2,0.5,0.4c0.4,0.2,0.8,0.5,0.9,0.6c0.3,0.3,0.4,0.7,0.4,1.1
			c0,0.4-0.1,0.8-0.4,1.1s-0.6,0.4-1.1,0.4s-0.8-0.1-1.1-0.4s-0.4-0.6-0.4-1l0.5-0.1c0,0.3,0.1,0.6,0.3,0.8s0.5,0.3,0.7,0.3
			s0.5-0.1,0.7-0.3s0.3-0.5,0.3-0.7c0-0.3-0.1-0.5-0.3-0.7C53.9,77.9,53.7,77.7,53.4,77.5z"/>
		<path class="st17" d="M57.9,80.3c-0.6,0-1.1-0.2-1.5-0.6s-0.6-0.8-0.6-1.4v-3.2h0.5v3.1c0,0.4,0.2,0.8,0.5,1.1
			c0.3,0.3,0.7,0.5,1.2,0.5c0.4,0,0.8-0.2,1.1-0.5s0.5-0.7,0.5-1.1v-3.1h0.5v3.2c0,0.6-0.2,1-0.6,1.4S58.4,80.3,57.9,80.3z"/>
		<path class="st17" d="M63.9,75.1h0.5v0.7c0.1-0.1,0.2-0.2,0.3-0.3c0.6-0.6,1.2-0.8,2-0.8s1.5,0.3,2,0.8s0.8,1.2,0.8,2
			c0,0.8-0.3,1.5-0.8,2s-1.2,0.8-2,0.8s-1.5-0.3-2-0.8c-0.1-0.1-0.2-0.2-0.3-0.3v3h-0.5V75.1z M64.4,77v1c0.1,0.4,0.3,0.8,0.6,1.2
			c0.5,0.5,1,0.7,1.7,0.7s1.2-0.2,1.7-0.7s0.7-1,0.7-1.7s-0.2-1.2-0.7-1.7s-1-0.7-1.7-0.7s-1.2,0.2-1.7,0.7
			C64.7,76.2,64.5,76.6,64.4,77z"/>
		<path class="st17" d="M70.7,77.3c0,0.1,0,0.2,0,0.3c0,0.6,0.2,1.2,0.7,1.7s1,0.7,1.7,0.7s1.2-0.2,1.7-0.7c0.1-0.1,0.2-0.2,0.2-0.2
			l0.5,0.2c-0.1,0.1-0.2,0.2-0.4,0.4c-0.6,0.6-1.2,0.8-2,0.8c-0.8,0-1.5-0.3-2-0.8s-0.8-1.2-0.8-2c0-0.8,0.3-1.5,0.8-2
			s1.2-0.8,2-0.8c0.8,0,1.5,0.3,2,0.8c0.5,0.5,0.7,1.1,0.7,1.8H70.7z M70.8,76.8h4.5c-0.1-0.4-0.3-0.7-0.6-0.9
			c-0.5-0.5-1-0.7-1.7-0.7s-1.2,0.2-1.7,0.7C71.1,76.1,70.9,76.4,70.8,76.8z M74.1,73.1l-1.3,1h-0.4l0.8-1H74.1z"/>
		<path class="st17" d="M78.4,75.5c-0.3,0.1-0.7,0.3-1,0.6s-0.5,0.7-0.5,1.1v2.9h-0.5v-5.1h0.5v1.1c0.2-0.5,0.6-0.9,1.2-1.1
			L78.4,75.5z"/>
		<path class="st17" d="M84.4,80.2h-0.5v-1c-0.1,0.1-0.2,0.2-0.3,0.3c-0.6,0.6-1.2,0.8-2,0.8c-0.8,0-1.5-0.3-2-0.8s-0.8-1.2-0.8-2
			c0-0.8,0.3-1.5,0.8-2s1.2-0.8,2-0.8c0.8,0,1.5,0.3,2,0.8c0.1,0.1,0.2,0.2,0.3,0.3v-3.9h0.5V80.2z M83.9,78v-0.9
			c-0.1-0.5-0.3-0.9-0.6-1.2c-0.5-0.5-1-0.7-1.7-0.7s-1.2,0.2-1.7,0.7s-0.7,1-0.7,1.7s0.2,1.2,0.7,1.7s1,0.7,1.7,0.7
			s1.2-0.2,1.7-0.7C83.6,78.8,83.9,78.4,83.9,78z"/>
		<path class="st17" d="M86.2,73.5c0.1,0.1,0.1,0.2,0.1,0.3c0,0.1,0,0.2-0.1,0.3s-0.2,0.1-0.3,0.1c-0.1,0-0.2,0-0.3-0.1
			s-0.1-0.2-0.1-0.3c0-0.1,0-0.2,0.1-0.3s0.2-0.1,0.3-0.1C86,73.3,86.1,73.4,86.2,73.5z M86.1,75.1v5.1h-0.5v-5.1H86.1z"/>
		<path class="st17" d="M92.9,80.2h-0.5v-1c-0.1,0.1-0.2,0.2-0.3,0.3c-0.6,0.6-1.2,0.8-2,0.8c-0.8,0-1.5-0.3-2-0.8s-0.8-1.2-0.8-2
			c0-0.8,0.3-1.5,0.8-2s1.2-0.8,2-0.8c0.8,0,1.5,0.3,2,0.8c0.1,0.1,0.2,0.2,0.3,0.3v-3.9h0.5V80.2z M92.4,78v-0.9
			c-0.1-0.5-0.3-0.9-0.6-1.2c-0.5-0.5-1-0.7-1.7-0.7s-1.2,0.2-1.7,0.7s-0.7,1-0.7,1.7s0.2,1.2,0.7,1.7s1,0.7,1.7,0.7
			s1.2-0.2,1.7-0.7C92.1,78.8,92.3,78.4,92.4,78z"/>
		<path class="st17" d="M99.4,80.2H99v-1c-0.1,0.1-0.2,0.2-0.3,0.3c-0.6,0.6-1.2,0.8-2,0.8c-0.8,0-1.5-0.3-2-0.8s-0.8-1.2-0.8-2
			c0-0.8,0.3-1.5,0.8-2s1.2-0.8,2-0.8c0.8,0,1.5,0.3,2,0.8c0.1,0.1,0.2,0.2,0.3,0.3v-0.7h0.5V80.2z M99,78v-0.9
			c-0.1-0.5-0.3-0.9-0.6-1.2c-0.5-0.5-1-0.7-1.7-0.7s-1.2,0.2-1.7,0.7s-0.7,1-0.7,1.7s0.2,1.2,0.7,1.7s1,0.7,1.7,0.7
			s1.2-0.2,1.7-0.7C98.7,78.8,98.9,78.4,99,78z"/>
		<path class="st17" d="M100.9,79.5c0.1,0.1,0.1,0.2,0.1,0.3s0,0.2-0.1,0.3s-0.2,0.1-0.3,0.1c-0.1,0-0.2,0-0.3-0.1s-0.1-0.2-0.1-0.3
			s0-0.2,0.1-0.3s0.2-0.1,0.3-0.1C100.7,79.4,100.8,79.4,100.9,79.5z"/>
	</g>
</g>
</svg>
