<?xml version="1.0" encoding="utf-8"?>
<!-- Generator: Adobe Illustrator 24.0.2, SVG Export Plug-In . SVG Version: 6.00 Build 0)  -->
<svg version="1.1" id="off" xmlns="http://www.w3.org/2000/svg" xmlns:xlink="http://www.w3.org/1999/xlink" x="0px" y="0px"
	 viewBox="0 0 70.8 22.7" style="enable-background:new 0 0 70.8 22.7;" xml:space="preserve">
<style type="text/css">
	.st0{fill:#E9762F;}
	.st1{fill:#7382A3;}
	.st2{fill:#A4AAC2;}
	.st3{fill:#FFFFFF;}
	.st4{display:none;fill:#3F3F3F;}
	.st5{fill:#3F3F3F;}
	.st6{fill:none;stroke:#E9762E;stroke-width:0.5941;stroke-miterlimit:10;}
	.st7{clip-path:url(#SVGID_2_);}
	.st8{fill:#727276;}
	.st9{fill:#E9762E;}
	.st10{clip-path:url(#SVGID_6_);}
	.st11{fill:#E9762E;stroke:#E9762E;stroke-width:0.5;stroke-miterlimit:10;}
	.st12{fill:#E9762E;stroke:#E9762E;stroke-width:0.5162;stroke-miterlimit:10;}
	.st13{fill:#E9762E;stroke:#E9762E;stroke-width:0.3135;stroke-miterlimit:10;}
	.st14{fill:#E9762E;stroke:#E9762E;stroke-width:0.3868;stroke-miterlimit:10;}
	.st15{fill:#E9762E;stroke:#E9762E;stroke-width:0.3578;stroke-miterlimit:10;}
	.st16{fill:#E9762E;stroke:#E9762E;stroke-width:0.3826;stroke-miterlimit:10;}
</style>
<path class="st5" d="M59.5,22.7H11.4C5.1,22.7,0,17.6,0,11.4v0C0,5.1,5.1,0,11.4,0l48.1,0c6.3,0,11.4,5.1,11.4,11.4v0
	C70.8,17.6,65.7,22.7,59.5,22.7z"/>
<g>
	<path class="st12" d="M27.3,10.3c0.3,0.1,0.7,0.4,0.9,0.6c0.6,0.6,0.9,1.3,0.9,2.1c0,0.8-0.3,1.5-0.9,2.1c-0.5,0.5-1.1,0.8-1.8,0.9
		h-3V6.8h2.8c0.5,0,1,0.2,1.3,0.6c0.4,0.4,0.6,0.8,0.6,1.3s-0.2,1-0.6,1.3C27.4,10.1,27.4,10.2,27.3,10.3z M23.9,7.3V10h2.4
		c0.4,0,0.7-0.2,0.9-0.3c0.3-0.3,0.4-0.6,0.4-1c0-0.4-0.1-0.7-0.4-1c-0.3-0.3-0.6-0.4-1-0.4H23.9z M26.1,15.6c0.7,0,1.3-0.2,1.8-0.7
		c0.5-0.5,0.7-1.1,0.7-1.8s-0.2-1.3-0.7-1.8c-0.5-0.5-1.1-0.7-1.8-0.7h-2.1v5H26.1z"/>
	<path class="st12" d="M30.9,8.5C31,8.6,31,8.8,31,8.9C31,9,31,9.2,30.9,9.3c-0.1,0.1-0.2,0.2-0.4,0.2c-0.1,0-0.3-0.1-0.4-0.2
		C30,9.2,30,9,30,8.9c0-0.1,0.1-0.3,0.2-0.4c0.1-0.1,0.2-0.2,0.4-0.2C30.6,8.4,30.7,8.4,30.9,8.5z M30.7,10.4v5.7h-0.5v-5.7H30.7z"
		/>
	<path class="st12" d="M32.9,10.4V8h0.5v2.4h1.2v0.5h-1.2v5.2h-0.5v-5.2h-1.2v-0.5H32.9z"/>
	<path class="st12" d="M41.5,16.1H41v-1.2c-0.1,0.1-0.2,0.3-0.3,0.4c-0.6,0.6-1.4,0.9-2.3,0.9c-0.9,0-1.6-0.3-2.2-0.9
		c-0.6-0.6-0.9-1.4-0.9-2.2c0-0.9,0.3-1.6,0.9-2.3c0.6-0.6,1.4-0.9,2.2-0.9c0.9,0,1.6,0.3,2.3,0.9c0.1,0.1,0.2,0.3,0.3,0.4v-0.8h0.5
		V16.1z M41,13.6v-1c-0.1-0.5-0.3-1-0.7-1.3c-0.5-0.5-1.1-0.8-1.9-0.8c-0.7,0-1.3,0.3-1.9,0.8c-0.5,0.5-0.8,1.1-0.8,1.9
		c0,0.7,0.3,1.3,0.8,1.9c0.5,0.5,1.1,0.8,1.9,0.8c0.7,0,1.3-0.3,1.9-0.8C40.7,14.5,40.9,14.1,41,13.6z M39.7,8.1l-1.4,1.1h-0.5
		l0.9-1.1H39.7z"/>
	<path class="st12" d="M47.7,14.7l0.6,0.2c-0.1,0.1-0.2,0.3-0.3,0.4c-0.6,0.6-1.4,0.9-2.3,0.9c-0.9,0-1.6-0.3-2.2-0.9
		c-0.6-0.6-0.9-1.4-0.9-2.3s0.3-1.6,0.9-2.2c0.6-0.6,1.4-0.9,2.2-0.9c0.9,0,1.6,0.3,2.3,0.9c0.1,0.1,0.2,0.3,0.3,0.4l-0.6,0.2
		c-0.1-0.1-0.1-0.1-0.2-0.2c-0.5-0.5-1.1-0.8-1.9-0.8c-0.7,0-1.3,0.3-1.9,0.8c-0.5,0.5-0.8,1.1-0.8,1.9c0,0.7,0.3,1.3,0.8,1.9
		s1.1,0.8,1.9,0.8c0.7,0,1.3-0.3,1.9-0.8C47.6,14.9,47.6,14.8,47.7,14.7z"/>
	<path class="st12" d="M52.2,9.9c0.9,0,1.6,0.3,2.3,0.9s0.9,1.4,0.9,2.3c0,0.9-0.3,1.6-0.9,2.2c-0.6,0.6-1.4,0.9-2.3,0.9
		c-0.9,0-1.6-0.3-2.2-0.9c-0.6-0.6-0.9-1.4-0.9-2.2c0-0.9,0.3-1.6,0.9-2.3C50.6,10.2,51.4,9.9,52.2,9.9z M50.4,11.2
		c-0.5,0.5-0.8,1.1-0.8,1.9c0,0.7,0.3,1.3,0.8,1.9c0.5,0.5,1.1,0.8,1.9,0.8c0.7,0,1.3-0.3,1.9-0.8c0.5-0.5,0.8-1.1,0.8-1.9
		c0-0.7-0.3-1.3-0.8-1.9c-0.5-0.5-1.1-0.8-1.9-0.8C51.5,10.4,50.9,10.7,50.4,11.2z"/>
	<path class="st12" d="M58.5,10.9c-0.4,0.1-0.7,0.3-1.1,0.7c-0.4,0.4-0.5,0.8-0.5,1.3v3.3h-0.5v-5.7h0.5v1.2c0.2-0.6,0.7-1,1.3-1.3
		L58.5,10.9z"/>
	<path class="st12" d="M65.3,16.1h-0.5v-1.2c-0.1,0.1-0.2,0.3-0.3,0.4c-0.6,0.6-1.4,0.9-2.3,0.9c-0.9,0-1.6-0.3-2.2-0.9
		c-0.6-0.6-0.9-1.4-0.9-2.2c0-0.9,0.3-1.6,0.9-2.3c0.6-0.6,1.4-0.9,2.2-0.9c0.9,0,1.6,0.3,2.3,0.9c0.1,0.1,0.2,0.3,0.3,0.4v-0.8h0.5
		V16.1z M64.8,13.6v-1c-0.1-0.5-0.3-1-0.7-1.3c-0.5-0.5-1.1-0.8-1.9-0.8s-1.3,0.3-1.9,0.8s-0.8,1.1-0.8,1.9c0,0.7,0.3,1.3,0.8,1.9
		c0.5,0.5,1.1,0.8,1.9,0.8s1.3-0.3,1.9-0.8C64.5,14.5,64.7,14.1,64.8,13.6z"/>
</g>
<g>
	<path class="st3" d="M9.4,11c-0.1,0-0.2-0.1-0.2-0.2v-0.5c0-0.1,0.1-0.2,0.2-0.2s0.2,0.1,0.2,0.2v0.5C9.5,10.9,9.4,11,9.4,11z"/>
	<path class="st3" d="M10.8,16.7c-0.9,0-1.6-0.7-1.6-1.6c0,0,0,0,0,0V12c0-0.1,0.1-0.2,0.2-0.2s0.2,0.1,0.2,0.2v3.1
		c0,0.7,0.6,1.3,1.3,1.3c0.7,0,1.3-0.6,1.3-1.3v-0.4c0-0.1,0.1-0.2,0.2-0.2c0.1,0,0.2,0.1,0.2,0.2v0.4C12.4,16,11.7,16.7,10.8,16.7z
		"/>
	<path class="st3" d="M18.6,14.9c-0.1,0-0.2-0.1-0.2-0.2V5.1H9.5v2.3c0,0.1-0.1,0.2-0.2,0.2S9.2,7.5,9.2,7.4V4.9
		c0-0.1,0.1-0.2,0.2-0.2h9.2c0.1,0,0.2,0.1,0.2,0.2v9.8C18.8,14.8,18.7,14.9,18.6,14.9z"/>
	<path class="st3" d="M9.4,9.3c-0.1,0-0.2-0.1-0.2-0.2V8.6c0-0.1,0.1-0.2,0.2-0.2s0.2,0.1,0.2,0.2v0.5C9.5,9.2,9.4,9.3,9.4,9.3z"/>
	<path class="st3" d="M18.7,16.7h-7.9c-0.1,0-0.2-0.1-0.2-0.2c0-0.1,0.1-0.2,0.2-0.2h7.9c0.8,0,1.5-0.7,1.6-1.5h-8
		c-0.1,0-0.2-0.1-0.2-0.2c0-0.1,0.1-0.2,0.2-0.2h8.2c0.1,0,0.2,0.1,0.2,0.2v0.1C20.6,15.9,19.7,16.7,18.7,16.7z"/>
	<path class="st3" d="M12.3,7.9h-1.6c-0.1,0-0.2-0.1-0.2-0.2V6.2c0-0.1,0.1-0.2,0.2-0.2h1.6c0.1,0,0.2,0.1,0.2,0.2v1.6
		C12.5,7.8,12.4,7.9,12.3,7.9z M10.9,7.6h1.2V6.3h-1.2L10.9,7.6z"/>
	<path class="st3" d="M12.3,10.5h-1.6c-0.1,0-0.2-0.1-0.2-0.2V8.8c0-0.1,0.1-0.2,0.2-0.2h1.6c0.1,0,0.2,0.1,0.2,0.2v1.6
		C12.5,10.5,12.4,10.5,12.3,10.5z M10.9,10.2h1.2V9h-1.2L10.9,10.2z"/>
	<path class="st3" d="M12.3,13.2h-1.6c-0.1,0-0.2-0.1-0.2-0.2v-1.6c0-0.1,0.1-0.2,0.2-0.2h1.6c0.1,0,0.2,0.1,0.2,0.2V13
		C12.5,13.1,12.4,13.2,12.3,13.2z M10.9,12.8h1.2v-1.2h-1.2L10.9,12.8z"/>
	<path class="st3" d="M17.3,6.6h-3.9c-0.1,0-0.2-0.1-0.2-0.2c0-0.1,0.1-0.2,0.2-0.2h3.9c0.1,0,0.2,0.1,0.2,0.2
		C17.5,6.6,17.4,6.6,17.3,6.6z"/>
	<path class="st3" d="M15.9,7.7h-2.5c-0.1,0-0.2-0.1-0.2-0.2c0-0.1,0.1-0.2,0.2-0.2h2.5c0.1,0,0.2,0.1,0.2,0.2
		C16.1,7.6,16,7.7,15.9,7.7z"/>
	<path class="st3" d="M17.3,9.3h-3.9c-0.1,0-0.2-0.1-0.2-0.2s0.1-0.2,0.2-0.2h3.9c0.1,0,0.2,0.1,0.2,0.2S17.4,9.3,17.3,9.3z"/>
	<path class="st3" d="M15.9,10.3h-2.5c-0.1,0-0.2-0.1-0.2-0.2c0-0.1,0.1-0.2,0.2-0.2h2.5c0.1,0,0.2,0.1,0.2,0.2
		C16.1,10.2,16,10.3,15.9,10.3z"/>
	<path class="st3" d="M17.3,11.9h-3.9c-0.1,0-0.2-0.1-0.2-0.2s0.1-0.2,0.2-0.2h3.9c0.1,0,0.2,0.1,0.2,0.2S17.4,11.9,17.3,11.9z"/>
	<path class="st3" d="M15.9,13h-2.5c-0.1,0-0.2-0.1-0.2-0.2s0.1-0.2,0.2-0.2h2.5c0.1,0,0.2,0.1,0.2,0.2S16,13,15.9,13z"/>
</g>
</svg>
