<?xml version="1.0" encoding="utf-8"?>
<!-- Generator: Adobe Illustrator 24.0.2, SVG Export Plug-In . SVG Version: 6.00 Build 0)  -->
<svg version="1.1" id="off" xmlns="http://www.w3.org/2000/svg" xmlns:xlink="http://www.w3.org/1999/xlink" x="0px" y="0px"
	 viewBox="0 0 70.8 22.7" style="enable-background:new 0 0 70.8 22.7;" xml:space="preserve">
<style type="text/css">
	.st0{fill:#E9762F;}
	.st1{fill:#7382A3;}
	.st2{fill:#A4AAC2;}
	.st3{fill:#FFFFFF;}
	.st4{display:none;fill:#3F3F3F;}
	.st5{fill:#3F3F3F;}
	.st6{fill:none;stroke:#E9762E;stroke-width:0.5941;stroke-miterlimit:10;}
	.st7{clip-path:url(#SVGID_2_);}
	.st8{fill:#727276;}
	.st9{fill:#E9762E;}
	.st10{clip-path:url(#SVGID_6_);}
	.st11{fill:#E9762E;stroke:#E9762E;stroke-width:0.5;stroke-miterlimit:10;}
	.st12{fill:#E9762E;stroke:#E9762E;stroke-width:0.5162;stroke-miterlimit:10;}
	.st13{fill:#E9762E;stroke:#E9762E;stroke-width:0.3135;stroke-miterlimit:10;}
	.st14{fill:#E9762E;stroke:#E9762E;stroke-width:0.3868;stroke-miterlimit:10;}
	.st15{fill:#E9762E;stroke:#E9762E;stroke-width:0.3578;stroke-miterlimit:10;}
	.st16{fill:#E9762E;stroke:#E9762E;stroke-width:0.3826;stroke-miterlimit:10;}
</style>
<path class="st5" d="M59.5,22.7H11.4C5.1,22.7,0,17.6,0,11.4v0C0,5.1,5.1,0,11.4,0l48.1,0c6.3,0,11.4,5.1,11.4,11.4v0
	C70.8,17.6,65.7,22.7,59.5,22.7z"/>
<g>
	<path class="st12" d="M31,14.6l0.4,0.4c-0.9,0.8-2,1.2-3.2,1.2c-1.3,0-2.4-0.5-3.4-1.4s-1.4-2-1.4-3.4c0-1.3,0.5-2.4,1.4-3.4
		c0.9-0.9,2-1.4,3.4-1.4c1.2,0,2.3,0.4,3.2,1.2L31,8.3c-0.8-0.7-1.7-1.1-2.8-1.1c-1.2,0-2.2,0.4-3,1.2s-1.2,1.8-1.2,3
		c0,1.2,0.4,2.2,1.2,3s1.8,1.2,3,1.2C29.3,15.7,30.2,15.3,31,14.6z"/>
	<path class="st12" d="M33.1,6.8v9.3h-0.5V6.8H33.1z"/>
	<path class="st12" d="M35.2,8.5c0.1,0.1,0.2,0.2,0.2,0.4c0,0.1-0.1,0.3-0.2,0.4c-0.1,0.1-0.2,0.2-0.4,0.2c-0.1,0-0.3-0.1-0.4-0.2
		c-0.1-0.1-0.2-0.2-0.2-0.4c0-0.1,0.1-0.3,0.2-0.4c0.1-0.1,0.2-0.2,0.4-0.2C35,8.4,35.1,8.4,35.2,8.5z M35.1,10.4v5.7h-0.5v-5.7
		H35.1z"/>
	<path class="st12" d="M36.8,12.8c0,0.1,0,0.2,0,0.3c0,0.7,0.3,1.3,0.8,1.9c0.5,0.5,1.1,0.8,1.9,0.8s1.3-0.3,1.9-0.8
		c0.1-0.1,0.2-0.2,0.2-0.3l0.6,0.2c-0.1,0.1-0.2,0.3-0.4,0.5c-0.6,0.6-1.4,0.9-2.3,0.9c-0.9,0-1.6-0.3-2.2-0.9
		c-0.6-0.6-0.9-1.4-0.9-2.2c0-0.9,0.3-1.6,0.9-2.3c0.6-0.6,1.4-0.9,2.2-0.9c0.9,0,1.6,0.3,2.3,0.9c0.5,0.6,0.8,1.2,0.8,2H36.8z
		 M36.9,12.3h5c-0.1-0.4-0.3-0.7-0.6-1c-0.5-0.5-1.1-0.8-1.9-0.8s-1.3,0.3-1.9,0.8C37.2,11.5,37,11.9,36.9,12.3z"/>
	<path class="st12" d="M43.9,11.7v4.4h-0.5v-5.7h0.5v0.4c0.5-0.5,1-0.7,1.7-0.7c0.7,0,1.2,0.2,1.6,0.6c0.4,0.4,0.6,1,0.6,1.6v3.8
		h-0.5v-3.8c0-0.5-0.2-0.9-0.5-1.2s-0.8-0.5-1.2-0.5c-0.5,0-0.9,0.2-1.2,0.5C44.1,11.3,44,11.5,43.9,11.7z"/>
	<path class="st12" d="M49.8,10.4V8h0.5v2.4h1.2v0.5h-1.2v5.2h-0.5v-5.2h-1.2v-0.5H49.8z"/>
	<path class="st12" d="M52.6,12.8c0,0.1,0,0.2,0,0.3c0,0.7,0.3,1.3,0.8,1.9c0.5,0.5,1.1,0.8,1.9,0.8s1.3-0.3,1.9-0.8
		c0.1-0.1,0.2-0.2,0.2-0.3l0.6,0.2c-0.1,0.1-0.2,0.3-0.4,0.5c-0.6,0.6-1.4,0.9-2.3,0.9c-0.9,0-1.6-0.3-2.2-0.9
		c-0.6-0.6-0.9-1.4-0.9-2.2c0-0.9,0.3-1.6,0.9-2.3c0.6-0.6,1.4-0.9,2.2-0.9c0.9,0,1.6,0.3,2.3,0.9c0.5,0.6,0.8,1.2,0.8,2H52.6z
		 M52.7,12.3h5c-0.1-0.4-0.3-0.7-0.6-1c-0.5-0.5-1.1-0.8-1.9-0.8s-1.3,0.3-1.9,0.8C53.1,11.5,52.9,11.9,52.7,12.3z"/>
	<path class="st12" d="M60.7,13c-0.4-0.2-0.7-0.4-0.9-0.6c-0.3-0.3-0.4-0.6-0.4-1s0.1-0.7,0.4-1c0.3-0.3,0.6-0.4,1-0.4
		s0.7,0.1,0.9,0.4c0.2,0.2,0.4,0.5,0.4,0.8v0l-0.5,0.2c0-0.3-0.1-0.5-0.3-0.7c-0.1-0.1-0.3-0.2-0.6-0.2c-0.2,0-0.4,0.1-0.6,0.2
		s-0.2,0.4-0.2,0.6s0.1,0.4,0.2,0.6c0.1,0.1,0.3,0.2,0.6,0.4c0.5,0.3,0.8,0.5,1.1,0.7c0.3,0.3,0.5,0.7,0.5,1.2
		c0,0.5-0.2,0.9-0.5,1.2c-0.3,0.3-0.7,0.5-1.2,0.5c-0.5,0-0.9-0.2-1.2-0.5c-0.3-0.3-0.5-0.7-0.5-1.1l0.5-0.1c0,0.3,0.1,0.6,0.3,0.8
		s0.5,0.3,0.8,0.3c0.3,0,0.6-0.1,0.8-0.3s0.3-0.5,0.3-0.8c0-0.3-0.1-0.6-0.3-0.8C61.3,13.5,61,13.3,60.7,13z"/>
</g>
<g>
	<circle class="st3" cx="14.9" cy="7.1" r="2.3"/>
	<circle class="st3" cx="19.6" cy="8" r="1.5"/>
	<circle class="st3" cx="10.3" cy="8" r="1.5"/>
	<path class="st3" d="M11.7,10.8c-0.6-0.5-1.1-0.4-1.8-0.4c-1,0-1.8,0.8-1.8,1.8V15c0,0.4,0.4,0.8,0.8,0.8c1.9,0,1.6,0,1.6-0.1
		C10.6,13.7,10.3,12.2,11.7,10.8z"/>
	<path class="st3" d="M15.6,10.4c-1.2-0.1-2.2,0-3,0.7c-1.5,1.2-1.2,2.7-1.2,4.7c0,0.5,0.4,0.9,0.9,0.9c5.6,0,5.8,0.2,6.2-0.6
		c0.1-0.2,0.1-0.2,0.1-2.6C18.5,11.7,16.9,10.4,15.6,10.4L15.6,10.4z"/>
	<path class="st3" d="M19.9,10.3c-0.7,0-1.2-0.1-1.8,0.4c1.4,1.4,1.1,2.8,1.1,5c0,0.1-0.2,0.1,1.6,0.1c0.4,0,0.8-0.4,0.8-0.8v-2.9
		C21.8,11.1,20.9,10.3,19.9,10.3z"/>
</g>
</svg>
