<?xml version="1.0" encoding="utf-8"?>
<!-- Generator: Adobe Illustrator 24.0.2, SVG Export Plug-In . SVG Version: 6.00 Build 0)  -->
<svg version="1.1" id="off" xmlns="http://www.w3.org/2000/svg" xmlns:xlink="http://www.w3.org/1999/xlink" x="0px" y="0px"
	 viewBox="0 0 70.8 22.7" style="enable-background:new 0 0 70.8 22.7;" xml:space="preserve">
<style type="text/css">
	.st0{fill:#E9762F;}
	.st1{fill:#7382A3;}
	.st2{fill:#A4AAC2;}
	.st3{fill:#FFFFFF;}
	.st4{display:none;fill:#3F3F3F;}
	.st5{fill:#3F3F3F;}
	.st6{fill:none;stroke:#E9762E;stroke-width:0.5941;stroke-miterlimit:10;}
	.st7{clip-path:url(#SVGID_2_);}
	.st8{fill:#727276;}
	.st9{fill:#E9762E;}
	.st10{clip-path:url(#SVGID_6_);}
	.st11{fill:#E9762E;stroke:#E9762E;stroke-width:0.5;stroke-miterlimit:10;}
	.st12{fill:#E9762E;stroke:#E9762E;stroke-width:0.5162;stroke-miterlimit:10;}
	.st13{fill:#E9762E;stroke:#E9762E;stroke-width:0.3135;stroke-miterlimit:10;}
	.st14{fill:#E9762E;stroke:#E9762E;stroke-width:0.3868;stroke-miterlimit:10;}
	.st15{fill:#E9762E;stroke:#E9762E;stroke-width:0.3578;stroke-miterlimit:10;}
	.st16{fill:#E9762E;stroke:#E9762E;stroke-width:0.3826;stroke-miterlimit:10;}
</style>
<path class="st5" d="M59.5,22.7H11.4C5.1,22.7,0,17.6,0,11.4v0C0,5.1,5.1,0,11.4,0l48.1,0c6.3,0,11.4,5.1,11.4,11.4v0
	C70.8,17.6,65.7,22.7,59.5,22.7z"/>
<g>
	<path class="st3" d="M12.6,10.7c0.2,0,0.3-0.1,0.3-0.3c0-0.2-0.1-0.3-0.3-0.3c-0.2,0-0.3,0.1-0.3,0.3
		C12.3,10.6,12.5,10.7,12.6,10.7z"/>
	<path class="st3" d="M18.5,8.5h-1.6l-2.5-3.4c-0.2-0.4-0.7-0.5-1.1-0.3C12.9,5,12.8,5.5,13,5.9c0,0,0,0,0,0l2,2.6h-4.7l2-2.6
		c0,0,0,0,0,0c0.2-0.4,0.1-0.9-0.3-1.1c-0.4-0.2-0.9-0.1-1.1,0.3L8.3,8.5H6.7C6.1,8.5,5.6,9,5.6,9.6c0,0.5,0.3,0.9,0.7,1
		c0,0,0.1,0.1,0.2,0.1c0,0,0,0,0,0c0.1,0,0.2,0.1,0.2,0.2l0.9,5.1c0.1,0.4,0.4,0.7,0.8,0.7h8.2c0.4,0,0.7-0.3,0.8-0.7l0.9-5.1
		c0-0.1,0.1-0.2,0.2-0.2c0,0,0,0,0,0c0.1,0,0.1,0,0.2-0.1c0.4-0.1,0.7-0.6,0.7-1C19.6,9,19.1,8.5,18.5,8.5z M13.5,5.6
		c-0.1-0.1,0-0.3,0.1-0.4c0.1-0.1,0.3,0,0.4,0.1c0,0,0,0,0,0l2.3,3.1h-0.6L13.5,5.6z M11.3,5.4C11.3,5.4,11.3,5.4,11.3,5.4
		c0.1-0.2,0.3-0.2,0.4-0.1c0.1,0.1,0.2,0.2,0.1,0.4L9.6,8.5H9L11.3,5.4z M18.5,10.2h-4.8c-0.2,0-0.3,0.1-0.3,0.3s0.1,0.3,0.3,0.3H18
		c0,0,0,0.1,0,0.1L17,16c0,0.1-0.1,0.2-0.3,0.2H8.5c-0.1,0-0.2-0.1-0.3-0.2l-0.9-5.1c0,0,0-0.1,0-0.1h4.2c0.2,0,0.3-0.1,0.3-0.3
		s-0.1-0.3-0.3-0.3H6.7c-0.3,0-0.5-0.2-0.5-0.5c0-0.3,0.2-0.5,0.5-0.5h11.9c0.3,0,0.5,0.2,0.5,0.5C19.1,9.9,18.8,10.2,18.5,10.2z"/>
	<path class="st3" d="M12.6,11.6c-0.5,0-0.8,0.4-0.8,0.8v2.2c0,0.5,0.4,0.8,0.8,0.8c0.5,0,0.8-0.4,0.8-0.8v-2.2
		C13.4,11.9,13.1,11.6,12.6,11.6z M12.9,14.6c0,0.2-0.1,0.3-0.3,0.3s-0.3-0.1-0.3-0.3v-2.2c0-0.2,0.1-0.3,0.3-0.3
		c0.2,0,0.3,0.1,0.3,0.3V14.6z"/>
	<path class="st3" d="M15.4,15.4c0.5,0,0.8-0.4,0.8-0.8v-2.2c0-0.5-0.4-0.8-0.8-0.8c-0.5,0-0.8,0.4-0.8,0.8v2.2
		C14.5,15,14.9,15.4,15.4,15.4z M15.1,12.4c0-0.2,0.1-0.3,0.3-0.3c0.2,0,0.3,0.1,0.3,0.3v2.2c0,0.2-0.1,0.3-0.3,0.3
		s-0.3-0.1-0.3-0.3V12.4z"/>
	<path class="st3" d="M9.9,11.6c-0.5,0-0.8,0.4-0.8,0.8v2.2c0,0.5,0.4,0.8,0.8,0.8c0.5,0,0.8-0.4,0.8-0.8v-2.2
		C10.7,11.9,10.3,11.6,9.9,11.6z M10.1,14.6c0,0.2-0.1,0.3-0.3,0.3s-0.3-0.1-0.3-0.3v-2.2c0-0.2,0.1-0.3,0.3-0.3
		c0.2,0,0.3,0.1,0.3,0.3V14.6z"/>
</g>
<g>
	<path class="st12" d="M28.7,14.6l0.4,0.4c-0.9,0.8-2,1.2-3.2,1.2c-1.3,0-2.4-0.5-3.4-1.4c-0.9-0.9-1.4-2-1.4-3.4
		c0-1.3,0.5-2.4,1.4-3.4c0.9-0.9,2-1.4,3.4-1.4c1.2,0,2.3,0.4,3.2,1.2l-0.4,0.4c-0.8-0.7-1.7-1.1-2.8-1.1c-1.2,0-2.2,0.4-3,1.2
		c-0.8,0.8-1.2,1.8-1.2,3c0,1.2,0.4,2.2,1.2,3c0.8,0.8,1.8,1.2,3,1.2C27,15.7,27.9,15.3,28.7,14.6z"/>
	<path class="st12" d="M33.2,9.9c0.9,0,1.6,0.3,2.3,0.9s0.9,1.4,0.9,2.3c0,0.9-0.3,1.6-0.9,2.2c-0.6,0.6-1.4,0.9-2.3,0.9
		c-0.9,0-1.6-0.3-2.2-0.9c-0.6-0.6-0.9-1.4-0.9-2.2c0-0.9,0.3-1.6,0.9-2.3C31.5,10.2,32.3,9.9,33.2,9.9z M31.3,11.2
		c-0.5,0.5-0.8,1.1-0.8,1.9c0,0.7,0.3,1.3,0.8,1.9c0.5,0.5,1.1,0.8,1.9,0.8c0.7,0,1.3-0.3,1.9-0.8c0.5-0.5,0.8-1.1,0.8-1.9
		c0-0.7-0.3-1.3-0.8-1.9s-1.1-0.8-1.9-0.8C32.4,10.4,31.8,10.7,31.3,11.2z"/>
	<path class="st12" d="M37.5,10.4H38v0.1c0.3-0.3,0.7-0.5,1.2-0.5c0.5,0,0.9,0.2,1.2,0.5c0.1,0.1,0.2,0.2,0.2,0.3
		c0.1-0.1,0.2-0.2,0.2-0.3c0.3-0.3,0.7-0.5,1.2-0.5c0.5,0,0.9,0.2,1.2,0.5c0.3,0.3,0.5,0.7,0.5,1.1v4.4h-0.5v-4.4h0
		c0-0.3-0.1-0.6-0.3-0.8c-0.2-0.2-0.5-0.3-0.8-0.3c-0.3,0-0.6,0.1-0.8,0.3c-0.2,0.2-0.3,0.5-0.3,0.9v4.3h-0.5v-4.4h0
		c0-0.3-0.1-0.6-0.3-0.8c-0.2-0.2-0.5-0.3-0.8-0.3s-0.6,0.1-0.8,0.3c-0.2,0.2-0.3,0.4-0.3,0.7v4.4h-0.5V10.4z"/>
	<path class="st12" d="M44.9,10.4h0.5v0.8c0.1-0.1,0.2-0.3,0.3-0.4c0.6-0.6,1.4-0.9,2.2-0.9c0.9,0,1.6,0.3,2.2,0.9
		c0.6,0.6,0.9,1.4,0.9,2.3c0,0.9-0.3,1.6-0.9,2.2c-0.6,0.6-1.4,0.9-2.2,0.9c-0.9,0-1.6-0.3-2.2-0.9c-0.1-0.1-0.2-0.2-0.3-0.4v3.3
		h-0.5V10.4z M45.5,12.5v1.1c0.1,0.5,0.3,0.9,0.7,1.3c0.5,0.5,1.1,0.8,1.9,0.8c0.7,0,1.3-0.3,1.9-0.8c0.5-0.5,0.8-1.1,0.8-1.9
		c0-0.7-0.3-1.3-0.8-1.9c-0.5-0.5-1.1-0.8-1.9-0.8c-0.7,0-1.3,0.3-1.9,0.8C45.8,11.6,45.6,12,45.5,12.5z"/>
	<path class="st12" d="M54.3,10.9c-0.4,0.1-0.7,0.3-1.1,0.7c-0.4,0.4-0.5,0.8-0.5,1.3v3.3h-0.5v-5.7h0.5v1.2c0.2-0.6,0.7-1,1.3-1.3
		L54.3,10.9z"/>
	<path class="st12" d="M61,16.1h-0.5v-1.2c-0.1,0.1-0.2,0.3-0.3,0.4c-0.6,0.6-1.4,0.9-2.3,0.9c-0.9,0-1.6-0.3-2.2-0.9
		c-0.6-0.6-0.9-1.4-0.9-2.2c0-0.9,0.3-1.6,0.9-2.3c0.6-0.6,1.4-0.9,2.2-0.9c0.9,0,1.6,0.3,2.3,0.9c0.1,0.1,0.2,0.3,0.3,0.4v-0.8H61
		V16.1z M60.5,13.6v-1c-0.1-0.5-0.3-1-0.7-1.3c-0.5-0.5-1.1-0.8-1.9-0.8s-1.3,0.3-1.9,0.8c-0.5,0.5-0.8,1.1-0.8,1.9
		c0,0.7,0.3,1.3,0.8,1.9c0.5,0.5,1.1,0.8,1.9,0.8s1.3-0.3,1.9-0.8C60.2,14.5,60.4,14.1,60.5,13.6z"/>
	<path class="st12" d="M63.7,13c-0.4-0.2-0.7-0.4-0.9-0.6c-0.3-0.3-0.4-0.6-0.4-1s0.1-0.7,0.4-1c0.3-0.3,0.6-0.4,1-0.4
		c0.4,0,0.7,0.1,0.9,0.4c0.2,0.2,0.4,0.5,0.4,0.8v0l-0.5,0.2c0-0.3-0.1-0.5-0.3-0.7c-0.1-0.1-0.3-0.2-0.6-0.2
		c-0.2,0-0.4,0.1-0.6,0.2s-0.2,0.4-0.2,0.6s0.1,0.4,0.2,0.6c0.1,0.1,0.3,0.2,0.6,0.4c0.5,0.3,0.8,0.5,1.1,0.7
		c0.3,0.3,0.5,0.7,0.5,1.2c0,0.5-0.2,0.9-0.5,1.2c-0.3,0.3-0.7,0.5-1.2,0.5c-0.5,0-0.9-0.2-1.2-0.5c-0.3-0.3-0.5-0.7-0.5-1.1
		l0.5-0.1c0,0.3,0.1,0.6,0.3,0.8c0.2,0.2,0.5,0.3,0.8,0.3c0.3,0,0.6-0.1,0.8-0.3s0.3-0.5,0.3-0.8c0-0.3-0.1-0.6-0.3-0.8
		C64.4,13.5,64.1,13.3,63.7,13z"/>
</g>
</svg>
