<?xml version="1.0" encoding="utf-8"?>
<!-- Generator: Adobe Illustrator 24.0.2, SVG Export Plug-In . SVG Version: 6.00 Build 0)  -->
<svg version="1.1" id="off" xmlns="http://www.w3.org/2000/svg" xmlns:xlink="http://www.w3.org/1999/xlink" x="0px" y="0px"
	 viewBox="0 0 70.8 22.7" style="enable-background:new 0 0 70.8 22.7;" xml:space="preserve">
<style type="text/css">
	.st0{fill:#E9762E;}
	.st1{fill:#E9762F;}
	.st2{fill:#7382A3;}
	.st3{fill:#A4AAC2;}
	.st4{fill:#FFFFFF;}
	.st5{display:none;fill:#3F3F3F;}
	.st6{fill:#3F3F3F;}
	.st7{fill:none;stroke:#E9762E;stroke-width:0.5941;stroke-miterlimit:10;}
	.st8{clip-path:url(#SVGID_2_);}
	.st9{fill:#727276;}
	.st10{clip-path:url(#SVGID_6_);}
	.st11{fill:#E9762E;stroke:#E9762E;stroke-width:0.5;stroke-miterlimit:10;}
	.st12{fill:#E9762E;stroke:#E9762E;stroke-width:0.3868;stroke-miterlimit:10;}
	.st13{fill:#E9762E;stroke:#E9762E;stroke-width:0.5162;stroke-miterlimit:10;}
	.st14{fill:#FFFDFD;}
	.st15{fill:none;stroke:#3F3F3F;stroke-width:2.9348;stroke-miterlimit:10;}
	.st16{fill:#E9762E;stroke:#E9762E;stroke-width:0.75;stroke-miterlimit:10;}
	.st17{fill:#3F3F3F;stroke:#3F3F3F;stroke-width:0.25;stroke-miterlimit:10;}
	.st18{fill:#444444;}
	.st19{fill:#292929;}
	.st20{fill:#FFD400;}
	.st21{fill:#FF9F00;}
	.st22{fill:#6E6E6E;}
	.st23{fill:#E9762E;stroke:#E9762E;stroke-width:0.3995;stroke-miterlimit:10;}
</style>
<path class="st6" d="M59.5,22.7H11.4C5.1,22.7,0,17.6,0,11.4v0C0,5.1,5.1,0,11.4,0l48.1,0c6.3,0,11.4,5.1,11.4,11.4v0
	C70.8,17.6,65.7,22.7,59.5,22.7z"/>
<g>
	<g>
		<path class="st23" d="M37.9,3.3v0.4h-3.1v2.9h3.1V7h-3.1v2.9h3.1v0.4h-3.5V3.3H37.9z"/>
		<path class="st23" d="M43.5,10.3h-0.4V9.4c-0.1,0.1-0.2,0.2-0.2,0.3c-0.5,0.5-1,0.7-1.7,0.7c-0.7,0-1.2-0.2-1.7-0.7
			c-0.5-0.5-0.7-1-0.7-1.7c0-0.7,0.2-1.2,0.7-1.7c0.5-0.5,1-0.7,1.7-0.7c0.7,0,1.2,0.2,1.7,0.7c0.1,0.1,0.2,0.2,0.2,0.3V3.3h0.4
			V10.3z M43.1,8.4V7.6c-0.1-0.4-0.3-0.7-0.5-1c-0.4-0.4-0.9-0.6-1.4-0.6c-0.5,0-1,0.2-1.4,0.6C39.4,7,39.2,7.5,39.2,8
			c0,0.5,0.2,1,0.6,1.4c0.4,0.4,0.8,0.6,1.4,0.6c0.5,0,1-0.2,1.4-0.6C42.8,9.1,43,8.8,43.1,8.4z"/>
		<path class="st23" d="M45,4.6c0.1,0.1,0.1,0.2,0.1,0.3c0,0.1,0,0.2-0.1,0.3c-0.1,0.1-0.2,0.1-0.3,0.1c-0.1,0-0.2,0-0.3-0.1
			c-0.1-0.1-0.1-0.2-0.1-0.3c0-0.1,0-0.2,0.1-0.3c0.1-0.1,0.2-0.1,0.3-0.1C44.8,4.5,44.9,4.6,45,4.6z M44.9,6v4.3h-0.4V6H44.9z"/>
		<path class="st23" d="M46.5,6V4.2h0.4V6h0.9v0.4h-0.9v3.9h-0.4V6.4h-0.9V6H46.5z"/>
		<path class="st23" d="M53,10.3h-0.4V9.4c-0.1,0.1-0.2,0.2-0.2,0.3c-0.5,0.5-1,0.7-1.7,0.7c-0.7,0-1.2-0.2-1.7-0.7
			c-0.5-0.5-0.7-1-0.7-1.7c0-0.7,0.2-1.2,0.7-1.7c0.5-0.5,1-0.7,1.7-0.7c0.7,0,1.2,0.2,1.7,0.7c0.1,0.1,0.2,0.2,0.2,0.3V6H53V10.3z
			 M52.6,8.4V7.6c-0.1-0.4-0.3-0.7-0.5-1c-0.4-0.4-0.9-0.6-1.4-0.6c-0.5,0-1,0.2-1.4,0.6C48.9,7,48.7,7.5,48.7,8
			c0,0.5,0.2,1,0.6,1.4c0.4,0.4,0.8,0.6,1.4,0.6c0.5,0,1-0.2,1.4-0.6C52.4,9.1,52.5,8.8,52.6,8.4z"/>
		<path class="st23" d="M55.4,6.4c-0.3,0-0.6,0.2-0.8,0.5c-0.3,0.3-0.4,0.6-0.4,0.9v2.4h-0.4V6h0.4V7c0.2-0.4,0.5-0.7,1-1L55.4,6.4z
			"/>
		<path class="st23" d="M35.5,12.6h0.4v5c-0.1,0.5-0.3,1-0.7,1.4c-0.4,0.4-1,0.7-1.6,0.7c-0.6,0-1.2-0.2-1.6-0.7
			c-0.4-0.4-0.7-1-0.7-1.6v-4.7h0.4v4.7c0,0.5,0.2,1,0.6,1.3c0.4,0.4,0.8,0.6,1.3,0.6c0.5,0,1-0.2,1.3-0.6c0.4-0.4,0.5-0.8,0.5-1.3
			V12.6z"/>
		<path class="st23" d="M38,17.3c-0.3-0.2-0.6-0.3-0.7-0.5c-0.2-0.2-0.3-0.4-0.3-0.7c0-0.3,0.1-0.5,0.3-0.7c0.2-0.2,0.4-0.3,0.7-0.3
			c0.3,0,0.5,0.1,0.7,0.3c0.2,0.2,0.3,0.4,0.3,0.6v0l-0.3,0.1c0-0.2-0.1-0.4-0.2-0.5c-0.1-0.1-0.3-0.2-0.4-0.2
			c-0.2,0-0.3,0.1-0.4,0.2c-0.1,0.1-0.2,0.3-0.2,0.4c0,0.2,0.1,0.3,0.2,0.4c0.1,0.1,0.2,0.2,0.5,0.3c0.4,0.2,0.6,0.4,0.8,0.5
			c0.2,0.2,0.4,0.5,0.4,0.9c0,0.4-0.1,0.7-0.4,0.9c-0.2,0.2-0.5,0.4-0.9,0.4c-0.3,0-0.6-0.1-0.9-0.4c-0.2-0.2-0.4-0.5-0.4-0.8
			l0.4-0.1c0,0.3,0.1,0.5,0.3,0.6c0.2,0.2,0.4,0.3,0.6,0.3c0.2,0,0.4-0.1,0.6-0.3c0.2-0.2,0.3-0.4,0.3-0.6c0-0.2-0.1-0.4-0.3-0.6
			C38.5,17.6,38.3,17.5,38,17.3z"/>
		<path class="st23" d="M41.8,19.6c-0.5,0-1-0.2-1.3-0.5C40.2,18.9,40,18.5,40,18v-2.7h0.4v2.6c0,0.4,0.1,0.7,0.4,0.9
			c0.3,0.3,0.6,0.4,1,0.4c0.4,0,0.7-0.1,0.9-0.4c0.3-0.3,0.4-0.6,0.4-0.9v-2.6h0.4V18c0,0.5-0.2,0.9-0.5,1.2
			C42.7,19.5,42.3,19.6,41.8,19.6z"/>
		<path class="st23" d="M49,19.6h-0.4v-0.9c-0.1,0.1-0.2,0.2-0.2,0.3c-0.5,0.5-1,0.7-1.7,0.7c-0.7,0-1.2-0.2-1.7-0.7
			c-0.5-0.5-0.7-1-0.7-1.7c0-0.7,0.2-1.2,0.7-1.7c0.5-0.5,1-0.7,1.7-0.7c0.7,0,1.2,0.2,1.7,0.7c0.1,0.1,0.2,0.2,0.2,0.3v-0.6H49
			V19.6z M48.6,17.7v-0.8c-0.1-0.4-0.3-0.7-0.5-1c-0.4-0.4-0.9-0.6-1.4-0.6c-0.5,0-1,0.2-1.4,0.6c-0.4,0.4-0.6,0.9-0.6,1.4
			s0.2,1,0.6,1.4c0.4,0.4,0.8,0.6,1.4,0.6c0.5,0,1-0.2,1.4-0.6C48.4,18.4,48.5,18.1,48.6,17.7z"/>
		<path class="st23" d="M51.4,15.7c-0.3,0-0.6,0.2-0.8,0.5c-0.3,0.3-0.4,0.6-0.4,0.9v2.4h-0.4v-4.3h0.4v0.9c0.2-0.4,0.5-0.7,1-1
			L51.4,15.7z"/>
		<path class="st23" d="M52.5,13.9c0.1,0.1,0.1,0.2,0.1,0.3c0,0.1,0,0.2-0.1,0.3c-0.1,0.1-0.2,0.1-0.3,0.1c-0.1,0-0.2,0-0.3-0.1
			c-0.1-0.1-0.1-0.2-0.1-0.3c0-0.1,0-0.2,0.1-0.3c0.1-0.1,0.2-0.1,0.3-0.1C52.3,13.8,52.4,13.8,52.5,13.9z M52.4,15.3v4.3H52v-4.3
			H52.4z"/>
		<path class="st23" d="M55.7,14.9c0.7,0,1.2,0.2,1.7,0.7c0.5,0.5,0.7,1,0.7,1.7c0,0.7-0.2,1.2-0.7,1.7c-0.5,0.5-1,0.7-1.7,0.7
			c-0.7,0-1.2-0.2-1.7-0.7c-0.5-0.5-0.7-1-0.7-1.7c0-0.7,0.2-1.2,0.7-1.7C54.5,15.2,55.1,14.9,55.7,14.9z M54.3,15.9
			c-0.4,0.4-0.6,0.9-0.6,1.4s0.2,1,0.6,1.4c0.4,0.4,0.8,0.6,1.4,0.6c0.5,0,1-0.2,1.4-0.6c0.4-0.4,0.6-0.8,0.6-1.4s-0.2-1-0.6-1.4
			s-0.8-0.6-1.4-0.6C55.2,15.3,54.7,15.5,54.3,15.9z"/>
	</g>
	<g>
		<path class="st4" d="M19.1,3.5c-2.5,0-4.5,2-4.5,4.5c0,1.5,0.8,2.9,2,3.7c-2.3,1-3.9,3.2-3.9,5.9H14c0-2.8,2.3-5.1,5.1-5.1
			c1.4,0,2.6,0.6,3.5,1.4l-3,3l0,0.2l-0.4,2.3l-0.2,0.9l0.9-0.2l2.3-0.4l0.2,0l6.4-6.4c0.7-0.7,0.7-2,0-2.7
			c-0.4-0.4-0.9-0.6-1.4-0.6c-0.5,0-1,0.2-1.3,0.5L23.5,13c-0.6-0.5-1.2-1-1.9-1.3c1.2-0.8,2-2.2,2-3.7C23.6,5.5,21.6,3.5,19.1,3.5z
			 M19.1,4.8c1.8,0,3.2,1.4,3.2,3.2s-1.4,3.2-3.2,3.2S15.9,9.7,15.9,8S17.3,4.8,19.1,4.8z M27.4,11.2c0.2,0,0.3,0.1,0.5,0.2
			c0.3,0.3,0.3,0.6,0,0.9l-6.2,6.2l-1.1,0.2l0.2-1.1l6.2-6.2C27.1,11.2,27.2,11.2,27.4,11.2z"/>
	</g>
</g>
</svg>
