<?xml version="1.0" encoding="utf-8"?>
<!-- Generator: Adobe Illustrator 24.0.2, SVG Export Plug-In . SVG Version: 6.00 Build 0)  -->
<svg version="1.1" id="off" xmlns="http://www.w3.org/2000/svg" xmlns:xlink="http://www.w3.org/1999/xlink" x="0px" y="0px"
	 viewBox="0 0 70.8 22.7" style="enable-background:new 0 0 70.8 22.7;" xml:space="preserve">
<style type="text/css">
	.st0{fill:#E9762F;}
	.st1{fill:#7382A3;}
	.st2{fill:#A4AAC2;}
	.st3{fill:#FFFFFF;}
	.st4{display:none;fill:#3F3F3F;}
	.st5{fill:#3F3F3F;}
	.st6{fill:none;stroke:#E9762E;stroke-width:0.5941;stroke-miterlimit:10;}
	.st7{clip-path:url(#SVGID_2_);}
	.st8{fill:#727276;}
	.st9{fill:#E9762E;}
	.st10{clip-path:url(#SVGID_6_);}
	.st11{fill:#E9762E;stroke:#E9762E;stroke-width:0.5;stroke-miterlimit:10;}
	.st12{fill:#E9762E;stroke:#E9762E;stroke-width:0.5162;stroke-miterlimit:10;}
	.st13{fill:#E9762E;stroke:#E9762E;stroke-width:0.3135;stroke-miterlimit:10;}
	.st14{fill:#E9762E;stroke:#E9762E;stroke-width:0.3868;stroke-miterlimit:10;}
	.st15{fill:#E9762E;stroke:#E9762E;stroke-width:0.3578;stroke-miterlimit:10;}
	.st16{fill:#E9762E;stroke:#E9762E;stroke-width:0.3826;stroke-miterlimit:10;}
</style>
<path class="st5" d="M59.5,22.7H11.4C5.1,22.7,0,17.6,0,11.4v0C0,5.1,5.1,0,11.4,0l48.1,0c6.3,0,11.4,5.1,11.4,11.4v0
	C70.8,17.6,65.7,22.7,59.5,22.7z"/>
<g>
	<path class="st16" d="M23.2,8.9v0.4h-2.6v2.9h2.6v0.4h-2.6v3.2h-0.4V8.9H23.2z"/>
	<path class="st16" d="M28.3,15.8h-0.4v-0.9c-0.1,0.1-0.2,0.2-0.2,0.3c-0.5,0.5-1,0.7-1.7,0.7c-0.6,0-1.2-0.2-1.7-0.7
		c-0.5-0.5-0.7-1-0.7-1.7c0-0.7,0.2-1.2,0.7-1.7c0.5-0.5,1-0.7,1.7-0.7c0.7,0,1.2,0.2,1.7,0.7c0.1,0.1,0.2,0.2,0.2,0.3v-0.6h0.4
		V15.8z M27.9,13.9v-0.8c-0.1-0.4-0.2-0.7-0.5-1c-0.4-0.4-0.8-0.6-1.4-0.6c-0.5,0-1,0.2-1.4,0.6C24.2,12.5,24,13,24,13.5
		c0,0.5,0.2,1,0.6,1.4c0.4,0.4,0.8,0.6,1.4,0.6c0.5,0,1-0.2,1.4-0.6C27.6,14.6,27.8,14.3,27.9,13.9z"/>
	<path class="st16" d="M32.8,14.7l0.4,0.2c-0.1,0.1-0.2,0.2-0.3,0.3c-0.5,0.5-1,0.7-1.7,0.7c-0.6,0-1.2-0.2-1.7-0.7
		c-0.5-0.5-0.7-1-0.7-1.7c0-0.7,0.2-1.2,0.7-1.7c0.5-0.5,1-0.7,1.7-0.7c0.7,0,1.2,0.2,1.7,0.7c0.1,0.1,0.2,0.2,0.3,0.3l-0.4,0.2
		c0-0.1-0.1-0.1-0.1-0.2c-0.4-0.4-0.8-0.6-1.4-0.6c-0.5,0-1,0.2-1.4,0.6c-0.4,0.4-0.6,0.8-0.6,1.4c0,0.5,0.2,1,0.6,1.4
		c0.4,0.4,0.8,0.6,1.4,0.6c0.5,0,1-0.2,1.4-0.6C32.7,14.8,32.8,14.8,32.8,14.7z"/>
	<path class="st16" d="M34.5,11.5V9.7h0.4v1.8h0.9v0.4h-0.9v3.8h-0.4v-3.8h-0.9v-0.4H34.5z"/>
	<path class="st16" d="M38.1,15.8c-0.5,0-0.9-0.2-1.3-0.5c-0.3-0.3-0.5-0.7-0.5-1.2v-2.6h0.4v2.6c0,0.4,0.1,0.7,0.4,0.9
		c0.3,0.3,0.6,0.4,1,0.4c0.4,0,0.7-0.1,0.9-0.4c0.3-0.3,0.4-0.6,0.4-0.9v-2.6h0.4v2.6c0,0.5-0.2,0.9-0.5,1.2
		C39,15.7,38.6,15.8,38.1,15.8z"/>
	<path class="st16" d="M42.2,11.9c-0.3,0-0.5,0.2-0.8,0.5s-0.4,0.6-0.4,0.9v2.4h-0.4v-4.2h0.4v0.9c0.2-0.4,0.5-0.7,1-0.9L42.2,11.9z
		"/>
	<path class="st16" d="M47.2,15.8h-0.4v-0.9c-0.1,0.1-0.2,0.2-0.2,0.3c-0.5,0.5-1,0.7-1.7,0.7c-0.6,0-1.2-0.2-1.7-0.7
		c-0.5-0.5-0.7-1-0.7-1.7c0-0.7,0.2-1.2,0.7-1.7c0.5-0.5,1-0.7,1.7-0.7c0.7,0,1.2,0.2,1.7,0.7c0.1,0.1,0.2,0.2,0.2,0.3v-0.6h0.4
		V15.8z M46.8,13.9v-0.8c-0.1-0.4-0.2-0.7-0.5-1c-0.4-0.4-0.8-0.6-1.4-0.6c-0.5,0-1,0.2-1.4,0.6c-0.4,0.4-0.6,0.8-0.6,1.4
		c0,0.5,0.2,1,0.6,1.4c0.4,0.4,0.8,0.6,1.4,0.6c0.5,0,1-0.2,1.4-0.6C46.5,14.6,46.7,14.3,46.8,13.9z"/>
	<path class="st16" d="M51.7,14.7l0.4,0.2c-0.1,0.1-0.2,0.2-0.3,0.3c-0.5,0.5-1,0.7-1.7,0.7c-0.6,0-1.2-0.2-1.7-0.7
		c-0.5-0.5-0.7-1-0.7-1.7c0-0.7,0.2-1.2,0.7-1.7c0.5-0.5,1-0.7,1.7-0.7c0.7,0,1.2,0.2,1.7,0.7c0.1,0.1,0.2,0.2,0.3,0.3l-0.4,0.2
		c0-0.1-0.1-0.1-0.1-0.2c-0.4-0.4-0.8-0.6-1.4-0.6c-0.5,0-1,0.2-1.4,0.6c-0.4,0.4-0.6,0.8-0.6,1.4c0,0.5,0.2,1,0.6,1.4
		c0.4,0.4,0.8,0.6,1.4,0.6c0.5,0,1-0.2,1.4-0.6C51.6,14.8,51.7,14.8,51.7,14.7z"/>
	<path class="st16" d="M53.4,10.2c0.1,0.1,0.1,0.2,0.1,0.3c0,0.1,0,0.2-0.1,0.3c-0.1,0.1-0.2,0.1-0.3,0.1c-0.1,0-0.2,0-0.3-0.1
		c-0.1-0.1-0.1-0.2-0.1-0.3c0-0.1,0-0.2,0.1-0.3s0.2-0.1,0.3-0.1C53.3,10,53.4,10.1,53.4,10.2z M53.4,11.5v4.2H53v-4.2H53.4z"/>
	<path class="st16" d="M56.6,11.2c0.7,0,1.2,0.2,1.7,0.7s0.7,1,0.7,1.7c0,0.6-0.2,1.2-0.7,1.7c-0.5,0.5-1,0.7-1.7,0.7
		c-0.6,0-1.2-0.2-1.7-0.7c-0.5-0.5-0.7-1-0.7-1.7c0-0.7,0.2-1.2,0.7-1.7C55.4,11.4,56,11.2,56.6,11.2z M55.3,12.1
		c-0.4,0.4-0.6,0.8-0.6,1.4c0,0.5,0.2,1,0.6,1.4c0.4,0.4,0.8,0.6,1.4,0.6c0.5,0,1-0.2,1.4-0.6c0.4-0.4,0.6-0.8,0.6-1.4
		c0-0.5-0.2-1-0.6-1.4c-0.4-0.4-0.8-0.6-1.4-0.6C56.1,11.6,55.6,11.8,55.3,12.1z M57.6,9.8l-1.1,0.8h-0.4l0.7-0.8H57.6z"/>
	<path class="st16" d="M60.2,12.5v3.3h-0.4v-4.2h0.4v0.3c0.3-0.3,0.8-0.5,1.2-0.5c0.5,0,0.9,0.2,1.2,0.5s0.5,0.7,0.5,1.2v2.8h-0.4
		V13c0-0.4-0.1-0.7-0.4-0.9c-0.3-0.3-0.6-0.4-0.9-0.4c-0.4,0-0.7,0.1-0.9,0.4C60.4,12.2,60.3,12.3,60.2,12.5z"/>
</g>
<g>
	<path class="st3" d="M16.3,7.5C16.3,7.5,16.3,7.5,16.3,7.5C16.3,7.5,16.3,7.5,16.3,7.5c0.3,0,0.5,0.2,0.5,0.5
		c0,0.1,0.1,0.2,0.2,0.2c0.1,0,0.2-0.1,0.2-0.2c0-0.4-0.3-0.8-0.7-0.9V6.9c0-0.1-0.1-0.2-0.2-0.2s-0.2,0.1-0.2,0.2v0.2
		c-0.4,0.1-0.7,0.5-0.6,1c0.1,0.4,0.4,0.8,0.9,0.8c0.3,0,0.5,0.2,0.5,0.5c0,0.3-0.2,0.5-0.5,0.5c-0.3,0-0.5-0.2-0.5-0.5
		c0-0.1-0.1-0.2-0.2-0.2c-0.1,0-0.2,0.1-0.2,0.2c0,0.4,0.3,0.7,0.6,0.8v0.2c0,0.1,0.1,0.2,0.2,0.2s0.2-0.1,0.2-0.2v-0.2
		c0.4-0.1,0.7-0.5,0.7-0.9c0-0.4-0.4-0.8-0.9-0.8c-0.2,0-0.5-0.2-0.5-0.4C15.8,7.7,16,7.5,16.3,7.5L16.3,7.5z"/>
	<path class="st3" d="M16.3,5.7c-1.3,0-2.4,0.8-2.8,1.9H8.4c-0.1,0-0.2,0.1-0.2,0.2l0,7.2H6.7c-0.1,0-0.2,0.1-0.2,0.2v0.9
		c0,0.9,0.7,1.6,1.5,1.6v0h6.4v0c0.1,0,0.1,0,0.1,0h0c0.9,0,1.6-0.7,1.6-1.6v-4.7c0.1,0,0.1,0,0.2,0c1.6,0,2.9-1.3,2.9-2.9
		C19.2,7,17.9,5.7,16.3,5.7z M8.1,17.4L8.1,17.4c-0.7,0-1.2-0.5-1.2-1.2v-0.7h6v0.7c0,0.4,0.2,0.8,0.5,1.1c0,0,0,0,0.1,0.1H8.1z
		 M15.7,16.2c0,0.7-0.5,1.2-1.2,1.2h0c-0.7,0-1.2-0.5-1.2-1.2v-0.9c0-0.1,0-0.1-0.1-0.1c0,0-0.1-0.1-0.1-0.1H8.6l0-7.1h4.8
		c0,0.2-0.1,0.4-0.1,0.6c0,0.4,0.1,0.8,0.2,1.2h-2c-0.1,0-0.2,0.1-0.2,0.2s0.1,0.2,0.2,0.2h2.2c0.4,0.7,1.1,1.1,1.9,1.3V16.2z
		 M16.3,11.1c-1.4,0-2.5-1.1-2.5-2.5c0-1.4,1.1-2.5,2.5-2.5c1.4,0,2.5,1.1,2.5,2.5C18.8,10,17.7,11.1,16.3,11.1z"/>
	<path class="st3" d="M10.3,11.1c-0.4,0-0.7,0.3-0.7,0.6c0,0.4,0.3,0.6,0.7,0.6c0.4,0,0.7-0.3,0.7-0.6C11,11.4,10.7,11.1,10.3,11.1z
		 M10.3,12c-0.1,0-0.2-0.1-0.2-0.2c0-0.1,0.1-0.2,0.2-0.2c0.1,0,0.2,0.1,0.2,0.2C10.6,11.9,10.5,12,10.3,12z"/>
	<path class="st3" d="M11.5,11.8c0,0.1,0.1,0.2,0.2,0.2h2.8c0.1,0,0.2-0.1,0.2-0.2c0-0.1-0.1-0.2-0.2-0.2h-2.8
		C11.6,11.6,11.5,11.7,11.5,11.8z"/>
	<path class="st3" d="M10.3,9.3C10,9.3,9.7,9.6,9.7,10c0,0.4,0.3,0.6,0.7,0.6c0.4,0,0.7-0.3,0.7-0.6C11,9.6,10.7,9.3,10.3,9.3z
		 M10.3,10.2c-0.1,0-0.2-0.1-0.2-0.2c0-0.1,0.1-0.2,0.2-0.2c0.1,0,0.2,0.1,0.2,0.2C10.6,10.1,10.5,10.2,10.3,10.2L10.3,10.2z"/>
	<path class="st3" d="M10.3,12.9c-0.4,0-0.7,0.3-0.7,0.6c0,0.4,0.3,0.6,0.7,0.6c0.4,0,0.7-0.3,0.7-0.6C11,13.2,10.7,12.9,10.3,12.9z
		 M10.3,13.8c-0.1,0-0.2-0.1-0.2-0.2c0-0.1,0.1-0.2,0.2-0.2c0.1,0,0.2,0.1,0.2,0.2C10.6,13.7,10.5,13.8,10.3,13.8z"/>
	<path class="st3" d="M14.4,13.4h-2.8c-0.1,0-0.2,0.1-0.2,0.2c0,0.1,0.1,0.2,0.2,0.2h2.8c0.1,0,0.2-0.1,0.2-0.2
		C14.6,13.5,14.5,13.4,14.4,13.4z"/>
</g>
</svg>
