<?xml version="1.0" encoding="utf-8"?>
<!-- Generator: Adobe Illustrator 24.0.2, SVG Export Plug-In . SVG Version: 6.00 Build 0)  -->
<svg version="1.1" id="off" xmlns="http://www.w3.org/2000/svg" xmlns:xlink="http://www.w3.org/1999/xlink" x="0px" y="0px"
	 viewBox="0 0 70.8 22.7" style="enable-background:new 0 0 70.8 22.7;" xml:space="preserve">
<style type="text/css">
	.st0{fill:#E9762F;}
	.st1{fill:#7382A3;}
	.st2{fill:#A4AAC2;}
	.st3{fill:#FFFFFF;}
	.st4{display:none;fill:#3F3F3F;}
	.st5{fill:#3F3F3F;}
	.st6{fill:none;stroke:#E9762E;stroke-width:0.5941;stroke-miterlimit:10;}
	.st7{clip-path:url(#SVGID_2_);}
	.st8{fill:#727276;}
	.st9{fill:#E9762E;}
	.st10{clip-path:url(#SVGID_6_);}
	.st11{fill:#E9762E;stroke:#E9762E;stroke-width:0.5;stroke-miterlimit:10;}
	.st12{fill:#E9762E;stroke:#E9762E;stroke-width:0.5162;stroke-miterlimit:10;}
	.st13{fill:#E9762E;stroke:#E9762E;stroke-width:0.3135;stroke-miterlimit:10;}
	.st14{fill:#E9762E;stroke:#E9762E;stroke-width:0.3868;stroke-miterlimit:10;}
	.st15{fill:#E9762E;stroke:#E9762E;stroke-width:0.3578;stroke-miterlimit:10;}
	.st16{fill:#E9762E;stroke:#E9762E;stroke-width:0.3826;stroke-miterlimit:10;}
</style>
<path class="st5" d="M59.5,22.7H11.4C5.1,22.7,0,17.6,0,11.4v0C0,5.1,5.1,0,11.4,0l48.1,0c6.3,0,11.4,5.1,11.4,11.4v0
	C70.8,17.6,65.7,22.7,59.5,22.7z"/>
<g>
	<path class="st12" d="M19.5,6.8v9.3H19V6.8H19.5z"/>
	<path class="st12" d="M21.5,11.7v4.4H21v-5.7h0.5v0.4c0.5-0.5,1-0.7,1.7-0.7c0.7,0,1.2,0.2,1.6,0.6c0.4,0.4,0.6,1,0.6,1.6v3.8h-0.5
		v-3.8c0-0.5-0.2-0.9-0.5-1.2s-0.8-0.5-1.2-0.5c-0.5,0-0.9,0.2-1.2,0.5C21.7,11.3,21.6,11.5,21.5,11.7z"/>
	<path class="st12" d="M31.4,10.4l-2.5,5.7h-0.3l-2.5-5.7h0.6l2,4.7l2.1-4.7H31.4z"/>
	<path class="st12" d="M32.4,12.8c0,0.1,0,0.2,0,0.3c0,0.7,0.3,1.3,0.8,1.9c0.5,0.5,1.1,0.8,1.9,0.8c0.7,0,1.3-0.3,1.9-0.8
		c0.1-0.1,0.2-0.2,0.2-0.3l0.6,0.2c-0.1,0.1-0.2,0.3-0.4,0.5c-0.6,0.6-1.4,0.9-2.3,0.9c-0.9,0-1.6-0.3-2.2-0.9
		c-0.6-0.6-0.9-1.4-0.9-2.2c0-0.9,0.3-1.6,0.9-2.3s1.4-0.9,2.2-0.9c0.9,0,1.6,0.3,2.3,0.9c0.5,0.6,0.8,1.2,0.8,2H32.4z M32.4,12.2h5
		c-0.1-0.4-0.3-0.7-0.6-1c-0.5-0.5-1.1-0.8-1.9-0.8c-0.7,0-1.3,0.3-1.9,0.8C32.8,11.5,32.6,11.9,32.4,12.2z"/>
	<path class="st12" d="M39.4,11.7v4.4h-0.5v-5.7h0.5v0.4c0.5-0.5,1-0.7,1.7-0.7c0.7,0,1.2,0.2,1.6,0.6c0.4,0.4,0.6,1,0.6,1.6v3.8
		h-0.5v-3.8c0-0.5-0.2-0.9-0.5-1.2s-0.8-0.5-1.2-0.5c-0.5,0-0.9,0.2-1.2,0.5C39.7,11.3,39.5,11.5,39.4,11.7z"/>
	<path class="st12" d="M45.4,10.4V8h0.5v2.4h1.2v0.5h-1.2v5.2h-0.5v-5.2h-1.2v-0.5H45.4z"/>
	<path class="st12" d="M54.1,16.1h-0.5v-1.2c-0.1,0.1-0.2,0.3-0.3,0.4c-0.6,0.6-1.4,0.9-2.3,0.9c-0.9,0-1.6-0.3-2.2-0.9
		c-0.6-0.6-0.9-1.4-0.9-2.2c0-0.9,0.3-1.6,0.9-2.3c0.6-0.6,1.4-0.9,2.2-0.9c0.9,0,1.6,0.3,2.3,0.9c0.1,0.1,0.2,0.3,0.3,0.4v-0.8h0.5
		V16.1z M53.5,13.6v-1c-0.1-0.5-0.3-1-0.7-1.3c-0.5-0.5-1.1-0.8-1.9-0.8s-1.3,0.3-1.9,0.8s-0.8,1.1-0.8,1.9c0,0.7,0.3,1.3,0.8,1.9
		c0.5,0.5,1.1,0.8,1.9,0.8s1.3-0.3,1.9-0.8C53.2,14.5,53.4,14.1,53.5,13.6z"/>
	<path class="st12" d="M57.3,10.9c-0.4,0.1-0.7,0.3-1.1,0.7c-0.4,0.4-0.5,0.8-0.5,1.3v3.3h-0.5v-5.7h0.5v1.2c0.2-0.6,0.7-1,1.3-1.3
		L57.3,10.9z"/>
	<path class="st12" d="M58.7,8.5c0.1,0.1,0.2,0.2,0.2,0.4c0,0.1-0.1,0.3-0.2,0.4c-0.1,0.1-0.2,0.2-0.4,0.2c-0.1,0-0.3-0.1-0.4-0.2
		c-0.1-0.1-0.2-0.2-0.2-0.4c0-0.1,0.1-0.3,0.2-0.4s0.2-0.2,0.4-0.2C58.5,8.4,58.6,8.4,58.7,8.5z M58.6,10.4v5.7h-0.5v-5.7H58.6z"/>
	<path class="st12" d="M63,9.9c0.9,0,1.6,0.3,2.3,0.9s0.9,1.4,0.9,2.3c0,0.9-0.3,1.6-0.9,2.2c-0.6,0.6-1.4,0.9-2.3,0.9
		c-0.9,0-1.6-0.3-2.2-0.9c-0.6-0.6-0.9-1.4-0.9-2.2c0-0.9,0.3-1.6,0.9-2.3C61.4,10.2,62.2,9.9,63,9.9z M61.2,11.2
		c-0.5,0.5-0.8,1.1-0.8,1.9c0,0.7,0.3,1.3,0.8,1.9c0.5,0.5,1.1,0.8,1.9,0.8c0.7,0,1.3-0.3,1.9-0.8c0.5-0.5,0.8-1.1,0.8-1.9
		c0-0.7-0.3-1.3-0.8-1.9c-0.5-0.5-1.1-0.8-1.9-0.8C62.3,10.4,61.7,10.7,61.2,11.2z"/>
</g>
<g id="Outline">
	<path class="st3" d="M16,10.5c-0.1-0.3-0.4-0.5-0.8-0.4l-5.6,1.7c0,0-0.1,0-0.1,0l-0.7,0.6c-0.1,0.1-0.1,0.2,0,0.3
		c0,0,0.1,0.1,0.1,0.1L9.9,13c0,0,0.1,0,0.1,0l4.5-1.4l0,0.4l-1.4,0.4l0.1,0.4l1.6-0.5c0.1,0,0.2-0.1,0.1-0.2l0-0.7l0.6-0.2
		C15.9,11.2,16.1,10.8,16,10.5L16,10.5z M9.9,12.5l-0.5-0.1l0.3-0.3l0.9-0.3l0.1,0.4L9.9,12.5z M11.2,12.1l-0.1-0.4l3.3-1l0,0.4
		L11.2,12.1z M15.6,10.8c0,0-0.1,0.1-0.1,0.1l-0.5,0.2l0-0.4l0.4-0.1c0.1,0,0.2,0,0.3,0.1C15.6,10.7,15.6,10.7,15.6,10.8z"/>
	<path class="st3" d="M11.7,13.4H8.2v-3.1c0-0.1-0.1-0.2-0.2-0.2H4.2c-0.1,0-0.2,0.1-0.2,0.2V17c0,0.1,0.1,0.2,0.2,0.2h7.5
		c0.1,0,0.2-0.1,0.2-0.2v-3.3C11.9,13.5,11.8,13.4,11.7,13.4z M9.4,13.8h0.8v0.8H9.4V13.8z M5.7,10.5h0.8v0.8H5.7V10.5z M4.4,10.5
		h0.8v1c0,0.1,0.1,0.2,0.2,0.2h1.2c0.1,0,0.2-0.1,0.2-0.2v-1h0.8v2.9H4.4V10.5z M5.7,13.8h0.8v0.8H5.7V13.8z M4.4,13.8h0.8v1
		c0,0.1,0.1,0.2,0.2,0.2h1.2c0.1,0,0.2-0.1,0.2-0.2v-1h0.8v2.9H4.4V13.8z M11.5,16.8H8.2v-2.9H9v1c0,0.1,0.1,0.2,0.2,0.2h1.2
		c0.1,0,0.2-0.1,0.2-0.2v-1h0.8V16.8z"/>
	<path class="st3" d="M10.7,15.9h0.4v0.4h-0.4V15.9z"/>
	<path class="st3" d="M6.9,15.9h0.4v0.4H6.9V15.9z"/>
	<path class="st3" d="M6.9,12.6h0.4V13H6.9V12.6z"/>
	<path class="st3" d="M7.3,6.4c0-0.2,0.2-0.4,0.4-0.4H9v0.4H8c-0.1,0-0.2,0.1-0.2,0.2v3.1h0.4V6.8h5v3.3h0.4V6.6
		c0-0.1-0.1-0.2-0.2-0.2h-1V5.9h1.2c0.2,0,0.4,0.2,0.4,0.4v3.5h0.4V6.4c0-0.5-0.4-0.8-0.8-0.8h-2L11.7,5c0-0.1,0-0.2-0.2-0.3
		c0,0,0,0-0.1,0H9.8c-0.1,0-0.2,0.1-0.2,0.2c0,0,0,0,0,0.1l0.1,0.6h-2c-0.5,0-0.8,0.4-0.8,0.8v3.3h0.4L7.3,6.4z M9.4,5.9H10
		c0.1,0,0.2-0.1,0.2-0.2c0,0,0,0,0-0.1l-0.1-0.6h1.1l-0.1,0.6c0,0.1,0,0.2,0.2,0.3c0,0,0,0,0.1,0h0.6v0.4H9.4L9.4,5.9z"/>
	<path class="st3" d="M14,14.9c0,0.2-0.2,0.4-0.4,0.4h-1.2v0.4h1.2c0.5,0,0.8-0.4,0.8-0.8V13H14V14.9z"/>
	<path class="st3" d="M13.6,14.7v-1.5h-0.4v1.2h-0.8v0.4h1C13.5,14.9,13.6,14.8,13.6,14.7z"/>
	<path class="st3" d="M9.8,7.4c0-0.1-0.1-0.2-0.2-0.2H8.8c-0.1,0-0.2,0.1-0.2,0.2v0.8c0,0.1,0.1,0.2,0.2,0.2h0.8
		c0.1,0,0.2-0.1,0.2-0.2V7.4z M9.4,8H9V7.6h0.4V8z"/>
	<path class="st3" d="M9.6,9.1H8.8c-0.1,0-0.2,0.1-0.2,0.2v0.8c0,0.1,0.1,0.2,0.2,0.2h0.8c0.1,0,0.2-0.1,0.2-0.2V9.3
		C9.8,9.2,9.7,9.1,9.6,9.1z M9.4,9.9H9V9.5h0.4V9.9z"/>
	<path class="st3" d="M10.2,7.2h0.4v0.4h-0.4V7.2z"/>
	<path class="st3" d="M10.2,8h2.5v0.4h-2.5V8z"/>
	<path class="st3" d="M11.1,7.2h1.7v0.4h-1.7V7.2z"/>
	<path class="st3" d="M10.2,9.1h0.4v0.4h-0.4V9.1z"/>
	<path class="st3" d="M10.2,9.9h2.5v0.4h-2.5V9.9z"/>
	<path class="st3" d="M11.1,9.1h1.7v0.4h-1.7V9.1z"/>
</g>
</svg>
