<?xml version="1.0" encoding="utf-8"?>
<!-- Generator: Adobe Illustrator 24.0.2, SVG Export Plug-In . SVG Version: 6.00 Build 0)  -->
<svg version="1.1" id="off" xmlns="http://www.w3.org/2000/svg" xmlns:xlink="http://www.w3.org/1999/xlink" x="0px" y="0px"
	 viewBox="0 0 70.8 22.7" style="enable-background:new 0 0 70.8 22.7;" xml:space="preserve">
<style type="text/css">
	.st0{fill:#E9762F;}
	.st1{fill:#7382A3;}
	.st2{fill:#A4AAC2;}
	.st3{fill:#FFFFFF;}
	.st4{display:none;fill:#3F3F3F;}
	.st5{fill:#3F3F3F;}
	.st6{fill:none;stroke:#E9762E;stroke-width:0.5941;stroke-miterlimit:10;}
	.st7{clip-path:url(#SVGID_2_);}
	.st8{fill:#727276;}
	.st9{fill:#E9762E;}
	.st10{clip-path:url(#SVGID_6_);}
	.st11{fill:#E9762E;stroke:#E9762E;stroke-width:0.5;stroke-miterlimit:10;}
	.st12{fill:#E9762E;stroke:#E9762E;stroke-width:0.3868;stroke-miterlimit:10;}
	.st13{fill:#E9762E;stroke:#E9762E;stroke-width:0.5162;stroke-miterlimit:10;}
</style>
<path class="st5" d="M59.5,22.7H11.4C5.1,22.7,0,17.6,0,11.4v0C0,5.1,5.1,0,11.4,0l48.1,0c6.3,0,11.4,5.1,11.4,11.4v0
	C70.8,17.6,65.7,22.7,59.5,22.7z"/>
<g>
	<path class="st12" d="M23.6,12.3v2.4h-0.4V7.8H25c0.5,0.1,1,0.3,1.4,0.7c0.4,0.4,0.7,1,0.7,1.6c0,0.6-0.2,1.2-0.7,1.6
		c-0.4,0.4-1,0.7-1.6,0.7H23.6z M23.6,8.2v3.7h1.2c0.5,0,1-0.2,1.3-0.5c0.4-0.4,0.5-0.8,0.5-1.3c0-0.5-0.2-1-0.5-1.3
		c-0.4-0.4-0.8-0.5-1.3-0.5H23.6z"/>
	<path class="st12" d="M32,14.7h-0.4v-0.9c-0.1,0.1-0.2,0.2-0.2,0.3c-0.5,0.5-1,0.7-1.7,0.7c-0.7,0-1.2-0.2-1.7-0.7
		c-0.5-0.5-0.7-1-0.7-1.7c0-0.7,0.2-1.2,0.7-1.7c0.5-0.5,1-0.7,1.7-0.7c0.7,0,1.2,0.2,1.7,0.7c0.1,0.1,0.2,0.2,0.2,0.3v-0.6H32V14.7
		z M31.6,12.9v-0.8c-0.1-0.4-0.3-0.7-0.5-1c-0.4-0.4-0.9-0.6-1.4-0.6c-0.5,0-1,0.2-1.4,0.6c-0.4,0.4-0.6,0.9-0.6,1.4
		c0,0.5,0.2,1,0.6,1.4s0.8,0.6,1.4,0.6c0.5,0,1-0.2,1.4-0.6C31.4,13.6,31.5,13.2,31.6,12.9z"/>
	<path class="st12" d="M34.4,10.8c-0.3,0-0.6,0.2-0.8,0.5c-0.3,0.3-0.4,0.6-0.4,0.9v2.4h-0.4v-4.3h0.4v0.9c0.2-0.4,0.5-0.7,1-1
		L34.4,10.8z"/>
	<path class="st12" d="M39.5,14.7h-0.4v-0.9C39,14,39,14.1,38.9,14.2c-0.5,0.5-1,0.7-1.7,0.7c-0.7,0-1.2-0.2-1.7-0.7
		c-0.5-0.5-0.7-1-0.7-1.7c0-0.7,0.2-1.2,0.7-1.7c0.5-0.5,1-0.7,1.7-0.7c0.7,0,1.2,0.2,1.7,0.7c0.1,0.1,0.2,0.2,0.2,0.3v-0.6h0.4
		V14.7z M39.1,12.9v-0.8c-0.1-0.4-0.3-0.7-0.5-1c-0.4-0.4-0.9-0.6-1.4-0.6c-0.5,0-1,0.2-1.4,0.6c-0.4,0.4-0.6,0.9-0.6,1.4
		c0,0.5,0.2,1,0.6,1.4s0.8,0.6,1.4,0.6c0.5,0,1-0.2,1.4-0.6C38.9,13.6,39,13.2,39.1,12.9z M38.1,8.8L37,9.6h-0.4l0.7-0.8H38.1z"/>
	<path class="st12" d="M40.4,10.5h0.4v0.1c0.2-0.2,0.5-0.4,0.9-0.4c0.4,0,0.6,0.1,0.9,0.4c0.1,0.1,0.1,0.1,0.2,0.2
		c0.1-0.1,0.1-0.1,0.2-0.2c0.2-0.2,0.5-0.4,0.9-0.4c0.3,0,0.6,0.1,0.9,0.4c0.2,0.2,0.4,0.5,0.4,0.9v3.3h-0.4v-3.3h0
		c0-0.2-0.1-0.4-0.3-0.6c-0.2-0.2-0.4-0.3-0.6-0.3c-0.2,0-0.4,0.1-0.6,0.3C43,11,43,11.3,43,11.5v3.2h-0.4v-3.3h0
		c0-0.2-0.1-0.4-0.3-0.6c-0.2-0.2-0.4-0.3-0.6-0.3s-0.4,0.1-0.6,0.3c-0.2,0.1-0.2,0.3-0.3,0.5v3.3h-0.4V10.5z"/>
	<path class="st12" d="M46.3,12.3c0,0.1,0,0.1,0,0.2c0,0.5,0.2,1,0.6,1.4s0.8,0.6,1.4,0.6c0.5,0,1-0.2,1.4-0.6
		c0.1-0.1,0.1-0.1,0.2-0.2l0.4,0.1c0,0.1-0.2,0.2-0.3,0.4c-0.5,0.5-1,0.7-1.7,0.7c-0.7,0-1.2-0.2-1.7-0.7s-0.7-1-0.7-1.7
		c0-0.7,0.2-1.2,0.7-1.7s1-0.7,1.7-0.7c0.7,0,1.2,0.2,1.7,0.7c0.4,0.4,0.6,0.9,0.6,1.5H46.3z M46.3,11.9h3.7
		c-0.1-0.3-0.2-0.6-0.5-0.8c-0.4-0.4-0.9-0.6-1.4-0.6c-0.5,0-1,0.2-1.4,0.6C46.6,11.3,46.4,11.6,46.3,11.9z"/>
	<path class="st12" d="M51.7,10.5V8.7h0.4v1.8H53v0.4h-0.9v3.9h-0.4v-3.9h-0.9v-0.4H51.7z"/>
	<path class="st12" d="M55.1,10.8c-0.3,0-0.6,0.2-0.8,0.5c-0.3,0.3-0.4,0.6-0.4,0.9v2.4h-0.4v-4.3h0.4v0.9c0.2-0.4,0.5-0.7,1-1
		L55.1,10.8z"/>
	<path class="st12" d="M57.9,10.1c0.7,0,1.2,0.2,1.7,0.7c0.5,0.5,0.7,1,0.7,1.7c0,0.7-0.2,1.2-0.7,1.7c-0.5,0.5-1,0.7-1.7,0.7
		c-0.7,0-1.2-0.2-1.7-0.7c-0.5-0.5-0.7-1-0.7-1.7c0-0.7,0.2-1.2,0.7-1.7C56.7,10.3,57.2,10.1,57.9,10.1z M56.5,11.1
		c-0.4,0.4-0.6,0.9-0.6,1.4c0,0.5,0.2,1,0.6,1.4s0.8,0.6,1.4,0.6c0.5,0,1-0.2,1.4-0.6s0.6-0.8,0.6-1.4c0-0.5-0.2-1-0.6-1.4
		c-0.4-0.4-0.8-0.6-1.4-0.6C57.3,10.5,56.9,10.7,56.5,11.1z"/>
	<path class="st12" d="M62.2,12.4c-0.3-0.2-0.6-0.3-0.7-0.5c-0.2-0.2-0.3-0.4-0.3-0.7c0-0.3,0.1-0.5,0.3-0.7
		c0.2-0.2,0.4-0.3,0.7-0.3c0.3,0,0.5,0.1,0.7,0.3c0.2,0.2,0.3,0.4,0.3,0.6v0l-0.3,0.1c0-0.2-0.1-0.4-0.2-0.5s-0.3-0.2-0.4-0.2
		c-0.2,0-0.3,0.1-0.4,0.2c-0.1,0.1-0.2,0.3-0.2,0.4c0,0.2,0.1,0.3,0.2,0.4c0.1,0.1,0.2,0.2,0.5,0.3c0.4,0.2,0.6,0.4,0.8,0.5
		c0.2,0.2,0.4,0.5,0.4,0.9c0,0.4-0.1,0.7-0.4,0.9c-0.2,0.2-0.5,0.4-0.9,0.4s-0.6-0.1-0.9-0.4c-0.2-0.2-0.4-0.5-0.4-0.8l0.4-0.1
		c0,0.3,0.1,0.5,0.3,0.6s0.4,0.3,0.6,0.3s0.4-0.1,0.6-0.3c0.2-0.2,0.3-0.4,0.3-0.6c0-0.2-0.1-0.4-0.3-0.6
		C62.7,12.8,62.5,12.6,62.2,12.4z"/>
</g>
<g>
	<g>
		<g>
			<path class="st3" d="M19.6,11h-6.4c-0.2,0-0.4,0.2-0.4,0.4s0.2,0.4,0.4,0.4h6.4c0.2,0,0.4-0.2,0.4-0.4S19.8,11,19.6,11z"/>
		</g>
	</g>
	<g>
		<g>
			<path class="st3" d="M10.3,9.7c-0.9,0-1.6,0.7-1.6,1.6S9.4,13,10.3,13s1.6-0.7,1.6-1.6S11.2,9.7,10.3,9.7z M10.3,12.3
				c-0.5,0-0.9-0.4-0.9-0.9c0-0.5,0.4-0.9,0.9-0.9s0.9,0.4,0.9,0.9S10.8,12.3,10.3,12.3z"/>
		</g>
	</g>
	<g>
		<g>
			<path class="st3" d="M19.6,6.6h-6.4c-0.2,0-0.4,0.2-0.4,0.4s0.2,0.4,0.4,0.4h6.4C19.8,7.3,20,7.2,20,7S19.8,6.6,19.6,6.6z"/>
		</g>
	</g>
	<g>
		<g>
			<path class="st3" d="M10.3,5.3C9.4,5.3,8.7,6,8.7,6.9s0.7,1.6,1.6,1.6S12,7.9,12,6.9C12,6,11.2,5.3,10.3,5.3z M10.3,7.9
				C9.8,7.9,9.4,7.5,9.4,7S9.8,6,10.3,6c0.5,0,0.9,0.4,0.9,0.9S10.8,7.9,10.3,7.9z"/>
		</g>
	</g>
	<g>
		<g>
			<path class="st3" d="M19.6,15.4h-6.4c-0.2,0-0.4,0.2-0.4,0.4s0.2,0.4,0.4,0.4h6.4c0.2,0,0.4-0.2,0.4-0.4S19.8,15.4,19.6,15.4z"/>
		</g>
	</g>
	<g>
		<g>
			<path class="st3" d="M10.3,14.1c-0.9,0-1.6,0.7-1.6,1.6s0.7,1.6,1.6,1.6s1.6-0.7,1.6-1.6C12,14.9,11.2,14.1,10.3,14.1z
				 M10.3,16.7c-0.5,0-0.9-0.4-0.9-0.9c0-0.5,0.4-0.9,0.9-0.9c0.5,0,0.9,0.4,0.9,0.9S10.8,16.7,10.3,16.7z"/>
		</g>
	</g>
</g>
</svg>
