<?xml version="1.0" encoding="utf-8"?>
<!-- Generator: Adobe Illustrator 24.0.2, SVG Export Plug-In . SVG Version: 6.00 Build 0)  -->
<svg version="1.1" id="off" xmlns="http://www.w3.org/2000/svg" xmlns:xlink="http://www.w3.org/1999/xlink" x="0px" y="0px"
	 viewBox="0 0 70.8 22.7" style="enable-background:new 0 0 70.8 22.7;" xml:space="preserve">
<style type="text/css">
	.st0{fill:#E9762F;}
	.st1{fill:#7382A3;}
	.st2{fill:#A4AAC2;}
	.st3{fill:#FFFFFF;}
	.st4{display:none;fill:#3F3F3F;}
	.st5{fill:#3F3F3F;}
	.st6{fill:none;stroke:#E9762E;stroke-width:0.5941;stroke-miterlimit:10;}
	.st7{clip-path:url(#SVGID_2_);}
	.st8{fill:#727276;}
	.st9{fill:#E9762E;}
	.st10{clip-path:url(#SVGID_6_);}
	.st11{fill:#E9762E;stroke:#E9762E;stroke-width:0.5;stroke-miterlimit:10;}
	.st12{fill:#E9762E;stroke:#E9762E;stroke-width:0.5162;stroke-miterlimit:10;}
	.st13{fill:#E9762E;stroke:#E9762E;stroke-width:0.3135;stroke-miterlimit:10;}
	.st14{fill:#E9762E;stroke:#E9762E;stroke-width:0.3868;stroke-miterlimit:10;}
	.st15{fill:#E9762E;stroke:#E9762E;stroke-width:0.3578;stroke-miterlimit:10;}
	.st16{fill:#E9762E;stroke:#E9762E;stroke-width:0.3826;stroke-miterlimit:10;}
</style>
<path class="st5" d="M59.5,22.7H11.4C5.1,22.7,0,17.6,0,11.4v0C0,5.1,5.1,0,11.4,0l48.1,0c6.3,0,11.4,5.1,11.4,11.4v0
	C70.8,17.6,65.7,22.7,59.5,22.7z"/>
<g>
	<path class="st12" d="M23.9,12.9v3.2h-0.5V6.8h2.4c0.7,0.1,1.3,0.4,1.8,0.9c0.6,0.6,0.9,1.3,0.9,2.1c0,0.8-0.3,1.6-0.9,2.1
		c-0.6,0.6-1.3,0.9-2.1,0.9H23.9z M23.9,7.3v5h1.6c0.7,0,1.3-0.2,1.8-0.7c0.5-0.5,0.7-1.1,0.7-1.8c0-0.7-0.2-1.3-0.7-1.8
		c-0.5-0.5-1.1-0.7-1.8-0.7H23.9z"/>
	<path class="st12" d="M29.3,12.8c0,0.1,0,0.2,0,0.3c0,0.7,0.3,1.3,0.8,1.9c0.5,0.5,1.1,0.8,1.9,0.8c0.7,0,1.3-0.3,1.9-0.8
		c0.1-0.1,0.2-0.2,0.2-0.3l0.6,0.2c-0.1,0.1-0.2,0.3-0.4,0.5c-0.6,0.6-1.4,0.9-2.3,0.9c-0.9,0-1.6-0.3-2.2-0.9
		c-0.6-0.6-0.9-1.4-0.9-2.2c0-0.9,0.3-1.6,0.9-2.3s1.4-0.9,2.2-0.9c0.9,0,1.6,0.3,2.3,0.9c0.5,0.6,0.8,1.2,0.8,2H29.3z M29.4,12.2h5
		c-0.1-0.4-0.3-0.7-0.6-1c-0.5-0.5-1.1-0.8-1.9-0.8c-0.7,0-1.3,0.3-1.9,0.8C29.7,11.5,29.5,11.9,29.4,12.2z"/>
	<path class="st12" d="M37.8,10.9c-0.4,0.1-0.7,0.3-1.1,0.7c-0.4,0.4-0.5,0.8-0.5,1.3v3.3h-0.5v-5.7h0.5v1.2c0.2-0.6,0.7-1,1.3-1.3
		L37.8,10.9z"/>
	<path class="st12" d="M38.5,10.4H39v0.1c0.3-0.3,0.7-0.5,1.2-0.5c0.5,0,0.9,0.2,1.2,0.5c0.1,0.1,0.2,0.2,0.2,0.3
		c0.1-0.1,0.2-0.2,0.2-0.3c0.3-0.3,0.7-0.5,1.2-0.5c0.5,0,0.9,0.2,1.2,0.5c0.3,0.3,0.5,0.7,0.5,1.1v4.4h-0.5v-4.4h0
		c0-0.3-0.1-0.6-0.3-0.8c-0.2-0.2-0.5-0.3-0.8-0.3c-0.3,0-0.6,0.1-0.8,0.3c-0.2,0.2-0.3,0.5-0.3,0.9v4.3h-0.5v-4.4h0
		c0-0.3-0.1-0.6-0.3-0.8c-0.2-0.2-0.5-0.3-0.8-0.3c-0.3,0-0.6,0.1-0.8,0.3c-0.2,0.2-0.3,0.4-0.3,0.7v4.4h-0.5V10.4z"/>
	<path class="st12" d="M46.8,8.5c0.1,0.1,0.2,0.2,0.2,0.4c0,0.1-0.1,0.3-0.2,0.4c-0.1,0.1-0.2,0.2-0.4,0.2c-0.1,0-0.3-0.1-0.4-0.2
		c-0.1-0.1-0.2-0.2-0.2-0.4c0-0.1,0.1-0.3,0.2-0.4c0.1-0.1,0.2-0.2,0.4-0.2C46.6,8.4,46.7,8.4,46.8,8.5z M46.7,10.4v5.7h-0.5v-5.7
		H46.7z"/>
	<path class="st12" d="M49.6,13c-0.4-0.2-0.7-0.4-0.9-0.6c-0.3-0.3-0.4-0.6-0.4-1s0.1-0.7,0.4-1s0.6-0.4,1-0.4s0.7,0.1,0.9,0.4
		c0.2,0.2,0.4,0.5,0.4,0.8v0l-0.5,0.2c0-0.3-0.1-0.5-0.3-0.7c-0.1-0.1-0.3-0.2-0.6-0.2c-0.2,0-0.4,0.1-0.6,0.2s-0.2,0.4-0.2,0.6
		s0.1,0.4,0.2,0.6c0.1,0.1,0.3,0.2,0.6,0.4c0.5,0.3,0.8,0.5,1.1,0.7c0.3,0.3,0.5,0.7,0.5,1.2c0,0.5-0.2,0.9-0.5,1.2
		s-0.7,0.5-1.2,0.5s-0.9-0.2-1.2-0.5s-0.5-0.7-0.5-1.1l0.5-0.1c0,0.3,0.1,0.6,0.3,0.8s0.5,0.3,0.8,0.3s0.6-0.1,0.8-0.3
		s0.3-0.5,0.3-0.8c0-0.3-0.1-0.6-0.3-0.8C50.2,13.5,49.9,13.3,49.6,13z"/>
	<path class="st12" d="M55.3,9.9c0.9,0,1.6,0.3,2.3,0.9s0.9,1.4,0.9,2.3c0,0.9-0.3,1.6-0.9,2.2c-0.6,0.6-1.4,0.9-2.3,0.9
		c-0.9,0-1.6-0.3-2.2-0.9c-0.6-0.6-0.9-1.4-0.9-2.2c0-0.9,0.3-1.6,0.9-2.3S54.4,9.9,55.3,9.9z M53.5,11.2c-0.5,0.5-0.8,1.1-0.8,1.9
		c0,0.7,0.3,1.3,0.8,1.9c0.5,0.5,1.1,0.8,1.9,0.8s1.3-0.3,1.9-0.8c0.5-0.5,0.8-1.1,0.8-1.9c0-0.7-0.3-1.3-0.8-1.9
		c-0.5-0.5-1.1-0.8-1.9-0.8S54,10.7,53.5,11.2z"/>
	<path class="st12" d="M61.1,13c-0.4-0.2-0.7-0.4-0.9-0.6c-0.3-0.3-0.4-0.6-0.4-1s0.1-0.7,0.4-1c0.3-0.3,0.6-0.4,1-0.4
		s0.7,0.1,0.9,0.4c0.2,0.2,0.4,0.5,0.4,0.8v0L62,11.5c0-0.3-0.1-0.5-0.3-0.7c-0.1-0.1-0.3-0.2-0.6-0.2c-0.2,0-0.4,0.1-0.6,0.2
		s-0.2,0.4-0.2,0.6s0.1,0.4,0.2,0.6c0.1,0.1,0.3,0.2,0.6,0.4c0.5,0.3,0.8,0.5,1.1,0.7c0.3,0.3,0.5,0.7,0.5,1.2
		c0,0.5-0.2,0.9-0.5,1.2c-0.3,0.3-0.7,0.5-1.2,0.5c-0.5,0-0.9-0.2-1.2-0.5c-0.3-0.3-0.5-0.7-0.5-1.1l0.5-0.1c0,0.3,0.1,0.6,0.3,0.8
		c0.2,0.2,0.5,0.3,0.8,0.3c0.3,0,0.6-0.1,0.8-0.3s0.3-0.5,0.3-0.8c0-0.3-0.1-0.6-0.3-0.8C61.7,13.5,61.5,13.3,61.1,13z"/>
</g>
<g>
	<path class="st3" d="M19.9,18.3h-2.1c-0.3,0-0.6-0.3-0.6-0.6v-1.8c-0.3,0.3-0.7,0.5-1,0.7c-0.8,0.5-1.7,0.9-2.3,1.1
		c-0.1,0-0.1,0-0.2,0c-0.6-0.2-1.5-0.6-2.3-1.1c-0.7-0.4-1.5-1.1-2-1.8c-1.2-2-1.6-7.3-1.6-8.3c0-0.2,0.1-0.3,0.2-0.4
		c1.1-0.6,2.9-1.3,5.5-1.9c0.1,0,0.2-0.1,0.3-0.1c0.1,0,0.2,0,0.3,0.1c2.1,0.5,3.7,1.1,4.8,1.6C19,5.8,19.1,6,19,6.1
		c0,0.1-0.2,0.1-0.3,0.1c-1.1-0.5-2.7-1-4.8-1.6c-0.1,0-0.1,0-0.2,0c0,0-0.1,0-0.2,0C10.6,5.4,9,6.1,8.3,6.5c0,0,0,0,0,0
		c0,0.9,0.4,6.2,1.6,8.1c0.3,0.5,0.9,1.1,1.8,1.7c0.7,0.5,1.6,0.9,2.1,1c0.6-0.2,1.4-0.6,2.1-1c0.9-0.6,1.5-1.2,1.8-1.7c0,0,0,0,0,0
		h0c-0.1,0-0.3-0.1-0.4-0.1c-0.6,0.9-2.4,2-3.5,2.4c0,0,0,0-0.1,0c0,0,0,0,0,0c0,0,0,0,0,0c0,0,0,0,0,0c0,0-0.1,0-0.1,0
		c-0.8-0.3-2.1-1-3-1.8c-0.1-0.1-0.1-0.2,0-0.3c0.1-0.1,0.2-0.1,0.3,0c0.7,0.6,1.8,1.3,2.6,1.6l0-5.5h-4c0.2,1.3,0.6,2.6,1,3.3
		c0.1,0.1,0,0.2-0.1,0.3c-0.1,0.1-0.2,0-0.3-0.1c-1-1.8-1.4-6.4-1.5-7.5c0-0.1,0-0.2,0.1-0.2c1.1-0.5,2.7-1.1,4.9-1.7c0,0,0,0,0.1,0
		h0h0c0,0,0,0,0,0h0c0,0,0,0,0.1,0c2.2,0.6,3.9,1.1,4.9,1.7c0.1,0,0.1,0.1,0.1,0.2c0,0.2,0,0.4,0,0.7h0.4c0-0.5,0.1-0.9,0.1-1
		c0,0,0,0,0,0c-0.1-0.1-0.1-0.2-0.1-0.3c0.1-0.1,0.2-0.1,0.3-0.1c0.1,0.1,0.2,0.2,0.2,0.4c0,0.2,0,0.5-0.1,1c0.1,0,0.2,0.1,0.2,0.2
		c0,0.1-0.1,0.2-0.2,0.2h-1.9c-0.1,0-0.2,0.1-0.2,0.2v2.1c0,0.1,0.1,0.2,0.2,0.2h2.1c0.1,0,0.2-0.1,0.2-0.2V8.7l-1,1
		c-0.1,0.1-0.2,0.1-0.3,0l-0.7-0.7C18,9,18,8.9,18.1,8.8c0.1-0.1,0.2-0.1,0.3,0l0.5,0.5l1.7-1.7c0.1-0.1,0.2-0.1,0.3,0
		c0.1,0.1,0.1,0.2,0,0.3l-0.4,0.4v1.9c0,0.3-0.3,0.6-0.6,0.6h-0.6c0,0.1,0,0.3-0.1,0.4h0.4c0.1,0,0.2,0.1,0.2,0.2
		c0,0.1-0.1,0.2-0.2,0.2h-1.9c-0.1,0-0.2,0.1-0.2,0.2c0,0,0,2.1,0,2.1c0,0,0,0,0,0c0,0.1,0.1,0.2,0.2,0.2h2.1c0.1,0,0.2-0.1,0.2-0.2
		v-1.5l-1,1c-0.1,0.1-0.2,0.1-0.3,0l-0.7-0.7c-0.1-0.1-0.1-0.2,0-0.3c0.1-0.1,0.2-0.1,0.3,0l0.5,0.5l1.7-1.7c0.1-0.1,0.2-0.1,0.3,0
		c0.1,0.1,0.1,0.2,0,0.3L20.5,12v1.9c0,0.3-0.3,0.6-0.6,0.6h-1.6c0,0.1-0.1,0.2-0.1,0.2c0,0.1-0.1,0.1-0.1,0.2h1.6
		c0.1,0,0.2,0.1,0.2,0.2s-0.1,0.2-0.2,0.2h-1.9c-0.1,0-0.2,0.1-0.2,0.2v2.1c0,0.1,0.1,0.2,0.2,0.2h2.1c0.1,0,0.2-0.1,0.2-0.2v-1.5
		l-1,1c-0.1,0.1-0.2,0.1-0.3,0l-0.7-0.7c-0.1-0.1-0.1-0.2,0-0.3c0.1-0.1,0.2-0.1,0.3,0l0.5,0.5l1.7-1.7c0.1-0.1,0.2-0.1,0.3,0
		c0.1,0.1,0.1,0.2,0,0.3l-0.4,0.4v1.9C20.5,18,20.2,18.3,19.9,18.3L19.9,18.3z M14,10.8l0,5.5c1.1-0.5,2.6-1.5,3-2.2
		c0-0.1,0.1-0.1,0.1-0.2c0,0,0,0,0,0v-2.1c0-0.3,0.3-0.6,0.6-0.6H18c0-0.1,0.1-0.3,0.1-0.4L14,10.8z M18.4,11.2h0.4
		c0-0.1,0-0.3,0.1-0.4h-0.4C18.4,11,18.4,11.1,18.4,11.2L18.4,11.2z M14,10.4h3.2c0-0.1,0-0.1,0-0.2V8.1c0-0.3,0.3-0.6,0.6-0.6h0.7
		c0-0.2,0-0.4,0-0.5c-0.7-0.3-2.1-0.9-4.5-1.5L14,10.4z M9.5,10.4h4.1l0-4.9C11.2,6.1,9.9,6.6,9.2,7C9.2,7.8,9.3,9.1,9.5,10.4z
		 M19.4,6.5C19.4,6.5,19.4,6.5,19.4,6.5C19.4,6.5,19.4,6.5,19.4,6.5z"/>
</g>
</svg>
