<?xml version="1.0" encoding="utf-8"?>
<!-- Generator: Adobe Illustrator 24.0.2, SVG Export Plug-In . SVG Version: 6.00 Build 0)  -->
<svg version="1.1" id="off" xmlns="http://www.w3.org/2000/svg" xmlns:xlink="http://www.w3.org/1999/xlink" x="0px" y="0px"
	 viewBox="0 0 70.8 22.7" style="enable-background:new 0 0 70.8 22.7;" xml:space="preserve">
<style type="text/css">
	.st0{fill:#E9762F;}
	.st1{fill:#7382A3;}
	.st2{fill:#A4AAC2;}
	.st3{fill:#FFFFFF;}
	.st4{display:none;fill:#3F3F3F;}
	.st5{fill:#3F3F3F;}
	.st6{fill:none;stroke:#E9762E;stroke-width:0.5941;stroke-miterlimit:10;}
	.st7{clip-path:url(#SVGID_2_);}
	.st8{fill:#727276;}
	.st9{fill:#E9762E;}
	.st10{clip-path:url(#SVGID_6_);}
	.st11{fill:#E9762E;stroke:#E9762E;stroke-width:0.5;stroke-miterlimit:10;}
	.st12{fill:#E9762E;stroke:#E9762E;stroke-width:0.5162;stroke-miterlimit:10;}
	.st13{fill:#E9762E;stroke:#E9762E;stroke-width:0.3135;stroke-miterlimit:10;}
	.st14{fill:#E9762E;stroke:#E9762E;stroke-width:0.3868;stroke-miterlimit:10;}
	.st15{fill:#E9762E;stroke:#E9762E;stroke-width:0.3578;stroke-miterlimit:10;}
	.st16{fill:#E9762E;stroke:#E9762E;stroke-width:0.3826;stroke-miterlimit:10;}
</style>
<path class="st5" d="M59.5,22.7H11.4C5.1,22.7,0,17.6,0,11.4v0C0,5.1,5.1,0,11.4,0l48.1,0c6.3,0,11.4,5.1,11.4,11.4v0
	C70.8,17.6,65.7,22.7,59.5,22.7z"/>
<g>
	<path class="st13" d="M24.4,8.2v2h-0.3V4.5h1.5C26,4.5,26.3,4.7,26.6,5c0.4,0.4,0.5,0.8,0.5,1.3c0,0.5-0.2,0.9-0.5,1.3
		s-0.8,0.5-1.3,0.5H24.4z M24.4,4.8v3h1c0.4,0,0.8-0.1,1.1-0.4c0.3-0.3,0.4-0.7,0.4-1.1c0-0.4-0.1-0.8-0.4-1.1
		c-0.3-0.3-0.7-0.4-1.1-0.4H24.4z"/>
	<path class="st13" d="M28.9,6.9c-0.2,0-0.4,0.2-0.7,0.4s-0.3,0.5-0.3,0.8v2h-0.3V6.7h0.3v0.7c0.1-0.3,0.4-0.6,0.8-0.8L28.9,6.9z"/>
	<path class="st13" d="M29.5,8.1c0,0.1,0,0.1,0,0.2c0,0.4,0.2,0.8,0.5,1.1s0.7,0.5,1.1,0.5s0.8-0.2,1.1-0.5c0.1-0.1,0.1-0.1,0.2-0.2
		l0.3,0.1c0,0.1-0.1,0.2-0.3,0.3C32,10,31.6,10.2,31,10.2c-0.5,0-1-0.2-1.4-0.6c-0.4-0.4-0.6-0.8-0.6-1.4c0-0.5,0.2-1,0.6-1.4
		c0.4-0.4,0.8-0.6,1.4-0.6c0.5,0,1,0.2,1.4,0.6c0.3,0.3,0.5,0.7,0.5,1.2H29.5z M29.5,7.8h3c-0.1-0.2-0.2-0.5-0.4-0.6
		c-0.3-0.3-0.7-0.5-1.1-0.5s-0.8,0.2-1.1,0.5C29.7,7.3,29.6,7.6,29.5,7.8z"/>
	<path class="st13" d="M36.8,9.4c-0.1,0.1-0.1,0.1-0.2,0.2c-0.4,0.4-0.8,0.6-1.4,0.6c-0.5,0-1-0.2-1.4-0.6c-0.4-0.4-0.6-0.8-0.6-1.4
		c0-0.5,0.2-1,0.6-1.4c0.4-0.4,0.8-0.6,1.4-0.6c0.5,0,1,0.2,1.4,0.6c0.1,0.1,0.1,0.2,0.2,0.2V6.7h0.3v2.7c0,0.5-0.2,1-0.6,1.3
		c-0.4,0.4-0.8,0.6-1.4,0.6s-1-0.2-1.4-0.6c-0.1-0.1-0.1-0.2-0.2-0.2l0.3-0.1c0,0,0.1,0.1,0.1,0.1c0.3,0.3,0.7,0.5,1.1,0.5
		c0.4,0,0.8-0.2,1.1-0.5C36.6,10.1,36.7,9.8,36.8,9.4z M36.8,8c-0.1-0.3-0.2-0.6-0.4-0.8c-0.3-0.3-0.7-0.5-1.1-0.5s-0.8,0.2-1.1,0.5
		c-0.3,0.3-0.5,0.7-0.5,1.1c0,0.4,0.2,0.8,0.5,1.1s0.7,0.5,1.1,0.5s0.8-0.2,1.1-0.5c0.2-0.2,0.4-0.5,0.4-0.8V8z"/>
	<path class="st13" d="M39.1,10.2c-0.4,0-0.8-0.1-1-0.4s-0.4-0.6-0.4-1V6.7H38v2.1c0,0.3,0.1,0.5,0.3,0.7c0.2,0.2,0.5,0.3,0.8,0.3
		c0.3,0,0.5-0.1,0.8-0.3s0.3-0.5,0.3-0.8V6.7h0.3v2.2c0,0.4-0.1,0.7-0.4,1S39.5,10.2,39.1,10.2z"/>
	<path class="st13" d="M41.6,7.4v2.7h-0.3V6.7h0.3v0.2c0.3-0.3,0.6-0.4,1-0.4c0.4,0,0.7,0.1,1,0.4c0.3,0.3,0.4,0.6,0.4,1v2.3h-0.3
		V7.8c0-0.3-0.1-0.5-0.3-0.8c-0.2-0.2-0.5-0.3-0.8-0.3c-0.3,0-0.5,0.1-0.8,0.3C41.7,7.2,41.6,7.3,41.6,7.4z"/>
	<path class="st13" d="M45.2,6.7V5.2h0.3v1.5h0.7V7h-0.7v3.1h-0.3V7h-0.7V6.7H45.2z"/>
	<path class="st13" d="M50.5,10.1h-0.3V9.4c-0.1,0.1-0.1,0.2-0.2,0.2c-0.4,0.4-0.8,0.6-1.4,0.6c-0.5,0-1-0.2-1.4-0.6
		s-0.6-0.8-0.6-1.4c0-0.5,0.2-1,0.6-1.4s0.8-0.6,1.4-0.6c0.5,0,1,0.2,1.4,0.6C50,7,50.1,7.1,50.1,7.1V6.7h0.3V10.1z M50.1,8.6V8
		c-0.1-0.3-0.2-0.6-0.4-0.8c-0.3-0.3-0.7-0.5-1.1-0.5s-0.8,0.2-1.1,0.5C47.1,7.5,47,7.8,47,8.3c0,0.4,0.2,0.8,0.5,1.1
		c0.3,0.3,0.7,0.5,1.1,0.5s0.8-0.2,1.1-0.5C49.9,9.2,50.1,8.9,50.1,8.6z"/>
	<path class="st13" d="M52.1,8.3c-0.3-0.1-0.5-0.3-0.6-0.4c-0.2-0.2-0.2-0.4-0.2-0.6s0.1-0.4,0.2-0.6c0.2-0.2,0.4-0.2,0.6-0.2
		c0.2,0,0.4,0.1,0.6,0.2c0.1,0.1,0.2,0.3,0.2,0.5v0l-0.3,0.1c0-0.2-0.1-0.3-0.2-0.4c-0.1-0.1-0.2-0.1-0.3-0.1
		c-0.1,0-0.3,0.1-0.4,0.2c-0.1,0.1-0.2,0.2-0.2,0.4s0.1,0.3,0.2,0.4c0.1,0.1,0.2,0.2,0.4,0.3c0.3,0.2,0.5,0.3,0.6,0.4
		c0.2,0.2,0.3,0.4,0.3,0.7c0,0.3-0.1,0.5-0.3,0.7c-0.2,0.2-0.4,0.3-0.7,0.3c-0.3,0-0.5-0.1-0.7-0.3C51.1,9.6,51,9.4,51,9.2l0.3-0.1
		c0,0.2,0.1,0.4,0.2,0.5c0.1,0.1,0.3,0.2,0.5,0.2c0.2,0,0.4-0.1,0.5-0.2c0.1-0.1,0.2-0.3,0.2-0.5c0-0.2-0.1-0.4-0.2-0.5
		C52.5,8.5,52.3,8.4,52.1,8.3z"/>
</g>
<g>
	<path class="st13" d="M27.3,17.6H27v-0.7c-0.1,0.1-0.1,0.2-0.2,0.2c-0.4,0.4-0.8,0.6-1.4,0.6c-0.5,0-1-0.2-1.4-0.6
		s-0.6-0.8-0.6-1.4c0-0.5,0.2-1,0.6-1.4s0.8-0.6,1.4-0.6c0.5,0,1,0.2,1.4,0.6c0.1,0.1,0.1,0.2,0.2,0.2v-2.7h0.3V17.6z M27,16.1v-0.6
		c-0.1-0.3-0.2-0.6-0.4-0.8c-0.3-0.3-0.7-0.5-1.1-0.5s-0.8,0.2-1.1,0.5c-0.3,0.3-0.5,0.7-0.5,1.1c0,0.4,0.2,0.8,0.5,1.1
		c0.3,0.3,0.7,0.5,1.1,0.5s0.8-0.2,1.1-0.5C26.8,16.6,26.9,16.4,27,16.1z"/>
	<path class="st13" d="M28.2,15.6c0,0.1,0,0.1,0,0.2c0,0.4,0.2,0.8,0.5,1.1s0.7,0.5,1.1,0.5s0.8-0.2,1.1-0.5
		c0.1-0.1,0.1-0.1,0.2-0.2l0.3,0.1c0,0.1-0.1,0.2-0.3,0.3c-0.4,0.4-0.8,0.6-1.4,0.6c-0.5,0-1-0.2-1.4-0.6c-0.4-0.4-0.6-0.8-0.6-1.4
		c0-0.5,0.2-1,0.6-1.4c0.4-0.4,0.8-0.6,1.4-0.6c0.5,0,1,0.2,1.4,0.6c0.3,0.3,0.5,0.7,0.5,1.2H28.2z M28.3,15.2h3
		c-0.1-0.2-0.2-0.5-0.4-0.6c-0.3-0.3-0.7-0.5-1.1-0.5s-0.8,0.2-1.1,0.5C28.5,14.8,28.3,15,28.3,15.2z"/>
	<path class="st13" d="M35.8,14.5c-0.4-0.1-0.7-0.3-0.9-0.5s-0.3-0.5-0.3-0.8c0-0.3,0.1-0.6,0.3-0.8c0.2-0.2,0.5-0.3,0.8-0.3
		c0.3,0,0.6,0.1,0.8,0.3c0.1,0.1,0.2,0.3,0.3,0.4l-0.3,0.1c0-0.1-0.1-0.2-0.2-0.3c-0.2-0.2-0.4-0.3-0.6-0.3s-0.4,0.1-0.6,0.3
		c-0.2,0.2-0.3,0.4-0.3,0.6c0,0.2,0.1,0.4,0.3,0.6c0.2,0.2,0.4,0.3,0.7,0.4c0.5,0.1,0.8,0.4,1.1,0.7c0.3,0.3,0.5,0.7,0.5,1.2
		c0,0.5-0.2,0.9-0.5,1.2s-0.7,0.5-1.2,0.5c-0.5,0-0.9-0.2-1.2-0.5c-0.3-0.3-0.4-0.6-0.5-0.9l0.3-0.1c0,0.3,0.2,0.6,0.4,0.8
		c0.3,0.3,0.6,0.4,1,0.4s0.7-0.1,1-0.4s0.4-0.6,0.4-1c0-0.4-0.1-0.7-0.4-1C36.4,14.8,36.1,14.6,35.8,14.5z"/>
	<path class="st13" d="M38.1,15.6c0,0.1,0,0.1,0,0.2c0,0.4,0.2,0.8,0.5,1.1s0.7,0.5,1.1,0.5s0.8-0.2,1.1-0.5
		c0.1-0.1,0.1-0.1,0.2-0.2l0.3,0.1c0,0.1-0.1,0.2-0.3,0.3c-0.4,0.4-0.8,0.6-1.4,0.6c-0.5,0-1-0.2-1.4-0.6c-0.4-0.4-0.6-0.8-0.6-1.4
		c0-0.5,0.2-1,0.6-1.4c0.4-0.4,0.8-0.6,1.4-0.6c0.5,0,1,0.2,1.4,0.6c0.3,0.3,0.5,0.7,0.5,1.2H38.1z M38.2,15.2h3
		c-0.1-0.2-0.2-0.5-0.4-0.6c-0.3-0.3-0.7-0.5-1.1-0.5s-0.8,0.2-1.1,0.5C38.4,14.8,38.3,15,38.2,15.2z"/>
	<path class="st13" d="M45.4,16.9c-0.1,0.1-0.1,0.1-0.2,0.2c-0.4,0.4-0.8,0.6-1.4,0.6c-0.5,0-1-0.2-1.4-0.6
		c-0.4-0.4-0.6-0.8-0.6-1.4c0-0.5,0.2-1,0.6-1.4c0.4-0.4,0.8-0.6,1.4-0.6c0.5,0,1,0.2,1.4,0.6c0.1,0.1,0.1,0.2,0.2,0.2v-0.5h0.3v2.7
		c0,0.5-0.2,1-0.6,1.3c-0.4,0.4-0.8,0.6-1.4,0.6s-1-0.2-1.4-0.6c-0.1-0.1-0.1-0.2-0.2-0.2l0.3-0.1c0,0,0.1,0.1,0.1,0.1
		c0.3,0.3,0.7,0.5,1.1,0.5c0.4,0,0.8-0.2,1.1-0.5C45.2,17.6,45.4,17.3,45.4,16.9z M45.4,15.4c-0.1-0.3-0.2-0.6-0.4-0.8
		c-0.3-0.3-0.7-0.5-1.1-0.5s-0.8,0.2-1.1,0.5c-0.3,0.3-0.5,0.7-0.5,1.1c0,0.4,0.2,0.8,0.5,1.1s0.7,0.5,1.1,0.5s0.8-0.2,1.1-0.5
		c0.2-0.2,0.4-0.5,0.4-0.8V15.4z"/>
	<path class="st13" d="M47.8,17.6c-0.4,0-0.8-0.1-1-0.4s-0.4-0.6-0.4-1v-2.2h0.3v2.1c0,0.3,0.1,0.5,0.3,0.7c0.2,0.2,0.5,0.3,0.8,0.3
		c0.3,0,0.5-0.1,0.8-0.3s0.3-0.5,0.3-0.8v-2.1h0.3v2.2c0,0.4-0.1,0.7-0.4,1S48.2,17.6,47.8,17.6z"/>
	<path class="st13" d="M51.1,14.4c-0.2,0-0.4,0.2-0.7,0.4s-0.3,0.5-0.3,0.8v2h-0.3v-3.5h0.3v0.7c0.1-0.3,0.4-0.6,0.8-0.8L51.1,14.4z
		"/>
	<path class="st13" d="M52,13c0.1,0.1,0.1,0.1,0.1,0.2c0,0.1,0,0.2-0.1,0.2c-0.1,0.1-0.1,0.1-0.2,0.1c-0.1,0-0.2,0-0.2-0.1
		c-0.1-0.1-0.1-0.1-0.1-0.2c0-0.1,0-0.2,0.1-0.2c0.1-0.1,0.1-0.1,0.2-0.1C51.9,12.9,51.9,12.9,52,13z M51.9,14.1v3.5h-0.3v-3.5H51.9
		z"/>
	<path class="st13" d="M56.5,17.6h-0.3v-0.7C56.1,17,56.1,17,56,17.1c-0.4,0.4-0.8,0.6-1.4,0.6c-0.5,0-1-0.2-1.4-0.6
		s-0.6-0.8-0.6-1.4c0-0.5,0.2-1,0.6-1.4s0.8-0.6,1.4-0.6c0.5,0,1,0.2,1.4,0.6c0.1,0.1,0.1,0.2,0.2,0.2v-2.7h0.3V17.6z M56.2,16.1
		v-0.6c-0.1-0.3-0.2-0.6-0.4-0.8c-0.3-0.3-0.7-0.5-1.1-0.5s-0.8,0.2-1.1,0.5c-0.3,0.3-0.5,0.7-0.5,1.1c0,0.4,0.2,0.8,0.5,1.1
		c0.3,0.3,0.7,0.5,1.1,0.5s0.8-0.2,1.1-0.5C56,16.6,56.1,16.4,56.2,16.1z"/>
	<path class="st13" d="M61,17.6h-0.3v-0.7c-0.1,0.1-0.1,0.2-0.2,0.2c-0.4,0.4-0.8,0.6-1.4,0.6c-0.5,0-1-0.2-1.4-0.6
		s-0.6-0.8-0.6-1.4c0-0.5,0.2-1,0.6-1.4s0.8-0.6,1.4-0.6c0.5,0,1,0.2,1.4,0.6c0.1,0.1,0.1,0.2,0.2,0.2v-0.5H61V17.6z M60.7,16.1
		v-0.6c-0.1-0.3-0.2-0.6-0.4-0.8c-0.3-0.3-0.7-0.5-1.1-0.5s-0.8,0.2-1.1,0.5c-0.3,0.3-0.5,0.7-0.5,1.1c0,0.4,0.2,0.8,0.5,1.1
		c0.3,0.3,0.7,0.5,1.1,0.5s0.8-0.2,1.1-0.5C60.5,16.6,60.6,16.4,60.7,16.1z"/>
	<path class="st13" d="M65.4,17.6h-0.3v-0.7C65.1,17,65,17,64.9,17.1c-0.4,0.4-0.8,0.6-1.4,0.6c-0.5,0-1-0.2-1.4-0.6
		s-0.6-0.8-0.6-1.4c0-0.5,0.2-1,0.6-1.4s0.8-0.6,1.4-0.6c0.5,0,1,0.2,1.4,0.6c0.1,0.1,0.1,0.2,0.2,0.2v-2.7h0.3V17.6z M65.1,16.1
		v-0.6c-0.1-0.3-0.2-0.6-0.4-0.8c-0.3-0.3-0.7-0.5-1.1-0.5s-0.8,0.2-1.1,0.5c-0.3,0.3-0.5,0.7-0.5,1.1c0,0.4,0.2,0.8,0.5,1.1
		c0.3,0.3,0.7,0.5,1.1,0.5s0.8-0.2,1.1-0.5C64.9,16.6,65.1,16.4,65.1,16.1z"/>
</g>
<path class="st3" d="M14.7,4.8c-3.3,0-6,2.7-6,6s2.7,6,6,6s6-2.7,6-6S18,4.8,14.7,4.8z M14.7,14.3c-0.3,0-0.5-0.2-0.5-0.5
	c0-0.3,0.2-0.5,0.5-0.5c0.3,0,0.5,0.2,0.5,0.5C15.2,14,14.9,14.3,14.7,14.3z M15.5,11.1c-0.2,0.1-0.3,0.3-0.3,0.5v0.2
	c0,0.3-0.2,0.5-0.5,0.5s-0.5-0.2-0.5-0.5v-0.2c0-0.6,0.3-1.1,0.9-1.4c0.5-0.2,0.9-0.9,0.9-1.2c0-0.7-0.6-1.2-1.2-1.2
	c-0.7,0-1.2,0.6-1.2,1.2c0,0.3-0.2,0.5-0.5,0.5S12.4,9.3,12.4,9c0-1.2,1-2.2,2.2-2.2s2.2,1,2.2,2.2C16.9,9.7,16.3,10.7,15.5,11.1z"
	/>
</svg>
