<?xml version="1.0" encoding="utf-8"?>
<!-- Generator: Adobe Illustrator 24.0.2, SVG Export Plug-In . SVG Version: 6.00 Build 0)  -->
<svg version="1.1" id="off" xmlns="http://www.w3.org/2000/svg" xmlns:xlink="http://www.w3.org/1999/xlink" x="0px" y="0px"
	 viewBox="0 0 70.8 22.7" style="enable-background:new 0 0 70.8 22.7;" xml:space="preserve">
<style type="text/css">
	.st0{fill:#E9762F;}
	.st1{fill:#7382A3;}
	.st2{fill:#A4AAC2;}
	.st3{fill:#FFFFFF;}
	.st4{display:none;fill:#3F3F3F;}
	.st5{fill:#3F3F3F;}
	.st6{fill:none;stroke:#E9762E;stroke-width:0.5941;stroke-miterlimit:10;}
	.st7{clip-path:url(#SVGID_2_);}
	.st8{fill:#727276;}
	.st9{fill:#E9762E;}
	.st10{clip-path:url(#SVGID_6_);}
	.st11{fill:#E9762E;stroke:#E9762E;stroke-width:0.5;stroke-miterlimit:10;}
	.st12{fill:#E9762E;stroke:#E9762E;stroke-width:0.3868;stroke-miterlimit:10;}
	.st13{fill:#E9762E;stroke:#E9762E;stroke-width:0.5162;stroke-miterlimit:10;}
	.st14{fill:#FFFDFD;}
</style>
<path class="st5" d="M59.5,22.7H11.4C5.1,22.7,0,17.6,0,11.4v0C0,5.1,5.1,0,11.4,0l48.1,0c6.3,0,11.4,5.1,11.4,11.4v0
	C70.8,17.6,65.7,22.7,59.5,22.7z"/>
<g>
	<path class="st13" d="M18.9,12.9v3.2h-0.5V6.8h2.4c0.7,0.1,1.3,0.4,1.8,0.9c0.6,0.6,0.9,1.3,0.9,2.1c0,0.8-0.3,1.6-0.9,2.1
		s-1.3,0.9-2.1,0.9H18.9z M18.9,7.3v5h1.6c0.7,0,1.3-0.2,1.8-0.7c0.5-0.5,0.7-1.1,0.7-1.8c0-0.7-0.2-1.3-0.7-1.8
		c-0.5-0.5-1.1-0.7-1.8-0.7H18.9z"/>
	<path class="st13" d="M26.4,10.9c-0.4,0.1-0.7,0.3-1.1,0.7s-0.5,0.8-0.5,1.3v3.3h-0.5v-5.7h0.5v1.2c0.2-0.6,0.7-1,1.3-1.3
		L26.4,10.9z"/>
	<path class="st13" d="M30,9.9c0.9,0,1.6,0.3,2.3,0.9s0.9,1.4,0.9,2.3c0,0.9-0.3,1.6-0.9,2.2c-0.6,0.6-1.4,0.9-2.3,0.9
		c-0.9,0-1.6-0.3-2.2-0.9c-0.6-0.6-0.9-1.4-0.9-2.2c0-0.9,0.3-1.6,0.9-2.3S29.2,9.9,30,9.9z M28.2,11.2c-0.5,0.5-0.8,1.1-0.8,1.9
		c0,0.7,0.3,1.3,0.8,1.9c0.5,0.5,1.1,0.8,1.9,0.8s1.3-0.3,1.9-0.8c0.5-0.5,0.8-1.1,0.8-1.9c0-0.7-0.3-1.3-0.8-1.9
		c-0.5-0.5-1.1-0.8-1.9-0.8S28.7,10.7,28.2,11.2z"/>
	<path class="st13" d="M40.5,16.1h-0.5v-1.2c-0.1,0.1-0.2,0.3-0.3,0.4c-0.6,0.6-1.4,0.9-2.3,0.9c-0.9,0-1.6-0.3-2.2-0.9
		c-0.6-0.6-0.9-1.4-0.9-2.2c0-0.9,0.3-1.6,0.9-2.3s1.4-0.9,2.2-0.9c0.9,0,1.6,0.3,2.3,0.9c0.1,0.1,0.2,0.3,0.3,0.4V6.8h0.5V16.1z
		 M39.9,13.6v-1c-0.1-0.5-0.3-1-0.7-1.3c-0.5-0.5-1.1-0.8-1.9-0.8c-0.7,0-1.3,0.3-1.9,0.8s-0.8,1.1-0.8,1.9c0,0.7,0.3,1.3,0.8,1.9
		c0.5,0.5,1.1,0.8,1.9,0.8c0.7,0,1.3-0.3,1.9-0.8C39.6,14.5,39.8,14.1,39.9,13.6z"/>
	<path class="st13" d="M44,16.2c-0.7,0-1.3-0.2-1.7-0.6c-0.4-0.4-0.6-1-0.6-1.6v-3.6h0.5v3.5c0,0.5,0.2,0.9,0.5,1.2
		c0.3,0.3,0.8,0.5,1.3,0.5c0.5,0,0.9-0.2,1.2-0.5s0.5-0.8,0.5-1.2v-3.5h0.5v3.6c0,0.6-0.2,1.2-0.6,1.6C45.2,16,44.6,16.2,44,16.2z"
		/>
	<path class="st13" d="M52.4,14.7l0.5,0.2c-0.1,0.1-0.2,0.3-0.3,0.4c-0.6,0.6-1.4,0.9-2.3,0.9c-0.9,0-1.6-0.3-2.2-0.9
		c-0.6-0.6-0.9-1.4-0.9-2.3s0.3-1.6,0.9-2.2c0.6-0.6,1.4-0.9,2.2-0.9c0.9,0,1.6,0.3,2.3,0.9c0.1,0.1,0.2,0.3,0.3,0.4l-0.5,0.2
		c-0.1-0.1-0.1-0.1-0.2-0.2c-0.5-0.5-1.1-0.8-1.9-0.8c-0.7,0-1.3,0.3-1.9,0.8c-0.5,0.5-0.8,1.1-0.8,1.9c0,0.7,0.3,1.3,0.8,1.9
		s1.1,0.8,1.9,0.8c0.7,0,1.3-0.3,1.9-0.8C52.3,14.9,52.3,14.8,52.4,14.7z"/>
	<path class="st13" d="M54.6,10.4V8h0.5v2.4h1.2v0.5h-1.2v5.2h-0.5v-5.2h-1.2v-0.5H54.6z"/>
	<path class="st13" d="M60.2,9.9c0.9,0,1.6,0.3,2.3,0.9c0.6,0.6,0.9,1.4,0.9,2.3c0,0.9-0.3,1.6-0.9,2.2c-0.6,0.6-1.4,0.9-2.3,0.9
		c-0.9,0-1.6-0.3-2.2-0.9c-0.6-0.6-0.9-1.4-0.9-2.2c0-0.9,0.3-1.6,0.9-2.3S59.3,9.9,60.2,9.9z M58.3,11.2c-0.5,0.5-0.8,1.1-0.8,1.9
		c0,0.7,0.3,1.3,0.8,1.9c0.5,0.5,1.1,0.8,1.9,0.8s1.3-0.3,1.9-0.8c0.5-0.5,0.8-1.1,0.8-1.9c0-0.7-0.3-1.3-0.8-1.9s-1.1-0.8-1.9-0.8
		S58.8,10.7,58.3,11.2z"/>
	<path class="st13" d="M65.9,13c-0.4-0.2-0.7-0.4-0.9-0.6c-0.3-0.3-0.4-0.6-0.4-1s0.1-0.7,0.4-1s0.6-0.4,1-0.4
		c0.4,0,0.7,0.1,0.9,0.4c0.2,0.2,0.4,0.5,0.4,0.8v0l-0.5,0.2c0-0.3-0.1-0.5-0.3-0.7c-0.1-0.1-0.3-0.2-0.6-0.2
		c-0.2,0-0.4,0.1-0.6,0.2s-0.3,0.4-0.3,0.6s0.1,0.4,0.3,0.6c0.1,0.1,0.3,0.2,0.6,0.4c0.5,0.3,0.8,0.5,1.1,0.7
		c0.3,0.3,0.5,0.7,0.5,1.2c0,0.5-0.2,0.9-0.5,1.2s-0.7,0.5-1.2,0.5c-0.5,0-0.9-0.2-1.2-0.5s-0.5-0.7-0.5-1.1l0.5-0.1
		c0,0.3,0.1,0.6,0.3,0.8c0.2,0.2,0.5,0.3,0.8,0.3c0.3,0,0.6-0.1,0.8-0.3c0.2-0.2,0.3-0.5,0.3-0.8c0-0.3-0.1-0.6-0.3-0.8
		C66.6,13.5,66.3,13.3,65.9,13z"/>
</g>
<g>
	<path class="st14" d="M16.1,8.9c0-0.1,0-0.1-0.1-0.1l-3.7-2.3c0,0,0,0-0.1,0L8.5,5.6c-0.2,0-0.3,0.2-0.1,0.3L10.1,7L8.7,7.4
		L7.6,6.7c-0.1,0-0.1,0-0.2,0L6,7.6C5.8,7.7,6,8,6.2,7.9L7.5,7l3.4,2.1L8,11L4.7,8.9l0.8-0.5c0.2-0.1,0-0.4-0.2-0.3l-1,0.6
		c0,0-0.1,0.1-0.1,0.1V15c0,0.1,0,0.1,0.1,0.1l3.7,2.3c0,0,0.1,0,0.1,0l6.4-1.9c0.2-0.1,0.1-0.4-0.1-0.3l-6.2,1.8v-5.8l7.5-2.2v5.8
		L15.3,15c-0.2,0.1-0.1,0.4,0.1,0.3l0.6-0.2c0.1,0,0.1-0.1,0.1-0.2L16.1,8.9C16.1,8.9,16.1,8.9,16.1,8.9L16.1,8.9z M12.2,6.7L15,8.5
		l-2.8-0.6L9.4,6.1L12.2,6.7z M11.3,9L9.1,7.6l1.3-0.4l1.6,1c0,0,0,0,0.1,0l3,0.6l-6.1,1.8l2.1-1.4c0,0,0.1-0.1,0.1-0.1
		C11.4,9.1,11.3,9,11.3,9z M4.5,9.2l3.3,2.1V17l-3.3-2.1V9.2z"/>
	<path class="st14" d="M15,12.4c0,0-0.1,0-0.2,0L9,14.2c-0.1,0-0.1,0.1-0.1,0.2V16c0,0.1,0,0.1,0.1,0.1c0,0,0.1,0,0.1,0c0,0,0,0,0,0
		l5.9-1.8c0.1,0,0.1-0.1,0.1-0.2v-1.7C15.1,12.5,15.1,12.5,15,12.4L15,12.4z M14.8,14.2l-5.6,1.7v-1.3l5.6-1.7V14.2z"/>
	<path class="st14" d="M11,15c0.1,0,0.2-0.1,0.2-0.2v-0.5c0-0.2-0.3-0.2-0.3,0v0.5C10.8,15,10.9,15,11,15z"/>
	<path class="st14" d="M13.3,14.3c0.1,0,0.2-0.1,0.2-0.2v-0.5c0-0.2-0.3-0.2-0.3,0v0.5C13.1,14.3,13.2,14.3,13.3,14.3z"/>
	<path class="st14" d="M13.8,14.2c0.1,0,0.2-0.1,0.2-0.2v-0.5c0-0.2-0.3-0.2-0.3,0V14C13.6,14.1,13.7,14.2,13.8,14.2z"/>
	<path class="st14" d="M14.3,14.1c0.1,0,0.2-0.1,0.2-0.2v-0.5c0-0.2-0.3-0.2-0.3,0v0.5C14.1,14,14.2,14.1,14.3,14.1z"/>
	<path class="st14" d="M9.6,15.4c0.1,0,0.2-0.1,0.2-0.2v-0.5c0-0.2-0.3-0.2-0.3,0v0.5C9.5,15.4,9.6,15.4,9.6,15.4z"/>
	<path class="st14" d="M10.2,15.3c0.1,0,0.2-0.1,0.2-0.2v-0.5c0-0.2-0.3-0.2-0.3,0v0.5C10,15.2,10.1,15.3,10.2,15.3z"/>
	<path class="st14" d="M11.9,14.8c0.1,0,0.2-0.1,0.2-0.2v-0.5c0-0.2-0.3-0.2-0.3,0v0.5C11.7,14.7,11.8,14.8,11.9,14.8z"/>
	<path class="st14" d="M12.4,14.6c0.1,0,0.2-0.1,0.2-0.2V14c0-0.2-0.3-0.2-0.3,0v0.5C12.2,14.6,12.3,14.6,12.4,14.6z"/>
</g>
</svg>
