<?xml version="1.0" encoding="utf-8"?>
<!-- Generator: Adobe Illustrator 24.0.2, SVG Export Plug-In . SVG Version: 6.00 Build 0)  -->
<svg version="1.1" id="off" xmlns="http://www.w3.org/2000/svg" xmlns:xlink="http://www.w3.org/1999/xlink" x="0px" y="0px"
	 viewBox="0 0 70.8 22.7" style="enable-background:new 0 0 70.8 22.7;" xml:space="preserve">
<style type="text/css">
	.st0{fill:#E9762F;}
	.st1{fill:#7382A3;}
	.st2{fill:#A4AAC2;}
	.st3{fill:#FFFFFF;}
	.st4{display:none;fill:#3F3F3F;}
	.st5{fill:#3F3F3F;}
	.st6{fill:none;stroke:#E9762E;stroke-width:0.5941;stroke-miterlimit:10;}
	.st7{clip-path:url(#SVGID_2_);}
	.st8{fill:#727276;}
	.st9{fill:#E9762E;}
	.st10{clip-path:url(#SVGID_6_);}
	.st11{fill:#E9762E;stroke:#E9762E;stroke-width:0.5;stroke-miterlimit:10;}
	.st12{fill:#E9762E;stroke:#E9762E;stroke-width:0.5162;stroke-miterlimit:10;}
	.st13{fill:#E9762E;stroke:#E9762E;stroke-width:0.3135;stroke-miterlimit:10;}
	.st14{fill:#E9762E;stroke:#E9762E;stroke-width:0.3868;stroke-miterlimit:10;}
	.st15{fill:#E9762E;stroke:#E9762E;stroke-width:0.3578;stroke-miterlimit:10;}
	.st16{fill:#E9762E;stroke:#E9762E;stroke-width:0.3826;stroke-miterlimit:10;}
</style>
<path class="st5" d="M59.5,22.7H11.4C5.1,22.7,0,17.6,0,11.4v0C0,5.1,5.1,0,11.4,0l48.1,0c6.3,0,11.4,5.1,11.4,11.4v0
	C70.8,17.6,65.7,22.7,59.5,22.7z"/>
<g>
	<path class="st15" d="M21.3,12.5v2.2H21V8.3h1.7c0.5,0.1,0.9,0.3,1.2,0.6c0.4,0.4,0.6,0.9,0.6,1.5c0,0.6-0.2,1.1-0.6,1.5
		c-0.4,0.4-0.9,0.6-1.5,0.6H21.3z M21.3,8.7v3.5h1.1c0.5,0,0.9-0.2,1.2-0.5c0.3-0.3,0.5-0.7,0.5-1.2c0-0.5-0.2-0.9-0.5-1.2
		c-0.3-0.3-0.7-0.5-1.2-0.5H21.3z"/>
	<path class="st15" d="M26.5,11.1c-0.3,0-0.5,0.2-0.8,0.5c-0.2,0.3-0.4,0.6-0.4,0.9v2.3H25v-3.9h0.4v0.9c0.2-0.4,0.5-0.7,0.9-0.9
		L26.5,11.1z"/>
	<path class="st15" d="M29,10.5c0.6,0,1.1,0.2,1.6,0.6c0.4,0.4,0.6,1,0.6,1.6c0,0.6-0.2,1.1-0.6,1.6c-0.4,0.4-0.9,0.6-1.6,0.6
		c-0.6,0-1.1-0.2-1.6-0.6c-0.4-0.4-0.6-0.9-0.6-1.6c0-0.6,0.2-1.1,0.6-1.6C27.9,10.7,28.4,10.5,29,10.5z M27.7,11.4
		c-0.4,0.4-0.5,0.8-0.5,1.3c0,0.5,0.2,0.9,0.5,1.3s0.8,0.5,1.3,0.5s0.9-0.2,1.3-0.5c0.4-0.4,0.5-0.8,0.5-1.3c0-0.5-0.2-0.9-0.5-1.3
		c-0.4-0.4-0.8-0.5-1.3-0.5S28.1,11,27.7,11.4z"/>
	<path class="st15" d="M35.2,10.8l-1.8,3.9h-0.2l-1.7-3.9H32l1.4,3.3l1.4-3.3H35.2z"/>
	<path class="st15" d="M35.9,12.5c0,0.1,0,0.1,0,0.2c0,0.5,0.2,0.9,0.5,1.3s0.8,0.5,1.3,0.5s0.9-0.2,1.3-0.5
		c0.1-0.1,0.1-0.1,0.2-0.2l0.4,0.1c0,0.1-0.1,0.2-0.3,0.3c-0.4,0.4-1,0.6-1.6,0.6c-0.6,0-1.1-0.2-1.6-0.6c-0.4-0.4-0.6-0.9-0.6-1.6
		c0-0.6,0.2-1.1,0.6-1.6c0.4-0.4,1-0.6,1.6-0.6c0.6,0,1.1,0.2,1.6,0.6c0.4,0.4,0.6,0.8,0.6,1.4H35.9z M35.9,12.1h3.5
		c-0.1-0.3-0.2-0.5-0.4-0.7c-0.4-0.4-0.8-0.5-1.3-0.5s-0.9,0.2-1.3,0.5C36.2,11.6,36,11.8,35.9,12.1z"/>
	<path class="st15" d="M40.6,12.5c0,0.1,0,0.1,0,0.2c0,0.5,0.2,0.9,0.5,1.3s0.8,0.5,1.3,0.5s0.9-0.2,1.3-0.5
		c0.1-0.1,0.1-0.1,0.2-0.2l0.4,0.1c0,0.1-0.1,0.2-0.3,0.3c-0.4,0.4-1,0.6-1.6,0.6c-0.6,0-1.1-0.2-1.6-0.6c-0.4-0.4-0.6-0.9-0.6-1.6
		c0-0.6,0.2-1.1,0.6-1.6c0.4-0.4,1-0.6,1.6-0.6c0.6,0,1.1,0.2,1.6,0.6c0.4,0.4,0.6,0.8,0.6,1.4H40.6z M40.7,12.1h3.5
		c-0.1-0.3-0.2-0.5-0.4-0.7c-0.4-0.4-0.8-0.5-1.3-0.5s-0.9,0.2-1.3,0.5C40.9,11.6,40.8,11.8,40.7,12.1z"/>
	<path class="st15" d="M49.4,14.8H49V14c-0.1,0.1-0.1,0.2-0.2,0.3c-0.4,0.4-1,0.6-1.6,0.6c-0.6,0-1.1-0.2-1.6-0.6
		c-0.4-0.4-0.6-0.9-0.6-1.6c0-0.6,0.2-1.1,0.6-1.6c0.4-0.4,1-0.6,1.6-0.6c0.6,0,1.1,0.2,1.6,0.6c0.1,0.1,0.2,0.2,0.2,0.3v-3h0.4
		V14.8z M49,13v-0.7c-0.1-0.4-0.2-0.7-0.5-0.9c-0.4-0.4-0.8-0.5-1.3-0.5S46.3,11,46,11.4c-0.4,0.4-0.5,0.8-0.5,1.3
		c0,0.5,0.2,0.9,0.5,1.3c0.4,0.4,0.8,0.5,1.3,0.5s0.9-0.2,1.3-0.5C48.8,13.7,49,13.4,49,13z"/>
	<path class="st15" d="M52.3,10.5c0.6,0,1.1,0.2,1.6,0.6c0.4,0.4,0.6,1,0.6,1.6c0,0.6-0.2,1.1-0.6,1.6c-0.4,0.4-0.9,0.6-1.6,0.6
		c-0.6,0-1.1-0.2-1.6-0.6c-0.4-0.4-0.6-0.9-0.6-1.6c0-0.6,0.2-1.1,0.6-1.6C51.2,10.7,51.7,10.5,52.3,10.5z M51,11.4
		c-0.4,0.4-0.5,0.8-0.5,1.3c0,0.5,0.2,0.9,0.5,1.3s0.8,0.5,1.3,0.5s0.9-0.2,1.3-0.5c0.4-0.4,0.5-0.8,0.5-1.3c0-0.5-0.2-0.9-0.5-1.3
		c-0.4-0.4-0.8-0.5-1.3-0.5S51.4,11,51,11.4z"/>
	<path class="st15" d="M56.7,11.1c-0.3,0-0.5,0.2-0.8,0.5c-0.2,0.3-0.4,0.6-0.4,0.9v2.3h-0.4v-3.9h0.4v0.9c0.2-0.4,0.5-0.7,0.9-0.9
		L56.7,11.1z"/>
	<path class="st15" d="M57.3,12.5c0,0.1,0,0.1,0,0.2c0,0.5,0.2,0.9,0.5,1.3s0.8,0.5,1.3,0.5s0.9-0.2,1.3-0.5
		c0.1-0.1,0.1-0.1,0.2-0.2l0.4,0.1c0,0.1-0.1,0.2-0.3,0.3c-0.4,0.4-1,0.6-1.6,0.6c-0.6,0-1.1-0.2-1.6-0.6c-0.4-0.4-0.6-0.9-0.6-1.6
		c0-0.6,0.2-1.1,0.6-1.6c0.4-0.4,1-0.6,1.6-0.6c0.6,0,1.1,0.2,1.6,0.6c0.4,0.4,0.6,0.8,0.6,1.4H57.3z M57.4,12.1h3.5
		c-0.1-0.3-0.2-0.5-0.4-0.7c-0.4-0.4-0.8-0.5-1.3-0.5s-0.9,0.2-1.3,0.5C57.6,11.6,57.5,11.8,57.4,12.1z"/>
	<path class="st15" d="M62.9,12.6c-0.3-0.2-0.5-0.3-0.6-0.4C62.1,12,62,11.8,62,11.5c0-0.3,0.1-0.5,0.3-0.7c0.2-0.2,0.4-0.3,0.7-0.3
		c0.3,0,0.5,0.1,0.6,0.3c0.2,0.2,0.3,0.4,0.3,0.6v0l-0.3,0.1c0-0.2-0.1-0.4-0.2-0.5C63.2,11,63.1,11,62.9,11c-0.2,0-0.3,0.1-0.4,0.2
		s-0.2,0.3-0.2,0.4c0,0.2,0.1,0.3,0.2,0.4c0.1,0.1,0.2,0.2,0.4,0.3c0.3,0.2,0.6,0.3,0.7,0.5c0.2,0.2,0.3,0.5,0.3,0.8
		c0,0.3-0.1,0.6-0.3,0.8c-0.2,0.2-0.5,0.3-0.8,0.3s-0.6-0.1-0.8-0.3c-0.2-0.2-0.3-0.5-0.3-0.8l0.4-0.1c0,0.2,0.1,0.4,0.2,0.6
		c0.2,0.2,0.3,0.2,0.6,0.2c0.2,0,0.4-0.1,0.6-0.2c0.2-0.2,0.2-0.4,0.2-0.6c0-0.2-0.1-0.4-0.2-0.6C63.3,12.9,63.2,12.8,62.9,12.6z"/>
</g>
<g>
	<path class="st3" d="M11.3,13.2l-1.5-0.9l0.2-0.4l0,0C9.8,12,9.6,12,9.5,12c-0.2,0-0.4-0.1-0.6-0.2c-0.3-0.2-0.5-0.5-0.5-0.8
		L8.2,9.1c0,0,0-0.1,0-0.1l-0.9,2.5c-0.1,0.4,0,0.7,0.1,1c0,0.1,0.6,1.8,0.6,1.8l-1.2,1.6C6.5,16.2,6.6,16.7,7,17
		c0.1,0.1,0.3,0.1,0.4,0.1c0.2,0,0.5-0.1,0.6-0.3l1.5-2c0.2-0.2,0.2-0.5,0.1-0.7l-0.1-0.2l0.6,0.3l-0.2,2c0,0.4,0.3,0.8,0.7,0.8
		c0,0,0,0,0.1,0c0.4,0,0.7-0.3,0.8-0.7l0.2-2.5C11.6,13.7,11.5,13.4,11.3,13.2z"/>
	<path class="st3" d="M10.4,8.9l0.1,0.5l0.5-0.2c0.2-0.6-0.2-1.3-0.8-1.5c-0.6-0.2-1.2,0-1.6,0.6c0.2-0.2,0.4-0.3,0.6-0.3
		C9.8,7.8,10.3,8.3,10.4,8.9z"/>
	<path class="st3" d="M10.4,7.2c0.7,0,1.3-0.6,1.3-1.3s-0.6-1.3-1.3-1.3C9.6,4.5,9,5.1,9,5.8C9,6.6,9.6,7.2,10.4,7.2z"/>
	<path class="st3" d="M18.8,12.3h-4c-0.3,0-0.6,0.3-0.6,0.6v1.6c0,0.3,0.3,0.6,0.6,0.6h4c0.3,0,0.6-0.3,0.6-0.6v-1.6
		C19.4,12.6,19.2,12.3,18.8,12.3z"/>
	<path class="st3" d="M14.4,11.5h2.2c0.3,0,0.6-0.3,0.6-0.6V9.6c0-0.3-0.3-0.6-0.6-0.6h-2.2c-0.3,0-0.6,0.3-0.6,0.6V11
		C13.8,11.3,14.1,11.5,14.4,11.5z"/>
	<path class="st3" d="M18.3,15.6h-5v-4.9c0-0.2-0.2-0.4-0.4-0.4h-0.2h-0.5c0.1-0.1,0.1-0.3,0-0.5c-0.1-0.3-0.5-0.5-0.8-0.4L10,10
		L9.9,8.9c0-0.4-0.4-0.6-0.7-0.6c-0.4,0-0.6,0.4-0.6,0.7L8.9,11c0,0.2,0.1,0.4,0.3,0.5c0.1,0.1,0.2,0.1,0.3,0.1c0.1,0,0.2,0,0.2,0
		l1.4-0.6c0.1,0.1,0.2,0.2,0.3,0.2h0.4h0.7v4.9c0,0.2,0.2,0.4,0.4,0.4h0.5c0.1,0.3,0.4,0.6,0.7,0.6c0.3,0,0.6-0.2,0.7-0.6h1.6
		c0.1,0.3,0.4,0.6,0.7,0.6c0.3,0,0.6-0.2,0.7-0.6h0.4c0.2,0,0.4-0.2,0.4-0.4C18.8,15.8,18.6,15.6,18.3,15.6z"/>
</g>
</svg>
