<?xml version="1.0" encoding="utf-8"?>
<!-- Generator: Adobe Illustrator 24.0.2, SVG Export Plug-In . SVG Version: 6.00 Build 0)  -->
<svg version="1.1" id="off" xmlns="http://www.w3.org/2000/svg" xmlns:xlink="http://www.w3.org/1999/xlink" x="0px" y="0px"
	 viewBox="0 0 70.8 22.7" style="enable-background:new 0 0 70.8 22.7;" xml:space="preserve">
<style type="text/css">
	.st0{fill:#E9762E;}
	.st1{fill:#E9762F;}
	.st2{fill:#7382A3;}
	.st3{fill:#A4AAC2;}
	.st4{fill:#FFFFFF;}
	.st5{display:none;fill:#3F3F3F;}
	.st6{fill:#3F3F3F;}
	.st7{fill:none;stroke:#E9762E;stroke-width:0.5941;stroke-miterlimit:10;}
	.st8{clip-path:url(#SVGID_2_);}
	.st9{fill:#727276;}
	.st10{clip-path:url(#SVGID_6_);}
	.st11{fill:#E9762E;stroke:#E9762E;stroke-width:0.5;stroke-miterlimit:10;}
	.st12{fill:#E9762E;stroke:#E9762E;stroke-width:0.3868;stroke-miterlimit:10;}
	.st13{fill:#E9762E;stroke:#E9762E;stroke-width:0.5162;stroke-miterlimit:10;}
	.st14{fill:#E9762E;stroke:#E9762E;stroke-width:0.3224;stroke-miterlimit:10;}
	.st15{fill:#FFFDFD;}
	.st16{fill:none;stroke:#3F3F3F;stroke-width:2.9348;stroke-miterlimit:10;}
	.st17{fill:#E9762E;stroke:#E9762E;stroke-width:0.75;stroke-miterlimit:10;}
	.st18{fill:#3F3F3F;stroke:#3F3F3F;stroke-width:0.25;stroke-miterlimit:10;}
	.st19{fill:#444444;}
	.st20{fill:#292929;}
	.st21{fill:#FFD400;}
	.st22{fill:#FF9F00;}
	.st23{fill:#6E6E6E;}
	.st24{fill:#E9762E;stroke:#E9762E;stroke-width:0.3995;stroke-miterlimit:10;}
	.st25{fill:none;stroke:#3F3F3F;stroke-width:1.611;stroke-miterlimit:10;}
</style>
<path class="st6" d="M59.5,22.7H11.4C5.1,22.7,0,17.6,0,11.4v0C0,5.1,5.1,0,11.4,0l48.1,0c6.3,0,11.4,5.1,11.4,11.4v0
	C70.8,17.6,65.7,22.7,59.5,22.7z"/>
<g>
	<path class="st14" d="M33,7.9h-1V10h-0.3V4h1.5c0.4,0.1,0.8,0.3,1.1,0.6C34.6,5,34.8,5.4,34.8,6c0,0.5-0.2,1-0.5,1.4
		c-0.2,0.3-0.5,0.4-0.8,0.5l1.3,2.1h-0.4L33,7.9z M32,4.4v3.2h0.9c0.4,0,0.8-0.2,1.1-0.5c0.3-0.3,0.4-0.7,0.4-1.2
		c0-0.4-0.1-0.8-0.4-1.1c-0.3-0.3-0.6-0.5-1.1-0.5H32z"/>
	<path class="st14" d="M35.4,7.9c0,0.1,0,0.1,0,0.2c0,0.5,0.2,0.9,0.5,1.2c0.3,0.3,0.7,0.5,1.1,0.5c0.4,0,0.8-0.2,1.1-0.5
		c0.1-0.1,0.1-0.1,0.1-0.2l0.3,0.1c0,0.1-0.1,0.2-0.2,0.3c-0.4,0.4-0.8,0.6-1.4,0.6c-0.5,0-1-0.2-1.3-0.6c-0.4-0.4-0.6-0.9-0.6-1.5
		c0-0.6,0.2-1.1,0.6-1.5S36.5,6,37,6c0.5,0,1,0.2,1.4,0.6c0.3,0.4,0.5,0.8,0.5,1.3H35.4z M35.5,7.5h3c-0.1-0.3-0.2-0.5-0.4-0.7
		c-0.3-0.3-0.7-0.5-1.1-0.5c-0.4,0-0.8,0.2-1.1,0.5C35.7,7.1,35.6,7.3,35.5,7.5z"/>
	<path class="st14" d="M39.3,6.3h0.3v0.5c0.1-0.1,0.1-0.2,0.2-0.2C40.2,6.2,40.7,6,41.2,6c0.5,0,1,0.2,1.4,0.6s0.6,0.9,0.6,1.5
		c0,0.6-0.2,1.1-0.6,1.5c-0.4,0.4-0.8,0.6-1.4,0.6c-0.5,0-1-0.2-1.4-0.6c-0.1-0.1-0.1-0.2-0.2-0.2v2.2h-0.3V6.3z M39.7,7.7v0.7
		c0.1,0.3,0.2,0.6,0.4,0.8c0.3,0.3,0.7,0.5,1.1,0.5c0.4,0,0.8-0.2,1.1-0.5c0.3-0.3,0.5-0.7,0.5-1.2c0-0.5-0.2-0.9-0.5-1.2
		c-0.3-0.3-0.7-0.5-1.1-0.5c-0.4,0-0.8,0.2-1.1,0.5C39.9,7.1,39.7,7.4,39.7,7.7z"/>
	<path class="st14" d="M45.5,6c0.5,0,1,0.2,1.4,0.6c0.4,0.4,0.6,0.9,0.6,1.5c0,0.6-0.2,1.1-0.6,1.5c-0.4,0.4-0.8,0.6-1.4,0.6
		c-0.5,0-1-0.2-1.3-0.6c-0.4-0.4-0.6-0.9-0.6-1.5c0-0.6,0.2-1.1,0.6-1.5C44.6,6.2,45,6,45.5,6z M44.4,6.9C44.1,7.2,44,7.6,44,8.1
		c0,0.5,0.2,0.9,0.5,1.2c0.3,0.3,0.7,0.5,1.1,0.5s0.8-0.2,1.1-0.5c0.3-0.3,0.5-0.7,0.5-1.2c0-0.5-0.2-0.9-0.5-1.2
		c-0.3-0.3-0.7-0.5-1.1-0.5S44.7,6.5,44.4,6.9z"/>
	<path class="st14" d="M49.3,6.6c-0.2,0-0.4,0.2-0.7,0.5c-0.2,0.3-0.3,0.5-0.3,0.8V10H48V6.3h0.3v0.8c0.1-0.4,0.4-0.6,0.8-0.8
		L49.3,6.6z"/>
	<path class="st14" d="M50.2,6.3V4.8h0.3v1.6h0.7v0.3h-0.7V10h-0.3V6.7h-0.7V6.3H50.2z"/>
	<path class="st14" d="M51.9,7.9c0,0.1,0,0.1,0,0.2c0,0.5,0.2,0.9,0.5,1.2c0.3,0.3,0.7,0.5,1.1,0.5c0.4,0,0.8-0.2,1.1-0.5
		c0.1-0.1,0.1-0.1,0.1-0.2L55,9.2c0,0.1-0.1,0.2-0.2,0.3c-0.4,0.4-0.8,0.6-1.4,0.6c-0.5,0-1-0.2-1.3-0.6c-0.4-0.4-0.6-0.9-0.6-1.5
		c0-0.6,0.2-1.1,0.6-1.5S52.9,6,53.4,6c0.5,0,1,0.2,1.4,0.6c0.3,0.4,0.5,0.8,0.5,1.3H51.9z M51.9,7.5h3c-0.1-0.3-0.2-0.5-0.4-0.7
		c-0.3-0.3-0.7-0.5-1.1-0.5c-0.4,0-0.8,0.2-1.1,0.5C52.1,7.1,52,7.3,51.9,7.5z"/>
	<path class="st14" d="M34.6,17.5l0.2,0.2c-0.5,0.5-1.2,0.8-1.9,0.8c-0.8,0-1.5-0.3-2-0.9S30,16.3,30,15.5c0-0.8,0.3-1.6,0.8-2.2
		c0.6-0.6,1.2-0.9,2-0.9c0.7,0,1.4,0.3,1.9,0.8l-0.2,0.2c-0.5-0.5-1-0.7-1.7-0.7c-0.7,0-1.3,0.3-1.8,0.8c-0.5,0.5-0.7,1.2-0.7,1.9
		c0,0.8,0.2,1.4,0.7,1.9c0.5,0.5,1.1,0.8,1.8,0.8C33.5,18.2,34.1,18,34.6,17.5z"/>
	<path class="st14" d="M37.2,14.4c0.5,0,1,0.2,1.4,0.6c0.4,0.4,0.6,0.9,0.6,1.5c0,0.6-0.2,1.1-0.6,1.5c-0.4,0.4-0.8,0.6-1.4,0.6
		c-0.5,0-1-0.2-1.3-0.6c-0.4-0.4-0.6-0.9-0.6-1.5c0-0.6,0.2-1.1,0.6-1.5C36.3,14.6,36.7,14.4,37.2,14.4z M36.1,15.3
		c-0.3,0.3-0.5,0.7-0.5,1.2c0,0.5,0.2,0.9,0.5,1.2c0.3,0.3,0.7,0.5,1.1,0.5s0.8-0.2,1.1-0.5c0.3-0.3,0.5-0.7,0.5-1.2
		c0-0.5-0.2-0.9-0.5-1.2c-0.3-0.3-0.7-0.5-1.1-0.5S36.4,15,36.1,15.3z"/>
	<path class="st14" d="M39.8,14.8h0.3v0.1c0.2-0.2,0.4-0.3,0.7-0.3c0.3,0,0.5,0.1,0.7,0.3c0.1,0.1,0.1,0.1,0.1,0.2
		c0-0.1,0.1-0.1,0.1-0.2c0.2-0.2,0.4-0.3,0.7-0.3s0.5,0.1,0.7,0.3c0.2,0.2,0.3,0.5,0.3,0.7v2.8h-0.3v-2.8h0c0-0.2-0.1-0.4-0.2-0.5
		c-0.1-0.1-0.3-0.2-0.5-0.2c-0.2,0-0.4,0.1-0.5,0.2s-0.2,0.3-0.2,0.6v2.8h-0.3v-2.8h0c0-0.2-0.1-0.4-0.2-0.5
		c-0.1-0.1-0.3-0.2-0.5-0.2c-0.2,0-0.4,0.1-0.5,0.2c-0.1,0.1-0.2,0.3-0.2,0.5v2.9h-0.3V14.8z"/>
	<path class="st14" d="M44.3,14.8h0.3v0.5c0.1-0.1,0.1-0.2,0.2-0.2c0.4-0.4,0.8-0.6,1.4-0.6c0.5,0,1,0.2,1.4,0.6s0.6,0.9,0.6,1.5
		c0,0.6-0.2,1.1-0.6,1.5c-0.4,0.4-0.8,0.6-1.4,0.6c-0.5,0-1-0.2-1.4-0.6c-0.1-0.1-0.1-0.2-0.2-0.2v2.2h-0.3V14.8z M44.6,16.2v0.7
		c0.1,0.3,0.2,0.6,0.4,0.8c0.3,0.3,0.7,0.5,1.1,0.5c0.4,0,0.8-0.2,1.1-0.5c0.3-0.3,0.5-0.7,0.5-1.2c0-0.5-0.2-0.9-0.5-1.2
		c-0.3-0.3-0.7-0.5-1.1-0.5c-0.4,0-0.8,0.2-1.1,0.5C44.8,15.5,44.7,15.8,44.6,16.2z"/>
	<path class="st14" d="M49.9,15.1c-0.2,0-0.4,0.2-0.7,0.5c-0.2,0.3-0.3,0.5-0.3,0.8v2.1h-0.3v-3.7H49v0.8c0.1-0.4,0.4-0.6,0.8-0.8
		L49.9,15.1z"/>
	<path class="st14" d="M54,18.5h-0.3v-0.8c-0.1,0.1-0.1,0.2-0.2,0.3c-0.4,0.4-0.8,0.6-1.4,0.6c-0.5,0-1-0.2-1.3-0.6
		c-0.4-0.4-0.6-0.9-0.6-1.5c0-0.6,0.2-1.1,0.6-1.5c0.4-0.4,0.8-0.6,1.3-0.6c0.5,0,1,0.2,1.4,0.6c0.1,0.1,0.1,0.2,0.2,0.3v-0.5H54
		V18.5z M53.7,16.8v-0.7c-0.1-0.3-0.2-0.6-0.4-0.9c-0.3-0.3-0.7-0.5-1.1-0.5c-0.4,0-0.8,0.2-1.1,0.5c-0.3,0.3-0.5,0.7-0.5,1.2
		c0,0.5,0.2,0.9,0.5,1.2c0.3,0.3,0.7,0.5,1.1,0.5c0.4,0,0.8-0.2,1.1-0.5C53.5,17.5,53.6,17.2,53.7,16.8z"/>
	<path class="st14" d="M55.6,16.5c-0.3-0.2-0.4-0.3-0.6-0.4c-0.2-0.2-0.2-0.4-0.2-0.6c0-0.2,0.1-0.5,0.2-0.6
		c0.2-0.2,0.4-0.3,0.6-0.3s0.4,0.1,0.6,0.2c0.1,0.2,0.2,0.3,0.2,0.5v0l-0.3,0.1c0-0.2-0.1-0.3-0.2-0.4c-0.1-0.1-0.2-0.1-0.3-0.1
		c-0.1,0-0.3,0.1-0.4,0.2c-0.1,0.1-0.2,0.2-0.2,0.4s0,0.3,0.2,0.4c0.1,0.1,0.2,0.2,0.4,0.3c0.3,0.2,0.5,0.3,0.6,0.5
		c0.2,0.2,0.3,0.5,0.3,0.8c0,0.3-0.1,0.6-0.3,0.8s-0.4,0.3-0.7,0.3s-0.5-0.1-0.7-0.3s-0.3-0.4-0.3-0.7l0.3-0.1
		c0,0.2,0.1,0.4,0.2,0.6c0.1,0.1,0.3,0.2,0.5,0.2c0.2,0,0.4-0.1,0.5-0.2c0.1-0.1,0.2-0.3,0.2-0.5c0-0.2-0.1-0.4-0.2-0.5
		C56,16.8,55.9,16.6,55.6,16.5z"/>
</g>
<g id="Analysis-report-document-develop-infromation_1_">
	<path class="st4" d="M26.8,6.6l-2.3-2.3c0,0-0.1-0.1-0.1-0.1h-5.1c-0.3,0-0.6,0.3-0.6,0.6v1.2c-2.4,0.1-4.2,2.1-4.1,4.5
		c0.1,2.2,1.9,4,4.1,4.1v1.2c0,0.3,0.3,0.6,0.6,0.6h7c0.3,0,0.6-0.3,0.6-0.6V6.7C26.9,6.7,26.9,6.6,26.8,6.6z M24.6,5l1.6,1.6h-1.3
		c-0.1,0-0.2-0.1-0.2-0.2V5z M15,10.4c0-2.1,1.6-3.8,3.7-3.9v3.8L16,13C15.4,12.3,15,11.4,15,10.4L15,10.4z M16.3,13.3l2.7-2.7h3.8
		c-0.1,2.1-1.9,3.8-4.1,3.7C17.8,14.3,17,13.9,16.3,13.3L16.3,13.3z M26.5,15.9c0,0.1-0.1,0.2-0.2,0.2h-7c-0.1,0-0.2-0.1-0.2-0.2
		v-1.2c2.3-0.1,4.1-2,4.1-4.3c0-0.1-0.1-0.2-0.2-0.2h-3.9V4.9c0-0.1,0.1-0.2,0.2-0.2h4.9v1.6c0,0.3,0.3,0.6,0.6,0.6h1.6V15.9z"/>
	<path class="st4" d="M19.7,5.3c-0.1,0-0.2,0.1-0.2,0.2v4.1c0,0.1,0.1,0.2,0.2,0.2h4.1c0.1,0,0.2-0.1,0.2-0.2
		C24,7.2,22.1,5.3,19.7,5.3z M19.9,9.4V5.7c2,0.1,3.6,1.7,3.7,3.7H19.9z"/>
	<path class="st4" d="M24.2,12.1c-1,0-1.8,0.8-1.8,1.8s0.8,1.8,1.8,1.8s1.8-0.8,1.8-1.8C26.1,12.9,25.2,12.1,24.2,12.1z M24.2,15.3
		c-0.8,0-1.4-0.6-1.4-1.4s0.6-1.4,1.4-1.4c0.8,0,1.4,0.6,1.4,1.4C25.7,14.7,25,15.3,24.2,15.3z"/>
	<path class="st4" d="M23.8,14.2l-0.5-0.5L23.1,14l0.6,0.6c0.1,0.1,0.2,0.1,0.3,0l1.2-1.2l-0.3-0.3L23.8,14.2z"/>
	<path class="st4" d="M24.4,7.8h1.6v0.4h-1.6V7.8z"/>
	<path class="st4" d="M24.4,9h1.6v0.4h-1.6V9z"/>
	<path class="st4" d="M24.4,10.2h1.6v0.4h-1.6V10.2z"/>
</g>
</svg>
