<?xml version="1.0" encoding="utf-8"?>
<!-- Generator: Adobe Illustrator 24.0.2, SVG Export Plug-In . SVG Version: 6.00 Build 0)  -->
<svg version="1.1" id="off" xmlns="http://www.w3.org/2000/svg" xmlns:xlink="http://www.w3.org/1999/xlink" x="0px" y="0px"
	 viewBox="0 0 70.8 22.7" style="enable-background:new 0 0 70.8 22.7;" xml:space="preserve">
<style type="text/css">
	.st0{fill:#E9762E;}
	.st1{fill:#E9762F;}
	.st2{fill:#7382A3;}
	.st3{fill:#A4AAC2;}
	.st4{fill:#FFFFFF;}
	.st5{display:none;fill:#3F3F3F;}
	.st6{fill:#3F3F3F;}
	.st7{fill:none;stroke:#E9762E;stroke-width:0.5941;stroke-miterlimit:10;}
	.st8{clip-path:url(#SVGID_2_);}
	.st9{fill:#727276;}
	.st10{clip-path:url(#SVGID_6_);}
	.st11{fill:#E9762E;stroke:#E9762E;stroke-width:0.5;stroke-miterlimit:10;}
	.st12{fill:#E9762E;stroke:#E9762E;stroke-width:0.3868;stroke-miterlimit:10;}
	.st13{fill:#E9762E;stroke:#E9762E;stroke-width:0.5162;stroke-miterlimit:10;}
	.st14{fill:#E9762E;stroke:#E9762E;stroke-width:0.3224;stroke-miterlimit:10;}
	.st15{fill:#FFFDFD;}
	.st16{fill:none;stroke:#3F3F3F;stroke-width:2.9348;stroke-miterlimit:10;}
	.st17{fill:#E9762E;stroke:#E9762E;stroke-width:0.75;stroke-miterlimit:10;}
	.st18{fill:#3F3F3F;stroke:#3F3F3F;stroke-width:0.25;stroke-miterlimit:10;}
	.st19{fill:#444444;}
	.st20{fill:#292929;}
	.st21{fill:#FFD400;}
	.st22{fill:#FF9F00;}
	.st23{fill:#6E6E6E;}
	.st24{fill:#E9762E;stroke:#E9762E;stroke-width:0.3995;stroke-miterlimit:10;}
	.st25{fill:none;stroke:#3F3F3F;stroke-width:1.611;stroke-miterlimit:10;}
</style>
<path class="st6" d="M59.5,22.7H11.4C5.1,22.7,0,17.6,0,11.4v0C0,5.1,5.1,0,11.4,0l48.1,0c6.3,0,11.4,5.1,11.4,11.4v0
	C70.8,17.6,65.7,22.7,59.5,22.7z"/>
<g>
	<path class="st14" d="M33.2,7.7h-1v2.1h-0.3v-6h1.5c0.4,0.1,0.8,0.3,1.1,0.6C34.8,4.7,35,5.2,35,5.7c0,0.5-0.2,1-0.5,1.4
		c-0.2,0.3-0.5,0.4-0.8,0.5l1.3,2.1h-0.4L33.2,7.7z M32.2,4.1v3.2h0.9c0.4,0,0.8-0.2,1.1-0.5c0.3-0.3,0.4-0.7,0.4-1.2
		c0-0.4-0.1-0.8-0.4-1.1c-0.3-0.3-0.6-0.5-1.1-0.5H32.2z"/>
	<path class="st14" d="M35.6,7.7c0,0.1,0,0.1,0,0.2c0,0.5,0.2,0.9,0.5,1.2c0.3,0.3,0.7,0.5,1.1,0.5c0.4,0,0.8-0.2,1.1-0.5
		c0.1-0.1,0.1-0.1,0.1-0.2L38.8,9c0,0.1-0.1,0.2-0.2,0.3c-0.4,0.4-0.8,0.6-1.4,0.6c-0.5,0-1-0.2-1.3-0.6c-0.4-0.4-0.6-0.9-0.6-1.5
		c0-0.6,0.2-1.1,0.6-1.5s0.8-0.6,1.3-0.6c0.5,0,1,0.2,1.4,0.6C38.9,6.7,39,7.2,39,7.7H35.6z M35.7,7.3h3c-0.1-0.3-0.2-0.5-0.4-0.7
		c-0.3-0.3-0.7-0.5-1.1-0.5c-0.4,0-0.8,0.2-1.1,0.5C35.9,6.8,35.8,7.1,35.7,7.3z"/>
	<path class="st14" d="M39.6,6.1h0.3v0.5c0.1-0.1,0.1-0.2,0.2-0.2c0.4-0.4,0.8-0.6,1.4-0.6c0.5,0,1,0.2,1.4,0.6s0.6,0.9,0.6,1.5
		c0,0.6-0.2,1.1-0.6,1.5c-0.4,0.4-0.8,0.6-1.4,0.6c-0.5,0-1-0.2-1.4-0.6c-0.1-0.1-0.1-0.2-0.2-0.2v2.2h-0.3V6.1z M39.9,7.5v0.7
		c0.1,0.3,0.2,0.6,0.4,0.8c0.3,0.3,0.7,0.5,1.1,0.5c0.4,0,0.8-0.2,1.1-0.5C42.8,8.7,43,8.3,43,7.8c0-0.5-0.2-0.9-0.5-1.2
		c-0.3-0.3-0.7-0.5-1.1-0.5c-0.4,0-0.8,0.2-1.1,0.5C40.1,6.9,39.9,7.2,39.9,7.5z"/>
	<path class="st14" d="M45.8,5.8c0.5,0,1,0.2,1.4,0.6c0.4,0.4,0.6,0.9,0.6,1.5c0,0.6-0.2,1.1-0.6,1.5c-0.4,0.4-0.8,0.6-1.4,0.6
		c-0.5,0-1-0.2-1.3-0.6c-0.4-0.4-0.6-0.9-0.6-1.5c0-0.6,0.2-1.1,0.6-1.5C44.8,6,45.2,5.8,45.8,5.8z M44.6,6.6
		c-0.3,0.3-0.5,0.7-0.5,1.2c0,0.5,0.2,0.9,0.5,1.2c0.3,0.3,0.7,0.5,1.1,0.5s0.8-0.2,1.1-0.5c0.3-0.3,0.5-0.7,0.5-1.2
		c0-0.5-0.2-0.9-0.5-1.2c-0.3-0.3-0.7-0.5-1.1-0.5S45,6.3,44.6,6.6z"/>
	<path class="st14" d="M49.6,6.4c-0.2,0-0.4,0.2-0.7,0.5c-0.2,0.3-0.3,0.5-0.3,0.8v2.1h-0.3V6.1h0.3v0.8c0.1-0.4,0.4-0.6,0.8-0.8
		L49.6,6.4z"/>
	<path class="st14" d="M50.4,6.1V4.5h0.3v1.6h0.7v0.3h-0.7v3.3h-0.3V6.4h-0.7V6.1H50.4z"/>
	<path class="st14" d="M52.1,7.7c0,0.1,0,0.1,0,0.2c0,0.5,0.2,0.9,0.5,1.2c0.3,0.3,0.7,0.5,1.1,0.5c0.4,0,0.8-0.2,1.1-0.5
		c0.1-0.1,0.1-0.1,0.1-0.2L55.2,9c0,0.1-0.1,0.2-0.2,0.3c-0.4,0.4-0.8,0.6-1.4,0.6c-0.5,0-1-0.2-1.3-0.6c-0.4-0.4-0.6-0.9-0.6-1.5
		c0-0.6,0.2-1.1,0.6-1.5s0.8-0.6,1.3-0.6c0.5,0,1,0.2,1.4,0.6c0.3,0.4,0.5,0.8,0.5,1.3H52.1z M52.1,7.3h3c-0.1-0.3-0.2-0.5-0.4-0.7
		c-0.3-0.3-0.7-0.5-1.1-0.5c-0.4,0-0.8,0.2-1.1,0.5C52.3,6.8,52.2,7.1,52.1,7.3z"/>
	<path class="st14" d="M37.3,12.2h0.3l-2,6h-0.2l-2-6h0.3l1.8,5.4L37.3,12.2z"/>
	<path class="st14" d="M37.7,16.1c0,0.1,0,0.1,0,0.2c0,0.5,0.2,0.9,0.5,1.2c0.3,0.3,0.7,0.5,1.1,0.5c0.4,0,0.8-0.2,1.1-0.5
		c0.1-0.1,0.1-0.1,0.1-0.2l0.3,0.1c0,0.1-0.1,0.2-0.2,0.3c-0.4,0.4-0.8,0.6-1.4,0.6c-0.5,0-1-0.2-1.3-0.6c-0.4-0.4-0.6-0.9-0.6-1.5
		c0-0.6,0.2-1.1,0.6-1.5s0.8-0.6,1.3-0.6c0.5,0,1,0.2,1.4,0.6c0.3,0.4,0.5,0.8,0.5,1.3H37.7z M37.8,15.7h3c-0.1-0.3-0.2-0.5-0.4-0.7
		c-0.3-0.3-0.7-0.5-1.1-0.5c-0.4,0-0.8,0.2-1.1,0.5C38,15.3,37.8,15.5,37.8,15.7z"/>
	<path class="st14" d="M42,15.4v2.9h-0.3v-3.7H42v0.2c0.3-0.3,0.6-0.5,1-0.5c0.4,0,0.7,0.1,1,0.4c0.3,0.3,0.4,0.6,0.4,1v2.5H44v-2.4
		c0-0.3-0.1-0.6-0.3-0.8c-0.2-0.2-0.5-0.3-0.7-0.3c-0.3,0-0.5,0.1-0.7,0.3C42.1,15.1,42,15.2,42,15.4z"/>
	<path class="st14" d="M45.6,14.5V13h0.3v1.6h0.7v0.3h-0.7v3.3h-0.3v-3.3h-0.7v-0.3H45.6z"/>
	<path class="st14" d="M50.8,18.2h-0.3v-0.8c-0.1,0.1-0.1,0.2-0.2,0.3c-0.4,0.4-0.8,0.6-1.4,0.6c-0.5,0-1-0.2-1.3-0.6
		c-0.4-0.4-0.6-0.9-0.6-1.5c0-0.6,0.2-1.1,0.6-1.5c0.4-0.4,0.8-0.6,1.3-0.6c0.5,0,1,0.2,1.4,0.6c0.1,0.1,0.1,0.2,0.2,0.3v-0.5h0.3
		V18.2z M50.5,16.6v-0.7c-0.1-0.3-0.2-0.6-0.4-0.9c-0.3-0.3-0.7-0.5-1.1-0.5c-0.4,0-0.8,0.2-1.1,0.5c-0.3,0.3-0.5,0.7-0.5,1.2
		c0,0.5,0.2,0.9,0.5,1.2c0.3,0.3,0.7,0.5,1.1,0.5c0.4,0,0.8-0.2,1.1-0.5C50.2,17.2,50.4,16.9,50.5,16.6z"/>
	<path class="st14" d="M52.4,16.3c-0.3-0.2-0.4-0.3-0.6-0.4c-0.2-0.2-0.2-0.4-0.2-0.6c0-0.2,0.1-0.5,0.2-0.6
		c0.2-0.2,0.4-0.3,0.6-0.3s0.4,0.1,0.6,0.2c0.1,0.2,0.2,0.3,0.2,0.5v0l-0.3,0.1c0-0.2-0.1-0.3-0.2-0.4c-0.1-0.1-0.2-0.1-0.3-0.1
		c-0.1,0-0.3,0.1-0.4,0.2c-0.1,0.1-0.2,0.2-0.2,0.4s0,0.3,0.2,0.4c0.1,0.1,0.2,0.2,0.4,0.3c0.3,0.2,0.5,0.3,0.6,0.5
		c0.2,0.2,0.3,0.5,0.3,0.8c0,0.3-0.1,0.6-0.3,0.8s-0.4,0.3-0.7,0.3s-0.5-0.1-0.7-0.3s-0.3-0.4-0.3-0.7l0.3-0.1
		c0,0.2,0.1,0.4,0.2,0.6c0.1,0.1,0.3,0.2,0.5,0.2c0.2,0,0.4-0.1,0.5-0.2c0.1-0.1,0.2-0.3,0.2-0.5c0-0.2-0.1-0.4-0.2-0.5
		C52.8,16.5,52.6,16.4,52.4,16.3z"/>
</g>
<g id="Analysis-report-document-develop-infromation_2_">
	<path class="st4" d="M27,6.4l-2.3-2.3c0,0-0.1-0.1-0.1-0.1h-5.1c-0.3,0-0.6,0.3-0.6,0.6v1.2C16.5,6,14.7,8,14.8,10.4
		c0.1,2.2,1.9,4,4.1,4.1v1.2c0,0.3,0.3,0.6,0.6,0.6h7c0.3,0,0.6-0.3,0.6-0.6V6.5C27.1,6.4,27.1,6.4,27,6.4z M24.8,4.7l1.6,1.6H25
		c-0.1,0-0.2-0.1-0.2-0.2V4.7z M15.2,10.2c0-2.1,1.6-3.8,3.7-3.9v3.8l-2.7,2.7C15.6,12.1,15.2,11.2,15.2,10.2L15.2,10.2z M16.5,13.1
		l2.7-2.7H23c-0.1,2.1-1.9,3.8-4.1,3.7C18,14,17.2,13.7,16.5,13.1L16.5,13.1z M26.7,15.7c0,0.1-0.1,0.2-0.2,0.2h-7
		c-0.1,0-0.2-0.1-0.2-0.2v-1.2c2.3-0.1,4.1-2,4.1-4.3c0-0.1-0.1-0.2-0.2-0.2h-3.9V4.7c0-0.1,0.1-0.2,0.2-0.2h4.9v1.6
		c0,0.3,0.3,0.6,0.6,0.6h1.6V15.7z"/>
	<path class="st4" d="M19.9,5.1c-0.1,0-0.2,0.1-0.2,0.2v4.1c0,0.1,0.1,0.2,0.2,0.2H24c0.1,0,0.2-0.1,0.2-0.2
		C24.2,7,22.3,5.1,19.9,5.1z M20.1,9.2V5.5c2,0.1,3.6,1.7,3.7,3.7H20.1z"/>
	<path class="st4" d="M24.4,11.8c-1,0-1.8,0.8-1.8,1.8s0.8,1.8,1.8,1.8s1.8-0.8,1.8-1.8C26.3,12.7,25.4,11.8,24.4,11.8z M24.4,15.1
		c-0.8,0-1.4-0.6-1.4-1.4c0-0.8,0.6-1.4,1.4-1.4s1.4,0.6,1.4,1.4C25.9,14.5,25.2,15.1,24.4,15.1z"/>
	<path class="st4" d="M24,14l-0.5-0.5l-0.3,0.3l0.6,0.6c0.1,0.1,0.2,0.1,0.3,0l1.2-1.2l-0.3-0.3L24,14z"/>
	<path class="st4" d="M24.6,7.5h1.6v0.4h-1.6V7.5z"/>
	<path class="st4" d="M24.6,8.8h1.6v0.4h-1.6V8.8z"/>
	<path class="st4" d="M24.6,10h1.6v0.4h-1.6V10z"/>
</g>
</svg>
