<?xml version="1.0" encoding="utf-8"?>
<!-- Generator: Adobe Illustrator 24.0.2, SVG Export Plug-In . SVG Version: 6.00 Build 0)  -->
<svg version="1.1" id="off" xmlns="http://www.w3.org/2000/svg" xmlns:xlink="http://www.w3.org/1999/xlink" x="0px" y="0px"
	 viewBox="0 0 70.8 22.7" style="enable-background:new 0 0 70.8 22.7;" xml:space="preserve">
<style type="text/css">
	.st0{fill:#E9762F;}
	.st1{fill:#7382A3;}
	.st2{fill:#A4AAC2;}
	.st3{fill:#FFFFFF;}
	.st4{display:none;fill:#3F3F3F;}
	.st5{fill:#3F3F3F;}
	.st6{fill:none;stroke:#E9762E;stroke-width:0.5941;stroke-miterlimit:10;}
	.st7{clip-path:url(#SVGID_2_);}
	.st8{fill:#727276;}
	.st9{fill:#E9762E;}
	.st10{clip-path:url(#SVGID_6_);}
	.st11{fill:#E9762E;stroke:#E9762E;stroke-width:0.5;stroke-miterlimit:10;}
	.st12{fill:#E9762E;stroke:#E9762E;stroke-width:0.5162;stroke-miterlimit:10;}
	.st13{fill:#E9762E;stroke:#E9762E;stroke-width:0.3135;stroke-miterlimit:10;}
	.st14{fill:#E9762E;stroke:#E9762E;stroke-width:0.3868;stroke-miterlimit:10;}
	.st15{fill:#E9762E;stroke:#E9762E;stroke-width:0.3578;stroke-miterlimit:10;}
	.st16{fill:#E9762E;stroke:#E9762E;stroke-width:0.3826;stroke-miterlimit:10;}
</style>
<path class="st5" d="M59.5,22.7H11.4C5.1,22.7,0,17.6,0,11.4v0C0,5.1,5.1,0,11.4,0l48.1,0c6.3,0,11.4,5.1,11.4,11.4v0
	C70.8,17.6,65.7,22.7,59.5,22.7z"/>
<g>
	<path class="st12" d="M25.7,12.9h-1.7v3.2h-0.5V6.8h2.4c0.7,0.1,1.3,0.4,1.8,0.9c0.6,0.6,0.9,1.3,0.9,2.1c0,0.8-0.3,1.6-0.9,2.1
		c-0.4,0.4-0.9,0.7-1.4,0.8l2.1,3.3h-0.6L25.7,12.9z M23.9,7.3v5h1.6c0.7,0,1.3-0.2,1.8-0.7c0.5-0.5,0.7-1.1,0.7-1.8
		c0-0.7-0.2-1.3-0.7-1.8c-0.5-0.5-1.1-0.7-1.8-0.7H23.9z"/>
	<path class="st12" d="M29.6,12.8c0,0.1,0,0.2,0,0.3c0,0.7,0.3,1.3,0.8,1.9c0.5,0.5,1.1,0.8,1.9,0.8c0.7,0,1.3-0.3,1.9-0.8
		c0.1-0.1,0.2-0.2,0.2-0.3l0.6,0.2c-0.1,0.1-0.2,0.3-0.4,0.5c-0.6,0.6-1.4,0.9-2.3,0.9c-0.9,0-1.6-0.3-2.2-0.9
		c-0.6-0.6-0.9-1.4-0.9-2.2c0-0.9,0.3-1.6,0.9-2.3c0.6-0.6,1.4-0.9,2.2-0.9c0.9,0,1.6,0.3,2.3,0.9c0.5,0.6,0.8,1.2,0.8,2H29.6z
		 M29.7,12.2h5c-0.1-0.4-0.3-0.7-0.6-1c-0.5-0.5-1.1-0.8-1.9-0.8c-0.7,0-1.3,0.3-1.9,0.8C30.1,11.5,29.9,11.9,29.7,12.2z"/>
	<path class="st12" d="M36.2,10.4h0.5v0.8c0.1-0.1,0.2-0.3,0.3-0.4c0.6-0.6,1.4-0.9,2.2-0.9c0.9,0,1.6,0.3,2.2,0.9
		c0.6,0.6,0.9,1.4,0.9,2.3c0,0.9-0.3,1.6-0.9,2.2c-0.6,0.6-1.4,0.9-2.2,0.9c-0.9,0-1.6-0.3-2.2-0.9c-0.1-0.1-0.2-0.2-0.3-0.4v3.3
		h-0.5V10.4z M36.7,12.5v1.1c0.1,0.5,0.3,0.9,0.7,1.3c0.5,0.5,1.1,0.8,1.9,0.8c0.7,0,1.3-0.3,1.9-0.8c0.5-0.5,0.8-1.1,0.8-1.9
		c0-0.7-0.3-1.3-0.8-1.9c-0.5-0.5-1.1-0.8-1.9-0.8c-0.7,0-1.3,0.3-1.9,0.8C37,11.6,36.8,12,36.7,12.5z"/>
	<path class="st12" d="M46.5,9.9c0.9,0,1.6,0.3,2.3,0.9s0.9,1.4,0.9,2.3c0,0.9-0.3,1.6-0.9,2.2c-0.6,0.6-1.4,0.9-2.3,0.9
		c-0.9,0-1.6-0.3-2.2-0.9c-0.6-0.6-0.9-1.4-0.9-2.2c0-0.9,0.3-1.6,0.9-2.3C44.9,10.2,45.6,9.9,46.5,9.9z M44.6,11.2
		c-0.5,0.5-0.8,1.1-0.8,1.9c0,0.7,0.3,1.3,0.8,1.9c0.5,0.5,1.1,0.8,1.9,0.8c0.7,0,1.3-0.3,1.9-0.8c0.5-0.5,0.8-1.1,0.8-1.9
		c0-0.7-0.3-1.3-0.8-1.9s-1.1-0.8-1.9-0.8C45.8,10.4,45.1,10.7,44.6,11.2z"/>
	<path class="st12" d="M52.8,10.9c-0.4,0.1-0.7,0.3-1.1,0.7s-0.5,0.8-0.5,1.3v3.3h-0.5v-5.7h0.5v1.2c0.2-0.6,0.7-1,1.3-1.3
		L52.8,10.9z"/>
	<path class="st12" d="M54.2,10.4V8h0.5v2.4h1.2v0.5h-1.2v5.2h-0.5v-5.2H53v-0.5H54.2z"/>
	<path class="st12" d="M57,12.8c0,0.1,0,0.2,0,0.3c0,0.7,0.3,1.3,0.8,1.9c0.5,0.5,1.1,0.8,1.9,0.8c0.7,0,1.3-0.3,1.9-0.8
		c0.1-0.1,0.2-0.2,0.2-0.3l0.6,0.2c-0.1,0.1-0.2,0.3-0.4,0.5c-0.6,0.6-1.4,0.9-2.3,0.9c-0.9,0-1.6-0.3-2.2-0.9
		c-0.6-0.6-0.9-1.4-0.9-2.2c0-0.9,0.3-1.6,0.9-2.3c0.6-0.6,1.4-0.9,2.2-0.9c0.9,0,1.6,0.3,2.3,0.9c0.5,0.6,0.8,1.2,0.8,2H57z
		 M57.1,12.2h5c-0.1-0.4-0.3-0.7-0.6-1c-0.5-0.5-1.1-0.8-1.9-0.8c-0.7,0-1.3,0.3-1.9,0.8C57.4,11.5,57.2,11.9,57.1,12.2z"/>
</g>
<g id="Analysis-report-document-develop-infromation">
	<path class="st3" d="M20.7,7l-2.3-2.3c0,0-0.1-0.1-0.1-0.1h-5.1c-0.3,0-0.6,0.3-0.6,0.6v1.2C10.2,6.6,8.4,8.6,8.5,11
		c0.1,2.2,1.9,4,4.1,4.1v1.2c0,0.3,0.3,0.6,0.6,0.6h7c0.3,0,0.6-0.3,0.6-0.6V7.1C20.8,7.1,20.7,7,20.7,7z M18.5,5.3l1.6,1.6h-1.3
		c-0.1,0-0.2-0.1-0.2-0.2V5.3z M8.9,10.8c0-2.1,1.6-3.8,3.7-3.9v3.8l-2.7,2.7C9.2,12.7,8.9,11.8,8.9,10.8L8.9,10.8z M10.2,13.7
		l2.7-2.7h3.8c-0.1,2.1-1.9,3.8-4.1,3.7C11.7,14.6,10.8,14.3,10.2,13.7L10.2,13.7z M20.3,16.3c0,0.1-0.1,0.2-0.2,0.2h-7
		c-0.1,0-0.2-0.1-0.2-0.2v-1.2c2.3-0.1,4.1-2,4.1-4.3c0-0.1-0.1-0.2-0.2-0.2H13V5.3c0-0.1,0.1-0.2,0.2-0.2h4.9v1.6
		c0,0.3,0.3,0.6,0.6,0.6h1.6V16.3z"/>
	<path class="st3" d="M13.6,5.7c-0.1,0-0.2,0.1-0.2,0.2V10c0,0.1,0.1,0.2,0.2,0.2h4.1c0.1,0,0.2-0.1,0.2-0.2
		C17.9,7.6,16,5.7,13.6,5.7z M13.8,9.8V6.1c2,0.1,3.6,1.7,3.7,3.7H13.8z"/>
	<path class="st3" d="M18.1,12.4c-1,0-1.8,0.8-1.8,1.8s0.8,1.8,1.8,1.8s1.8-0.8,1.8-1.8C19.9,13.3,19.1,12.4,18.1,12.4z M18.1,15.7
		c-0.8,0-1.4-0.6-1.4-1.4c0-0.8,0.6-1.4,1.4-1.4s1.4,0.6,1.4,1.4C19.5,15.1,18.9,15.7,18.1,15.7z"/>
	<path class="st3" d="M17.7,14.6l-0.5-0.5l-0.3,0.3l0.6,0.6c0.1,0.1,0.2,0.1,0.3,0l1.2-1.2l-0.3-0.3L17.7,14.6z"/>
	<path class="st3" d="M18.3,8.1h1.6v0.4h-1.6V8.1z"/>
	<path class="st3" d="M18.3,9.4h1.6v0.4h-1.6V9.4z"/>
	<path class="st3" d="M18.3,10.6h1.6V11h-1.6V10.6z"/>
</g>
</svg>
