<?xml version="1.0" encoding="utf-8"?>
<!-- Generator: Adobe Illustrator 24.0.2, SVG Export Plug-In . SVG Version: 6.00 Build 0)  -->
<svg version="1.1" id="off" xmlns="http://www.w3.org/2000/svg" xmlns:xlink="http://www.w3.org/1999/xlink" x="0px" y="0px"
	 viewBox="0 0 70.8 22.7" style="enable-background:new 0 0 70.8 22.7;" xml:space="preserve">
<style type="text/css">
	.st0{fill:#E9762F;}
	.st1{fill:#7382A3;}
	.st2{fill:#A4AAC2;}
	.st3{fill:#FFFFFF;}
	.st4{display:none;fill:#3F3F3F;}
	.st5{fill:#3F3F3F;}
	.st6{fill:none;stroke:#E9762E;stroke-width:0.5941;stroke-miterlimit:10;}
	.st7{clip-path:url(#SVGID_2_);}
	.st8{fill:#727276;}
	.st9{fill:#E9762E;}
	.st10{clip-path:url(#SVGID_6_);}
	.st11{fill:#E9762E;stroke:#E9762E;stroke-width:0.5;stroke-miterlimit:10;}
	.st12{fill:#E9762E;stroke:#E9762E;stroke-width:0.5162;stroke-miterlimit:10;}
	.st13{fill:#E9762E;stroke:#E9762E;stroke-width:0.3135;stroke-miterlimit:10;}
	.st14{fill:#E9762E;stroke:#E9762E;stroke-width:0.3868;stroke-miterlimit:10;}
	.st15{fill:#E9762E;stroke:#E9762E;stroke-width:0.3578;stroke-miterlimit:10;}
	.st16{fill:#E9762E;stroke:#E9762E;stroke-width:0.3826;stroke-miterlimit:10;}
</style>
<path class="st5" d="M59.5,22.7H11.4C5.1,22.7,0,17.6,0,11.4v0C0,5.1,5.1,0,11.4,0l48.1,0c6.3,0,11.4,5.1,11.4,11.4v0
	C70.8,17.6,65.7,22.7,59.5,22.7z"/>
<g>
	<path class="st12" d="M26.7,12.9h-1.7v3.2h-0.5V6.8h2.4c0.7,0.1,1.3,0.4,1.8,0.9c0.6,0.6,0.9,1.3,0.9,2.1c0,0.8-0.3,1.6-0.9,2.1
		c-0.4,0.4-0.9,0.7-1.4,0.8l2.1,3.3h-0.6L26.7,12.9z M24.9,7.3v5h1.6c0.7,0,1.3-0.2,1.8-0.7c0.5-0.5,0.7-1.1,0.7-1.8
		c0-0.7-0.2-1.3-0.7-1.8c-0.5-0.5-1.1-0.7-1.8-0.7H24.9z"/>
	<path class="st12" d="M30.6,12.8c0,0.1,0,0.2,0,0.3c0,0.7,0.3,1.3,0.8,1.9c0.5,0.5,1.1,0.8,1.9,0.8s1.3-0.3,1.9-0.8
		c0.1-0.1,0.2-0.2,0.2-0.3l0.6,0.2c-0.1,0.1-0.2,0.3-0.4,0.5c-0.6,0.6-1.4,0.9-2.3,0.9c-0.9,0-1.6-0.3-2.2-0.9
		c-0.6-0.6-0.9-1.4-0.9-2.2c0-0.9,0.3-1.6,0.9-2.3c0.6-0.6,1.4-0.9,2.2-0.9c0.9,0,1.6,0.3,2.3,0.9c0.5,0.6,0.8,1.2,0.8,2H30.6z
		 M30.7,12.2h5c-0.1-0.4-0.3-0.7-0.6-1c-0.5-0.5-1.1-0.8-1.9-0.8s-1.3,0.3-1.9,0.8C31.1,11.5,30.9,11.9,30.7,12.2z"/>
	<path class="st12" d="M38.7,13c-0.4-0.2-0.7-0.4-0.9-0.6c-0.3-0.3-0.4-0.6-0.4-1s0.1-0.7,0.4-1s0.6-0.4,1-0.4
		c0.4,0,0.7,0.1,0.9,0.4c0.2,0.2,0.4,0.5,0.4,0.8v0l-0.5,0.2c0-0.3-0.1-0.5-0.3-0.7c-0.1-0.1-0.3-0.2-0.6-0.2
		c-0.2,0-0.4,0.1-0.6,0.2s-0.2,0.4-0.2,0.6s0.1,0.4,0.2,0.6c0.1,0.1,0.3,0.2,0.6,0.4c0.5,0.3,0.8,0.5,1.1,0.7
		c0.3,0.3,0.5,0.7,0.5,1.2c0,0.5-0.2,0.9-0.5,1.2c-0.3,0.3-0.7,0.5-1.2,0.5c-0.5,0-0.9-0.2-1.2-0.5c-0.3-0.3-0.5-0.7-0.5-1.1
		l0.5-0.1c0,0.3,0.1,0.6,0.3,0.8s0.5,0.3,0.8,0.3c0.3,0,0.6-0.1,0.8-0.3s0.3-0.5,0.3-0.8c0-0.3-0.1-0.6-0.3-0.8
		C39.3,13.5,39.1,13.3,38.7,13z"/>
	<path class="st12" d="M42.1,10.4V8h0.5v2.4h1.2v0.5h-1.2v5.2h-0.5v-5.2H41v-0.5H42.1z"/>
	<path class="st12" d="M47.7,9.9c0.9,0,1.6,0.3,2.3,0.9s0.9,1.4,0.9,2.3c0,0.9-0.3,1.6-0.9,2.2c-0.6,0.6-1.4,0.9-2.3,0.9
		c-0.9,0-1.6-0.3-2.2-0.9c-0.6-0.6-0.9-1.4-0.9-2.2c0-0.9,0.3-1.6,0.9-2.3C46.1,10.2,46.8,9.9,47.7,9.9z M45.8,11.2
		c-0.5,0.5-0.8,1.1-0.8,1.9c0,0.7,0.3,1.3,0.8,1.9c0.5,0.5,1.1,0.8,1.9,0.8c0.7,0,1.3-0.3,1.9-0.8c0.5-0.5,0.8-1.1,0.8-1.9
		c0-0.7-0.3-1.3-0.8-1.9c-0.5-0.5-1.1-0.8-1.9-0.8C47,10.4,46.3,10.7,45.8,11.2z"/>
	<path class="st12" d="M54,10.9c-0.4,0.1-0.7,0.3-1.1,0.7c-0.4,0.4-0.5,0.8-0.5,1.3v3.3h-0.5v-5.7h0.5v1.2c0.2-0.6,0.7-1,1.3-1.3
		L54,10.9z"/>
	<path class="st12" d="M54.9,12.8c0,0.1,0,0.2,0,0.3c0,0.7,0.3,1.3,0.8,1.9c0.5,0.5,1.1,0.8,1.9,0.8c0.7,0,1.3-0.3,1.9-0.8
		c0.1-0.1,0.2-0.2,0.2-0.3l0.6,0.2c-0.1,0.1-0.2,0.3-0.4,0.5c-0.6,0.6-1.4,0.9-2.3,0.9c-0.9,0-1.6-0.3-2.2-0.9
		c-0.6-0.6-0.9-1.4-0.9-2.2c0-0.9,0.3-1.6,0.9-2.3c0.6-0.6,1.4-0.9,2.2-0.9c0.9,0,1.6,0.3,2.3,0.9c0.5,0.6,0.8,1.2,0.8,2H54.9z
		 M55,12.2h5c-0.1-0.4-0.3-0.7-0.6-1c-0.5-0.5-1.1-0.8-1.9-0.8c-0.7,0-1.3,0.3-1.9,0.8C55.3,11.5,55.1,11.9,55,12.2z"/>
</g>
<g>
	<g>
		<g>
			<path class="st3" d="M18.4,14.1c0.3-0.1,0.5-0.2,0.7-0.4l-0.4-0.6c-0.2,0.1-0.4,0.2-0.6,0.3L18.4,14.1z"/>
			<path class="st3" d="M17.2,7.2c-2,0-3.6,1.6-3.6,3.6c0,1.5,0.9,2.8,2.3,3.3l0.3-0.7c-1.5-0.5-2.2-2.2-1.7-3.6
				c0.5-1.5,2.2-2.2,3.6-1.7c1.1,0.4,1.8,1.4,1.8,2.5l-1-1l-0.5,0.5l1.9,1.9l1.9-1.9l-0.5-0.5l-1,1C20.7,8.7,19.1,7.2,17.2,7.2z"/>
			<path class="st3" d="M16.8,13.6l-0.1,0.7c0.1,0,0.3,0,0.4,0c0.1,0,0.3,0,0.4,0l-0.1-0.7c-0.1,0-0.2,0-0.3,0
				C17.1,13.6,17,13.6,16.8,13.6z"/>
			<path class="st3" d="M19.8,16h-8.6V7.8h2.2V5.5h6.4V7h0.7V4.8h-7.7l-2.5,2.5v9.5h10.1v-4.1h-0.7V16z M12.7,6.1v1h-1L12.7,6.1z"/>
		</g>
	</g>
</g>
</svg>
