<?xml version="1.0" encoding="utf-8"?>
<!-- Generator: Adobe Illustrator 24.0.2, SVG Export Plug-In . SVG Version: 6.00 Build 0)  -->
<svg version="1.1" id="off" xmlns="http://www.w3.org/2000/svg" xmlns:xlink="http://www.w3.org/1999/xlink" x="0px" y="0px"
	 viewBox="0 0 70.8 22.7" style="enable-background:new 0 0 70.8 22.7;" xml:space="preserve">
<style type="text/css">
	.st0{fill:#E9762F;}
	.st1{fill:#7382A3;}
	.st2{fill:#A4AAC2;}
	.st3{fill:#FFFFFF;}
	.st4{display:none;fill:#3F3F3F;}
	.st5{fill:#3F3F3F;}
	.st6{fill:none;stroke:#E9762E;stroke-width:0.5941;stroke-miterlimit:10;}
	.st7{clip-path:url(#SVGID_2_);}
	.st8{fill:#727276;}
	.st9{fill:#E9762E;}
	.st10{clip-path:url(#SVGID_6_);}
	.st11{fill:#E9762E;stroke:#E9762E;stroke-width:0.5;stroke-miterlimit:10;}
	.st12{fill:#E9762E;stroke:#E9762E;stroke-width:0.5162;stroke-miterlimit:10;}
	.st13{fill:#E9762E;stroke:#E9762E;stroke-width:0.3135;stroke-miterlimit:10;}
	.st14{fill:#E9762E;stroke:#E9762E;stroke-width:0.3868;stroke-miterlimit:10;}
	.st15{fill:#E9762E;stroke:#E9762E;stroke-width:0.3578;stroke-miterlimit:10;}
	.st16{fill:#E9762E;stroke:#E9762E;stroke-width:0.3826;stroke-miterlimit:10;}
</style>
<path class="st5" d="M59.5,22.7H11.4C5.1,22.7,0,17.6,0,11.4v0C0,5.1,5.1,0,11.4,0l48.1,0c6.3,0,11.4,5.1,11.4,11.4v0
	C70.8,17.6,65.7,22.7,59.5,22.7z"/>
<g>
	<path class="st12" d="M32.7,12.9h-1.7v3.2h-0.5V6.8h2.4c0.7,0.1,1.3,0.4,1.8,0.9c0.6,0.6,0.9,1.3,0.9,2.1c0,0.8-0.3,1.6-0.9,2.1
		c-0.4,0.4-0.9,0.7-1.4,0.8l2.1,3.3h-0.6L32.7,12.9z M30.9,7.3v5h1.6c0.7,0,1.3-0.2,1.8-0.7c0.5-0.5,0.7-1.1,0.7-1.8
		c0-0.7-0.2-1.3-0.7-1.8c-0.5-0.5-1.1-0.7-1.8-0.7H30.9z"/>
	<path class="st12" d="M39.4,9.9c0.9,0,1.6,0.3,2.3,0.9s0.9,1.4,0.9,2.3c0,0.9-0.3,1.6-0.9,2.2c-0.6,0.6-1.4,0.9-2.3,0.9
		c-0.9,0-1.6-0.3-2.2-0.9c-0.6-0.6-0.9-1.4-0.9-2.2c0-0.9,0.3-1.6,0.9-2.3C37.8,10.2,38.5,9.9,39.4,9.9z M37.5,11.2
		c-0.5,0.5-0.8,1.1-0.8,1.9c0,0.7,0.3,1.3,0.8,1.9c0.5,0.5,1.1,0.8,1.9,0.8c0.7,0,1.3-0.3,1.9-0.8c0.5-0.5,0.8-1.1,0.8-1.9
		c0-0.7-0.3-1.3-0.8-1.9c-0.5-0.5-1.1-0.8-1.9-0.8C38.7,10.4,38,10.7,37.5,11.2z"/>
	<path class="st12" d="M44.3,6.8v9.3h-0.5V6.8H44.3z"/>
	<path class="st12" d="M45.9,12.8c0,0.1,0,0.2,0,0.3c0,0.7,0.3,1.3,0.8,1.9c0.5,0.5,1.1,0.8,1.9,0.8s1.3-0.3,1.9-0.8
		c0.1-0.1,0.2-0.2,0.2-0.3l0.6,0.2c-0.1,0.1-0.2,0.3-0.4,0.5c-0.6,0.6-1.4,0.9-2.3,0.9c-0.9,0-1.6-0.3-2.2-0.9
		c-0.6-0.6-0.9-1.4-0.9-2.2c0-0.9,0.3-1.6,0.9-2.3c0.6-0.6,1.4-0.9,2.2-0.9c0.9,0,1.6,0.3,2.3,0.9c0.5,0.6,0.8,1.2,0.8,2H45.9z
		 M46,12.2h5c-0.1-0.4-0.3-0.7-0.6-1c-0.5-0.5-1.1-0.8-1.9-0.8s-1.3,0.3-1.9,0.8C46.3,11.5,46.1,11.9,46,12.2z"/>
	<path class="st12" d="M53.9,13c-0.4-0.2-0.7-0.4-0.9-0.6c-0.3-0.3-0.4-0.6-0.4-1s0.1-0.7,0.4-1s0.6-0.4,1-0.4
		c0.4,0,0.7,0.1,0.9,0.4c0.2,0.2,0.4,0.5,0.4,0.8v0l-0.5,0.2c0-0.3-0.1-0.5-0.3-0.7c-0.1-0.1-0.3-0.2-0.6-0.2
		c-0.2,0-0.4,0.1-0.6,0.2s-0.2,0.4-0.2,0.6s0.1,0.4,0.2,0.6c0.1,0.1,0.3,0.2,0.6,0.4c0.5,0.3,0.8,0.5,1.1,0.7
		c0.3,0.3,0.5,0.7,0.5,1.2c0,0.5-0.2,0.9-0.5,1.2c-0.3,0.3-0.7,0.5-1.2,0.5c-0.5,0-0.9-0.2-1.2-0.5c-0.3-0.3-0.5-0.7-0.5-1.1
		l0.5-0.1c0,0.3,0.1,0.6,0.3,0.8s0.5,0.3,0.8,0.3c0.3,0,0.6-0.1,0.8-0.3s0.3-0.5,0.3-0.8c0-0.3-0.1-0.6-0.3-0.8
		C54.6,13.5,54.3,13.3,53.9,13z"/>
</g>
<g>
	<path class="st3" d="M27.3,4.7H15.9c-0.1,0-0.2,0.1-0.2,0.2v1h2.8l0.4-0.4h8.7V4.9C27.5,4.8,27.5,4.7,27.3,4.7z M16.5,5.5h-0.4V5.1
		h0.4V5.5z M17.3,5.5h-0.4V5.1h0.4V5.5z M18.1,5.5h-0.4V5.1h0.4V5.5z"/>
	<path class="st3" d="M22.2,10.8c0,0.2,0.2,0.4,0.4,0.4h0.1c0-0.2-0.1-0.4-0.1-0.5v-0.3C22.4,10.4,22.2,10.6,22.2,10.8z"/>
	<path class="st3" d="M25.9,10.7c0,0.2,0,0.4-0.1,0.5h0.1c0.2,0,0.4-0.2,0.4-0.4c0-0.2-0.2-0.4-0.4-0.4V10.7z"/>
	<path class="st3" d="M24.4,13.1L24.4,13.1h-0.2c-0.1,0-0.2-0.1-0.3-0.2V13l0.4,0.8l0.4-0.8v-0.1C24.6,13,24.5,13,24.4,13.1z"/>
	<path class="st3" d="M24.3,12.7c0.7-0.4,1.2-1.1,1.2-1.9v-0.3c-0.3-0.1-0.6-0.2-0.8-0.4l0,0c-0.4,0.3-0.9,0.5-1.5,0.5H23v0.3
		C23,11.5,23.5,12.3,24.3,12.7L24.3,12.7z"/>
	<path class="st3" d="M24,14.3l-0.5-0.9l-0.1,0l0.1,1.2L24,14.3z"/>
	<path class="st3" d="M25.1,13.4L25.1,13.4l-0.5,0.9l0.4,0.3L25.1,13.4z"/>
	<path class="st3" d="M24.5,9.5l0.1-0.1L25,9.6c0.2,0.2,0.6,0.4,0.9,0.4c0.1,0,0.3,0,0.4,0.1V9.4c0-0.4-0.3-0.8-0.7-0.9l-0.1,0
		l0-0.1c-0.3-0.5-0.9-0.7-1.5-0.7c-1,0-1.8,0.8-1.8,1.8v0.5c0.1-0.1,0.3-0.1,0.4-0.1h0.6C23.7,10,24.2,9.8,24.5,9.5L24.5,9.5z"/>
	<path class="st3" d="M18.6,6.3h-3v6.8c0,0.1,0.1,0.2,0.2,0.2h6.3l1.3-0.4v-0.3c-0.3-0.3-0.5-0.6-0.6-0.9h-0.2
		c-0.5,0-0.8-0.4-0.8-0.8V9.6c0-1.2,1-2.3,2.3-2.3c0.7,0,1.3,0.3,1.8,0.8c0.5,0.2,0.9,0.7,0.9,1.2v1.4c0,0.5-0.4,0.8-0.8,0.8h-0.2
		c-0.1,0.4-0.4,0.7-0.6,0.9v0.3l1.3,0.4h1c0.1,0,0.2-0.1,0.2-0.2V5.9H19L18.6,6.3z M27.1,7.6h-1.6V7.2h1.6V7.6z M25.1,6.3h2v0.4h-2
		V6.3z M16.5,12.9h-0.4v-0.4h0.4V12.9z M16.5,12.1h-0.4v-0.4h0.4V12.1z M19.6,7.1c0.3,0.4,0.8,0.6,1.3,0.6h0.5v1.3
		c0,1.5-0.8,2.9-2.2,3.7c-0.2,0.1-0.3,0.1-0.5,0.1c-0.2,0-0.3,0-0.5-0.1c-1.4-0.7-2.2-2.2-2.2-3.7V7.8h0.5c0.5,0,1-0.2,1.3-0.6
		c0.2-0.3,0.5-0.4,0.8-0.4S19.4,6.9,19.6,7.1L19.6,7.1z"/>
	<path class="st3" d="M26.5,13.8l-1-0.3l-0.2,1.8l-1-0.7l-1,0.7l-0.2-1.8l-1,0.3c-0.6,0.2-1,0.7-1,1.4v1.4h0.8v-2h0.4v2h4.1v-2h0.4
		v2h0.8v-1.4C27.5,14.5,27.1,13.9,26.5,13.8L26.5,13.8z M24.5,16.2h-0.4v-0.4h0.4V16.2z M24.5,15.3h-0.4v-0.4h0.4V15.3z"/>
	<path class="st3" d="M18.2,7.4c-0.4,0.5-1,0.8-1.6,0.8h-0.1v0.9c0,1.4,0.8,2.7,2,3.3c0.2,0.1,0.4,0.1,0.6,0
		c1.2-0.7,1.9-1.9,1.9-3.3V8.2h-0.1c-0.6,0-1.2-0.3-1.6-0.8c-0.1-0.2-0.3-0.2-0.5-0.2S18.4,7.2,18.2,7.4z M16.9,9.1V8.6l0.2,0
		c0.4-0.1,0.8-0.3,1.1-0.5l0.3,0.3c-0.3,0.3-0.7,0.5-1.1,0.6v0.2c0,0.2,0,0.5,0.1,0.7L17,9.9C16.9,9.6,16.9,9.4,16.9,9.1L16.9,9.1z
		 M20.4,8.9l0.3,0.3l-2.4,2.4l-1-1l0.3-0.3l0.7,0.7L20.4,8.9z"/>
</g>
</svg>
