<?xml version="1.0" encoding="utf-8"?>
<!-- Generator: Adobe Illustrator 24.0.2, SVG Export Plug-In . SVG Version: 6.00 Build 0)  -->
<svg version="1.1" id="off" xmlns="http://www.w3.org/2000/svg" xmlns:xlink="http://www.w3.org/1999/xlink" x="0px" y="0px"
	 viewBox="0 0 217.2 29.1" style="enable-background:new 0 0 217.2 29.1;" xml:space="preserve">
<style type="text/css">
	.st0{fill:#E9762E;}
	.st1{fill:#E9762F;}
	.st2{fill:#7382A3;}
	.st3{fill:#A4AAC2;}
	.st4{fill:#FFFFFF;}
	.st5{display:none;fill:#3F3F3F;}
	.st6{fill:#3F3F3F;}
	.st7{fill:none;stroke:#E9762E;stroke-width:0.5941;stroke-miterlimit:10;}
	.st8{clip-path:url(#SVGID_2_);}
	.st9{fill:#727276;}
	.st10{clip-path:url(#SVGID_6_);}
	.st11{fill:#E9762E;stroke:#E9762E;stroke-width:0.5;stroke-miterlimit:10;}
	.st12{fill:#E9762E;stroke:#E9762E;stroke-width:0.3868;stroke-miterlimit:10;}
	.st13{fill:#E9762E;stroke:#E9762E;stroke-width:0.5162;stroke-miterlimit:10;}
	.st14{fill:#FFFDFD;}
	.st15{fill:none;stroke:#3F3F3F;stroke-width:2.9348;stroke-miterlimit:10;}
	.st16{fill:#E9762E;stroke:#E9762E;stroke-width:0.75;stroke-miterlimit:10;}
	.st17{fill:#3F3F3F;stroke:#3F3F3F;stroke-width:0.25;stroke-miterlimit:10;}
	.st18{fill:#444444;}
	.st19{fill:#292929;}
	.st20{fill:#FFD400;}
	.st21{fill:#FF9F00;}
	.st22{fill:#6E6E6E;}
	.st23{fill:#E9762E;stroke:#E9762E;stroke-width:0.3995;stroke-miterlimit:10;}
	.st24{fill:none;stroke:#3F3F3F;stroke-width:1.611;stroke-miterlimit:10;}
</style>
<path class="st24" d="M204.8,27.7H11.9c-4.8,0-8.6-3.9-8.6-8.6V10c0-4.8,3.9-8.6,8.6-8.6h192.9c4.8,0,8.6,3.9,8.6,8.6v9.2
	C213.4,23.9,209.6,27.7,204.8,27.7z"/>
<g>
	<path class="st0" d="M47.3,4.3v8.6h-1.1V4.3H47.3z"/>
	<path class="st0" d="M49.7,8.8v4.1h-1.1V7.5h1.1c0.2-0.2,0.6-0.3,1.1-0.3c0.7,0,1.2,0.2,1.7,0.6s0.6,0.9,0.6,1.5v3.6h-1.1V9.4
		c0-0.4-0.1-0.7-0.4-0.9c-0.3-0.2-0.5-0.4-0.9-0.4c-0.3,0-0.6,0.1-0.8,0.3C49.9,8.6,49.8,8.7,49.7,8.8z"/>
	<path class="st0" d="M55.7,10.2c-0.4-0.2-0.7-0.4-0.8-0.6c-0.3-0.3-0.4-0.6-0.4-1c0-0.4,0.1-0.7,0.4-1s0.6-0.4,1.1-0.4
		c0.4,0,0.8,0.1,1,0.4c0.3,0.3,0.4,0.6,0.4,0.9v0.2l-1,0.4c-0.1-0.4-0.1-0.7-0.2-0.8S56.1,8.1,56,8.1c-0.1,0-0.2,0-0.3,0.1
		c-0.1,0.1-0.1,0.2-0.1,0.4s0.1,0.3,0.2,0.4c0.1,0.1,0.2,0.2,0.5,0.3c0.4,0.2,0.8,0.5,1,0.7c0.3,0.3,0.5,0.7,0.5,1.2
		c0,0.5-0.2,0.9-0.5,1.2c-0.3,0.3-0.8,0.5-1.3,0.5s-0.9-0.2-1.3-0.5s-0.5-0.8-0.5-1.3l1.1-0.3c0,0.5,0.1,0.8,0.2,0.9
		s0.3,0.2,0.5,0.2s0.3-0.1,0.5-0.2s0.2-0.3,0.2-0.6c0-0.2-0.1-0.4-0.2-0.6C56.2,10.5,56,10.4,55.7,10.2z"/>
	<path class="st0" d="M59.3,7.5V5.3h1.1v2.1h1v0.9h-1v4.5h-1.1V8.4h-1V7.5H59.3z"/>
	<path class="st0" d="M64.6,8.3c-0.5,0.1-0.9,0.3-1.1,0.6c-0.3,0.3-0.4,0.7-0.4,1.2v2.9H62V7.5h1.1v0.8c0.2-0.4,0.5-0.7,1-0.9
		L64.6,8.3z"/>
	<path class="st0" d="M67.8,13c-0.7,0-1.3-0.2-1.7-0.6c-0.4-0.4-0.6-0.9-0.6-1.5V7.5h1.1v3.3c0,0.4,0.1,0.7,0.4,0.9
		c0.2,0.2,0.5,0.4,0.9,0.4c0.3,0,0.6-0.1,0.8-0.4c0.2-0.2,0.4-0.6,0.4-0.9V7.5h1.1v3.3c0,0.6-0.2,1.1-0.7,1.6
		C69,12.8,68.5,13,67.8,13z"/>
	<path class="st0" d="M75.7,11.2l1,0.4c-0.2,0.3-0.4,0.5-0.5,0.6C75.6,12.7,74.9,13,74,13c-0.9,0-1.6-0.3-2.2-0.9
		c-0.6-0.6-0.9-1.3-0.9-2.1c0-0.8,0.3-1.5,0.9-2.1C72.4,7.3,73.1,7,74,7c0.9,0,1.6,0.3,2.2,0.9c0.1,0.1,0.3,0.3,0.5,0.6l-1,0.4
		c-0.1-0.2-0.2-0.3-0.3-0.4C75,8.2,74.5,8,74,8c-0.5,0-1,0.2-1.4,0.6C72.2,8.9,72,9.4,72,10c0,0.6,0.2,1.1,0.6,1.5
		c0.4,0.4,0.9,0.6,1.4,0.6c0.5,0,1-0.2,1.4-0.6C75.4,11.4,75.5,11.3,75.7,11.2z"/>
	<path class="st0" d="M82,11.2l1,0.4c-0.2,0.3-0.4,0.5-0.5,0.6C82,12.7,81.2,13,80.4,13c-0.9,0-1.6-0.3-2.2-0.9
		c-0.6-0.6-0.9-1.3-0.9-2.1c0-0.8,0.3-1.5,0.9-2.1C78.8,7.3,79.5,7,80.4,7c0.9,0,1.6,0.3,2.2,0.9c0.1,0.1,0.3,0.3,0.5,0.6l-1,0.4
		c-0.1-0.2-0.2-0.3-0.3-0.4C81.4,8.2,80.9,8,80.4,8c-0.5,0-1,0.2-1.4,0.6c-0.4,0.4-0.6,0.9-0.6,1.5c0,0.6,0.2,1.1,0.6,1.5
		c0.4,0.4,0.9,0.6,1.4,0.6c0.5,0,1-0.2,1.4-0.6C81.8,11.4,81.9,11.3,82,11.2z"/>
	<path class="st0" d="M85.2,5.9c0.1,0.1,0.2,0.3,0.2,0.5c0,0.2-0.1,0.3-0.2,0.5s-0.3,0.2-0.5,0.2c-0.2,0-0.4-0.1-0.6-0.2
		s-0.2-0.3-0.2-0.5c0-0.2,0.1-0.3,0.2-0.5s0.3-0.2,0.6-0.2C84.8,5.7,85,5.8,85.2,5.9z M85.1,7.5v5.4h-1.1V7.5H85.1z"/>
	<path class="st0" d="M89.3,7c0.9,0,1.6,0.3,2.2,0.9s0.9,1.3,0.9,2.1c0,0.8-0.3,1.5-0.9,2.1c-0.6,0.6-1.3,0.9-2.2,0.9
		c-0.9,0-1.6-0.3-2.2-0.9c-0.6-0.6-0.9-1.3-0.9-2.1c0-0.8,0.3-1.5,0.9-2.1C87.8,7.3,88.5,7,89.3,7z M88,8.6C87.6,9,87.4,9.4,87.4,10
		c0,0.6,0.2,1.1,0.6,1.5c0.4,0.4,0.9,0.6,1.4,0.6c0.5,0,1-0.2,1.4-0.6c0.4-0.4,0.6-0.9,0.6-1.5c0-0.6-0.2-1.1-0.6-1.5
		C90.3,8.2,89.9,8,89.3,8C88.8,8,88.3,8.2,88,8.6z"/>
	<path class="st0" d="M94.5,8.8v4.1h-1.1V7.5h1.1c0.2-0.2,0.6-0.3,1.1-0.3c0.7,0,1.2,0.2,1.7,0.6s0.6,0.9,0.6,1.5v3.6h-1.1V9.4
		c0-0.4-0.1-0.7-0.4-0.9c-0.3-0.2-0.5-0.4-0.9-0.4c-0.3,0-0.6,0.1-0.8,0.3C94.7,8.6,94.6,8.7,94.5,8.8z"/>
	<path class="st0" d="M99.9,10L99.9,10c0,0.6,0.2,1.1,0.6,1.5c0.4,0.4,0.9,0.6,1.4,0.6c0.5,0,1-0.2,1.4-0.6c0.1-0.1,0.2-0.2,0.3-0.4
		l1,0.4c-0.2,0.3-0.3,0.5-0.5,0.7c-0.6,0.6-1.3,0.9-2.2,0.9c-0.9,0-1.6-0.3-2.2-0.9c-0.6-0.6-0.9-1.3-0.9-2.1c0-0.8,0.3-1.5,0.9-2.1
		c0.6-0.6,1.3-0.9,2.2-0.9c0.9,0,1.6,0.3,2.2,0.9c0.5,0.5,0.8,1.2,0.8,2.1H99.9z M100.1,9.1h3.6c-0.3-0.7-0.8-1.1-1.8-1.1
		C101,8,100.4,8.3,100.1,9.1z"/>
	<path class="st0" d="M107.1,10.2c-0.4-0.2-0.7-0.4-0.8-0.6c-0.3-0.3-0.4-0.6-0.4-1c0-0.4,0.1-0.7,0.4-1s0.6-0.4,1.1-0.4
		c0.4,0,0.8,0.1,1,0.4c0.3,0.3,0.4,0.6,0.4,0.9v0.2l-1,0.4c-0.1-0.4-0.1-0.7-0.2-0.8s-0.2-0.1-0.3-0.1c-0.1,0-0.2,0-0.3,0.1
		c-0.1,0.1-0.1,0.2-0.1,0.4s0.1,0.3,0.2,0.4c0.1,0.1,0.2,0.2,0.5,0.3c0.4,0.2,0.8,0.5,1,0.7c0.3,0.3,0.5,0.7,0.5,1.2
		c0,0.5-0.2,0.9-0.5,1.2s-0.8,0.5-1.3,0.5s-0.9-0.2-1.3-0.5s-0.5-0.8-0.5-1.3l1.1-0.3c0,0.5,0.1,0.8,0.2,0.9s0.3,0.2,0.5,0.2
		s0.3-0.1,0.5-0.2s0.2-0.3,0.2-0.6c0-0.2-0.1-0.4-0.2-0.6C107.6,10.5,107.4,10.4,107.1,10.2z"/>
	<path class="st0" d="M119,12.9h-1.1v-1c-0.4,0.7-1.1,1.1-1.9,1.1c-0.9,0-1.6-0.3-2.2-0.9c-0.6-0.6-0.9-1.3-0.9-2.1
		c0-0.8,0.3-1.5,0.9-2.1c0.6-0.6,1.3-0.9,2.2-0.9c0.9,0,1.5,0.4,1.9,1.1V4.3h1.1V12.9z M117.9,10.5V9.6c-0.1-0.4-0.3-0.7-0.5-1
		C117,8.2,116.5,8,116,8c-0.5,0-1,0.2-1.4,0.6C114.2,9,114,9.4,114,10c0,0.6,0.2,1.1,0.6,1.5c0.4,0.4,0.9,0.6,1.4,0.6
		c0.5,0,1-0.2,1.4-0.6C117.6,11.2,117.8,10.8,117.9,10.5z"/>
	<path class="st0" d="M120.9,10L120.9,10c0,0.6,0.2,1.1,0.6,1.5c0.4,0.4,0.9,0.6,1.4,0.6c0.5,0,1-0.2,1.4-0.6
		c0.1-0.1,0.2-0.2,0.3-0.4l1,0.4c-0.2,0.3-0.3,0.5-0.5,0.7c-0.6,0.6-1.3,0.9-2.2,0.9c-0.9,0-1.6-0.3-2.2-0.9
		c-0.6-0.6-0.9-1.3-0.9-2.1c0-0.8,0.3-1.5,0.9-2.1c0.6-0.6,1.3-0.9,2.2-0.9c0.9,0,1.6,0.3,2.2,0.9c0.5,0.5,0.8,1.2,0.8,2.1H120.9z
		 M121.1,9.1h3.6c-0.3-0.7-0.8-1.1-1.8-1.1C122,8,121.4,8.3,121.1,9.1z"/>
	<path class="st0" d="M130.8,10.1v2.8h-1.1V4.3h2.4c0.7,0.1,1.3,0.4,1.8,0.9c0.6,0.6,0.8,1.2,0.8,2c0,0.8-0.3,1.5-0.8,2
		s-1.3,0.9-2.1,0.9H130.8z M130.8,5.3v3.9h1.1c0.5,0,0.9-0.2,1.3-0.6c0.4-0.4,0.6-0.8,0.6-1.4c0-0.6-0.2-1-0.6-1.4
		c-0.4-0.4-0.8-0.6-1.3-0.6H130.8z"/>
	<path class="st0" d="M136.1,10L136.1,10c0,0.6,0.2,1.1,0.6,1.5c0.4,0.4,0.9,0.6,1.4,0.6c0.5,0,1-0.2,1.4-0.6
		c0.1-0.1,0.2-0.2,0.3-0.4l1,0.4c-0.2,0.3-0.3,0.5-0.5,0.7c-0.6,0.6-1.3,0.9-2.2,0.9c-0.9,0-1.6-0.3-2.2-0.9
		c-0.6-0.6-0.9-1.3-0.9-2.1c0-0.8,0.3-1.5,0.9-2.1c0.6-0.6,1.3-0.9,2.2-0.9c0.9,0,1.6,0.3,2.2,0.9c0.5,0.5,0.8,1.2,0.8,2.1H136.1z
		 M136.3,9.1h3.6C139.6,8.3,139,8,138.1,8C137.1,8,136.6,8.3,136.3,9.1z"/>
	<path class="st0" d="M144.4,8.3c-0.5,0.1-0.9,0.3-1.1,0.6c-0.3,0.3-0.4,0.7-0.4,1.2v2.9h-1.1V7.5h1.1v0.8c0.2-0.4,0.5-0.7,1-0.9
		L144.4,8.3z"/>
	<path class="st0" d="M146.3,8.4v4.5h-1.1V7.5h0.7c0.3-0.2,0.7-0.3,1.1-0.3c0.5,0,0.9,0.1,1.3,0.4c0.3-0.3,0.7-0.4,1.2-0.4
		s0.9,0.2,1.3,0.5c0.3,0.3,0.5,0.7,0.5,1.1v4.1h-1.1V8.6c0-0.3-0.3-0.5-0.7-0.5c-0.3,0-0.6,0.2-0.7,0.5v4.3h-1.1V8.6h0
		c0-0.3-0.3-0.5-0.7-0.5C146.7,8.1,146.5,8.2,146.3,8.4z"/>
	<path class="st0" d="M153.7,5.9c0.1,0.1,0.2,0.3,0.2,0.5c0,0.2-0.1,0.3-0.2,0.5s-0.3,0.2-0.5,0.2c-0.2,0-0.4-0.1-0.6-0.2
		s-0.2-0.3-0.2-0.5c0-0.2,0.1-0.3,0.2-0.5s0.3-0.2,0.6-0.2C153.3,5.7,153.5,5.8,153.7,5.9z M153.6,7.5v5.4h-1.1V7.5H153.6z"/>
	<path class="st0" d="M156.3,10.2c-0.4-0.2-0.7-0.4-0.8-0.6c-0.3-0.3-0.4-0.6-0.4-1c0-0.4,0.1-0.7,0.4-1s0.6-0.4,1.1-0.4
		c0.4,0,0.8,0.1,1,0.4c0.3,0.3,0.4,0.6,0.4,0.9v0.2L157,9c-0.1-0.4-0.1-0.7-0.2-0.8s-0.2-0.1-0.3-0.1c-0.1,0-0.2,0-0.3,0.1
		c-0.1,0.1-0.1,0.2-0.1,0.4s0.1,0.3,0.2,0.4c0.1,0.1,0.2,0.2,0.5,0.3c0.4,0.2,0.8,0.5,1,0.7c0.3,0.3,0.5,0.7,0.5,1.2
		c0,0.5-0.2,0.9-0.5,1.2s-0.8,0.5-1.3,0.5s-0.9-0.2-1.3-0.5s-0.5-0.8-0.5-1.3l1.1-0.3c0,0.5,0.1,0.8,0.2,0.9s0.3,0.2,0.5,0.2
		s0.3-0.1,0.5-0.2s0.2-0.3,0.2-0.6c0-0.2-0.1-0.4-0.2-0.6C156.8,10.5,156.6,10.4,156.3,10.2z"/>
	<path class="st0" d="M162.2,7c0.9,0,1.6,0.3,2.2,0.9s0.9,1.3,0.9,2.1c0,0.8-0.3,1.5-0.9,2.1c-0.6,0.6-1.3,0.9-2.2,0.9
		c-0.9,0-1.6-0.3-2.2-0.9c-0.6-0.6-0.9-1.3-0.9-2.1c0-0.8,0.3-1.5,0.9-2.1C160.6,7.3,161.3,7,162.2,7z M160.8,8.6
		c-0.4,0.4-0.6,0.9-0.6,1.5c0,0.6,0.2,1.1,0.6,1.5c0.4,0.4,0.9,0.6,1.4,0.6c0.5,0,1-0.2,1.4-0.6c0.4-0.4,0.6-0.9,0.6-1.5
		c0-0.6-0.2-1.1-0.6-1.5c-0.4-0.4-0.9-0.6-1.4-0.6C161.6,8,161.2,8.2,160.8,8.6z"/>
	<path class="st0" d="M167.7,10.2c-0.4-0.2-0.7-0.4-0.8-0.6c-0.3-0.3-0.4-0.6-0.4-1c0-0.4,0.1-0.7,0.4-1s0.6-0.4,1.1-0.4
		c0.4,0,0.8,0.1,1,0.4c0.3,0.3,0.4,0.6,0.4,0.9v0.2l-1,0.4c-0.1-0.4-0.1-0.7-0.2-0.8s-0.2-0.1-0.3-0.1c-0.1,0-0.2,0-0.3,0.1
		c-0.1,0.1-0.1,0.2-0.1,0.4s0.1,0.3,0.2,0.4c0.1,0.1,0.2,0.2,0.5,0.3c0.4,0.2,0.8,0.5,1,0.7c0.3,0.3,0.5,0.7,0.5,1.2
		c0,0.5-0.2,0.9-0.5,1.2s-0.8,0.5-1.3,0.5s-0.9-0.2-1.3-0.5s-0.5-0.8-0.5-1.3l1.1-0.3c0,0.5,0.1,0.8,0.2,0.9s0.3,0.2,0.5,0.2
		s0.3-0.1,0.5-0.2s0.2-0.3,0.2-0.6c0-0.2-0.1-0.4-0.2-0.6C168.2,10.5,168,10.4,167.7,10.2z"/>
	<path class="st0" d="M171.6,8.3c0.1,0.1,0.2,0.3,0.2,0.5c0,0.2-0.1,0.3-0.2,0.5s-0.3,0.2-0.5,0.2c-0.2,0-0.4-0.1-0.6-0.2
		s-0.2-0.3-0.2-0.5c0-0.2,0.1-0.3,0.2-0.5s0.3-0.2,0.6-0.2C171.3,8.1,171.5,8.1,171.6,8.3z M171.6,11.8c0.1,0.1,0.2,0.3,0.2,0.5
		c0,0.2-0.1,0.3-0.2,0.5s-0.3,0.2-0.5,0.2c-0.2,0-0.4-0.1-0.6-0.2s-0.2-0.3-0.2-0.5c0-0.2,0.1-0.3,0.2-0.5s0.3-0.2,0.6-0.2
		C171.3,11.6,171.5,11.7,171.6,11.8z"/>
</g>
<g>
	<g>
		<path class="st0" d="M51.8,22.3v2.2h-0.8v-6.7h1.9c0.6,0.1,1,0.3,1.4,0.7c0.4,0.4,0.7,1,0.7,1.6c0,0.6-0.2,1.1-0.7,1.6
			c-0.4,0.4-1,0.7-1.6,0.7H51.8z M51.8,18.5v3h0.8c0.4,0,0.7-0.1,1-0.4c0.3-0.3,0.4-0.7,0.4-1.1c0-0.4-0.1-0.8-0.4-1.1
			c-0.3-0.3-0.6-0.4-1-0.4H51.8z"/>
		<path class="st0" d="M56.4,22.2L56.4,22.2c0,0.5,0.2,0.8,0.5,1.2c0.3,0.3,0.7,0.5,1.1,0.5c0.4,0,0.8-0.2,1.1-0.5
			c0,0,0.1-0.1,0.3-0.3l0.8,0.3c-0.1,0.2-0.3,0.4-0.4,0.5c-0.5,0.5-1.1,0.7-1.7,0.7c-0.7,0-1.2-0.2-1.7-0.7c-0.5-0.5-0.7-1-0.7-1.7
			c0-0.6,0.2-1.2,0.7-1.7c0.5-0.5,1-0.7,1.7-0.7c0.7,0,1.3,0.2,1.7,0.7c0.4,0.4,0.6,1,0.6,1.6H56.4z M56.5,21.5h2.8
			c-0.2-0.6-0.7-0.9-1.4-0.9C57.2,20.6,56.7,20.9,56.5,21.5z"/>
		<path class="st0" d="M63.3,20.8c-0.4,0.1-0.7,0.2-0.9,0.5c-0.2,0.2-0.3,0.6-0.3,0.9v2.2h-0.8v-4.3h0.8v0.6
			c0.1-0.3,0.4-0.6,0.8-0.7L63.3,20.8z"/>
		<path class="st0" d="M65.4,21v3.5h-0.8v-4.3h0.5c0.2-0.2,0.5-0.2,0.9-0.2c0.4,0,0.7,0.1,1,0.3c0.3-0.2,0.6-0.3,1-0.3
			c0.4,0,0.7,0.1,1,0.4c0.2,0.3,0.4,0.5,0.4,0.9v3.2h-0.8v-3.4c0-0.3-0.2-0.4-0.6-0.4c-0.3,0-0.5,0.1-0.6,0.4v3.4h-0.8v-3.4h0
			c0-0.3-0.2-0.4-0.5-0.4C65.7,20.7,65.5,20.8,65.4,21z"/>
		<path class="st0" d="M71.6,19c0.1,0.1,0.2,0.2,0.2,0.4c0,0.1-0.1,0.3-0.2,0.4c-0.1,0.1-0.3,0.2-0.4,0.2c-0.2,0-0.3-0.1-0.4-0.2
			c-0.1-0.1-0.2-0.2-0.2-0.4c0-0.1,0.1-0.3,0.2-0.4s0.3-0.2,0.4-0.2C71.4,18.8,71.5,18.9,71.6,19z M71.6,20.2v4.3h-0.8v-4.3H71.6z"
			/>
		<path class="st0" d="M73.6,20.2v-1.7h0.8v1.7h0.8v0.7h-0.8v3.5h-0.8v-3.5h-0.8v-0.7H73.6z"/>
		<path class="st0" d="M77.2,19c0.1,0.1,0.2,0.2,0.2,0.4c0,0.1-0.1,0.3-0.2,0.4c-0.1,0.1-0.3,0.2-0.4,0.2c-0.2,0-0.3-0.1-0.4-0.2
			c-0.1-0.1-0.2-0.2-0.2-0.4c0-0.1,0.1-0.3,0.2-0.4s0.3-0.2,0.4-0.2C77,18.8,77.1,18.9,77.2,19z M77.2,20.2v4.3h-0.8v-4.3H77.2z"/>
		<path class="st0" d="M80.7,20.8c-0.4,0.1-0.7,0.2-0.9,0.5c-0.2,0.2-0.3,0.6-0.3,0.9v2.2h-0.8v-4.3h0.8v0.6
			c0.1-0.3,0.4-0.6,0.8-0.7L80.7,20.8z"/>
		<path class="st0" d="M82.7,20.8c0.1,0.1,0.2,0.2,0.2,0.4c0,0.1-0.1,0.3-0.2,0.4s-0.3,0.2-0.4,0.2c-0.2,0-0.3-0.1-0.4-0.2
			c-0.1-0.1-0.2-0.2-0.2-0.4c0-0.1,0.1-0.3,0.2-0.4c0.1-0.1,0.3-0.2,0.4-0.2C82.4,20.7,82.6,20.7,82.7,20.8z M82.7,23.6
			c0.1,0.1,0.2,0.2,0.2,0.4c0,0.1-0.1,0.3-0.2,0.4c-0.1,0.1-0.3,0.2-0.4,0.2c-0.2,0-0.3-0.1-0.4-0.2c-0.1-0.1-0.2-0.2-0.2-0.4
			c0-0.1,0.1-0.3,0.2-0.4c0.1-0.1,0.3-0.2,0.4-0.2C82.4,23.4,82.6,23.5,82.7,23.6z"/>
		<path class="st6" d="M88.6,23.7v-4.6l-0.4,0.3L87.6,19l1.9-1.4v6.1h1.4v0.7h-3.6v-0.7H88.6z"/>
	</g>
</g>
<g>
	<g>
		<path class="st0" d="M99.7,17.7l3.8,5.4v-5.4h0.8v6.7h-0.9l-3.7-5.2v5.2h-0.8v-6.7H99.7z"/>
		<path class="st0" d="M108.1,19.9c0.7,0,1.3,0.2,1.7,0.7c0.5,0.5,0.7,1,0.7,1.7c0,0.6-0.2,1.2-0.7,1.7s-1,0.7-1.7,0.7
			c-0.7,0-1.2-0.2-1.7-0.7s-0.7-1-0.7-1.7c0-0.6,0.2-1.2,0.7-1.7C106.9,20.1,107.4,19.9,108.1,19.9z M107,21.1
			c-0.3,0.3-0.5,0.7-0.5,1.2c0,0.5,0.2,0.8,0.5,1.1s0.7,0.5,1.1,0.5c0.4,0,0.8-0.2,1.1-0.5c0.3-0.3,0.5-0.7,0.5-1.1
			c0-0.5-0.2-0.8-0.5-1.2c-0.3-0.3-0.7-0.5-1.1-0.5C107.7,20.6,107.3,20.8,107,21.1z"/>
		<path class="st0" d="M115.6,22.3v2.2h-0.8v-6.7h1.9c0.6,0.1,1,0.3,1.4,0.7c0.4,0.4,0.7,1,0.7,1.6c0,0.6-0.2,1.1-0.7,1.6
			s-1,0.7-1.6,0.7H115.6z M115.6,18.5v3h0.8c0.4,0,0.7-0.1,1-0.4c0.3-0.3,0.4-0.7,0.4-1.1c0-0.4-0.1-0.8-0.4-1.1
			c-0.3-0.3-0.6-0.4-1-0.4H115.6z"/>
		<path class="st0" d="M120.2,22.2L120.2,22.2c0,0.5,0.2,0.8,0.5,1.2c0.3,0.3,0.7,0.5,1.1,0.5c0.4,0,0.8-0.2,1.1-0.5
			c0,0,0.1-0.1,0.3-0.3l0.8,0.3c-0.1,0.2-0.3,0.4-0.4,0.5c-0.5,0.5-1.1,0.7-1.7,0.7c-0.7,0-1.2-0.2-1.7-0.7s-0.7-1-0.7-1.7
			c0-0.6,0.2-1.2,0.7-1.7c0.5-0.5,1-0.7,1.7-0.7c0.7,0,1.3,0.2,1.7,0.7c0.4,0.4,0.6,1,0.6,1.6H120.2z M120.3,21.5h2.8
			c-0.2-0.6-0.7-0.9-1.4-0.9C121,20.6,120.5,20.9,120.3,21.5z"/>
		<path class="st0" d="M127.1,20.8c-0.4,0.1-0.7,0.2-0.9,0.5c-0.2,0.2-0.3,0.6-0.3,0.9v2.2h-0.8v-4.3h0.8v0.6
			c0.1-0.3,0.4-0.6,0.8-0.7L127.1,20.8z"/>
		<path class="st0" d="M129.2,21v3.5h-0.8v-4.3h0.5c0.2-0.2,0.5-0.2,0.9-0.2c0.4,0,0.7,0.1,1,0.3c0.3-0.2,0.6-0.3,1-0.3
			c0.4,0,0.7,0.1,1,0.4c0.2,0.3,0.4,0.5,0.4,0.9v3.2h-0.8v-3.4c0-0.3-0.2-0.4-0.6-0.4c-0.3,0-0.5,0.1-0.6,0.4v3.4h-0.8v-3.4h0
			c0-0.3-0.2-0.4-0.5-0.4C129.5,20.7,129.3,20.8,129.2,21z"/>
		<path class="st0" d="M135.4,19c0.1,0.1,0.2,0.2,0.2,0.4c0,0.1-0.1,0.3-0.2,0.4c-0.1,0.1-0.3,0.2-0.4,0.2c-0.2,0-0.3-0.1-0.4-0.2
			c-0.1-0.1-0.2-0.2-0.2-0.4c0-0.1,0.1-0.3,0.2-0.4s0.3-0.2,0.4-0.2C135.2,18.8,135.3,18.9,135.4,19z M135.4,20.2v4.3h-0.8v-4.3
			H135.4z"/>
		<path class="st0" d="M138.9,20.8c-0.4,0.1-0.7,0.2-0.9,0.5c-0.2,0.2-0.3,0.6-0.3,0.9v2.2h-0.8v-4.3h0.8v0.6
			c0.1-0.3,0.4-0.6,0.8-0.7L138.9,20.8z"/>
		<path class="st0" d="M140.5,20.2v-1.7h0.8v1.7h0.8v0.7h-0.8v3.5h-0.8v-3.5h-0.8v-0.7H140.5z"/>
		<path class="st0" d="M144.2,19c0.1,0.1,0.2,0.2,0.2,0.4c0,0.1-0.1,0.3-0.2,0.4c-0.1,0.1-0.3,0.2-0.4,0.2c-0.2,0-0.3-0.1-0.4-0.2
			c-0.1-0.1-0.2-0.2-0.2-0.4c0-0.1,0.1-0.3,0.2-0.4s0.3-0.2,0.4-0.2C143.9,18.8,144.1,18.9,144.2,19z M144.2,20.2v4.3h-0.8v-4.3
			H144.2z"/>
		<path class="st0" d="M147.6,20.8c-0.4,0.1-0.7,0.2-0.9,0.5c-0.2,0.2-0.3,0.6-0.3,0.9v2.2h-0.8v-4.3h0.8v0.6
			c0.1-0.3,0.4-0.6,0.8-0.7L147.6,20.8z"/>
		<path class="st0" d="M149.6,20.8c0.1,0.1,0.2,0.2,0.2,0.4c0,0.1-0.1,0.3-0.2,0.4s-0.3,0.2-0.4,0.2c-0.2,0-0.3-0.1-0.4-0.2
			c-0.1-0.1-0.2-0.2-0.2-0.4c0-0.1,0.1-0.3,0.2-0.4c0.1-0.1,0.3-0.2,0.4-0.2C149.4,20.7,149.5,20.7,149.6,20.8z M149.6,23.6
			c0.1,0.1,0.2,0.2,0.2,0.4c0,0.1-0.1,0.3-0.2,0.4c-0.1,0.1-0.3,0.2-0.4,0.2c-0.2,0-0.3-0.1-0.4-0.2c-0.1-0.1-0.2-0.2-0.2-0.4
			c0-0.1,0.1-0.3,0.2-0.4c0.1-0.1,0.3-0.2,0.4-0.2C149.4,23.4,149.5,23.5,149.6,23.6z"/>
		<path class="st6" d="M158.3,21.2c0,1-0.2,1.8-0.7,2.5s-1,0.9-1.7,0.9c-0.7,0-1.3-0.3-1.7-0.9s-0.7-1.4-0.7-2.5
			c0-1,0.2-1.8,0.7-2.4s1-0.9,1.7-0.9c0.7,0,1.2,0.3,1.7,0.9S158.3,20.2,158.3,21.2z M157.5,21.2c0-0.9-0.2-1.5-0.5-2
			c-0.3-0.4-0.7-0.7-1.1-0.7c-0.4,0-0.8,0.2-1.1,0.7c-0.3,0.4-0.5,1.1-0.5,2c0,0.9,0.2,1.5,0.5,2s0.7,0.7,1.1,0.7
			c0.4,0,0.7-0.2,1.1-0.7C157.3,22.7,157.5,22.1,157.5,21.2z"/>
	</g>
</g>
</svg>
