<?xml version="1.0" encoding="utf-8"?>
<!-- Generator: Adobe Illustrator 24.0.2, SVG Export Plug-In . SVG Version: 6.00 Build 0)  -->
<svg version="1.1" id="off" xmlns="http://www.w3.org/2000/svg" xmlns:xlink="http://www.w3.org/1999/xlink" x="0px" y="0px"
	 viewBox="0 0 217.2 29.1" style="enable-background:new 0 0 217.2 29.1;" xml:space="preserve">
<style type="text/css">
	.st0{fill:#E9762E;}
	.st1{fill:#E9762F;}
	.st2{fill:#7382A3;}
	.st3{fill:#A4AAC2;}
	.st4{fill:#FFFFFF;}
	.st5{display:none;fill:#3F3F3F;}
	.st6{fill:#3F3F3F;}
	.st7{fill:none;stroke:#E9762E;stroke-width:0.5941;stroke-miterlimit:10;}
	.st8{clip-path:url(#SVGID_2_);}
	.st9{fill:#727276;}
	.st10{clip-path:url(#SVGID_6_);}
	.st11{fill:#E9762E;stroke:#E9762E;stroke-width:0.5;stroke-miterlimit:10;}
	.st12{fill:#E9762E;stroke:#E9762E;stroke-width:0.3868;stroke-miterlimit:10;}
	.st13{fill:#E9762E;stroke:#E9762E;stroke-width:0.5162;stroke-miterlimit:10;}
	.st14{fill:#FFFDFD;}
	.st15{fill:none;stroke:#3F3F3F;stroke-width:2.9348;stroke-miterlimit:10;}
	.st16{fill:#E9762E;stroke:#E9762E;stroke-width:0.75;stroke-miterlimit:10;}
	.st17{fill:#3F3F3F;stroke:#3F3F3F;stroke-width:0.25;stroke-miterlimit:10;}
	.st18{fill:#444444;}
	.st19{fill:#292929;}
	.st20{fill:#FFD400;}
	.st21{fill:#FF9F00;}
	.st22{fill:#6E6E6E;}
	.st23{fill:#E9762E;stroke:#E9762E;stroke-width:0.3995;stroke-miterlimit:10;}
	.st24{fill:none;stroke:#3F3F3F;stroke-width:1.611;stroke-miterlimit:10;}
</style>
<path class="st24" d="M204.8,27.7H11.9c-4.8,0-8.6-3.9-8.6-8.6V10c0-4.8,3.9-8.6,8.6-8.6h192.9c4.8,0,8.6,3.9,8.6,8.6v9.2
	C213.4,23.9,209.6,27.7,204.8,27.7z"/>
<g>
	<path class="st0" d="M47,5.9v8.6h-1.1V5.9H47z"/>
	<path class="st0" d="M49.4,10.4v4.1h-1.1V9h1.1c0.2-0.2,0.6-0.3,1.1-0.3c0.7,0,1.2,0.2,1.7,0.6s0.6,0.9,0.6,1.5v3.6h-1.1v-3.5
		c0-0.4-0.1-0.7-0.4-0.9c-0.3-0.2-0.5-0.4-0.9-0.4c-0.3,0-0.6,0.1-0.8,0.3C49.5,10.1,49.4,10.2,49.4,10.4z"/>
	<path class="st0" d="M55.4,11.7c-0.4-0.2-0.7-0.4-0.8-0.6c-0.3-0.3-0.4-0.6-0.4-1c0-0.4,0.1-0.7,0.4-1s0.6-0.4,1.1-0.4
		c0.4,0,0.8,0.1,1,0.4C56.9,9.4,57,9.7,57,10v0.2l-1,0.4c-0.1-0.4-0.1-0.7-0.2-0.8s-0.2-0.1-0.3-0.1c-0.1,0-0.2,0-0.3,0.1
		c-0.1,0.1-0.1,0.2-0.1,0.4s0.1,0.3,0.2,0.4c0.1,0.1,0.2,0.2,0.5,0.3c0.4,0.2,0.8,0.5,1,0.7c0.3,0.3,0.5,0.7,0.5,1.2
		c0,0.5-0.2,0.9-0.5,1.2s-0.8,0.5-1.3,0.5s-0.9-0.2-1.3-0.5s-0.5-0.8-0.5-1.3l1.1-0.3c0,0.5,0.1,0.8,0.2,0.9s0.3,0.2,0.5,0.2
		s0.3-0.1,0.5-0.2s0.2-0.3,0.2-0.6c0-0.2-0.1-0.4-0.2-0.6C55.9,12,55.7,11.9,55.4,11.7z"/>
	<path class="st0" d="M58.9,9V6.9H60V9h1v0.9h-1v4.5h-1.1V9.9h-1V9H58.9z"/>
	<path class="st0" d="M64.2,9.8c-0.5,0.1-0.9,0.3-1.1,0.6c-0.3,0.3-0.4,0.7-0.4,1.2v2.9h-1.1V9h1.1v0.8c0.2-0.4,0.5-0.7,1-0.9
		L64.2,9.8z"/>
	<path class="st0" d="M67.4,14.5c-0.7,0-1.3-0.2-1.7-0.6c-0.4-0.4-0.6-0.9-0.6-1.5V9h1.1v3.3c0,0.4,0.1,0.7,0.4,0.9
		c0.2,0.2,0.5,0.4,0.9,0.4c0.3,0,0.6-0.1,0.8-0.4c0.2-0.2,0.4-0.6,0.4-0.9V9h1.1v3.3c0,0.6-0.2,1.1-0.7,1.6
		C68.6,14.3,68.1,14.5,67.4,14.5z"/>
	<path class="st0" d="M75.3,12.7l1,0.4c-0.2,0.3-0.4,0.5-0.5,0.6c-0.6,0.6-1.3,0.9-2.2,0.9c-0.9,0-1.6-0.3-2.2-0.9
		c-0.6-0.6-0.9-1.3-0.9-2.1c0-0.8,0.3-1.5,0.9-2.1c0.6-0.6,1.3-0.9,2.2-0.9c0.9,0,1.6,0.3,2.2,0.9c0.1,0.1,0.3,0.3,0.5,0.6l-1,0.4
		c-0.1-0.2-0.2-0.3-0.3-0.4c-0.4-0.4-0.8-0.6-1.4-0.6c-0.5,0-1,0.2-1.4,0.6c-0.4,0.4-0.6,0.9-0.6,1.5c0,0.6,0.2,1.1,0.6,1.5
		c0.4,0.4,0.9,0.6,1.4,0.6c0.5,0,1-0.2,1.4-0.6C75,13,75.1,12.8,75.3,12.7z"/>
	<path class="st0" d="M81.7,12.7l1,0.4c-0.2,0.3-0.4,0.5-0.5,0.6c-0.6,0.6-1.3,0.9-2.2,0.9c-0.9,0-1.6-0.3-2.2-0.9
		c-0.6-0.6-0.9-1.3-0.9-2.1c0-0.8,0.3-1.5,0.9-2.1c0.6-0.6,1.3-0.9,2.2-0.9c0.9,0,1.6,0.3,2.2,0.9c0.1,0.1,0.3,0.3,0.5,0.6l-1,0.4
		c-0.1-0.2-0.2-0.3-0.3-0.4C81,9.7,80.5,9.5,80,9.5c-0.5,0-1,0.2-1.4,0.6C78.2,10.5,78,11,78,11.5c0,0.6,0.2,1.1,0.6,1.5
		c0.4,0.4,0.9,0.6,1.4,0.6c0.5,0,1-0.2,1.4-0.6C81.4,13,81.5,12.8,81.7,12.7z"/>
	<path class="st0" d="M84.8,7.4C84.9,7.6,85,7.7,85,7.9c0,0.2-0.1,0.3-0.2,0.5s-0.3,0.2-0.5,0.2c-0.2,0-0.4-0.1-0.6-0.2
		s-0.2-0.3-0.2-0.5c0-0.2,0.1-0.3,0.2-0.5s0.3-0.2,0.6-0.2C84.4,7.2,84.6,7.3,84.8,7.4z M84.8,9v5.4h-1.1V9H84.8z"/>
	<path class="st0" d="M89,8.5c0.9,0,1.6,0.3,2.2,0.9s0.9,1.3,0.9,2.1c0,0.8-0.3,1.5-0.9,2.1c-0.6,0.6-1.3,0.9-2.2,0.9
		c-0.9,0-1.6-0.3-2.2-0.9c-0.6-0.6-0.9-1.3-0.9-2.1c0-0.8,0.3-1.5,0.9-2.1C87.4,8.8,88.1,8.5,89,8.5z M87.6,10.1
		C87.2,10.5,87,11,87,11.5c0,0.6,0.2,1.1,0.6,1.5c0.4,0.4,0.9,0.6,1.4,0.6c0.5,0,1-0.2,1.4-0.6c0.4-0.4,0.6-0.9,0.6-1.5
		c0-0.6-0.2-1.1-0.6-1.5C90,9.7,89.5,9.5,89,9.5C88.4,9.5,88,9.7,87.6,10.1z"/>
	<path class="st0" d="M94.1,10.4v4.1H93V9h1.1c0.2-0.2,0.6-0.3,1.1-0.3c0.7,0,1.2,0.2,1.7,0.6s0.6,0.9,0.6,1.5v3.6h-1.1v-3.5
		c0-0.4-0.1-0.7-0.4-0.9c-0.3-0.2-0.5-0.4-0.9-0.4c-0.3,0-0.6,0.1-0.8,0.3C94.3,10.1,94.2,10.2,94.1,10.4z"/>
	<path class="st0" d="M99.6,11.5L99.6,11.5c0,0.6,0.2,1.1,0.6,1.5c0.4,0.4,0.9,0.6,1.4,0.6c0.5,0,1-0.2,1.4-0.6
		c0.1-0.1,0.2-0.2,0.3-0.4l1,0.4c-0.2,0.3-0.3,0.5-0.5,0.7c-0.6,0.6-1.3,0.9-2.2,0.9c-0.9,0-1.6-0.3-2.2-0.9
		c-0.6-0.6-0.9-1.3-0.9-2.1c0-0.8,0.3-1.5,0.9-2.1c0.6-0.6,1.3-0.9,2.2-0.9c0.9,0,1.6,0.3,2.2,0.9c0.5,0.5,0.8,1.2,0.8,2.1H99.6z
		 M99.7,10.6h3.6c-0.3-0.7-0.8-1.1-1.8-1.1C100.6,9.5,100,9.8,99.7,10.6z"/>
	<path class="st0" d="M106.7,11.7c-0.4-0.2-0.7-0.4-0.8-0.6c-0.3-0.3-0.4-0.6-0.4-1c0-0.4,0.1-0.7,0.4-1s0.6-0.4,1.1-0.4
		c0.4,0,0.8,0.1,1,0.4c0.3,0.3,0.4,0.6,0.4,0.9v0.2l-1,0.4c-0.1-0.4-0.1-0.7-0.2-0.8s-0.2-0.1-0.3-0.1c-0.1,0-0.2,0-0.3,0.1
		c-0.1,0.1-0.1,0.2-0.1,0.4s0.1,0.3,0.2,0.4c0.1,0.1,0.2,0.2,0.5,0.3c0.4,0.2,0.8,0.5,1,0.7c0.3,0.3,0.5,0.7,0.5,1.2
		c0,0.5-0.2,0.9-0.5,1.2s-0.8,0.5-1.3,0.5s-0.9-0.2-1.3-0.5s-0.5-0.8-0.5-1.3l1.1-0.3c0,0.5,0.1,0.8,0.2,0.9s0.3,0.2,0.5,0.2
		s0.3-0.1,0.5-0.2s0.2-0.3,0.2-0.6c0-0.2-0.1-0.4-0.2-0.6C107.2,12,107,11.9,106.7,11.7z"/>
	<path class="st0" d="M118.6,14.4h-1.1v-1c-0.4,0.7-1.1,1.1-1.9,1.1c-0.9,0-1.6-0.3-2.2-0.9c-0.6-0.6-0.9-1.3-0.9-2.1
		c0-0.8,0.3-1.5,0.9-2.1c0.6-0.6,1.3-0.9,2.2-0.9c0.9,0,1.5,0.4,1.9,1.1V5.9h1.1V14.4z M117.5,12v-0.9c-0.1-0.4-0.3-0.7-0.5-1
		c-0.4-0.4-0.9-0.6-1.4-0.6c-0.5,0-1,0.2-1.4,0.6c-0.4,0.4-0.6,0.9-0.6,1.5c0,0.6,0.2,1.1,0.6,1.5c0.4,0.4,0.9,0.6,1.4,0.6
		c0.5,0,1-0.2,1.4-0.6C117.3,12.7,117.4,12.4,117.5,12z"/>
	<path class="st0" d="M120.5,11.5L120.5,11.5c0,0.6,0.2,1.1,0.6,1.5c0.4,0.4,0.9,0.6,1.4,0.6c0.5,0,1-0.2,1.4-0.6
		c0.1-0.1,0.2-0.2,0.3-0.4l1,0.4c-0.2,0.3-0.3,0.5-0.5,0.7c-0.6,0.6-1.3,0.9-2.2,0.9c-0.9,0-1.6-0.3-2.2-0.9
		c-0.6-0.6-0.9-1.3-0.9-2.1c0-0.8,0.3-1.5,0.9-2.1c0.6-0.6,1.3-0.9,2.2-0.9c0.9,0,1.6,0.3,2.2,0.9c0.5,0.5,0.8,1.2,0.8,2.1H120.5z
		 M120.7,10.6h3.6c-0.3-0.7-0.8-1.1-1.8-1.1C121.6,9.5,121,9.8,120.7,10.6z"/>
	<path class="st0" d="M130.5,11.6v2.8h-1.1V5.9h2.4c0.7,0.1,1.3,0.4,1.8,0.9c0.6,0.6,0.8,1.2,0.8,2c0,0.8-0.3,1.5-0.8,2
		s-1.3,0.9-2.1,0.9H130.5z M130.5,6.8v3.9h1.1c0.5,0,0.9-0.2,1.3-0.6c0.4-0.4,0.6-0.8,0.6-1.4c0-0.6-0.2-1-0.6-1.4
		c-0.4-0.4-0.8-0.6-1.3-0.6H130.5z"/>
	<path class="st0" d="M135.7,11.5L135.7,11.5c0,0.6,0.2,1.1,0.6,1.5c0.4,0.4,0.9,0.6,1.4,0.6c0.5,0,1-0.2,1.4-0.6
		c0.1-0.1,0.2-0.2,0.3-0.4l1,0.4c-0.2,0.3-0.3,0.5-0.5,0.7c-0.6,0.6-1.3,0.9-2.2,0.9c-0.9,0-1.6-0.3-2.2-0.9
		c-0.6-0.6-0.9-1.3-0.9-2.1c0-0.8,0.3-1.5,0.9-2.1c0.6-0.6,1.3-0.9,2.2-0.9c0.9,0,1.6,0.3,2.2,0.9c0.5,0.5,0.8,1.2,0.8,2.1H135.7z
		 M135.9,10.6h3.6c-0.3-0.7-0.8-1.1-1.8-1.1C136.8,9.5,136.2,9.8,135.9,10.6z"/>
	<path class="st0" d="M144,9.8c-0.5,0.1-0.9,0.3-1.1,0.6c-0.3,0.3-0.4,0.7-0.4,1.2v2.9h-1.1V9h1.1v0.8c0.2-0.4,0.5-0.7,1-0.9
		L144,9.8z"/>
	<path class="st0" d="M145.9,9.9v4.5h-1.1V9h0.7c0.3-0.2,0.7-0.3,1.1-0.3c0.5,0,0.9,0.1,1.3,0.4c0.3-0.3,0.7-0.4,1.2-0.4
		s0.9,0.2,1.3,0.5c0.3,0.3,0.5,0.7,0.5,1.1v4.1h-1.1v-4.3c0-0.3-0.3-0.5-0.7-0.5c-0.3,0-0.6,0.2-0.7,0.5v4.3h-1.1v-4.3h0
		c0-0.3-0.3-0.5-0.7-0.5C146.3,9.6,146.1,9.7,145.9,9.9z"/>
	<path class="st0" d="M153.3,7.4c0.1,0.1,0.2,0.3,0.2,0.5c0,0.2-0.1,0.3-0.2,0.5s-0.3,0.2-0.5,0.2c-0.2,0-0.4-0.1-0.6-0.2
		S152,8.1,152,7.9c0-0.2,0.1-0.3,0.2-0.5s0.3-0.2,0.6-0.2C152.9,7.2,153.1,7.3,153.3,7.4z M153.3,9v5.4h-1.1V9H153.3z"/>
	<path class="st0" d="M155.9,11.7c-0.4-0.2-0.7-0.4-0.8-0.6c-0.3-0.3-0.4-0.6-0.4-1c0-0.4,0.1-0.7,0.4-1s0.6-0.4,1.1-0.4
		c0.4,0,0.8,0.1,1,0.4c0.3,0.3,0.4,0.6,0.4,0.9v0.2l-1,0.4c-0.1-0.4-0.1-0.7-0.2-0.8s-0.2-0.1-0.3-0.1c-0.1,0-0.2,0-0.3,0.1
		c-0.1,0.1-0.1,0.2-0.1,0.4s0.1,0.3,0.2,0.4c0.1,0.1,0.2,0.2,0.5,0.3c0.4,0.2,0.8,0.5,1,0.7c0.3,0.3,0.5,0.7,0.5,1.2
		c0,0.5-0.2,0.9-0.5,1.2s-0.8,0.5-1.3,0.5s-0.9-0.2-1.3-0.5s-0.5-0.8-0.5-1.3l1.1-0.3c0,0.5,0.1,0.8,0.2,0.9s0.3,0.2,0.5,0.2
		s0.3-0.1,0.5-0.2s0.2-0.3,0.2-0.6c0-0.2-0.1-0.4-0.2-0.6C156.4,12,156.2,11.9,155.9,11.7z"/>
	<path class="st0" d="M161.8,8.5c0.9,0,1.6,0.3,2.2,0.9s0.9,1.3,0.9,2.1c0,0.8-0.3,1.5-0.9,2.1c-0.6,0.6-1.3,0.9-2.2,0.9
		c-0.9,0-1.6-0.3-2.2-0.9c-0.6-0.6-0.9-1.3-0.9-2.1c0-0.8,0.3-1.5,0.9-2.1C160.2,8.8,160.9,8.5,161.8,8.5z M160.4,10.1
		c-0.4,0.4-0.6,0.9-0.6,1.5c0,0.6,0.2,1.1,0.6,1.5c0.4,0.4,0.9,0.6,1.4,0.6c0.5,0,1-0.2,1.4-0.6c0.4-0.4,0.6-0.9,0.6-1.5
		c0-0.6-0.2-1.1-0.6-1.5c-0.4-0.4-0.9-0.6-1.4-0.6C161.3,9.5,160.8,9.7,160.4,10.1z"/>
	<path class="st0" d="M167.3,11.7c-0.4-0.2-0.7-0.4-0.8-0.6c-0.3-0.3-0.4-0.6-0.4-1c0-0.4,0.1-0.7,0.4-1s0.6-0.4,1.1-0.4
		c0.4,0,0.8,0.1,1,0.4c0.3,0.3,0.4,0.6,0.4,0.9v0.2l-1,0.4c-0.1-0.4-0.1-0.7-0.2-0.8s-0.2-0.1-0.3-0.1c-0.1,0-0.2,0-0.3,0.1
		c-0.1,0.1-0.1,0.2-0.1,0.4s0.1,0.3,0.2,0.4c0.1,0.1,0.2,0.2,0.5,0.3c0.4,0.2,0.8,0.5,1,0.7c0.3,0.3,0.5,0.7,0.5,1.2
		c0,0.5-0.2,0.9-0.5,1.2s-0.8,0.5-1.3,0.5s-0.9-0.2-1.3-0.5s-0.5-0.8-0.5-1.3l1.1-0.3c0,0.5,0.1,0.8,0.2,0.9s0.3,0.2,0.5,0.2
		s0.3-0.1,0.5-0.2s0.2-0.3,0.2-0.6c0-0.2-0.1-0.4-0.2-0.6C167.8,12,167.6,11.9,167.3,11.7z"/>
	<path class="st0" d="M171.2,9.8c0.1,0.1,0.2,0.3,0.2,0.5c0,0.2-0.1,0.3-0.2,0.5s-0.3,0.2-0.5,0.2c-0.2,0-0.4-0.1-0.6-0.2
		s-0.2-0.3-0.2-0.5c0-0.2,0.1-0.3,0.2-0.5s0.3-0.2,0.6-0.2C170.9,9.6,171.1,9.6,171.2,9.8z M171.2,13.3c0.1,0.1,0.2,0.3,0.2,0.5
		c0,0.2-0.1,0.3-0.2,0.5s-0.3,0.2-0.5,0.2c-0.2,0-0.4-0.1-0.6-0.2s-0.2-0.3-0.2-0.5c0-0.2,0.1-0.3,0.2-0.5s0.3-0.2,0.6-0.2
		C170.9,13.1,171.1,13.2,171.2,13.3z"/>
</g>
<g>
	<g>
		<path class="st0" d="M57.2,20.9v2.2h-0.8v-6.7h1.9c0.6,0.1,1,0.3,1.4,0.7c0.4,0.4,0.7,1,0.7,1.6c0,0.6-0.2,1.1-0.7,1.6
			c-0.4,0.4-1,0.7-1.6,0.7H57.2z M57.2,17.1v3h0.8c0.4,0,0.7-0.1,1-0.4c0.3-0.3,0.4-0.7,0.4-1.1c0-0.4-0.1-0.8-0.4-1.1
			c-0.3-0.3-0.6-0.4-1-0.4H57.2z"/>
		<path class="st0" d="M61.8,20.8L61.8,20.8c0,0.5,0.2,0.8,0.5,1.2c0.3,0.3,0.7,0.5,1.1,0.5c0.4,0,0.8-0.2,1.1-0.5
			c0,0,0.1-0.1,0.3-0.3l0.8,0.3c-0.1,0.2-0.3,0.4-0.4,0.5c-0.5,0.5-1.1,0.7-1.7,0.7c-0.7,0-1.2-0.2-1.7-0.7c-0.5-0.5-0.7-1-0.7-1.7
			c0-0.6,0.2-1.2,0.7-1.7c0.5-0.5,1-0.7,1.7-0.7c0.7,0,1.3,0.2,1.7,0.7c0.4,0.4,0.6,1,0.6,1.6H61.8z M62,20.1h2.8
			c-0.2-0.6-0.7-0.9-1.4-0.9C62.7,19.2,62.2,19.5,62,20.1z"/>
		<path class="st0" d="M68.8,19.5c-0.4,0.1-0.7,0.2-0.9,0.5c-0.2,0.2-0.3,0.6-0.3,0.9v2.2h-0.8v-4.3h0.8v0.6
			c0.1-0.3,0.4-0.6,0.8-0.7L68.8,19.5z"/>
		<path class="st0" d="M70.8,19.6v3.5H70v-4.3h0.5c0.2-0.2,0.5-0.2,0.9-0.2c0.4,0,0.7,0.1,1,0.3c0.3-0.2,0.6-0.3,1-0.3
			c0.4,0,0.7,0.1,1,0.4c0.2,0.3,0.4,0.5,0.4,0.9v3.2h-0.8v-3.4c0-0.3-0.2-0.4-0.6-0.4c-0.3,0-0.5,0.1-0.6,0.4v3.4h-0.8v-3.4h0
			c0-0.3-0.2-0.4-0.5-0.4C71.1,19.3,71,19.4,70.8,19.6z"/>
		<path class="st0" d="M77.1,17.6c0.1,0.1,0.2,0.2,0.2,0.4c0,0.1-0.1,0.3-0.2,0.4c-0.1,0.1-0.3,0.2-0.4,0.2c-0.2,0-0.3-0.1-0.4-0.2
			C76.1,18.3,76,18.1,76,18c0-0.1,0.1-0.3,0.2-0.4s0.3-0.2,0.4-0.2C76.8,17.5,77,17.5,77.1,17.6z M77.1,18.8v4.3h-0.8v-4.3H77.1z"/>
		<path class="st0" d="M79,18.8v-1.7h0.8v1.7h0.8v0.7h-0.8v3.5H79v-3.5h-0.8v-0.7H79z"/>
		<path class="st0" d="M82.7,17.6c0.1,0.1,0.2,0.2,0.2,0.4c0,0.1-0.1,0.3-0.2,0.4c-0.1,0.1-0.3,0.2-0.4,0.2c-0.2,0-0.3-0.1-0.4-0.2
			c-0.1-0.1-0.2-0.2-0.2-0.4c0-0.1,0.1-0.3,0.2-0.4s0.3-0.2,0.4-0.2C82.4,17.5,82.6,17.5,82.7,17.6z M82.7,18.8v4.3h-0.8v-4.3H82.7z
			"/>
		<path class="st0" d="M86.1,19.5c-0.4,0.1-0.7,0.2-0.9,0.5c-0.2,0.2-0.3,0.6-0.3,0.9v2.2h-0.8v-4.3h0.8v0.6
			c0.1-0.3,0.4-0.6,0.8-0.7L86.1,19.5z"/>
		<path class="st0" d="M88.1,19.5c0.1,0.1,0.2,0.2,0.2,0.4c0,0.1-0.1,0.3-0.2,0.4s-0.3,0.2-0.4,0.2c-0.2,0-0.3-0.1-0.4-0.2
			c-0.1-0.1-0.2-0.2-0.2-0.4c0-0.1,0.1-0.3,0.2-0.4c0.1-0.1,0.3-0.2,0.4-0.2C87.9,19.3,88,19.4,88.1,19.5z M88.1,22.2
			c0.1,0.1,0.2,0.2,0.2,0.4c0,0.1-0.1,0.3-0.2,0.4c-0.1,0.1-0.3,0.2-0.4,0.2c-0.2,0-0.3-0.1-0.4-0.2c-0.1-0.1-0.2-0.2-0.2-0.4
			c0-0.1,0.1-0.3,0.2-0.4c0.1-0.1,0.3-0.2,0.4-0.2C87.9,22.1,88,22.1,88.1,22.2z"/>
		<path class="st6" d="M94.1,22.4v-4.6L93.7,18l-0.6-0.4l1.9-1.4v6.1h1.4v0.7h-3.6v-0.7H94.1z"/>
	</g>
</g>
<g>
	<g>
		<path class="st0" d="M105.2,16.4l3.8,5.4v-5.4h0.8v6.7h-0.9l-3.7-5.2v5.2h-0.8v-6.7H105.2z"/>
		<path class="st0" d="M113.6,18.5c0.7,0,1.3,0.2,1.7,0.7c0.5,0.5,0.7,1,0.7,1.7c0,0.6-0.2,1.2-0.7,1.7s-1,0.7-1.7,0.7
			c-0.7,0-1.2-0.2-1.7-0.7s-0.7-1-0.7-1.7c0-0.6,0.2-1.2,0.7-1.7C112.3,18.7,112.9,18.5,113.6,18.5z M112.5,19.7
			c-0.3,0.3-0.5,0.7-0.5,1.2c0,0.5,0.2,0.8,0.5,1.1s0.7,0.5,1.1,0.5c0.4,0,0.8-0.2,1.1-0.5c0.3-0.3,0.5-0.7,0.5-1.1
			c0-0.5-0.2-0.8-0.5-1.2c-0.3-0.3-0.7-0.5-1.1-0.5C113.2,19.2,112.8,19.4,112.5,19.7z"/>
		<path class="st0" d="M121,20.9v2.2h-0.8v-6.7h1.9c0.6,0.1,1,0.3,1.4,0.7c0.4,0.4,0.7,1,0.7,1.6c0,0.6-0.2,1.1-0.7,1.6
			s-1,0.7-1.6,0.7H121z M121,17.1v3h0.8c0.4,0,0.7-0.1,1-0.4c0.3-0.3,0.4-0.7,0.4-1.1c0-0.4-0.1-0.8-0.4-1.1c-0.3-0.3-0.6-0.4-1-0.4
			H121z"/>
		<path class="st0" d="M125.6,20.8L125.6,20.8c0,0.5,0.2,0.8,0.5,1.2c0.3,0.3,0.7,0.5,1.1,0.5c0.4,0,0.8-0.2,1.1-0.5
			c0,0,0.1-0.1,0.3-0.3l0.8,0.3c-0.1,0.2-0.3,0.4-0.4,0.5c-0.5,0.5-1.1,0.7-1.7,0.7c-0.7,0-1.2-0.2-1.7-0.7s-0.7-1-0.7-1.7
			c0-0.6,0.2-1.2,0.7-1.7c0.5-0.5,1-0.7,1.7-0.7c0.7,0,1.3,0.2,1.7,0.7c0.4,0.4,0.6,1,0.6,1.6H125.6z M125.8,20.1h2.8
			c-0.2-0.6-0.7-0.9-1.4-0.9C126.5,19.2,126,19.5,125.8,20.1z"/>
		<path class="st0" d="M132.6,19.5c-0.4,0.1-0.7,0.2-0.9,0.5c-0.2,0.2-0.3,0.6-0.3,0.9v2.2h-0.8v-4.3h0.8v0.6
			c0.1-0.3,0.4-0.6,0.8-0.7L132.6,19.5z"/>
		<path class="st0" d="M134.6,19.6v3.5h-0.8v-4.3h0.5c0.2-0.2,0.5-0.2,0.9-0.2c0.4,0,0.7,0.1,1,0.3c0.3-0.2,0.6-0.3,1-0.3
			c0.4,0,0.7,0.1,1,0.4c0.2,0.3,0.4,0.5,0.4,0.9v3.2h-0.8v-3.4c0-0.3-0.2-0.4-0.6-0.4c-0.3,0-0.5,0.1-0.6,0.4v3.4h-0.8v-3.4h0
			c0-0.3-0.2-0.4-0.5-0.4C134.9,19.3,134.8,19.4,134.6,19.6z"/>
		<path class="st0" d="M140.9,17.6c0.1,0.1,0.2,0.2,0.2,0.4c0,0.1-0.1,0.3-0.2,0.4c-0.1,0.1-0.3,0.2-0.4,0.2c-0.2,0-0.3-0.1-0.4-0.2
			c-0.1-0.1-0.2-0.2-0.2-0.4c0-0.1,0.1-0.3,0.2-0.4s0.3-0.2,0.4-0.2C140.6,17.5,140.8,17.5,140.9,17.6z M140.9,18.8v4.3H140v-4.3
			H140.9z"/>
		<path class="st0" d="M142.8,18.8v-1.7h0.8v1.7h0.8v0.7h-0.8v3.5h-0.8v-3.5H142v-0.7H142.8z"/>
		<path class="st0" d="M146.5,17.6c0.1,0.1,0.2,0.2,0.2,0.4c0,0.1-0.1,0.3-0.2,0.4c-0.1,0.1-0.3,0.2-0.4,0.2c-0.2,0-0.3-0.1-0.4-0.2
			c-0.1-0.1-0.2-0.2-0.2-0.4c0-0.1,0.1-0.3,0.2-0.4s0.3-0.2,0.4-0.2C146.2,17.5,146.4,17.5,146.5,17.6z M146.5,18.8v4.3h-0.8v-4.3
			H146.5z"/>
		<path class="st0" d="M149.9,19.5c-0.4,0.1-0.7,0.2-0.9,0.5c-0.2,0.2-0.3,0.6-0.3,0.9v2.2h-0.8v-4.3h0.8v0.6
			c0.1-0.3,0.4-0.6,0.8-0.7L149.9,19.5z"/>
		<path class="st0" d="M151.9,19.5c0.1,0.1,0.2,0.2,0.2,0.4c0,0.1-0.1,0.3-0.2,0.4s-0.3,0.2-0.4,0.2c-0.2,0-0.3-0.1-0.4-0.2
			c-0.1-0.1-0.2-0.2-0.2-0.4c0-0.1,0.1-0.3,0.2-0.4c0.1-0.1,0.3-0.2,0.4-0.2C151.7,19.3,151.8,19.4,151.9,19.5z M151.9,22.2
			c0.1,0.1,0.2,0.2,0.2,0.4c0,0.1-0.1,0.3-0.2,0.4c-0.1,0.1-0.3,0.2-0.4,0.2c-0.2,0-0.3-0.1-0.4-0.2c-0.1-0.1-0.2-0.2-0.2-0.4
			c0-0.1,0.1-0.3,0.2-0.4c0.1-0.1,0.3-0.2,0.4-0.2C151.7,22.1,151.8,22.1,151.9,22.2z"/>
		<path class="st6" d="M160.7,19.8c0,1-0.2,1.8-0.7,2.5s-1,0.9-1.7,0.9c-0.7,0-1.3-0.3-1.7-0.9s-0.7-1.4-0.7-2.5
			c0-1,0.2-1.8,0.7-2.4s1-0.9,1.7-0.9c0.7,0,1.2,0.3,1.7,0.9S160.7,18.8,160.7,19.8z M159.8,19.8c0-0.9-0.2-1.5-0.5-2
			c-0.3-0.4-0.7-0.7-1.1-0.7c-0.4,0-0.8,0.2-1.1,0.7c-0.3,0.4-0.5,1.1-0.5,2c0,0.9,0.2,1.5,0.5,2s0.7,0.7,1.1,0.7
			c0.4,0,0.7-0.2,1.1-0.7C159.7,21.4,159.8,20.7,159.8,19.8z"/>
	</g>
</g>
</svg>
