<?xml version="1.0" encoding="utf-8"?>
<!-- Generator: Adobe Illustrator 24.0.2, SVG Export Plug-In . SVG Version: 6.00 Build 0)  -->
<svg version="1.1" id="off" xmlns="http://www.w3.org/2000/svg" xmlns:xlink="http://www.w3.org/1999/xlink" x="0px" y="0px"
	 viewBox="0 0 217.2 29.1" style="enable-background:new 0 0 217.2 29.1;" xml:space="preserve">
<style type="text/css">
	.st0{fill:#E9762E;}
	.st1{fill:#E9762F;}
	.st2{fill:#7382A3;}
	.st3{fill:#A4AAC2;}
	.st4{fill:#FFFFFF;}
	.st5{display:none;fill:#3F3F3F;}
	.st6{fill:#3F3F3F;}
	.st7{fill:none;stroke:#E9762E;stroke-width:0.5941;stroke-miterlimit:10;}
	.st8{clip-path:url(#SVGID_2_);}
	.st9{fill:#727276;}
	.st10{clip-path:url(#SVGID_6_);}
	.st11{fill:#E9762E;stroke:#E9762E;stroke-width:0.5;stroke-miterlimit:10;}
	.st12{fill:#E9762E;stroke:#E9762E;stroke-width:0.3868;stroke-miterlimit:10;}
	.st13{fill:#E9762E;stroke:#E9762E;stroke-width:0.5162;stroke-miterlimit:10;}
	.st14{fill:#FFFDFD;}
	.st15{fill:none;stroke:#3F3F3F;stroke-width:2.9348;stroke-miterlimit:10;}
	.st16{fill:#E9762E;stroke:#E9762E;stroke-width:0.75;stroke-miterlimit:10;}
	.st17{fill:#3F3F3F;stroke:#3F3F3F;stroke-width:0.25;stroke-miterlimit:10;}
	.st18{fill:#444444;}
	.st19{fill:#292929;}
	.st20{fill:#FFD400;}
	.st21{fill:#FF9F00;}
	.st22{fill:#6E6E6E;}
	.st23{fill:#E9762E;stroke:#E9762E;stroke-width:0.3995;stroke-miterlimit:10;}
	.st24{fill:none;stroke:#3F3F3F;stroke-width:1.611;stroke-miterlimit:10;}
	.st25{fill:#E9762E;stroke:#E9762E;stroke-width:0.25;stroke-miterlimit:10;}
	.st26{fill:#3F3F3F;stroke:#3F3F3F;stroke-miterlimit:10;}
</style>
<g>
	<path class="st11" d="M53,4.8v8.4h-0.5V4.8H53z"/>
	<path class="st11" d="M54.8,9.2v4h-0.5V8.1h0.5v0.3c0.4-0.4,0.9-0.6,1.5-0.6c0.6,0,1.1,0.2,1.5,0.6c0.4,0.4,0.6,0.9,0.6,1.4v3.5
		h-0.5V9.8c0-0.4-0.2-0.8-0.5-1.1c-0.3-0.3-0.7-0.5-1.1-0.5c-0.4,0-0.8,0.2-1.1,0.5C55,8.9,54.9,9.1,54.8,9.2z"/>
	<path class="st11" d="M60.9,10.5c-0.4-0.2-0.7-0.4-0.8-0.6c-0.2-0.2-0.4-0.5-0.4-0.9s0.1-0.6,0.4-0.9c0.2-0.2,0.5-0.4,0.9-0.4
		s0.6,0.1,0.8,0.3c0.2,0.2,0.3,0.5,0.3,0.7v0l-0.4,0.2c0-0.3-0.1-0.5-0.3-0.6c-0.1-0.1-0.3-0.2-0.5-0.2c-0.2,0-0.4,0.1-0.5,0.2
		c-0.2,0.2-0.2,0.3-0.2,0.5s0.1,0.4,0.2,0.5c0.1,0.1,0.3,0.2,0.6,0.4c0.4,0.2,0.8,0.5,1,0.6c0.3,0.3,0.4,0.7,0.4,1.1
		c0,0.4-0.1,0.8-0.4,1.1c-0.3,0.3-0.7,0.4-1.1,0.4s-0.8-0.1-1.1-0.4c-0.3-0.3-0.4-0.6-0.4-1l0.5-0.1c0,0.3,0.1,0.6,0.3,0.8
		s0.5,0.3,0.7,0.3s0.5-0.1,0.7-0.3s0.3-0.5,0.3-0.8c0-0.3-0.1-0.5-0.3-0.7C61.4,10.9,61.2,10.7,60.9,10.5z"/>
	<path class="st11" d="M64,8.1V5.9h0.5v2.2h1.1v0.5h-1.1v4.7H64V8.6h-1.1V8.1H64z"/>
	<path class="st11" d="M68.1,8.5c-0.3,0.1-0.7,0.3-1,0.6c-0.3,0.4-0.5,0.8-0.5,1.1v3h-0.5V8.1h0.5v1.1c0.2-0.5,0.6-0.9,1.2-1.2
		L68.1,8.5z"/>
	<path class="st11" d="M70.8,13.3c-0.6,0-1.2-0.2-1.5-0.6c-0.4-0.4-0.6-0.9-0.6-1.4V8.1h0.5v3.2c0,0.4,0.2,0.8,0.5,1.1
		c0.3,0.3,0.7,0.5,1.2,0.5c0.4,0,0.8-0.2,1.1-0.5c0.3-0.3,0.5-0.7,0.5-1.1V8.1h0.5v3.2c0,0.6-0.2,1.1-0.6,1.4
		C71.9,13.1,71.4,13.3,70.8,13.3z"/>
	<path class="st11" d="M78.4,12l0.5,0.2c-0.1,0.1-0.2,0.2-0.3,0.4c-0.6,0.6-1.2,0.8-2,0.8c-0.8,0-1.5-0.3-2-0.8
		c-0.6-0.6-0.8-1.2-0.8-2s0.3-1.5,0.8-2c0.6-0.6,1.2-0.8,2-0.8c0.8,0,1.5,0.3,2,0.8c0.1,0.1,0.2,0.2,0.3,0.4L78.4,9
		c-0.1-0.1-0.1-0.1-0.2-0.2c-0.5-0.5-1-0.7-1.7-0.7c-0.7,0-1.2,0.2-1.7,0.7c-0.5,0.5-0.7,1-0.7,1.7s0.2,1.2,0.7,1.7
		c0.5,0.5,1,0.7,1.7,0.7c0.7,0,1.2-0.2,1.7-0.7C78.3,12.1,78.3,12.1,78.4,12z"/>
	<path class="st11" d="M84.3,12l0.5,0.2c-0.1,0.1-0.2,0.2-0.3,0.4c-0.6,0.6-1.2,0.8-2,0.8c-0.8,0-1.5-0.3-2-0.8
		c-0.6-0.6-0.8-1.2-0.8-2s0.3-1.5,0.8-2c0.6-0.6,1.2-0.8,2-0.8c0.8,0,1.5,0.3,2,0.8c0.1,0.1,0.2,0.2,0.3,0.4L84.3,9
		c-0.1-0.1-0.1-0.1-0.2-0.2c-0.5-0.5-1-0.7-1.7-0.7c-0.7,0-1.2,0.2-1.7,0.7c-0.5,0.5-0.7,1-0.7,1.7s0.2,1.2,0.7,1.7
		c0.5,0.5,1,0.7,1.7,0.7c0.7,0,1.2-0.2,1.7-0.7C84.1,12.1,84.2,12.1,84.3,12z"/>
	<path class="st11" d="M86.3,6.4c0.1,0.1,0.1,0.2,0.1,0.3c0,0.1,0,0.2-0.1,0.3S86.1,7.2,86,7.2c-0.1,0-0.2,0-0.3-0.1
		c-0.1-0.1-0.1-0.2-0.1-0.3c0-0.1,0-0.2,0.1-0.3c0.1-0.1,0.2-0.1,0.3-0.1C86.1,6.3,86.2,6.3,86.3,6.4z M86.2,8.1v5.2h-0.5V8.1H86.2z
		"/>
	<path class="st11" d="M90.3,7.6c0.8,0,1.5,0.3,2,0.8s0.8,1.2,0.8,2c0,0.8-0.3,1.5-0.8,2s-1.2,0.8-2,0.8c-0.8,0-1.5-0.3-2-0.8
		s-0.8-1.2-0.8-2c0-0.8,0.3-1.5,0.8-2S89.5,7.6,90.3,7.6z M88.6,8.8c-0.5,0.5-0.7,1-0.7,1.7s0.2,1.2,0.7,1.7s1,0.7,1.7,0.7
		s1.2-0.2,1.7-0.7s0.7-1,0.7-1.7s-0.2-1.2-0.7-1.7s-1-0.7-1.7-0.7S89,8.4,88.6,8.8z"/>
	<path class="st11" d="M94.6,9.2v4h-0.5V8.1h0.5v0.3c0.4-0.4,0.9-0.6,1.5-0.6c0.6,0,1.1,0.2,1.5,0.6c0.4,0.4,0.6,0.9,0.6,1.4v3.5
		h-0.5V9.8c0-0.4-0.2-0.8-0.5-1.1c-0.3-0.3-0.7-0.5-1.1-0.5c-0.4,0-0.8,0.2-1.1,0.5C94.8,8.9,94.7,9.1,94.6,9.2z"/>
	<path class="st11" d="M99.6,10.3c0,0.1,0,0.2,0,0.3c0,0.7,0.2,1.2,0.7,1.7c0.5,0.5,1,0.7,1.7,0.7c0.7,0,1.2-0.2,1.7-0.7
		c0.1-0.1,0.2-0.2,0.2-0.3l0.5,0.2c-0.1,0.1-0.2,0.2-0.4,0.4c-0.6,0.6-1.2,0.8-2,0.8c-0.8,0-1.5-0.3-2-0.8c-0.6-0.6-0.8-1.2-0.8-2
		c0-0.8,0.3-1.5,0.8-2c0.6-0.6,1.2-0.8,2-0.8c0.8,0,1.5,0.3,2,0.8c0.5,0.5,0.7,1.1,0.7,1.8H99.6z M99.7,9.8h4.5
		c-0.1-0.4-0.3-0.7-0.6-0.9c-0.5-0.5-1-0.7-1.7-0.7c-0.7,0-1.2,0.2-1.7,0.7C100,9.1,99.8,9.4,99.7,9.8z"/>
	<path class="st11" d="M106.9,10.5c-0.4-0.2-0.7-0.4-0.8-0.6c-0.2-0.2-0.4-0.5-0.4-0.9s0.1-0.6,0.4-0.9c0.2-0.2,0.5-0.4,0.9-0.4
		s0.6,0.1,0.8,0.3c0.2,0.2,0.3,0.5,0.3,0.7v0l-0.4,0.2c0-0.3-0.1-0.5-0.3-0.6c-0.1-0.1-0.3-0.2-0.5-0.2c-0.2,0-0.4,0.1-0.5,0.2
		c-0.2,0.2-0.2,0.3-0.2,0.5s0.1,0.4,0.2,0.5c0.1,0.1,0.3,0.2,0.6,0.4c0.4,0.2,0.8,0.5,1,0.6c0.3,0.3,0.4,0.7,0.4,1.1
		c0,0.4-0.1,0.8-0.4,1.1c-0.3,0.3-0.7,0.4-1.1,0.4s-0.8-0.1-1.1-0.4c-0.3-0.3-0.4-0.6-0.4-1l0.5-0.1c0,0.3,0.1,0.6,0.3,0.8
		s0.5,0.3,0.7,0.3s0.5-0.1,0.7-0.3s0.3-0.5,0.3-0.8c0-0.3-0.1-0.5-0.3-0.7C107.5,10.9,107.2,10.7,106.9,10.5z"/>
	<path class="st11" d="M118,13.3h-0.5v-1.1c-0.1,0.1-0.2,0.2-0.3,0.4c-0.6,0.6-1.2,0.8-2,0.8c-0.8,0-1.5-0.3-2-0.8s-0.8-1.2-0.8-2
		c0-0.8,0.3-1.5,0.8-2s1.2-0.8,2-0.8c0.8,0,1.5,0.3,2,0.8c0.1,0.1,0.2,0.2,0.3,0.4v-4h0.5V13.3z M117.5,11V10
		c-0.1-0.5-0.3-0.9-0.7-1.2c-0.5-0.5-1-0.7-1.7-0.7c-0.7,0-1.2,0.2-1.7,0.7c-0.5,0.5-0.7,1-0.7,1.7s0.2,1.2,0.7,1.7
		c0.5,0.5,1,0.7,1.7,0.7c0.7,0,1.2-0.2,1.7-0.7C117.2,11.8,117.4,11.4,117.5,11z"/>
	<path class="st11" d="M119.3,10.3c0,0.1,0,0.2,0,0.3c0,0.7,0.2,1.2,0.7,1.7c0.5,0.5,1,0.7,1.7,0.7c0.7,0,1.2-0.2,1.7-0.7
		c0.1-0.1,0.2-0.2,0.2-0.3l0.5,0.2c-0.1,0.1-0.2,0.2-0.4,0.4c-0.6,0.6-1.2,0.8-2,0.8c-0.8,0-1.5-0.3-2-0.8c-0.6-0.6-0.8-1.2-0.8-2
		c0-0.8,0.3-1.5,0.8-2c0.6-0.6,1.2-0.8,2-0.8c0.8,0,1.5,0.3,2,0.8c0.5,0.5,0.7,1.1,0.7,1.8H119.3z M119.4,9.8h4.5
		c-0.1-0.4-0.3-0.7-0.6-0.9c-0.5-0.5-1-0.7-1.7-0.7c-0.7,0-1.2,0.2-1.7,0.7C119.7,9.1,119.5,9.4,119.4,9.8z"/>
	<path class="st11" d="M128.8,10.3v2.9h-0.5V4.8h2.2c0.6,0.1,1.2,0.4,1.6,0.8c0.5,0.5,0.8,1.2,0.8,1.9c0,0.8-0.3,1.4-0.8,1.9
		c-0.5,0.5-1.2,0.8-1.9,0.8H128.8z M128.8,5.3v4.5h1.4c0.6,0,1.2-0.2,1.6-0.7c0.4-0.4,0.7-1,0.7-1.6c0-0.6-0.2-1.2-0.7-1.6
		c-0.4-0.4-1-0.7-1.6-0.7H128.8z"/>
	<path class="st11" d="M133.7,10.3c0,0.1,0,0.2,0,0.3c0,0.7,0.2,1.2,0.7,1.7c0.5,0.5,1,0.7,1.7,0.7c0.7,0,1.2-0.2,1.7-0.7
		c0.1-0.1,0.2-0.2,0.2-0.3l0.5,0.2c-0.1,0.1-0.2,0.2-0.4,0.4c-0.6,0.6-1.2,0.8-2,0.8c-0.8,0-1.5-0.3-2-0.8c-0.6-0.6-0.8-1.2-0.8-2
		c0-0.8,0.3-1.5,0.8-2c0.6-0.6,1.2-0.8,2-0.8c0.8,0,1.5,0.3,2,0.8c0.5,0.5,0.7,1.1,0.7,1.8H133.7z M133.8,9.8h4.5
		c-0.1-0.4-0.3-0.7-0.6-0.9c-0.5-0.5-1-0.7-1.7-0.7c-0.7,0-1.2,0.2-1.7,0.7C134.1,9.1,133.9,9.4,133.8,9.8z"/>
	<path class="st11" d="M141.5,8.5c-0.3,0.1-0.7,0.3-1,0.6c-0.3,0.4-0.5,0.8-0.5,1.1v3h-0.5V8.1h0.5v1.1c0.2-0.5,0.6-0.9,1.2-1.2
		L141.5,8.5z"/>
	<path class="st11" d="M142,8.1h0.5v0.1c0.3-0.3,0.6-0.4,1.1-0.4c0.4,0,0.8,0.1,1.1,0.4c0.1,0.1,0.1,0.2,0.2,0.3
		c0.1-0.1,0.1-0.2,0.2-0.3c0.3-0.3,0.7-0.4,1.1-0.4s0.8,0.1,1.1,0.4c0.3,0.3,0.4,0.6,0.4,1v4h-0.5v-4h0c0-0.3-0.1-0.5-0.3-0.7
		c-0.2-0.2-0.5-0.3-0.7-0.3c-0.3,0-0.5,0.1-0.8,0.3c-0.2,0.2-0.3,0.5-0.3,0.8v3.9h-0.5v-4h0c0-0.3-0.1-0.5-0.3-0.7
		c-0.2-0.2-0.5-0.3-0.7-0.3s-0.5,0.1-0.7,0.3c-0.2,0.2-0.3,0.4-0.3,0.7v4H142V8.1z"/>
	<path class="st11" d="M149.6,6.4c0.1,0.1,0.1,0.2,0.1,0.3c0,0.1,0,0.2-0.1,0.3s-0.2,0.1-0.3,0.1c-0.1,0-0.2,0-0.3-0.1
		c-0.1-0.1-0.1-0.2-0.1-0.3c0-0.1,0-0.2,0.1-0.3c0.1-0.1,0.2-0.1,0.3-0.1C149.3,6.3,149.5,6.3,149.6,6.4z M149.5,8.1v5.2H149V8.1
		H149.5z"/>
	<path class="st11" d="M152.1,10.5c-0.4-0.2-0.7-0.4-0.8-0.6c-0.2-0.2-0.4-0.5-0.4-0.9s0.1-0.6,0.4-0.9c0.2-0.2,0.5-0.4,0.9-0.4
		s0.6,0.1,0.8,0.3c0.2,0.2,0.3,0.5,0.3,0.7v0l-0.4,0.2c0-0.3-0.1-0.5-0.3-0.6c-0.1-0.1-0.3-0.2-0.5-0.2c-0.2,0-0.4,0.1-0.5,0.2
		c-0.2,0.2-0.2,0.3-0.2,0.5s0.1,0.4,0.2,0.5c0.1,0.1,0.3,0.2,0.6,0.4c0.4,0.2,0.8,0.5,1,0.6c0.3,0.3,0.4,0.7,0.4,1.1
		c0,0.4-0.1,0.8-0.4,1.1c-0.3,0.3-0.7,0.4-1.1,0.4s-0.8-0.1-1.1-0.4c-0.3-0.3-0.4-0.6-0.4-1l0.5-0.1c0,0.3,0.1,0.6,0.3,0.8
		s0.5,0.3,0.7,0.3s0.5-0.1,0.7-0.3s0.3-0.5,0.3-0.8c0-0.3-0.1-0.5-0.3-0.7C152.7,10.9,152.4,10.7,152.1,10.5z"/>
	<path class="st11" d="M157.3,7.6c0.8,0,1.5,0.3,2,0.8s0.8,1.2,0.8,2c0,0.8-0.3,1.5-0.8,2s-1.2,0.8-2,0.8c-0.8,0-1.5-0.3-2-0.8
		s-0.8-1.2-0.8-2c0-0.8,0.3-1.5,0.8-2S156.5,7.6,157.3,7.6z M155.6,8.8c-0.5,0.5-0.7,1-0.7,1.7s0.2,1.2,0.7,1.7s1,0.7,1.7,0.7
		s1.2-0.2,1.7-0.7s0.7-1,0.7-1.7s-0.2-1.2-0.7-1.7s-1-0.7-1.7-0.7S156.1,8.4,155.6,8.8z"/>
	<path class="st11" d="M162.5,10.5c-0.4-0.2-0.7-0.4-0.8-0.6c-0.2-0.2-0.4-0.5-0.4-0.9s0.1-0.6,0.4-0.9c0.2-0.2,0.5-0.4,0.9-0.4
		s0.6,0.1,0.8,0.3c0.2,0.2,0.3,0.5,0.3,0.7v0l-0.4,0.2c0-0.3-0.1-0.5-0.3-0.6c-0.1-0.1-0.3-0.2-0.5-0.2c-0.2,0-0.4,0.1-0.5,0.2
		c-0.2,0.2-0.2,0.3-0.2,0.5s0.1,0.4,0.2,0.5c0.1,0.1,0.3,0.2,0.6,0.4c0.4,0.2,0.8,0.5,1,0.6c0.3,0.3,0.4,0.7,0.4,1.1
		c0,0.4-0.1,0.8-0.4,1.1c-0.3,0.3-0.7,0.4-1.1,0.4s-0.8-0.1-1.1-0.4c-0.3-0.3-0.4-0.6-0.4-1l0.5-0.1c0,0.3,0.1,0.6,0.3,0.8
		s0.5,0.3,0.7,0.3s0.5-0.1,0.7-0.3s0.3-0.5,0.3-0.8c0-0.3-0.1-0.5-0.3-0.7C163.1,10.9,162.9,10.7,162.5,10.5z"/>
	<path class="st11" d="M165.6,8.9c0.1,0.1,0.1,0.2,0.1,0.3s0,0.2-0.1,0.3s-0.2,0.1-0.3,0.1c-0.1,0-0.2,0-0.3-0.1
		c-0.1-0.1-0.1-0.2-0.1-0.3s0-0.2,0.1-0.3c0.1-0.1,0.2-0.1,0.3-0.1C165.4,8.7,165.5,8.8,165.6,8.9z M165.6,12.5
		c0.1,0.1,0.1,0.2,0.1,0.3s0,0.2-0.1,0.3s-0.2,0.1-0.3,0.1c-0.1,0-0.2,0-0.3-0.1c-0.1-0.1-0.1-0.2-0.1-0.3s0-0.2,0.1-0.3
		c0.1-0.1,0.2-0.1,0.3-0.1C165.4,12.4,165.5,12.4,165.6,12.5z"/>
</g>
<path class="st24" d="M204.8,27.7H11.9c-4.8,0-8.6-3.9-8.6-8.6V10c0-4.8,3.9-8.6,8.6-8.6h192.9c4.8,0,8.6,3.9,8.6,8.6v9.2
	C213.4,23.9,209.6,27.7,204.8,27.7z"/>
<g>
	<g>
		<path class="st25" d="M57.5,22.5v2.3h-0.4v-6.6h1.7c0.5,0.1,0.9,0.3,1.3,0.6c0.4,0.4,0.6,0.9,0.6,1.5c0,0.6-0.2,1.1-0.6,1.5
			c-0.4,0.4-0.9,0.6-1.5,0.6H57.5z M57.5,18.6v3.6h1.1c0.5,0,0.9-0.2,1.3-0.5s0.5-0.8,0.5-1.3c0-0.5-0.2-0.9-0.5-1.3
			s-0.8-0.5-1.3-0.5H57.5z"/>
		<path class="st25" d="M61.8,22.5c0,0.1,0,0.1,0,0.2c0,0.5,0.2,1,0.5,1.3c0.4,0.4,0.8,0.5,1.3,0.5c0.5,0,1-0.2,1.3-0.6
			c0.1-0.1,0.1-0.1,0.2-0.2l0.4,0.1c0,0.1-0.1,0.2-0.3,0.3c-0.4,0.4-1,0.7-1.6,0.7c-0.6,0-1.2-0.2-1.6-0.7c-0.4-0.4-0.7-1-0.7-1.6
			c0-0.6,0.2-1.2,0.7-1.6c0.4-0.4,1-0.7,1.6-0.7c0.6,0,1.2,0.2,1.6,0.7c0.4,0.4,0.6,0.9,0.6,1.4H61.8z M61.9,22.1h3.6
			c-0.1-0.3-0.2-0.5-0.4-0.7c-0.4-0.4-0.8-0.6-1.3-0.6c-0.5,0-1,0.2-1.3,0.6C62.1,21.6,62,21.8,61.9,22.1z"/>
		<path class="st25" d="M68.4,21.1c-0.3,0-0.5,0.2-0.8,0.5c-0.3,0.3-0.4,0.6-0.4,0.9v2.3h-0.4v-4.1h0.4v0.9c0.2-0.4,0.5-0.7,1-0.9
			L68.4,21.1z"/>
		<path class="st25" d="M69.3,20.8h0.4v0.1c0.2-0.2,0.5-0.3,0.8-0.3c0.3,0,0.6,0.1,0.9,0.4c0.1,0.1,0.1,0.1,0.2,0.2
			c0-0.1,0.1-0.1,0.2-0.2c0.2-0.2,0.5-0.4,0.9-0.4c0.3,0,0.6,0.1,0.8,0.4c0.2,0.2,0.3,0.5,0.4,0.8v3.1h-0.4v-3.1h0
			c0-0.2-0.1-0.4-0.2-0.5c-0.2-0.2-0.4-0.2-0.6-0.2c-0.2,0-0.4,0.1-0.6,0.2c-0.2,0.2-0.2,0.4-0.2,0.6v3.1h-0.4v-3.1h0
			c0-0.2-0.1-0.4-0.2-0.5c-0.2-0.2-0.4-0.2-0.6-0.2S70.1,21,70,21.2c-0.1,0.1-0.2,0.3-0.2,0.5v3.2h-0.4V20.8z"/>
		<path class="st25" d="M75.7,19.5c0.1,0.1,0.1,0.2,0.1,0.3c0,0.1,0,0.2-0.1,0.3c-0.1,0.1-0.2,0.1-0.3,0.1c-0.1,0-0.2,0-0.3-0.1
			c-0.1-0.1-0.1-0.2-0.1-0.3c0-0.1,0-0.2,0.1-0.3c0.1-0.1,0.2-0.1,0.3-0.1C75.6,19.3,75.7,19.4,75.7,19.5z M75.7,20.8v4.1h-0.4v-4.1
			H75.7z"/>
		<path class="st25" d="M77.7,20.8v-1.7H78v1.7h0.8v0.4H78v3.7h-0.4v-3.7h-0.8v-0.4H77.7z"/>
		<path class="st25" d="M80.5,19.5c0.1,0.1,0.1,0.2,0.1,0.3c0,0.1,0,0.2-0.1,0.3c-0.1,0.1-0.2,0.1-0.3,0.1c-0.1,0-0.2,0-0.3-0.1
			c-0.1-0.1-0.1-0.2-0.1-0.3c0-0.1,0-0.2,0.1-0.3c0.1-0.1,0.2-0.1,0.3-0.1C80.3,19.3,80.4,19.4,80.5,19.5z M80.4,20.8v4.1H80v-4.1
			H80.4z"/>
		<path class="st25" d="M83.3,21.1c-0.3,0-0.5,0.2-0.8,0.5c-0.3,0.3-0.4,0.6-0.4,0.9v2.3h-0.4v-4.1h0.4v0.9c0.2-0.4,0.5-0.7,1-0.9
			L83.3,21.1z"/>
		<path class="st25" d="M84.7,21.4c0.1,0.1,0.1,0.2,0.1,0.3c0,0.1,0,0.2-0.1,0.3C84.6,22,84.6,22,84.5,22c-0.1,0-0.2,0-0.3-0.1
			c-0.1-0.1-0.1-0.2-0.1-0.3c0-0.1,0-0.2,0.1-0.3c0.1-0.1,0.2-0.1,0.3-0.1C84.6,21.3,84.6,21.3,84.7,21.4z M84.7,24.3
			c0.1,0.1,0.1,0.2,0.1,0.3c0,0.1,0,0.2-0.1,0.3c-0.1,0.1-0.2,0.1-0.3,0.1c-0.1,0-0.2,0-0.3-0.1c-0.1-0.1-0.1-0.2-0.1-0.3
			c0-0.1,0-0.2,0.1-0.3c0.1-0.1,0.2-0.1,0.3-0.1C84.6,24.2,84.6,24.2,84.7,24.3z"/>
		<path class="st26" d="M90.7,24.5V19L90,19.5l-0.3-0.2l1.3-1v6.1h1.4v0.4h-3.2v-0.4H90.7z"/>
	</g>
</g>
<g>
	<g>
		<path class="st25" d="M105.6,18.2l4.4,6.2v-6.2h0.4v6.6h-0.6l-4.3-6v6h-0.4v-6.6H105.6z"/>
		<path class="st25" d="M113.9,20.4c0.6,0,1.2,0.2,1.6,0.7s0.7,1,0.7,1.6c0,0.6-0.2,1.2-0.7,1.6c-0.4,0.4-1,0.7-1.6,0.7
			c-0.6,0-1.2-0.2-1.6-0.7c-0.4-0.4-0.7-1-0.7-1.6c0-0.6,0.2-1.2,0.7-1.6C112.8,20.6,113.3,20.4,113.9,20.4z M112.6,21.4
			c-0.4,0.4-0.5,0.8-0.5,1.3c0,0.5,0.2,1,0.5,1.3c0.4,0.4,0.8,0.5,1.3,0.5c0.5,0,1-0.2,1.3-0.5s0.5-0.8,0.5-1.3c0-0.5-0.2-1-0.5-1.3
			c-0.4-0.4-0.8-0.6-1.3-0.6C113.4,20.8,113,21,112.6,21.4z"/>
		<path class="st25" d="M120.8,22.5v2.3h-0.4v-6.6h1.7c0.5,0.1,0.9,0.3,1.3,0.6c0.4,0.4,0.6,0.9,0.6,1.5c0,0.6-0.2,1.1-0.6,1.5
			c-0.4,0.4-0.9,0.6-1.5,0.6H120.8z M120.8,18.6v3.6h1.1c0.5,0,0.9-0.2,1.3-0.5c0.3-0.3,0.5-0.8,0.5-1.3c0-0.5-0.2-0.9-0.5-1.3
			c-0.3-0.3-0.8-0.5-1.3-0.5H120.8z"/>
		<path class="st25" d="M125,22.5c0,0.1,0,0.1,0,0.2c0,0.5,0.2,1,0.5,1.3c0.4,0.4,0.8,0.5,1.3,0.5s1-0.2,1.3-0.6
			c0.1-0.1,0.1-0.1,0.2-0.2l0.4,0.1c0,0.1-0.1,0.2-0.3,0.3c-0.4,0.4-1,0.7-1.6,0.7c-0.6,0-1.2-0.2-1.6-0.7c-0.4-0.4-0.7-1-0.7-1.6
			c0-0.6,0.2-1.2,0.7-1.6c0.4-0.4,1-0.7,1.6-0.7c0.6,0,1.2,0.2,1.6,0.7c0.4,0.4,0.6,0.9,0.6,1.4H125z M125.1,22.1h3.6
			c-0.1-0.3-0.2-0.5-0.4-0.7c-0.4-0.4-0.8-0.6-1.3-0.6s-1,0.2-1.3,0.6C125.4,21.6,125.2,21.8,125.1,22.1z"/>
		<path class="st25" d="M131.6,21.1c-0.3,0-0.5,0.2-0.8,0.5c-0.3,0.3-0.4,0.6-0.4,0.9v2.3h-0.4v-4.1h0.4v0.9c0.2-0.4,0.5-0.7,1-0.9
			L131.6,21.1z"/>
		<path class="st25" d="M132.6,20.8h0.4v0.1c0.2-0.2,0.5-0.3,0.8-0.3c0.3,0,0.6,0.1,0.9,0.4c0.1,0.1,0.1,0.1,0.2,0.2
			c0-0.1,0.1-0.1,0.2-0.2c0.2-0.2,0.5-0.4,0.9-0.4s0.6,0.1,0.9,0.4c0.2,0.2,0.3,0.5,0.3,0.8v3.1h-0.4v-3.1h0c0-0.2-0.1-0.4-0.2-0.5
			c-0.2-0.2-0.4-0.2-0.6-0.2c-0.2,0-0.4,0.1-0.6,0.2c-0.2,0.2-0.2,0.4-0.2,0.6v3.1h-0.4v-3.1h0c0-0.2-0.1-0.4-0.2-0.5
			c-0.2-0.2-0.4-0.2-0.6-0.2s-0.4,0.1-0.6,0.2c-0.1,0.1-0.2,0.3-0.2,0.5v3.2h-0.4V20.8z"/>
		<path class="st25" d="M139,19.5c0.1,0.1,0.1,0.2,0.1,0.3c0,0.1,0,0.2-0.1,0.3c-0.1,0.1-0.2,0.1-0.3,0.1c-0.1,0-0.2,0-0.3-0.1
			c-0.1-0.1-0.1-0.2-0.1-0.3c0-0.1,0-0.2,0.1-0.3c0.1-0.1,0.2-0.1,0.3-0.1C138.8,19.3,138.9,19.4,139,19.5z M138.9,20.8v4.1h-0.4
			v-4.1H138.9z"/>
		<path class="st25" d="M141.8,21.1c-0.3,0-0.5,0.2-0.8,0.5c-0.3,0.3-0.4,0.6-0.4,0.9v2.3h-0.4v-4.1h0.4v0.9c0.2-0.4,0.5-0.7,1-0.9
			L141.8,21.1z"/>
		<path class="st25" d="M143.3,20.8v-1.7h0.4v1.7h0.8v0.4h-0.8v3.7h-0.4v-3.7h-0.8v-0.4H143.3z"/>
		<path class="st25" d="M146.1,19.5c0.1,0.1,0.1,0.2,0.1,0.3c0,0.1,0,0.2-0.1,0.3c-0.1,0.1-0.2,0.1-0.3,0.1c-0.1,0-0.2,0-0.3-0.1
			c-0.1-0.1-0.1-0.2-0.1-0.3c0-0.1,0-0.2,0.1-0.3c0.1-0.1,0.2-0.1,0.3-0.1C145.9,19.3,146,19.4,146.1,19.5z M146,20.8v4.1h-0.4v-4.1
			H146z"/>
		<path class="st25" d="M148.9,21.1c-0.3,0-0.5,0.2-0.8,0.5c-0.3,0.3-0.4,0.6-0.4,0.9v2.3h-0.4v-4.1h0.4v0.9c0.2-0.4,0.5-0.7,1-0.9
			L148.9,21.1z"/>
		<path class="st25" d="M150.3,21.4c0.1,0.1,0.1,0.2,0.1,0.3c0,0.1,0,0.2-0.1,0.3c-0.1,0.1-0.2,0.1-0.3,0.1c-0.1,0-0.2,0-0.3-0.1
			c-0.1-0.1-0.1-0.2-0.1-0.3c0-0.1,0-0.2,0.1-0.3c0.1-0.1,0.2-0.1,0.3-0.1C150.2,21.3,150.2,21.3,150.3,21.4z M150.3,24.3
			c0.1,0.1,0.1,0.2,0.1,0.3c0,0.1,0,0.2-0.1,0.3c-0.1,0.1-0.2,0.1-0.3,0.1c-0.1,0-0.2,0-0.3-0.1c-0.1-0.1-0.1-0.2-0.1-0.3
			c0-0.1,0-0.2,0.1-0.3c0.1-0.1,0.2-0.1,0.3-0.1C150.2,24.2,150.2,24.2,150.3,24.3z"/>
		<path class="st26" d="M158.7,21.6c0,1-0.2,1.8-0.7,2.4c-0.4,0.6-1,0.9-1.6,0.9c-0.6,0-1.1-0.3-1.6-0.9c-0.4-0.6-0.7-1.4-0.7-2.4
			c0-1,0.2-1.8,0.7-2.4c0.4-0.6,1-0.9,1.6-0.9c0.6,0,1.1,0.3,1.6,0.9C158.5,19.8,158.7,20.6,158.7,21.6z M158.3,21.6
			c0-0.9-0.2-1.6-0.5-2.2c-0.4-0.5-0.8-0.8-1.3-0.8s-0.9,0.3-1.3,0.8c-0.4,0.5-0.5,1.2-0.5,2.2c0,0.9,0.2,1.6,0.5,2.2
			c0.4,0.5,0.8,0.8,1.3,0.8s0.9-0.3,1.3-0.8C158.1,23.3,158.3,22.6,158.3,21.6z"/>
	</g>
</g>
</svg>
