<?xml version="1.0" encoding="utf-8"?>
<!-- Generator: Adobe Illustrator 24.0.2, SVG Export Plug-In . SVG Version: 6.00 Build 0)  -->
<svg version="1.1" id="off" xmlns="http://www.w3.org/2000/svg" xmlns:xlink="http://www.w3.org/1999/xlink" x="0px" y="0px"
	 viewBox="0 0 70.8 22.7" style="enable-background:new 0 0 70.8 22.7;" xml:space="preserve">
<style type="text/css">
	.st0{fill:#E9762F;}
	.st1{fill:#7382A3;}
	.st2{fill:#A4AAC2;}
	.st3{fill:#FFFFFF;}
	.st4{display:none;fill:#3F3F3F;}
	.st5{fill:#3F3F3F;}
	.st6{fill:none;stroke:#E9762E;stroke-width:0.5941;stroke-miterlimit:10;}
	.st7{clip-path:url(#SVGID_2_);}
	.st8{fill:#727276;}
	.st9{fill:#E9762E;}
	.st10{clip-path:url(#SVGID_6_);}
	.st11{fill:#E9762E;stroke:#E9762E;stroke-width:0.5;stroke-miterlimit:10;}
	.st12{fill:#E9762E;stroke:#E9762E;stroke-width:0.5162;stroke-miterlimit:10;}
</style>
<path class="st5" d="M59.5,22.7H11.4C5.1,22.7,0,17.6,0,11.4v0C0,5.1,5.1,0,11.4,0l48.1,0c6.3,0,11.4,5.1,11.4,11.4v0
	C70.8,17.6,65.7,22.7,59.5,22.7z"/>
<g>
	<path class="st12" d="M28.9,6.8h0.5v6.7c-0.1,0.7-0.4,1.3-0.9,1.8c-0.6,0.6-1.3,0.9-2.1,0.9c-0.8,0-1.6-0.3-2.1-0.9
		s-0.9-1.3-0.9-2.1V6.8h0.5v6.3c0,0.7,0.2,1.3,0.7,1.8s1.1,0.7,1.8,0.7s1.3-0.2,1.8-0.7c0.5-0.5,0.7-1.1,0.7-1.8V6.8z"/>
	<path class="st12" d="M32.3,13c-0.4-0.2-0.7-0.4-0.9-0.6c-0.3-0.3-0.4-0.6-0.4-1s0.1-0.7,0.4-1s0.6-0.4,1-0.4
		c0.4,0,0.7,0.1,0.9,0.4c0.2,0.2,0.4,0.5,0.4,0.8v0l-0.5,0.2c0-0.3-0.1-0.5-0.3-0.7c-0.1-0.1-0.3-0.2-0.6-0.2
		c-0.2,0-0.4,0.1-0.6,0.2s-0.2,0.4-0.2,0.6s0.1,0.4,0.2,0.6c0.1,0.1,0.3,0.2,0.6,0.4c0.5,0.3,0.8,0.5,1.1,0.7
		c0.3,0.3,0.5,0.7,0.5,1.2c0,0.5-0.2,0.9-0.5,1.2c-0.3,0.3-0.7,0.5-1.2,0.5c-0.5,0-0.9-0.2-1.2-0.5c-0.3-0.3-0.5-0.7-0.5-1.1
		l0.5-0.1c0,0.3,0.1,0.6,0.3,0.8s0.5,0.3,0.8,0.3c0.3,0,0.6-0.1,0.8-0.3s0.3-0.5,0.3-0.8c0-0.3-0.1-0.6-0.3-0.8
		C32.9,13.5,32.7,13.3,32.3,13z"/>
	<path class="st12" d="M37.3,16.2c-0.7,0-1.3-0.2-1.7-0.6c-0.4-0.4-0.6-1-0.6-1.6v-3.6h0.5v3.5c0,0.5,0.2,0.9,0.5,1.2
		c0.3,0.3,0.8,0.5,1.3,0.5c0.5,0,0.9-0.2,1.2-0.5s0.5-0.8,0.5-1.2v-3.5h0.5v3.6c0,0.6-0.2,1.2-0.6,1.6C38.5,16,38,16.2,37.3,16.2z"
		/>
	<path class="st12" d="M46.9,16.1h-0.5v-1.2c-0.1,0.1-0.2,0.3-0.3,0.4c-0.6,0.6-1.4,0.9-2.3,0.9c-0.9,0-1.6-0.3-2.2-0.9
		c-0.6-0.6-0.9-1.4-0.9-2.2c0-0.9,0.3-1.6,0.9-2.3s1.4-0.9,2.2-0.9c0.9,0,1.6,0.3,2.3,0.9c0.1,0.1,0.2,0.3,0.3,0.4v-0.8h0.5V16.1z
		 M46.4,13.6v-1c-0.1-0.5-0.3-1-0.7-1.3c-0.5-0.5-1.1-0.8-1.9-0.8c-0.7,0-1.3,0.3-1.9,0.8c-0.5,0.5-0.8,1.1-0.8,1.9
		c0,0.7,0.3,1.3,0.8,1.9c0.5,0.5,1.1,0.8,1.9,0.8c0.7,0,1.3-0.3,1.9-0.8C46.1,14.5,46.3,14.1,46.4,13.6z"/>
	<path class="st12" d="M50.2,10.9c-0.4,0.1-0.7,0.3-1.1,0.7s-0.5,0.8-0.5,1.3v3.3H48v-5.7h0.5v1.2c0.2-0.6,0.7-1,1.3-1.3L50.2,10.9z
		"/>
	<path class="st12" d="M51.6,8.5c0.1,0.1,0.2,0.2,0.2,0.4c0,0.1-0.1,0.3-0.2,0.4c-0.1,0.1-0.2,0.2-0.4,0.2c-0.1,0-0.3-0.1-0.4-0.2
		c-0.1-0.1-0.2-0.2-0.2-0.4c0-0.1,0.1-0.3,0.2-0.4s0.2-0.2,0.4-0.2C51.4,8.4,51.5,8.4,51.6,8.5z M51.5,10.4v5.7H51v-5.7H51.5z"/>
	<path class="st12" d="M55.9,9.9c0.9,0,1.6,0.3,2.3,0.9s0.9,1.4,0.9,2.3c0,0.9-0.3,1.6-0.9,2.2c-0.6,0.6-1.4,0.9-2.3,0.9
		c-0.9,0-1.6-0.3-2.2-0.9c-0.6-0.6-0.9-1.4-0.9-2.2c0-0.9,0.3-1.6,0.9-2.3C54.3,10.2,55,9.9,55.9,9.9z M54.1,11.2
		c-0.5,0.5-0.8,1.1-0.8,1.9c0,0.7,0.3,1.3,0.8,1.9c0.5,0.5,1.1,0.8,1.9,0.8c0.7,0,1.3-0.3,1.9-0.8c0.5-0.5,0.8-1.1,0.8-1.9
		c0-0.7-0.3-1.3-0.8-1.9s-1.1-0.8-1.9-0.8C55.2,10.4,54.6,10.7,54.1,11.2z"/>
	<path class="st12" d="M61.7,13c-0.4-0.2-0.7-0.4-0.9-0.6c-0.3-0.3-0.4-0.6-0.4-1s0.1-0.7,0.4-1c0.3-0.3,0.6-0.4,1-0.4
		s0.7,0.1,0.9,0.4c0.2,0.2,0.4,0.5,0.4,0.8v0l-0.5,0.2c0-0.3-0.1-0.5-0.3-0.7c-0.1-0.1-0.3-0.2-0.6-0.2c-0.2,0-0.4,0.1-0.6,0.2
		s-0.2,0.4-0.2,0.6s0.1,0.4,0.2,0.6c0.1,0.1,0.3,0.2,0.6,0.4c0.5,0.3,0.8,0.5,1.1,0.7c0.3,0.3,0.5,0.7,0.5,1.2
		c0,0.5-0.2,0.9-0.5,1.2c-0.3,0.3-0.7,0.5-1.2,0.5c-0.5,0-0.9-0.2-1.2-0.5c-0.3-0.3-0.5-0.7-0.5-1.1l0.5-0.1c0,0.3,0.1,0.6,0.3,0.8
		c0.2,0.2,0.5,0.3,0.8,0.3c0.3,0,0.6-0.1,0.8-0.3s0.3-0.5,0.3-0.8c0-0.3-0.1-0.6-0.3-0.8C62.3,13.5,62.1,13.3,61.7,13z"/>
</g>
<g>
	<circle class="st3" cx="14.5" cy="7.1" r="2.3"/>
	<circle class="st3" cx="19.1" cy="8" r="1.5"/>
	<circle class="st3" cx="9.8" cy="8" r="1.5"/>
	<path class="st3" d="M11.2,10.8c-0.6-0.5-1.1-0.4-1.8-0.4c-1,0-1.8,0.8-1.8,1.8V15c0,0.4,0.4,0.8,0.8,0.8c1.9,0,1.6,0,1.6-0.1
		C10.1,13.7,9.8,12.2,11.2,10.8z"/>
	<path class="st3" d="M15.1,10.4c-1.2-0.1-2.2,0-3,0.7c-1.5,1.2-1.2,2.7-1.2,4.7c0,0.5,0.4,0.9,0.9,0.9c5.6,0,5.8,0.2,6.2-0.6
		c0.1-0.2,0.1-0.2,0.1-2.6C18,11.7,16.4,10.4,15.1,10.4L15.1,10.4z"/>
	<path class="st3" d="M19.5,10.3c-0.7,0-1.2-0.1-1.8,0.4c1.4,1.4,1.1,2.8,1.1,5c0,0.1-0.2,0.1,1.6,0.1c0.4,0,0.8-0.4,0.8-0.8v-2.9
		C21.3,11.2,20.5,10.3,19.5,10.3z"/>
</g>
</svg>
