<?xml version="1.0" encoding="utf-8"?>
<!-- Generator: Adobe Illustrator 24.0.2, SVG Export Plug-In . SVG Version: 6.00 Build 0)  -->
<svg version="1.1" id="Capa_1" xmlns="http://www.w3.org/2000/svg" xmlns:xlink="http://www.w3.org/1999/xlink" x="0px" y="0px"
	 viewBox="0 0 512 512" style="enable-background:new 0 0 512 512;" xml:space="preserve">
<style type="text/css">
	.st0{fill:#E9762E;}
</style>
<g>
	<path class="st0" d="M25.8,440.2c0,0.4,0,0.8,0.4,1.6c0,0.4,0.4,1.2,0.4,1.6c0,0.4,0.4,0.8,0.4,1.6c0.4,0.4,0.4,0.8,0.8,1.6
		c0.4,0.4,0.4,0.8,0.8,1.2c0.4,0.4,0.8,0.8,0.8,1.2c0.4,0.4,0.8,0.8,1.2,1.2l0.4,0.4c0,0,0.4,0,0.4,0.4c1.2,1.2,2.8,2,4.4,2.4
		c0.4,0,0.4,0,0.8,0.4c1.6,0.4,3.2,0.8,4.8,0.8l0,0h428.3l0,0c1.6,0,3.2-0.4,4.8-0.8c0.4,0,0.4,0,0.8-0.4c1.6-0.8,3.2-1.6,4.4-2.4
		c0,0,0.4,0,0.4-0.4l0.4-0.4c0.4-0.4,0.8-0.8,1.2-1.2c0.4-0.4,0.8-0.8,0.8-1.2c0.4-0.4,0.4-0.8,0.8-1.2c0.4-0.4,0.4-0.8,0.8-1.6
		c0.4-0.4,0.4-0.8,0.4-1.6c0-0.4,0.4-1.2,0.4-1.6c0-0.4,0.4-0.8,0.4-1.6c0-0.4,0-1.2,0-1.6s0-0.4,0-0.8V74.2
		c0-9.1-7.1-16.3-16.3-16.3H41.7c-9.1,0-16.3,7.1-16.3,16.3v363.6c0,0.4,0,0.4,0,0.8C25.8,439,25.8,439.4,25.8,440.2L25.8,440.2z
		 M76.6,421.5l120.3-143.7l50,34.9c2.8,2,6,2.8,9.1,2.8s6.4-0.8,9.1-2.8l50-34.9l120.3,143.7L76.6,421.5L76.6,421.5z M454.1,392.9
		L341.7,259.2L453.7,181v211.9L454.1,392.9z M58.3,90.5h395.7v51.2L256.4,279.4L58.3,141.7L58.3,90.5L58.3,90.5z M58.3,181
		l111.9,78.2L58.3,392.9V181L58.3,181z"/>
</g>
</svg>
