<?xml version="1.0" encoding="utf-8"?>
<!-- Generator: Adobe Illustrator 24.0.2, SVG Export Plug-In . SVG Version: 6.00 Build 0)  -->
<svg version="1.1" id="Capa_1" xmlns="http://www.w3.org/2000/svg" xmlns:xlink="http://www.w3.org/1999/xlink" x="0px" y="0px"
	 viewBox="0 0 512 512" style="enable-background:new 0 0 512 512;" xml:space="preserve">
<style type="text/css">
	.st0{fill:#E9762E;}
</style>
<g>
	<path class="st0" d="M146.5,453.7l214.3,32.5c0.8,0,1.6,0,2.4,0c4,0,7.5-1.2,10.7-4c3.6-3.2,5.6-7.5,5.6-12.3V74.2
		c0-7.9-6-14.7-13.9-15.9L151.2,25.8c-4.8-0.8-9.5,0.8-13.1,3.6c-3.6,3.2-5.6,7.5-5.6,12.3v395.7
		C132.6,445.7,138.5,452.5,146.5,453.7L146.5,453.7z M165.1,60.7l181.8,27.4v363.2l-181.8-27.4V60.7z"/>
</g>
</svg>
