<?xml version="1.0" encoding="utf-8"?>
<!-- Generator: Adobe Illustrator 24.0.2, SVG Export Plug-In . SVG Version: 6.00 Build 0)  -->
<svg version="1.1" id="Capa_1" xmlns="http://www.w3.org/2000/svg" xmlns:xlink="http://www.w3.org/1999/xlink" x="0px" y="0px"
	 viewBox="0 0 512 512" style="enable-background:new 0 0 512 512;" xml:space="preserve">
<style type="text/css">
	.st0{fill:#E9762E;}
</style>
<g>
	<g>
		<path class="st0" d="M256,25.4C154.8,25.4,72.2,108,72.2,209.6c0,12.3,1.2,24.6,3.6,36.5c0,0.8,0.4,1.6,0.4,2.8
			c20.2,90.9,162.7,227.4,168.7,233c3.2,3.2,7.1,4.4,11.1,4.4s7.9-1.6,11.1-4.4c6-6,147.6-142.1,167.9-231c0-0.8,0.4-1.6,0.4-2.4
			c2.8-12.7,4-25.8,4-38.9C439.8,108,357.2,25.4,256,25.4L256,25.4z M403.6,242.5c0,0.8,0,0.4,0,1.2
			C388.6,309.6,289.7,413.6,256,447.3c-33.7-33.7-133-137.7-148-205.2c0-0.8,0-1.2-0.4-2c-2-10.3-3.2-20.6-3.2-31
			c0-83.3,67.9-151.6,151.2-151.6s151.6,67.9,151.6,151.6C407.2,220.7,406,231.8,403.6,242.5L403.6,242.5z"/>
		<path class="st0" d="M256,129c-34.1,0-61.5,27.8-61.5,61.5S222.3,252,256,252s61.5-27.4,61.5-61.5S290.1,129,256,129z M256,219.9
			c-16.3,0-29.4-13.1-29.4-29.4s13.1-29.4,29.4-29.4s29.4,13.1,29.4,29.4S272.3,219.9,256,219.9z"/>
	</g>
</g>
</svg>
