<svg id="Layer_1" data-name="Layer 1" xmlns="http://www.w3.org/2000/svg" viewBox="0 0 512 512"><defs><style>.cls-1{fill:#e9762e;}</style></defs><title>I</title><path class="cls-1" d="M345.41,107.17,296.65,39.45a10,10,0,0,0-16.23,0l-48.76,67.72a10,10,0,0,0-1.89,5.84V439.12a37.46,37.46,0,0,0,37.42,37.42h42.69a37.46,37.46,0,0,0,37.42-37.42V113A10,10,0,0,0,345.41,107.17ZM288.54,62.4l30.39,42.21H258.15Zm-38.77,62.21h47.48v259H279.82v-191a10,10,0,0,0-20,0v191h-10v-259ZM327.3,439.12a17.44,17.44,0,0,1-17.42,17.42H267.19a17.44,17.44,0,0,1-17.42-17.42v-35.5H327.3Zm0-55.5H317.25v-259H327.3Z"/><path class="cls-1" d="M279.62,150.5a10.58,10.58,0,0,0-.57-1.87,10.15,10.15,0,0,0-.92-1.72,9.57,9.57,0,0,0-1.24-1.52,10.21,10.21,0,0,0-1.52-1.25,9.83,9.83,0,0,0-1.73-.91,10.13,10.13,0,0,0-1.87-.58,10.29,10.29,0,0,0-3.91,0,10.62,10.62,0,0,0-1.87.58,10.1,10.1,0,0,0-1.72.91,10,10,0,0,0-3.69,4.49,10.58,10.58,0,0,0-.57,1.87,10,10,0,0,0,9.81,12,9.85,9.85,0,0,0,1.95-.2,10.1,10.1,0,0,0,1.87-.57,9.87,9.87,0,0,0,1.73-.92,9.72,9.72,0,0,0,2.76-2.76,9.87,9.87,0,0,0,.92-1.73,10.1,10.1,0,0,0,.57-1.87,9.85,9.85,0,0,0,.2-1.95A10,10,0,0,0,279.62,150.5Z"/><path class="cls-1" d="M97.26,222.57v-1.52a14.31,14.31,0,0,1,14.3-14.29H112l30.46-1.29a32.45,32.45,0,0,0-.23-64.9H74.15A12.47,12.47,0,0,1,61.7,128.1a12.23,12.23,0,0,1,3.69-8.78,11.93,11.93,0,0,1,8.41-3.47h59.9a40.28,40.28,0,0,0,0-80.56H66a10,10,0,1,0,0,20H133.7a20.28,20.28,0,1,1,0,40.56H74.22A32.23,32.23,0,0,0,41.7,128.11a32.49,32.49,0,0,0,32.45,32.45h68.06a12.45,12.45,0,1,1,0,24.9h-.43l-30.45,1.29a34.34,34.34,0,0,0-34.07,34.31v1.51A87.4,87.4,0,0,0,0,309.28v80.15a87.29,87.29,0,0,0,174.57,0V309.28A87.41,87.41,0,0,0,97.26,222.57ZM20,309.28a67.39,67.39,0,0,1,57.28-66.54V324.3H20Zm134.57,80.15a67.29,67.29,0,0,1-134.57,0V344.3H154.57Zm0-65.13H97.28V242.74a67.39,67.39,0,0,1,57.29,66.54Z"/><path class="cls-1" d="M37.26,43.33a10.58,10.58,0,0,0-.57-1.87,10.15,10.15,0,0,0-.92-1.72,9.57,9.57,0,0,0-1.24-1.52,10,10,0,0,0-14.14,0,10.14,10.14,0,0,0-2.16,3.24,9.85,9.85,0,0,0-.58,1.87,10,10,0,0,0-.19,2,9.84,9.84,0,0,0,.19,2,9.42,9.42,0,0,0,.58,1.87,9.25,9.25,0,0,0,.92,1.73,9.72,9.72,0,0,0,2.76,2.76,10.15,10.15,0,0,0,1.72.92,10.44,10.44,0,0,0,1.88.57,9.85,9.85,0,0,0,1.95.2,10.08,10.08,0,0,0,7.07-2.93,9.57,9.57,0,0,0,1.24-1.52,9.87,9.87,0,0,0,.92-1.73,10.1,10.1,0,0,0,.57-1.87,9.85,9.85,0,0,0,.2-2A10,10,0,0,0,37.26,43.33Z"/><path class="cls-1" d="M511.92,135.07c-1.1-23.6-13-35.28-22.54-44.66C479.05,80.25,472.81,74.12,478.7,54c2.67-9.1-1-13.87-3.44-15.91-3-2.53-8.41-4.67-16.95-.44-11.06,5.48-27.86,21.58-40.84,39.16-11.92,16.14-25.9,40.31-24.8,63.8a65.53,65.53,0,0,0,20.43,45,48.49,48.49,0,0,0-9.57,29,49.12,49.12,0,0,0,4,19.39V429.44a43.14,43.14,0,0,0,86.27,0v-189a48.89,48.89,0,0,0-2-54.52C505.28,173.36,512.85,154.79,511.92,135.07ZM473.75,429.44a23.13,23.13,0,0,1-46.26,0V256.68a49,49,0,0,0,17.33,6.14,9.64,9.64,0,0,0,1.52.12h11.93a9.64,9.64,0,0,0,1.52-.12c.66-.1,1.32-.22,2-.35l1.24-.26.54-.12a49,49,0,0,0,10.21-3.61v171ZM465.82,240l-.12.06c-.29.16-.58.3-.87.45l-.42.2-.68.3c-.21.1-.43.19-.64.27s-.35.15-.53.21-.53.2-.8.3l-.42.15-.92.28-.36.11-1,.26-.29.07c-.43.1-.87.19-1.31.27H447.14c-.48-.09-1-.19-1.43-.31l-.57-.14-.84-.23-.71-.21-.53-.18a28.76,28.76,0,0,1-8.28-50l.8-.59c.46-.33.93-.65,1.41-1l.64-.4c.66-.39,1.34-.76,2-1.1l.21-.11c.4-.19.81-.38,1.22-.55l.21-.08c.72-.3,1.45-.57,2.2-.81q.35-.12.69-.21c.51-.15,1-.29,1.53-.41s.79-.18,1.19-.25l.82-.15q.93-.15,1.89-.24l.52,0c.72-.05,1.44-.09,2.17-.09s1.47,0,2.2.1l.52,0c.63.06,1.27.15,1.89.25.29,0,.57.09.85.15s.8.16,1.2.26,1,.26,1.54.41l.64.2c.72.23,1.42.49,2.11.77l.31.13a29.55,29.55,0,0,1,3.5,1.79l.73.46c.46.29.9.59,1.33.91s.61.44.9.67a28.74,28.74,0,0,1-4.21,48Zm11-67.55c-.21-.13-.44-.24-.66-.36-.52-.29-1-.58-1.58-.85l-.82-.42a48.62,48.62,0,0,0-5.52-2.3l-.32-.1c-.94-.32-1.9-.62-2.88-.88h0a48.35,48.35,0,0,0-6-1.22l-.57-.07q-1.18-.15-2.4-.24l-.72-.06c-1-.06-2-.1-3-.1s-2,0-2.94.1l-.7.05c-.8.06-1.59.14-2.38.24l-.56.07a48.39,48.39,0,0,0-8.86,2.06l-.24.08c-.9.31-1.79.64-2.67,1l-.22.08c-.92.38-1.82.78-2.71,1.22l-.57.29c-.61.31-1.21.62-1.8,1-.18.1-.36.18-.53.28a45.37,45.37,0,0,1-15.48-32.55c-.67-14.34,7.74-34,23.06-53.83a159,159,0,0,1,20.94-22.6c-1.66,21.36,9.46,32.29,18.71,41.38C483.87,113,491.21,120.24,492,136,492.62,150.41,486.93,163.86,476.81,172.46Z"/></svg>