<svg id="Layer_1" data-name="Layer 1" xmlns="http://www.w3.org/2000/svg" viewBox="0 0 512 512"><defs><style>.cls-1{fill:#e9762e;}</style></defs><title>I</title><path class="cls-1" d="M409.6,256a17.07,17.07,0,0,0-17.07,17.07V443.73a17.07,17.07,0,0,1-17.07,17.07H68.27A17.07,17.07,0,0,1,51.2,443.73V102.4A17.07,17.07,0,0,1,68.27,85.33h204.8a17.07,17.07,0,0,0,0-34.13H68.27a51.2,51.2,0,0,0-51.2,51.2V443.73a51.2,51.2,0,0,0,51.2,51.2h307.2a51.2,51.2,0,0,0,51.2-51.2V273.07A17.07,17.07,0,0,0,409.6,256Z"/><path class="cls-1" d="M475.81,36.21a65.33,65.33,0,0,0-92.41,0L158.6,261a17.17,17.17,0,0,0-4.11,6.67l-34.14,102.4a17.07,17.07,0,0,0,21.58,21.59l102.4-34.13A17,17,0,0,0,251,353.4L475.8,128.6A65.33,65.33,0,0,0,475.81,36.21Z"/></svg>