<svg id="Layer_1" data-name="Layer 1" xmlns="http://www.w3.org/2000/svg" viewBox="0 0 512 512"><defs><style>.cls-1{fill:#e9762e;}</style></defs><title>I</title><path class="cls-1" d="M492,311.71a20,20,0,0,0,20-20v-43a80,80,0,0,0-41-69.81V108.71a20,20,0,0,0-20-20H391v-69a20,20,0,0,0-20-20H141a20,20,0,0,0-20,20v69H61a20,20,0,0,0-20,20V178.9A80,80,0,0,0,0,248.71v143a80.09,80.09,0,0,0,80,80h41v20a20,20,0,0,0,20,20H371a20,20,0,0,0,20-20v-20h41a80.09,80.09,0,0,0,80-80,20,20,0,0,0-40,0,40.05,40.05,0,0,1-40,40H391v-83h21a20,20,0,0,0,0-40H100a20,20,0,0,0,0,40h21v83H80a40.05,40.05,0,0,1-40-40v-143a40,40,0,0,1,40-40H432a40,40,0,0,1,40,40v43A20,20,0,0,0,492,311.71Zm-141,37v123H161v-123Zm80-220v40H391v-40Zm-80-89v129H161v-129Zm-230,89v40H81v-40Zm70-20a20,20,0,0,1,20-20h90a20,20,0,0,1,0,40H211A20,20,0,0,1,191,108.71Z"/></svg>