<?xml version="1.0" encoding="utf-8"?>
<!-- Generator: Adobe Illustrator 24.0.2, SVG Export Plug-In . SVG Version: 6.00 Build 0)  -->
<svg version="1.1" id="Layer_1" xmlns="http://www.w3.org/2000/svg" xmlns:xlink="http://www.w3.org/1999/xlink" x="0px" y="0px"
	 viewBox="0 0 512 512" style="enable-background:new 0 0 512 512;" xml:space="preserve">
<style type="text/css">
	.st0{display:none;}
	.st1{display:inline;}
	.st2{fill:#FFFFFF;}
</style>
<g class="st0">
	<g class="st1">
		<path class="st2" d="M388.8,123.2c-29.2-29.2-68-45.3-109.3-45.3c-8.5,0-15.4,6.9-15.4,15.4s6.9,15.4,15.4,15.4
			c33.1,0,64.2,12.9,87.6,36.3c23.4,23.4,36.3,54.5,36.3,87.6c0,8.5,6.9,15.4,15.4,15.4c8.5,0,15.4-6.9,15.4-15.4
			C434.1,191.2,418,152.4,388.8,123.2z"/>
	</g>
</g>
<g class="st0">
	<g class="st1">
		<path class="st2" d="M443.9,68.1C400,24.2,341.6,0,279.5,0c-8.5,0-15.4,6.9-15.4,15.4c0,8.5,6.9,15.4,15.4,15.4
			c53.9,0,104.6,21,142.7,59.1c38.1,38.1,59.1,88.8,59.1,142.7c0,8.5,6.9,15.4,15.4,15.4c8.5,0,15.4-6.9,15.4-15.4
			C512,170.4,487.8,112,443.9,68.1z"/>
	</g>
</g>
<g class="st0">
	<g class="st1">
		<path class="st2" d="M333.7,178.3c-14.7-14.7-33.5-22.5-54.3-22.5c0,0,0,0,0,0c-8.5,0-15.4,6.9-15.4,15.4
			c0,8.5,6.9,15.4,15.4,15.4c0,0,0,0,0,0c12.6,0,23.6,4.5,32.5,13.5c8.8,8.8,13.5,20.1,13.5,32.5c0,8.5,6.9,15.4,15.4,15.4h0
			c8.5,0,15.4-6.9,15.4-15.4C356.2,211.7,348.4,193,333.7,178.3z"/>
	</g>
</g>
<g>
	<path class="st2" d="M255.8,0.5C114.5,0.5,0,115,0,256.3S114.5,512,255.8,512c141.3,0,255.8-114.5,255.8-255.7S397,0.5,255.8,0.5z
		 M255.8,77c46.7,0,84.6,37.9,84.6,84.6c0,46.7-37.9,84.6-84.6,84.6c-46.7,0-84.6-37.9-84.6-84.6C171.2,114.9,209,77,255.8,77z
		 M255.7,445.1c-46.6,0-89.3-17-122.2-45.1c-8-6.8-12.6-16.9-12.6-27.4c0-47.4,38.3-85.3,85.7-85.3H305c47.4,0,85.6,37.9,85.6,85.3
		c0,10.5-4.6,20.5-12.6,27.4C345,428.2,302.3,445.1,255.7,445.1z"/>
</g>
</svg>
