<svg xmlns="http://www.w3.org/2000/svg" xmlns:xlink="http://www.w3.org/1999/xlink" viewBox="0 0 1920 1080"><defs><style>.cls-1,.cls-15,.cls-16,.cls-6{fill:none;}.cls-2{isolation:isolate;}.cls-3{clip-path:url(#clip-path);}.cls-4{fill:url(#Degradado_sin_nombre_3);}.cls-5{fill:url(#Degradado_sin_nombre_29);}.cls-15,.cls-16,.cls-6{stroke:#fff;stroke-miterlimit:10;}.cls-7{fill:url(#Degradado_sin_nombre_29-2);}.cls-8{fill:url(#Degradado_sin_nombre_2);}.cls-11,.cls-14,.cls-9{fill:#e22727;}.cls-9{opacity:0.35;}.cls-11,.cls-13,.cls-9{mix-blend-mode:overlay;}.cls-10,.cls-20{opacity:0.72;mix-blend-mode:color-dodge;}.cls-10{fill:url(#Degradado_sin_nombre_7);}.cls-11,.cls-13{opacity:0.29;}.cls-12{fill:#f49739;}.cls-15{stroke-width:3px;}.cls-16{stroke-width:2px;}.cls-17,.cls-18,.cls-21,.cls-22{opacity:0.43;mix-blend-mode:screen;}.cls-17{fill:url(#Degradado_sin_nombre_6);}.cls-18{fill:url(#Degradado_sin_nombre_6-2);}.cls-19{fill:url(#Degradado_sin_nombre_2-2);}.cls-20{fill:url(#Degradado_sin_nombre_7-2);}.cls-21{fill:url(#Degradado_sin_nombre_6-3);}.cls-22{fill:url(#Degradado_sin_nombre_6-4);}</style><clipPath id="clip-path"><rect class="cls-1" x="-3.62" y="-82.96" width="1927.24" height="1284.83" transform="translate(1920 1118.91) rotate(180)"/></clipPath><radialGradient id="Degradado_sin_nombre_3" cx="960" cy="559.46" r="818.92" gradientTransform="translate(1920 1118.91) rotate(-180)" gradientUnits="userSpaceOnUse"><stop offset="0" stop-color="#3f3f3f"/><stop offset="0.4" stop-color="#3d3d3d"/><stop offset="0.6" stop-color="#353535"/><stop offset="0.76" stop-color="#282828"/><stop offset="0.89" stop-color="#151515"/><stop offset="1"/></radialGradient><linearGradient id="Degradado_sin_nombre_29" x1="-11.75" y1="961.32" x2="35.25" y2="961.32" gradientUnits="userSpaceOnUse"><stop offset="0" stop-color="#ffce00"/><stop offset="1" stop-color="#cd6b00"/></linearGradient><linearGradient id="Degradado_sin_nombre_29-2" x1="1188.41" y1="449.69" x2="1235.41" y2="449.69" gradientTransform="translate(698.95 -276.66)" xlink:href="#Degradado_sin_nombre_29"/><linearGradient id="Degradado_sin_nombre_2" x1="786.06" y1="992.46" x2="1942.66" y2="992.46" gradientUnits="userSpaceOnUse"><stop offset="0" stop-color="#ff3f45"/><stop offset="0.06" stop-color="#ff5433"/><stop offset="0.14" stop-color="#ff6a20"/><stop offset="0.24" stop-color="#ff7b12"/><stop offset="0.36" stop-color="#ff8607"/><stop offset="0.53" stop-color="#ff8d02"/><stop offset="1" stop-color="#ff8f00"/></linearGradient><linearGradient id="Degradado_sin_nombre_7" x1="1433.93" y1="981.87" x2="1433.93" y2="1250.35" gradientUnits="userSpaceOnUse"><stop offset="0" stop-color="#f7941e" stop-opacity="0"/><stop offset="0.12" stop-color="#f7941e" stop-opacity="0.02"/><stop offset="0.24" stop-color="#f7941e" stop-opacity="0.07"/><stop offset="0.38" stop-color="#f7941e" stop-opacity="0.16"/><stop offset="0.51" stop-color="#f7941e" stop-opacity="0.28"/><stop offset="0.64" stop-color="#f7941e" stop-opacity="0.44"/><stop offset="0.78" stop-color="#f7941e" stop-opacity="0.63"/><stop offset="0.92" stop-color="#f7941e" stop-opacity="0.85"/><stop offset="1" stop-color="#f7941e"/></linearGradient><radialGradient id="Degradado_sin_nombre_6" cx="1413.14" cy="898.3" r="522.6" gradientUnits="userSpaceOnUse"><stop offset="0" stop-color="#262c38"/><stop offset="0.24" stop-color="#222832"/><stop offset="0.56" stop-color="#171b23"/><stop offset="0.91" stop-color="#060708"/><stop offset="1"/></radialGradient><radialGradient id="Degradado_sin_nombre_6-2" cx="1500.72" cy="959.18" r="561.7" xlink:href="#Degradado_sin_nombre_6"/><linearGradient id="Degradado_sin_nombre_2-2" x1="983.41" y1="1018.42" x2="2140.01" y2="1018.42" gradientTransform="translate(2119.58 1145.68) rotate(180)" xlink:href="#Degradado_sin_nombre_2"/><linearGradient id="Degradado_sin_nombre_7-2" x1="1631.28" y1="1007.83" x2="1631.28" y2="1276.31" gradientTransform="translate(2119.58 1145.68) rotate(180)" xlink:href="#Degradado_sin_nombre_7"/><radialGradient id="Degradado_sin_nombre_6-3" cx="1610.49" cy="924.26" r="522.6" gradientTransform="translate(2119.58 1145.68) rotate(180)" xlink:href="#Degradado_sin_nombre_6"/><radialGradient id="Degradado_sin_nombre_6-4" cx="1698.08" cy="985.14" r="561.7" gradientTransform="translate(2119.58 1145.68) rotate(180)" xlink:href="#Degradado_sin_nombre_6"/></defs><title>FL</title><g class="cls-2"><g id="BACKGROUND"><g class="cls-3"><rect class="cls-4" x="-3.62" y="-82.96" width="1927.24" height="1284.83" transform="translate(1920 1118.91) rotate(180)"/><rect class="cls-1" x="-3.62" y="-82.96" width="1927.24" height="1284.83" transform="translate(1920 1118.91) rotate(180)"/></g><g class="cls-3"><rect class="cls-5" x="-11.75" y="798.96" width="47" height="324.72"/><rect class="cls-6" x="9.61" y="841.69" width="47" height="324.72"/><rect class="cls-7" x="1887.36" y="10.67" width="47" height="324.72" transform="translate(3821.72 346.06) rotate(180)"/><rect class="cls-6" x="1866" y="-32.05" width="47" height="324.72" transform="translate(3778.99 260.61) rotate(180)"/><polygon class="cls-8" points="1942.66 1223.02 1942.66 758.94 786.06 1225.99 1942.66 1223.02"/><polyline class="cls-9" points="1942.66 754.14 1942.66 1226.38 1297.93 1226.38 1942.66 754.14"/><polygon class="cls-10" points="786.06 1225.99 2081.79 981.87 2081.79 1250.35 786.06 1225.99"/><polygon class="cls-11" points="757.29 1239.04 787.1 1229.14 1535.97 1199.52 1957.89 751.97 757.29 1239.04"/><polygon class="cls-12" points="1947.51 732.67 1639.42 853.49 1964.66 578.84 1947.51 732.67"/><polygon class="cls-11" points="1947.51 732.67 1639.42 853.49 1964.66 578.84 1947.51 732.67"/><g class="cls-13"><polygon class="cls-14" points="1956.43 648.33 1641.55 852.65 1947.51 732.67 1956.43 648.33"/></g><line class="cls-15" x1="735.93" y1="1213.4" x2="2039.07" y2="786.15"/><line class="cls-16" x1="821.38" y1="1266.81" x2="1942.66" y2="758.94"/><polygon class="cls-6" points="1992.07 625.92 1673.76 803.24 1974.98 478.52 1992.07 625.92"/><polygon class="cls-17" points="757.29 1239.04 1987.8 557.56 2068.97 935.68 757.29 1239.04"/><polygon class="cls-18" points="757.29 1239.04 2051.89 679.33 2244.15 1087.36 757.29 1239.04"/><polygon class="cls-19" points="-20.43 -103.3 -20.43 360.79 1136.16 -106.27 -20.43 -103.3"/><polyline class="cls-9" points="-20.43 365.58 -20.43 -106.65 624.29 -106.65 -20.43 365.58"/><polygon class="cls-20" points="1136.16 -106.27 -159.57 137.85 -159.57 -130.63 1136.16 -106.27"/><polygon class="cls-11" points="1164.93 -119.31 1135.12 -109.41 386.25 -79.79 -35.66 367.76 1164.93 -119.31"/><polygon class="cls-12" points="-25.28 387.05 282.81 266.23 -42.44 540.89 -25.28 387.05"/><polygon class="cls-11" points="-25.28 387.05 282.81 266.23 -42.44 540.89 -25.28 387.05"/><g class="cls-13"><polygon class="cls-14" points="-34.2 471.39 280.68 267.07 -25.28 387.05 -34.2 471.39"/></g><line class="cls-15" x1="1186.29" y1="-93.68" x2="-116.84" y2="333.58"/><line class="cls-16" x1="1100.84" y1="-147.09" x2="-20.44" y2="360.79"/><polygon class="cls-6" points="-69.84 493.8 248.46 316.49 -52.75 641.2 -69.84 493.8"/><polygon class="cls-21" points="1164.93 -119.31 -65.57 562.16 -146.75 184.04 1164.93 -119.31"/><polygon class="cls-22" points="1164.93 -119.31 -129.66 440.39 -321.93 32.36 1164.93 -119.31"/></g></g></g></svg>