<?xml version="1.0" encoding="utf-8"?>
<!-- Generator: Adobe Illustrator 24.0.2, SVG Export Plug-In . SVG Version: 6.00 Build 0)  -->
<svg version="1.1" id="Capa_1" xmlns="http://www.w3.org/2000/svg" xmlns:xlink="http://www.w3.org/1999/xlink" x="0px" y="0px"
	 viewBox="0 0 1639 104.04" style="enable-background:new 0 0 1639 104.04;" xml:space="preserve">
<style type="text/css">
	.st0{fill:#3F3F3F;}
	.st1{display:none;fill:#3F3F3F;}
	.st2{fill:#E9762E;}
	.st3{fill:#FFFEFD;}
	.st4{clip-path:url(#SVGID_2_);}
	.st5{fill:#727276;}
	.st6{fill:#515A6E;}
	.st7{fill:#E5D6B9;}
	.st8{fill:#D1A982;}
	.st9{fill:#49AAB7;}
	.st10{fill:#488089;}
	.st11{fill:#5CBF96;}
	.st12{fill:#529E5F;}
	.st13{fill:#E6E6E6;}
	.st14{fill:#CCCCCC;}
	.st15{fill:#EA7E5A;}
	.st16{fill:#D64F39;}
	.st17{fill:#F7D65E;}
	.st18{fill:#D1A22A;}
	.st19{fill:#ED5972;}
	.st20{fill:#D8375A;}
	.st21{fill:#57555C;}
	.st22{fill:#787780;}
	.st23{fill:#4DBBEB;}
	.st24{fill:#159CE4;}
	.st25{fill:#E5E5E5;}
	.st26{fill:#D9D9D9;}
	.st27{fill:#AEADB3;}
	.st28{fill:#0A4EAF;}
	.st29{fill:#44C4A1;}
	.st30{fill:#DC8744;}
	.st31{fill:#D5D6DB;}
	.st32{fill:#E1E6E9;}
	.st33{fill:#FCD462;}
	.st34{fill:#3A556A;}
	.st35{clip-path:url(#SVGID_6_);}
	.st36{clip-path:url(#SVGID_10_);}
	.st37{clip-path:url(#SVGID_14_);}
	.st38{clip-path:url(#SVGID_18_);}
	.st39{clip-path:url(#SVGID_22_);}
	.st40{clip-path:url(#SVGID_26_);}
	.st41{fill:#FFFFFF;}
	.st42{fill:none;stroke:#E9762E;stroke-width:3.0799;stroke-miterlimit:10;}
	.st43{fill:none;stroke:#E9762E;stroke-width:3.8262;stroke-miterlimit:10;}
	.st44{display:none;fill:#FFFEFD;}
	.st45{display:none;}
	.st46{display:inline;}
	.st47{clip-path:url(#SVGID_30_);}
	.st48{display:inline;fill:#727276;}
	.st49{display:inline;fill:#E9762E;}
</style>
<rect class="st2" width="1639" height="104.04"/>
<circle class="st44" cx="819.4" cy="-45.91" r="143.74"/>
<g class="st45">
	<polygon class="st48" points="711.93,23.5 711.93,-12.26 713.97,-12.26 713.97,21.48 727.7,21.48 727.7,23.5 	"/>
	<path class="st48" d="M738.75,23.8c-2.77,0-4.97-0.81-6.6-2.43c-1.63-1.62-2.47-3.67-2.52-6.15V1.52h2.04v13.53
		c0,1.85,0.68,3.44,2.04,4.76c1.34,1.33,3.01,2,5.02,2c1.87,0,3.48-0.66,4.83-1.99c1.35-1.32,2.02-2.91,2.02-4.77V1.52h2.04v13.71
		c-0.05,2.48-0.89,4.53-2.52,6.15S741.35,23.8,738.75,23.8"/>
	<path class="st48" d="M754.39,6.45V23.5h-2.04V1.55h2.04v1.42c1.84-1.82,3.97-2.73,6.42-2.73c2.62,0,4.74,0.81,6.38,2.44
		c1.64,1.63,2.48,3.67,2.51,6.13V23.5h-2.01V9.01c0-1.87-0.68-3.47-2.04-4.78c-1.36-1.31-2.97-1.97-4.84-1.97
		c-1.85,0-3.46,0.65-4.81,1.95C755.27,4.93,754.73,5.68,754.39,6.45"/>
	<path class="st48" d="M798.54,23.5h-2.04v-4.48c-0.39,0.52-0.82,1.02-1.27,1.49c-2.41,2.41-5.33,3.62-8.76,3.62
		c-3.4,0-6.31-1.2-8.73-3.6c-2.42-2.4-3.63-5.29-3.63-8.66c0-3.41,1.21-6.31,3.63-8.7c2.42-2.4,5.33-3.59,8.73-3.59
		c3.43,0,6.35,1.2,8.76,3.59c0.46,0.47,0.88,0.97,1.27,1.49V1.55h2.04V23.5z M796.5,13.84V9.87c-0.37-1.97-1.31-3.7-2.8-5.18
		c-2-1.99-4.42-2.98-7.23-2.98c-2.82,0-5.23,0.99-7.22,2.98c-1.99,1.99-2.99,4.38-2.99,7.18c0,2.8,1,5.19,2.99,7.16
		c2,1.97,4.4,2.96,7.22,2.96c2.82,0,5.23-0.99,7.23-2.98C795.19,17.52,796.12,15.8,796.5,13.84"/>
	<path class="st49" d="M836.91,15.67c-3.2,2.81-6.55,4.24-9.92,4.24c-3.68,0-6.91-1.35-9.6-4.01s-4.05-5.98-4.05-9.87
		c0-3.86,1.36-7.17,4.05-9.83c2.69-2.67,5.92-4.02,9.6-4.02c3.38,0,6.72,1.43,9.92,4.24l0.5,0.44l4.32-3.81l-0.61-0.55
		c-4.25-3.85-9-5.81-14.13-5.81c-5.51,0-10.24,1.93-14.04,5.73c-3.8,3.8-5.73,8.39-5.73,13.62c0,5.29,1.93,9.88,5.73,13.66
		c3.8,3.78,8.53,5.69,14.04,5.69c5.13,0,9.88-1.95,14.13-5.78l0.61-0.56l-4.32-3.81L836.91,15.67z"/>
	<path class="st49" d="M857.25-1.51c-3.87,0-7.2,1.35-9.89,4.01c-2.69,2.66-4.05,5.87-4.05,9.55c0,3.64,1.36,6.85,4.05,9.51
		c2.69,2.67,6.02,4.02,9.89,4.02c3.91,0,7.24-1.35,9.9-4.03c2.66-2.67,4.01-5.87,4.01-9.51c0-3.68-1.35-6.89-4.01-9.55
		C864.49-0.16,861.16-1.51,857.25-1.51 M857.25,20.01c-2.11,0-3.88-0.75-5.43-2.29c-1.55-1.54-2.3-3.4-2.3-5.67
		c0-2.3,0.76-4.17,2.31-5.73c1.55-1.55,3.33-2.31,5.43-2.31c2.09,0,3.86,0.76,5.42,2.31c1.56,1.56,2.32,3.43,2.32,5.72
		c0,2.28-0.76,4.13-2.32,5.67C861.11,19.26,859.34,20.01,857.25,20.01"/>
	<rect x="874.31" y="-12.89" class="st49" width="6.1" height="37.87"/>
	<path class="st49" d="M897.49-1.51c-3.87,0-7.2,1.35-9.89,4.01c-2.69,2.66-4.05,5.87-4.05,9.55c0,3.64,1.36,6.85,4.05,9.51
		c2.69,2.67,6.02,4.02,9.89,4.02c3.91,0,7.24-1.35,9.9-4.03c2.66-2.67,4.01-5.87,4.01-9.51c0-3.68-1.35-6.89-4.01-9.55
		C904.74-0.16,901.4-1.51,897.49-1.51 M897.49,20.01c-2.11,0-3.88-0.75-5.43-2.29c-1.55-1.54-2.3-3.4-2.3-5.67
		c0-2.3,0.76-4.17,2.31-5.73c1.55-1.55,3.33-2.31,5.43-2.31c2.09,0,3.86,0.76,5.42,2.31c1.56,1.56,2.32,3.43,2.32,5.72
		c0,2.28-0.76,4.13-2.32,5.67C901.36,19.26,899.59,20.01,897.49,20.01"/>
	<path class="st49" d="M923.8-0.24l-0.57,0.18c-1.41,0.45-2.55,1.1-3.41,1.97V0.38h-6.1v24.6h6.1V12.1c0-1.86,0.51-3.35,1.55-4.56
		c1.05-1.21,2.49-1.94,4.44-2.24l1.07-0.16L923.8-0.24z"/>
	<g class="st46">
		<path class="st5" d="M817.41,35.79l0.53,0.47c-0.68,0.62-1.43,0.92-2.25,0.92c-0.88,0-1.62-0.3-2.23-0.9s-0.91-1.33-0.91-2.17
			c0-0.84,0.3-1.56,0.91-2.16c0.61-0.61,1.35-0.91,2.23-0.91c0.82,0,1.57,0.31,2.25,0.93l-0.53,0.47c-0.56-0.49-1.13-0.73-1.72-0.73
			c-0.65,0-1.2,0.23-1.67,0.7c-0.47,0.47-0.7,1.04-0.7,1.71c0,0.68,0.23,1.25,0.7,1.72c0.47,0.46,1.03,0.7,1.67,0.7
			C816.28,36.52,816.85,36.28,817.41,35.79z"/>
		<path class="st5" d="M820.38,33.87c-0.35,0.05-0.62,0.19-0.81,0.41c-0.19,0.22-0.29,0.5-0.29,0.83v2h-0.76V33.3h0.76v0.54
			c0.11-0.3,0.35-0.5,0.72-0.62L820.38,33.87z"/>
		<path class="st5" d="M821.6,35.09v0.01c0,0.41,0.14,0.75,0.42,1.02c0.28,0.28,0.61,0.41,0.98,0.41c0.38,0,0.71-0.14,0.99-0.42
			c0.04-0.04,0.11-0.13,0.23-0.26l0.71,0.25c-0.11,0.18-0.23,0.34-0.37,0.47c-0.43,0.43-0.95,0.64-1.56,0.64
			c-0.61,0-1.12-0.21-1.55-0.63s-0.63-0.91-0.63-1.48c0-0.58,0.21-1.07,0.63-1.49c0.42-0.42,0.94-0.63,1.55-0.63
			c0.61,0,1.13,0.21,1.56,0.63c0.37,0.37,0.55,0.86,0.55,1.47H821.6z M821.73,34.43h2.52c-0.18-0.52-0.6-0.78-1.25-0.78
			C822.34,33.66,821.92,33.91,821.73,34.43z"/>
		<path class="st5" d="M829.88,37.12h-0.76v-0.67c-0.3,0.51-0.76,0.77-1.37,0.77c-0.61,0-1.12-0.21-1.55-0.63
			c-0.42-0.42-0.63-0.91-0.63-1.48c0-0.58,0.21-1.07,0.63-1.49c0.42-0.42,0.94-0.63,1.55-0.63c0.61,0,1.07,0.25,1.37,0.76V33.3h0.76
			V37.12z M829.12,35.4V34.8c-0.05-0.28-0.18-0.51-0.38-0.71c-0.28-0.28-0.61-0.43-0.99-0.43c-0.38,0-0.71,0.14-0.98,0.42
			c-0.28,0.28-0.42,0.62-0.42,1.03c0,0.41,0.14,0.75,0.42,1.02c0.28,0.28,0.61,0.41,0.98,0.41c0.38,0,0.71-0.14,0.99-0.42
			C828.94,35.92,829.07,35.68,829.12,35.4z"/>
		<path class="st5" d="M831.43,33.97v3.14h-0.76V33.3h0.48c0.21-0.14,0.47-0.2,0.77-0.2c0.36,0,0.65,0.09,0.89,0.27
			c0.23-0.18,0.52-0.27,0.88-0.27s0.66,0.12,0.91,0.37c0.22,0.23,0.34,0.49,0.35,0.79v2.86h-0.76v-3.02
			c-0.03-0.23-0.2-0.35-0.5-0.35c-0.25,0-0.42,0.11-0.51,0.33v3.04h-0.76v-3.02h0c-0.03-0.23-0.19-0.35-0.49-0.35
			C831.71,33.75,831.55,33.82,831.43,33.97z"/>
		<path class="st5" d="M837.84,32.99c0.61,0,1.13,0.21,1.55,0.63c0.42,0.42,0.63,0.91,0.63,1.49c0,0.57-0.21,1.07-0.63,1.48
			c-0.42,0.42-0.93,0.63-1.55,0.63c-0.61,0-1.12-0.21-1.55-0.63s-0.63-0.91-0.63-1.48c0-0.58,0.21-1.07,0.63-1.49
			C836.72,33.2,837.23,32.99,837.84,32.99z M836.86,34.07c-0.28,0.28-0.42,0.62-0.42,1.03c0,0.41,0.14,0.75,0.42,1.02
			c0.28,0.28,0.61,0.41,0.98,0.41c0.38,0,0.7-0.14,0.98-0.41c0.28-0.28,0.42-0.62,0.42-1.02c0-0.41-0.14-0.75-0.42-1.03
			s-0.61-0.42-0.98-0.42C837.46,33.66,837.13,33.79,836.86,34.07z"/>
		<path class="st5" d="M841.72,35.21c-0.29-0.16-0.48-0.29-0.59-0.39c-0.21-0.21-0.31-0.44-0.31-0.71c0-0.26,0.1-0.5,0.3-0.7
			c0.2-0.2,0.45-0.3,0.76-0.3s0.55,0.09,0.73,0.28c0.19,0.19,0.29,0.4,0.29,0.62v0.12l-0.68,0.28c-0.04-0.32-0.09-0.5-0.15-0.56
			s-0.12-0.08-0.19-0.08c-0.07,0-0.14,0.03-0.21,0.1c-0.06,0.06-0.1,0.15-0.1,0.25c0,0.11,0.04,0.19,0.11,0.27
			c0.05,0.05,0.16,0.13,0.33,0.24c0.32,0.17,0.55,0.33,0.69,0.47c0.23,0.23,0.34,0.51,0.34,0.83c0,0.33-0.12,0.61-0.36,0.85
			c-0.24,0.24-0.54,0.36-0.9,0.36s-0.66-0.12-0.9-0.36c-0.24-0.24-0.36-0.54-0.36-0.9l0.76-0.19c0,0.32,0.05,0.54,0.16,0.64
			c0.1,0.1,0.22,0.15,0.34,0.15c0.13,0,0.24-0.05,0.35-0.15c0.11-0.1,0.16-0.24,0.16-0.4c0-0.16-0.06-0.29-0.17-0.4
			C842.08,35.45,841.94,35.35,841.72,35.21z"/>
	</g>
	<g class="st46">
		<path class="st5" d="M854.8,31.11v0.66h-2.53v2.02h2.53v0.66h-2.53v2.02h2.53v0.66h-3.29v-6.01H854.8z"/>
		<path class="st5" d="M859.89,37.12h-0.76v-0.67c-0.3,0.51-0.76,0.77-1.37,0.77c-0.61,0-1.12-0.21-1.55-0.63
			c-0.42-0.42-0.63-0.91-0.63-1.48c0-0.58,0.21-1.07,0.63-1.49c0.42-0.42,0.94-0.63,1.55-0.63c0.61,0,1.07,0.25,1.37,0.76v-2.64
			h0.76V37.12z M859.13,35.4V34.8c-0.05-0.28-0.18-0.51-0.38-0.71c-0.28-0.28-0.61-0.43-0.99-0.43c-0.38,0-0.71,0.14-0.98,0.42
			c-0.28,0.28-0.42,0.62-0.42,1.03c0,0.41,0.14,0.75,0.42,1.02c0.28,0.28,0.61,0.41,0.98,0.41c0.38,0,0.71-0.14,0.99-0.42
			C858.95,35.92,859.08,35.68,859.13,35.4z"/>
		<path class="st5" d="M861.52,32.21c0.1,0.1,0.15,0.21,0.15,0.33c0,0.13-0.05,0.24-0.15,0.34c-0.1,0.1-0.23,0.15-0.38,0.15
			c-0.16,0-0.29-0.05-0.39-0.15c-0.1-0.1-0.15-0.21-0.15-0.34c0-0.12,0.05-0.23,0.15-0.33c0.1-0.1,0.23-0.15,0.39-0.15
			C861.29,32.06,861.42,32.11,861.52,32.21z M861.51,33.3v3.82h-0.76V33.3H861.51z"/>
		<path class="st5" d="M862.86,33.3v-1.48h0.76v1.48h0.71v0.65h-0.71v3.17h-0.76v-3.17h-0.71V33.3H862.86z"/>
		<path class="st5" d="M869.09,37.12h-0.76v-0.67c-0.3,0.51-0.76,0.77-1.37,0.77c-0.61,0-1.12-0.21-1.55-0.63
			c-0.42-0.42-0.63-0.91-0.63-1.48c0-0.58,0.21-1.07,0.63-1.49c0.42-0.42,0.94-0.63,1.55-0.63c0.61,0,1.07,0.25,1.37,0.76V33.3h0.76
			V37.12z M868.33,35.4V34.8c-0.05-0.28-0.18-0.51-0.38-0.71c-0.28-0.28-0.61-0.43-0.99-0.43c-0.38,0-0.71,0.14-0.98,0.42
			c-0.28,0.28-0.42,0.62-0.42,1.03c0,0.41,0.14,0.75,0.42,1.02c0.28,0.28,0.61,0.41,0.98,0.41c0.38,0,0.71-0.14,0.99-0.42
			C868.15,35.92,868.27,35.68,868.33,35.4z"/>
		<path class="st5" d="M870.64,33.97v3.14h-0.76V33.3h0.48c0.21-0.14,0.47-0.2,0.77-0.2c0.36,0,0.65,0.09,0.89,0.27
			c0.23-0.18,0.52-0.27,0.88-0.27s0.66,0.12,0.91,0.37c0.22,0.23,0.34,0.49,0.35,0.79v2.86h-0.76v-3.02
			c-0.03-0.23-0.2-0.35-0.5-0.35c-0.25,0-0.42,0.11-0.51,0.33v3.04h-0.76v-3.02h0c-0.03-0.23-0.19-0.35-0.49-0.35
			C870.92,33.75,870.76,33.82,870.64,33.97z"/>
		<path class="st5" d="M877.05,32.99c0.61,0,1.13,0.21,1.55,0.63c0.42,0.42,0.63,0.91,0.63,1.49c0,0.57-0.21,1.07-0.63,1.48
			c-0.42,0.42-0.93,0.63-1.55,0.63c-0.61,0-1.12-0.21-1.55-0.63s-0.63-0.91-0.63-1.48c0-0.58,0.21-1.07,0.63-1.49
			C875.92,33.2,876.44,32.99,877.05,32.99z M876.06,34.07c-0.28,0.28-0.42,0.62-0.42,1.03c0,0.41,0.14,0.75,0.42,1.02
			c0.28,0.28,0.61,0.41,0.98,0.41c0.38,0,0.7-0.14,0.98-0.41c0.28-0.28,0.42-0.62,0.42-1.02c0-0.41-0.14-0.75-0.42-1.03
			s-0.61-0.42-0.98-0.42C876.67,33.66,876.34,33.79,876.06,34.07z"/>
		<path class="st5" d="M880.93,35.21c-0.29-0.16-0.48-0.29-0.59-0.39c-0.21-0.21-0.31-0.44-0.31-0.71c0-0.26,0.1-0.5,0.3-0.7
			c0.2-0.2,0.45-0.3,0.76-0.3s0.55,0.09,0.73,0.28c0.19,0.19,0.29,0.4,0.29,0.62v0.12l-0.68,0.28c-0.04-0.32-0.09-0.5-0.15-0.56
			s-0.12-0.08-0.19-0.08c-0.07,0-0.14,0.03-0.21,0.1c-0.06,0.06-0.1,0.15-0.1,0.25c0,0.11,0.04,0.19,0.11,0.27
			c0.05,0.05,0.16,0.13,0.33,0.24c0.32,0.17,0.55,0.33,0.69,0.47c0.23,0.23,0.34,0.51,0.34,0.83c0,0.33-0.12,0.61-0.36,0.85
			c-0.24,0.24-0.54,0.36-0.9,0.36s-0.66-0.12-0.9-0.36c-0.24-0.24-0.36-0.54-0.36-0.9l0.76-0.19c0,0.32,0.05,0.54,0.16,0.64
			c0.1,0.1,0.22,0.15,0.34,0.15c0.13,0,0.24-0.05,0.35-0.15c0.11-0.1,0.16-0.24,0.16-0.4c0-0.16-0.06-0.29-0.17-0.4
			C881.28,35.45,881.14,35.35,880.93,35.21z"/>
	</g>
	<g class="st46">
		<path class="st2" d="M848.19,31.11h0.83l-2.74,6.01h-0.82L848.19,31.11z"/>
	</g>
	<g class="st46">
		<path class="st2" d="M887.67,31.11h0.83l-2.74,6.01h-0.82L887.67,31.11z"/>
	</g>
	<g class="st46">
		<path class="st5" d="M892.18,31.11v6.01h-0.76v-6.01H892.18z"/>
		<path class="st5" d="M893.87,33.97v3.14h-0.76V33.3h0.48c0.21-0.14,0.47-0.2,0.77-0.2c0.36,0,0.65,0.09,0.89,0.27
			c0.23-0.18,0.52-0.27,0.88-0.27s0.66,0.12,0.91,0.37c0.22,0.23,0.34,0.49,0.35,0.79v2.86h-0.76v-3.02
			c-0.03-0.23-0.2-0.35-0.5-0.35c-0.25,0-0.42,0.11-0.51,0.33v3.04h-0.76v-3.02h0c-0.03-0.23-0.19-0.35-0.49-0.35
			C894.15,33.75,893.99,33.82,893.87,33.97z"/>
		<path class="st5" d="M898.19,33.3h0.76v0.44c0.3-0.5,0.76-0.75,1.37-0.75s1.13,0.21,1.55,0.62c0.42,0.42,0.63,0.91,0.63,1.49
			c0,0.57-0.21,1.07-0.63,1.48c-0.42,0.42-0.94,0.63-1.55,0.63s-1.07-0.25-1.37-0.76v1.98h-0.76V33.3z M898.95,34.78v0.64
			c0.05,0.27,0.18,0.51,0.39,0.71c0.27,0.27,0.6,0.4,0.98,0.4s0.7-0.14,0.98-0.42c0.28-0.28,0.42-0.62,0.42-1.03
			c0-0.41-0.14-0.75-0.42-1.03s-0.61-0.42-0.98-0.42s-0.71,0.14-0.99,0.43C899.12,34.28,899,34.51,898.95,34.78z"/>
		<path class="st5" d="M904.93,33.87c-0.35,0.05-0.62,0.19-0.81,0.41c-0.19,0.22-0.29,0.5-0.29,0.83v2h-0.76V33.3h0.76v0.54
			c0.11-0.3,0.35-0.5,0.72-0.62L904.93,33.87z"/>
		<path class="st5" d="M906.4,32.21c0.1,0.1,0.15,0.21,0.15,0.33c0,0.13-0.05,0.24-0.15,0.34c-0.1,0.1-0.23,0.15-0.38,0.15
			c-0.16,0-0.29-0.05-0.39-0.15c-0.1-0.1-0.15-0.21-0.15-0.34c0-0.12,0.05-0.23,0.15-0.33c0.1-0.1,0.23-0.15,0.39-0.15
			C906.17,32.06,906.3,32.11,906.4,32.21z M906.39,33.3v3.82h-0.76V33.3H906.39z"/>
		<path class="st5" d="M908.07,33.97v3.14h-0.76V33.3h0.48c0.21-0.14,0.47-0.2,0.77-0.2c0.36,0,0.65,0.09,0.89,0.27
			c0.23-0.18,0.52-0.27,0.88-0.27s0.66,0.12,0.91,0.37c0.22,0.23,0.34,0.49,0.35,0.79v2.86h-0.76v-3.02
			c-0.03-0.23-0.2-0.35-0.5-0.35c-0.25,0-0.42,0.11-0.51,0.33v3.04h-0.76v-3.02h0c-0.03-0.23-0.19-0.35-0.49-0.35
			C908.35,33.75,908.18,33.82,908.07,33.97z"/>
		<path class="st5" d="M913.25,32.21c0.1,0.1,0.15,0.21,0.15,0.33c0,0.13-0.05,0.24-0.15,0.34c-0.1,0.1-0.23,0.15-0.38,0.15
			c-0.16,0-0.29-0.05-0.39-0.15c-0.1-0.1-0.15-0.21-0.15-0.34c0-0.12,0.05-0.23,0.15-0.33c0.1-0.1,0.23-0.15,0.39-0.15
			C913.02,32.06,913.15,32.11,913.25,32.21z M913.24,33.3v3.82h-0.76V33.3H913.24z"/>
		<path class="st5" d="M914.92,33.97v3.14h-0.76V33.3h0.48c0.21-0.14,0.47-0.2,0.77-0.2c0.36,0,0.65,0.09,0.89,0.27
			c0.23-0.18,0.52-0.27,0.88-0.27s0.66,0.12,0.91,0.37c0.22,0.23,0.34,0.49,0.35,0.79v2.86h-0.76v-3.02
			c-0.03-0.23-0.2-0.35-0.5-0.35c-0.25,0-0.42,0.11-0.51,0.33v3.04h-0.76v-3.02h0c-0.03-0.23-0.19-0.35-0.49-0.35
			C915.2,33.75,915.03,33.82,914.92,33.97z"/>
		<path class="st5" d="M921.33,32.99c0.61,0,1.13,0.21,1.55,0.63c0.42,0.42,0.63,0.91,0.63,1.49c0,0.57-0.21,1.07-0.63,1.48
			c-0.42,0.42-0.93,0.63-1.55,0.63c-0.61,0-1.12-0.21-1.55-0.63s-0.63-0.91-0.63-1.48c0-0.58,0.21-1.07,0.63-1.49
			C920.2,33.2,920.72,32.99,921.33,32.99z M920.34,34.07c-0.28,0.28-0.42,0.62-0.42,1.03c0,0.41,0.14,0.75,0.42,1.02
			c0.28,0.28,0.61,0.41,0.98,0.41c0.38,0,0.7-0.14,0.98-0.41c0.28-0.28,0.42-0.62,0.42-1.02c0-0.41-0.14-0.75-0.42-1.03
			s-0.61-0.42-0.98-0.42C920.95,33.66,920.62,33.79,920.34,34.07z"/>
		<path class="st5" d="M925.21,35.21c-0.29-0.16-0.48-0.29-0.59-0.39c-0.21-0.21-0.31-0.44-0.31-0.71c0-0.26,0.1-0.5,0.3-0.7
			c0.2-0.2,0.45-0.3,0.76-0.3s0.55,0.09,0.73,0.28c0.19,0.19,0.29,0.4,0.29,0.62v0.12l-0.68,0.28c-0.04-0.32-0.09-0.5-0.15-0.56
			s-0.12-0.08-0.19-0.08c-0.07,0-0.14,0.03-0.21,0.1c-0.06,0.06-0.1,0.15-0.1,0.25c0,0.11,0.04,0.19,0.11,0.27
			c0.05,0.05,0.16,0.13,0.33,0.24c0.32,0.17,0.55,0.33,0.69,0.47c0.23,0.23,0.34,0.51,0.34,0.83c0,0.33-0.12,0.61-0.36,0.85
			c-0.24,0.24-0.54,0.36-0.9,0.36s-0.66-0.12-0.9-0.36c-0.24-0.24-0.36-0.54-0.36-0.9l0.76-0.19c0,0.32,0.05,0.54,0.16,0.64
			c0.1,0.1,0.22,0.15,0.34,0.15c0.13,0,0.24-0.05,0.35-0.15c0.11-0.1,0.16-0.24,0.16-0.4c0-0.16-0.06-0.29-0.17-0.4
			C925.56,35.45,925.42,35.35,925.21,35.21z"/>
	</g>
</g>
</svg>
