<?xml version="1.0" encoding="utf-8"?>
<!-- Generator: Adobe Illustrator 24.0.2, SVG Export Plug-In . SVG Version: 6.00 Build 0)  -->
<svg version="1.1" id="off" xmlns="http://www.w3.org/2000/svg" xmlns:xlink="http://www.w3.org/1999/xlink" x="0px" y="0px"
	 viewBox="0 0 101.2 101.2" style="enable-background:new 0 0 101.2 101.2;" xml:space="preserve">
<style type="text/css">
	.st0{fill:#E9762F;}
	.st1{fill:#7382A3;}
	.st2{fill:#A4AAC2;}
	.st3{fill:#FFFFFF;}
	.st4{fill:#727276;}
</style>
<circle class="st0" cx="50.6" cy="50.6" r="50.6"/>
<polygon class="st1" points="71.8,48.8 69.4,47.4 69.4,25.7 29.4,16.1 29.4,71.3 69.4,80.9 69.4,51.6 71.8,53 "/>
<polygon class="st2" points="67.6,42.4 65.3,41 65.3,30.5 29.4,16.1 29.4,71.3 65.3,85.7 65.3,45.2 67.6,46.6 "/>
<polygon class="st3" points="63.6,35.9 29.4,16.1 29.4,71.3 61.3,89.7 61.3,38.8 63.6,40.1 "/>
<g>
	<polygon class="st4" points="-4.6,132.6 -4.6,114.2 -3.6,114.2 -3.6,131.6 3.4,131.6 3.4,132.6 	"/>
	<path class="st4" d="M9.1,132.8c-1.4,0-2.5-0.4-3.4-1.2c-0.8-0.8-1.3-1.9-1.3-3.2v-7h1v7c0,1,0.3,1.8,1,2.4c0.7,0.7,1.5,1,2.6,1
		c1,0,1.8-0.3,2.5-1c0.7-0.7,1-1.5,1-2.5v-7h1v7c0,1.3-0.5,2.3-1.3,3.2C11.5,132.3,10.4,132.8,9.1,132.8"/>
	<path class="st4" d="M17,123.8v8.8h-1v-11.3h1v0.7c0.9-0.9,2-1.4,3.3-1.4c1.3,0,2.4,0.4,3.3,1.3c0.8,0.8,1.3,1.9,1.3,3.2v7.6h-1
		v-7.5c0-1-0.3-1.8-1-2.5c-0.7-0.7-1.5-1-2.5-1c-0.9,0-1.8,0.3-2.5,1C17.5,123,17.2,123.4,17,123.8"/>
	<path class="st4" d="M39.6,132.6h-1v-2.3c-0.2,0.3-0.4,0.5-0.6,0.8c-1.2,1.2-2.7,1.9-4.5,1.9c-1.7,0-3.2-0.6-4.5-1.9
		c-1.2-1.2-1.9-2.7-1.9-4.5c0-1.8,0.6-3.2,1.9-4.5c1.2-1.2,2.7-1.8,4.5-1.8c1.8,0,3.2,0.6,4.5,1.8c0.2,0.2,0.5,0.5,0.6,0.8v-1.6h1
		V132.6z M38.5,127.6v-2c-0.2-1-0.7-1.9-1.4-2.7c-1-1-2.3-1.5-3.7-1.5c-1.4,0-2.7,0.5-3.7,1.5c-1,1-1.5,2.3-1.5,3.7
		c0,1.4,0.5,2.7,1.5,3.7c1,1,2.2,1.5,3.7,1.5c1.4,0,2.7-0.5,3.7-1.5C37.9,129.5,38.3,128.6,38.5,127.6"/>
	<path class="st0" d="M59.2,128.6c-1.6,1.4-3.3,2.2-5.1,2.2c-1.9,0-3.5-0.7-4.9-2.1c-1.4-1.4-2.1-3.1-2.1-5.1c0-2,0.7-3.7,2.1-5.1
		c1.4-1.4,3-2.1,4.9-2.1c1.7,0,3.4,0.7,5.1,2.2l0.3,0.2l2.2-2l-0.3-0.3c-2.2-2-4.6-3-7.2-3c-2.8,0-5.2,1-7.2,2.9
		c-1.9,2-2.9,4.3-2.9,7c0,2.7,1,5.1,2.9,7c1.9,1.9,4.4,2.9,7.2,2.9c2.6,0,5-1,7.2-3l0.3-0.3l-2.2-2L59.2,128.6z"/>
	<path class="st0" d="M69.6,119.7c-2,0-3.7,0.7-5,2.1c-1.4,1.4-2.1,3-2.1,4.9c0,1.9,0.7,3.5,2.1,4.9c1.4,1.4,3.1,2.1,5,2.1
		c2,0,3.7-0.7,5.1-2.1c1.4-1.4,2-3,2-4.9c0-1.9-0.7-3.5-2-4.9C73.3,120.4,71.6,119.7,69.6,119.7 M69.6,130.8c-1.1,0-2-0.4-2.8-1.2
		c-0.8-0.8-1.2-1.7-1.2-2.9c0-1.2,0.4-2.1,1.2-2.9c0.8-0.8,1.7-1.2,2.8-1.2c1.1,0,2,0.4,2.8,1.2c0.8,0.8,1.2,1.8,1.2,2.9
		c0,1.2-0.4,2.1-1.2,2.9C71.5,130.4,70.6,130.8,69.6,130.8"/>
	<rect x="78.3" y="113.9" class="st0" width="3.1" height="19.5"/>
	<path class="st0" d="M90.1,119.7c-2,0-3.7,0.7-5,2.1c-1.4,1.4-2.1,3-2.1,4.9c0,1.9,0.7,3.5,2.1,4.9c1.4,1.4,3.1,2.1,5,2.1
		c2,0,3.7-0.7,5.1-2.1c1.4-1.4,2-3,2-4.9c0-1.9-0.7-3.5-2-4.9C93.8,120.4,92.1,119.7,90.1,119.7 M90.1,130.8c-1.1,0-2-0.4-2.8-1.2
		c-0.8-0.8-1.2-1.7-1.2-2.9c0-1.2,0.4-2.1,1.2-2.9c0.8-0.8,1.7-1.2,2.8-1.2c1.1,0,2,0.4,2.8,1.2c0.8,0.8,1.2,1.8,1.2,2.9
		c0,1.2-0.4,2.1-1.2,2.9C92.1,130.4,91.2,130.8,90.1,130.8"/>
	<path class="st0" d="M103.5,120.4l-0.3,0.1c-0.7,0.2-1.3,0.6-1.7,1v-0.8h-3.1v12.6h3.1v-6.6c0-1,0.3-1.7,0.8-2.3
		c0.5-0.6,1.3-1,2.3-1.2l0.5-0.1L103.5,120.4z"/>
</g>
</svg>
