<?xml version="1.0" encoding="utf-8"?>
<!-- Generator: Adobe Illustrator 24.0.2, SVG Export Plug-In . SVG Version: 6.00 Build 0)  -->
<svg version="1.1" id="on" xmlns="http://www.w3.org/2000/svg" xmlns:xlink="http://www.w3.org/1999/xlink" x="0px" y="0px"
	 viewBox="0 0 101.2 101.2" style="enable-background:new 0 0 101.2 101.2;" xml:space="preserve">
<style type="text/css">
	.st0{fill:#727276;}
	.st1{fill:#D06B69;}
	.st2{fill:#E0A09A;}
	.st3{fill:#FFFFFF;}
	.st4{fill:#E9762F;}
</style>
<circle class="st0" cx="50.6" cy="50.6" r="50.6"/>
<polygon class="st1" points="71.8,48.8 69.4,47.4 69.4,25.7 29.4,16.1 29.4,71.3 69.4,80.9 69.4,51.6 71.8,53 "/>
<polygon class="st2" points="67.6,42.4 65.3,41 65.3,30.5 29.4,16.1 29.4,71.3 65.3,85.7 65.3,45.2 67.6,46.6 "/>
<polygon class="st3" points="63.6,35.9 29.4,16.1 29.4,71.3 61.3,89.7 61.3,38.8 63.6,40.1 "/>
<g>
	<polygon class="st0" points="-0.1,137.7 -0.1,119.3 0.9,119.3 0.9,136.6 7.9,136.6 7.9,137.7 	"/>
	<path class="st0" d="M13.6,137.8c-1.4,0-2.5-0.4-3.4-1.2c-0.8-0.8-1.3-1.9-1.3-3.2v-7h1v7c0,1,0.3,1.8,1,2.4c0.7,0.7,1.5,1,2.6,1
		c1,0,1.8-0.3,2.5-1c0.7-0.7,1-1.5,1-2.5v-7h1v7c0,1.3-0.5,2.3-1.3,3.2C16,137.4,14.9,137.8,13.6,137.8"/>
	<path class="st0" d="M21.5,128.9v8.8h-1v-11.3h1v0.7c0.9-0.9,2-1.4,3.3-1.4c1.3,0,2.4,0.4,3.3,1.3c0.8,0.8,1.3,1.9,1.3,3.2v7.6h-1
		v-7.5c0-1-0.3-1.8-1-2.5c-0.7-0.7-1.5-1-2.5-1c-0.9,0-1.8,0.3-2.5,1C22,128.1,21.7,128.5,21.5,128.9"/>
	<path class="st0" d="M44.1,137.7h-1v-2.3c-0.2,0.3-0.4,0.5-0.6,0.8c-1.2,1.2-2.7,1.9-4.5,1.9c-1.7,0-3.2-0.6-4.5-1.9
		c-1.2-1.2-1.9-2.7-1.9-4.5c0-1.8,0.6-3.2,1.9-4.5c1.2-1.2,2.7-1.8,4.5-1.8c1.8,0,3.2,0.6,4.5,1.8c0.2,0.2,0.5,0.5,0.6,0.8v-1.6h1
		V137.7z M43,132.7v-2c-0.2-1-0.7-1.9-1.4-2.7c-1-1-2.3-1.5-3.7-1.5c-1.4,0-2.7,0.5-3.7,1.5c-1,1-1.5,2.3-1.5,3.7
		c0,1.4,0.5,2.7,1.5,3.7c1,1,2.2,1.5,3.7,1.5c1.4,0,2.7-0.5,3.7-1.5C42.4,134.6,42.8,133.7,43,132.7"/>
	<path class="st4" d="M63.7,133.6c-1.6,1.4-3.3,2.2-5.1,2.2c-1.9,0-3.5-0.7-4.9-2.1c-1.4-1.4-2.1-3.1-2.1-5.1c0-2,0.7-3.7,2.1-5.1
		c1.4-1.4,3-2.1,4.9-2.1c1.7,0,3.4,0.7,5.1,2.2l0.3,0.2l2.2-2l-0.3-0.3c-2.2-2-4.6-3-7.2-3c-2.8,0-5.2,1-7.2,2.9
		c-1.9,2-2.9,4.3-2.9,7c0,2.7,1,5.1,2.9,7c1.9,1.9,4.4,2.9,7.2,2.9c2.6,0,5-1,7.2-3l0.3-0.3l-2.2-2L63.7,133.6z"/>
	<path class="st4" d="M74.1,124.8c-2,0-3.7,0.7-5,2.1c-1.4,1.4-2.1,3-2.1,4.9c0,1.9,0.7,3.5,2.1,4.9c1.4,1.4,3.1,2.1,5,2.1
		c2,0,3.7-0.7,5.1-2.1c1.4-1.4,2-3,2-4.9c0-1.9-0.7-3.5-2-4.9C77.8,125.5,76.1,124.8,74.1,124.8 M74.1,135.9c-1.1,0-2-0.4-2.8-1.2
		c-0.8-0.8-1.2-1.7-1.2-2.9c0-1.2,0.4-2.1,1.2-2.9c0.8-0.8,1.7-1.2,2.8-1.2c1.1,0,2,0.4,2.8,1.2c0.8,0.8,1.2,1.8,1.2,2.9
		c0,1.2-0.4,2.1-1.2,2.9C76,135.5,75.1,135.9,74.1,135.9"/>
	<rect x="82.8" y="119" class="st4" width="3.1" height="19.5"/>
	<path class="st4" d="M94.6,124.8c-2,0-3.7,0.7-5,2.1c-1.4,1.4-2.1,3-2.1,4.9c0,1.9,0.7,3.5,2.1,4.9c1.4,1.4,3.1,2.1,5,2.1
		c2,0,3.7-0.7,5.1-2.1c1.4-1.4,2-3,2-4.9c0-1.9-0.7-3.5-2-4.9C98.3,125.5,96.6,124.8,94.6,124.8 M94.6,135.9c-1.1,0-2-0.4-2.8-1.2
		c-0.8-0.8-1.2-1.7-1.2-2.9c0-1.2,0.4-2.1,1.2-2.9c0.8-0.8,1.7-1.2,2.8-1.2c1.1,0,2,0.4,2.8,1.2c0.8,0.8,1.2,1.8,1.2,2.9
		c0,1.2-0.4,2.1-1.2,2.9C96.6,135.5,95.7,135.9,94.6,135.9"/>
	<path class="st4" d="M108,125.5l-0.3,0.1c-0.7,0.2-1.3,0.6-1.7,1v-0.8h-3.1v12.6h3.1v-6.6c0-1,0.3-1.7,0.8-2.3s1.3-1,2.3-1.2
		l0.5-0.1L108,125.5z"/>
</g>
</svg>
