<?xml version="1.0" encoding="utf-8"?>
<!-- Generator: Adobe Illustrator 24.0.2, SVG Export Plug-In . SVG Version: 6.00 Build 0)  -->
<svg version="1.1" id="off" xmlns="http://www.w3.org/2000/svg" xmlns:xlink="http://www.w3.org/1999/xlink" x="0px" y="0px"
	 viewBox="0 0 101.2 101.2" style="enable-background:new 0 0 101.2 101.2;" xml:space="preserve">
<style type="text/css">
	.st0{fill:#E9762F;}
	.st1{fill:#7382A3;}
	.st2{fill:#A4AAC2;}
	.st3{fill:#FFFFFF;}
</style>
<g>
	<g>
		<g>
			<path class="st0" d="M94.9,10.3H24.6c-0.9,0-1.7,0.7-1.7,1.7v27.4c0,0.9,0.7,1.7,1.7,1.7h70.3c0.9,0,1.7-0.7,1.7-1.7V12
				C96.6,11.1,95.9,10.3,94.9,10.3z M93.3,37.8h-67V13.7h67L93.3,37.8L93.3,37.8z"/>
		</g>
	</g>
	<g>
		<g>
			<path class="st0" d="M94.9,37.8H24.6c-0.9,0-1.7,0.7-1.7,1.7v27.4c0,0.9,0.7,1.7,1.7,1.7h70.3c0.9,0,1.7-0.7,1.7-1.7V39.5
				C96.6,38.5,95.9,37.8,94.9,37.8z M93.3,65.2h-67V41.1h67L93.3,65.2L93.3,65.2z"/>
		</g>
	</g>
	<g>
		<g>
			<path class="st0" d="M94.9,65.2H24.6c-0.9,0-1.7,0.7-1.7,1.7v27.4c0,0.9,0.7,1.7,1.7,1.7h70.3c0.9,0,1.7-0.7,1.7-1.7V66.9
				C96.6,66,95.9,65.2,94.9,65.2z M93.3,92.7h-67V68.6h67L93.3,92.7L93.3,92.7z"/>
		</g>
	</g>
	<g>
		<g>
			<path class="st0" d="M72.9,65.9c-0.3-0.5-0.9-0.8-1.4-0.8H45.7c-0.6,0-1.1,0.3-1.4,0.8c-0.3,0.5-0.4,1.1-0.2,1.6l3.4,8.6
				c0.3,0.7,0.9,1.1,1.6,1.1H68c0.7,0,1.3-0.4,1.6-1.1l3.4-8.6C73.2,67,73.2,66.4,72.9,65.9z M66.8,73.8H50.3l-2.1-5.1h20.7
				L66.8,73.8z"/>
		</g>
	</g>
	<g>
		<g>
			<path class="st0" d="M92,37.7H23.7L6.9,31C6,30.6,5,31.1,4.7,32c-0.4,0.9,0.1,1.9,1,2.2L22.8,41c0.2,0.1,0.4,0.1,0.6,0.1H92
				c0.9,0,1.7-0.8,1.7-1.7C93.7,38.5,93,37.7,92,37.7z"/>
		</g>
	</g>
	<g>
		<g>
			<path class="st0" d="M92,65.2H23.7L6.9,58.4c-0.9-0.4-1.9,0.1-2.2,1c-0.4,0.9,0.1,1.9,1,2.2l17.1,6.8c0.2,0.1,0.4,0.1,0.6,0.1H92
				c0.9,0,1.7-0.8,1.7-1.7C93.7,65.9,93,65.2,92,65.2z"/>
		</g>
	</g>
	<g>
		<g>
			<path class="st0" d="M94.9,0H54.2c-0.6,0-1.1,0.3-1.4,0.8L46,11.1c-0.3,0.5-0.4,1.2-0.1,1.8c0.3,0.6,0.9,0.9,1.5,0.9h47.5
				c0.9,0,1.7-0.8,1.7-1.7V1.7C96.7,0.8,95.9,0,94.9,0z M93.2,10.3H50.6l4.5-6.9h38.1V10.3z"/>
		</g>
	</g>
	<g>
		<g>
			<path class="st0" d="M72.9,38.5c-0.3-0.5-0.9-0.8-1.4-0.8H45.7c-0.6,0-1.1,0.3-1.4,0.8c-0.3,0.5-0.4,1.1-0.2,1.6l3.4,8.6
				c0.3,0.7,0.9,1.1,1.6,1.1H68c0.7,0,1.3-0.4,1.6-1.1l3.4-8.6C73.2,39.6,73.2,39,72.9,38.5z M66.8,46.3H50.3l-2.1-5.1h20.7
				L66.8,46.3z"/>
		</g>
	</g>
	<g>
		<g>
			<path class="st0" d="M36.6,92.6h-5.1c-0.9,0-1.7,0.8-1.7,1.7v5.1c0,0.9,0.8,1.7,1.7,1.7h5.1c0.9,0,1.7-0.8,1.7-1.7v-5.1
				C38.3,93.4,37.6,92.6,36.6,92.6z M34.9,97.8h-1.7v-1.7h1.7V97.8z"/>
		</g>
	</g>
	<g>
		<g>
			<path class="st0" d="M88.1,92.6h-5.1c-0.9,0-1.7,0.8-1.7,1.7v5.1c0,0.9,0.8,1.7,1.7,1.7h5.1c0.9,0,1.7-0.8,1.7-1.7v-5.1
				C89.8,93.4,89,92.6,88.1,92.6z M86.4,97.8h-1.7v-1.7h1.7V97.8z"/>
		</g>
	</g>
	<g>
		<g>
			<path class="st0" d="M33.2,15.4c-2.8,0-5.1,2.3-5.1,5.1s2.3,5.1,5.1,5.1c2.8,0,5.1-2.3,5.1-5.1S36,15.4,33.2,15.4z M33.2,22.3
				c-0.9,0-1.7-0.8-1.7-1.7c0-0.9,0.8-1.7,1.7-1.7c0.9,0,1.7,0.8,1.7,1.7C34.9,21.5,34.1,22.3,33.2,22.3z"/>
		</g>
	</g>
	<g>
		<g>
			<path class="st0" d="M45.2,15.4c-2.8,0-5.1,2.3-5.1,5.1s2.3,5.1,5.1,5.1c2.8,0,5.1-2.3,5.1-5.1S48,15.4,45.2,15.4z M45.2,22.3
				c-0.9,0-1.7-0.8-1.7-1.7c0-0.9,0.8-1.7,1.7-1.7c0.9,0,1.7,0.8,1.7,1.7C46.9,21.5,46.1,22.3,45.2,22.3z"/>
		</g>
	</g>
</g>
</svg>
