<?xml version="1.0" encoding="utf-8"?>
<!-- Generator: Adobe Illustrator 24.0.2, SVG Export Plug-In . SVG Version: 6.00 Build 0)  -->
<svg version="1.1" id="off" xmlns="http://www.w3.org/2000/svg" xmlns:xlink="http://www.w3.org/1999/xlink" x="0px" y="0px"
	 viewBox="0 0 101.2 101.2" style="enable-background:new 0 0 101.2 101.2;" xml:space="preserve">
<style type="text/css">
	.st0{fill:#E9762F;}
	.st1{fill:#7382A3;}
	.st2{fill:#A4AAC2;}
	.st3{fill:#FFFFFF;}
</style>
<g>
	<g>
		<path class="st0" d="M12,37.3c6.4,0,11.6-5.2,11.6-11.6c0-6.4-5.2-11.6-11.6-11.6c-6.4,0-11.6,5.2-11.6,11.6
			C0.5,32.1,5.7,37.3,12,37.3z M12,21.6c2.3,0,4.1,1.8,4.1,4.1c0,2.3-1.8,4.1-4.1,4.1C9.8,29.8,8,28,8,25.7C8,23.4,9.8,21.6,12,21.6
			z"/>
		<path class="st0" d="M5.6,76.4c0,7,5.6,12.6,12.6,12.6c7,0,12.6-5.6,12.6-12.6c0-7-5.7-12.6-12.6-12.6
			C11.2,63.8,5.6,69.5,5.6,76.4z M18.2,72.4c2.3,0,4.1,1.8,4.1,4.1c0,2.3-1.8,4.1-4.1,4.1c-2.3,0-4.1-1.8-4.1-4.1
			C14.1,74.2,15.9,72.4,18.2,72.4z"/>
		<path class="st0" d="M24.9,25.6c0,2.4-0.7,4.6-1.8,6.5L36.3,59l-5.2,4.3c-1,0.8-1.1,2.3-0.3,3.2c0.5,0.6,1.1,0.8,1.8,0.8
			c0.5,0,1-0.2,1.5-0.5l16.3-13.5c1-0.8,1.1-2.3,0.3-3.2c-0.8-1-2.3-1.1-3.2-0.3L46,51L35.2,18c-1.2-3.7-5.3-6.3-9.1-5.8l-10.2,1.3
			C21,15,24.9,19.9,24.9,25.6z"/>
		<path class="st0" d="M76.8,31c0,2.1-0.4,4.1-1.2,5.9l6-5.6c0.5-1.4,0.8-2.8,0.8-4.4c0-6.8-5.5-12.4-12.4-12.4l-6,1.9
			C71.2,17.4,76.8,23.5,76.8,31z"/>
		<path class="st0" d="M62.2,44.7c7.6,0,13.8-6.2,13.8-13.8c0-7.6-6.2-13.8-13.8-13.8c-7.6,0-13.8,6.2-13.8,13.8
			C48.4,38.5,54.6,44.7,62.2,44.7z M62.2,26.8c2.3,0,4.1,1.8,4.1,4.1c0,2.3-1.8,4.1-4.1,4.1c-2.3,0-4.1-1.8-4.1-4.1
			C58.1,28.7,59.9,26.8,62.2,26.8z"/>
		<path class="st0" d="M67.5,44.9c-0.8,0.3-1.7,0.6-2.6,0.7l-0.2,0l-5.8,5.5c-0.6,0-1.1,0.2-1.6,0.6l-13.7,13
			c-0.9,0.9-1,2.3-0.1,3.2c0.5,0.5,1.1,0.7,1.7,0.7c0.6,0,1.1-0.2,1.6-0.6l13.7-13c0.7-0.7,0.9-1.8,0.5-2.6l10.7-9.1L67.5,44.9z"/>
		<path class="st0" d="M34.5,67.4c-0.6,0.5-1.3,0.7-2,0.7c-0.9,0-1.8-0.4-2.4-1.1c-0.4-0.5-0.6-1-0.7-1.5c-1.9,0-3.3,0-3.2,0.1
			c3.3,2.5,5.4,6.4,5.4,10.8c0,2-0.4,3.9-1.2,5.6l7.9-8.1c1.3-1.4,2.6-4.1,2.7-6l0.1-2.3c0,0-2,0-4.5-0.1L34.5,67.4z"/>
		<path class="st0" d="M35.1,59l-1.8-3.7h-4.7l-11.9,7.5c0.5-0.1,1.1-0.1,1.6-0.1c2.5,0,4.8,0.7,6.8,1.8h4.5
			c0.1-0.7,0.5-1.4,1.1-1.8L35.1,59z"/>
		<path class="st0" d="M61,55.7l-9.4,8.9h45.5l3.6-9.2H61.3C61.2,55.5,61.1,55.6,61,55.7z"/>
		<path class="st0" d="M43.1,64.2l9.4-8.9h-3.4L38,64.6h4.8C42.9,64.5,43,64.4,43.1,64.2z"/>
	</g>
</g>
</svg>
