<?xml version="1.0" encoding="utf-8"?>
<!-- Generator: Adobe Illustrator 24.0.2, SVG Export Plug-In . SVG Version: 6.00 Build 0)  -->
<svg version="1.1" id="off" xmlns="http://www.w3.org/2000/svg" xmlns:xlink="http://www.w3.org/1999/xlink" x="0px" y="0px"
	 viewBox="0 0 101.2 101.2" style="enable-background:new 0 0 101.2 101.2;" xml:space="preserve">
<style type="text/css">
	.st0{fill:#E9762F;}
	.st1{fill:#7382A3;}
	.st2{fill:#A4AAC2;}
	.st3{fill:#FFFFFF;}
</style>
<g>
	<path class="st0" d="M94.6,90.2H82.9c-1.6,0-2.9-1.3-2.9-2.9v-1.5c0-2.4,2-4.4,4.4-4.4h4.4V49.7h-9.3v25.4c0,1.9-1.5,3.4-3.4,3.4
		H25.1c-1.9,0-3.4-1.5-3.4-3.4V49.7h-9.3v31.7h4.4c2.4,0,4.4,2,4.4,4.4v1.5c0,1.6-1.3,2.9-2.9,2.9H6.6c-1.6,0-2.9-1.3-2.9-2.9v-1.5
		c0-2.4,2-4.4,4.4-4.4h1.5V49.7H5.1c-2.4,0-4.4-2-4.4-4.4V18.3c0-4,3.3-7.3,7.3-7.3h69.2c0.8,0,1.5,0.7,1.5,1.5
		c0,0.8-0.7,1.5-1.5,1.5H19.5v2.9h62.1v-4.4c0-0.8,0.7-1.5,1.5-1.5h10c4,0,7.3,3.3,7.3,7.3v27.1c0,2.4-2,4.4-4.4,4.4h-4.4v31.7h1.5
		c2.4,0,4.4,2,4.4,4.4v1.5C97.5,88.9,96.2,90.2,94.6,90.2z M84.4,84.4c-0.8,0-1.5,0.7-1.5,1.5v1.5h11.7v-1.5c0-0.8-0.7-1.5-1.5-1.5
		H84.4z M8.1,84.4c-0.8,0-1.5,0.7-1.5,1.5v1.5h11.7v-1.5c0-0.8-0.7-1.5-1.5-1.5H8.1z M24.7,36.6v38.6c0,0.3,0.2,0.5,0.5,0.5h50.9
		c0.3,0,0.5-0.2,0.5-0.5V36.6h-5.7c-0.6,7.1-5.6,8.9-9.4,10.2c-3.3,1.1-5,1.9-5,4.4c0,1.8,0.8,2.9,1.7,4.2c1.1,1.6,2.3,3.3,2.2,6.2
		c-0.1,4.6-4.5,8.1-9.8,8.1c-5.1,0-9.5-3.6-9.8-8.1c-0.2-3.3,1.2-5.4,2.4-7.1c0.9-1.2,1.5-2.2,1.5-3.4c0-2.8-1.6-3.3-4.9-4.3
		c-2.7-0.8-6.1-1.7-8-5.2c-0.4-0.7-0.1-1.6,0.6-2c0.7-0.4,1.6-0.1,2,0.6c1.2,2.3,3.6,3,6.2,3.7c3.1,0.9,7,2,7,7.1c0,2.1-1,3.6-2,5.1
		c-1.1,1.5-2,3-1.9,5.3c0.2,3,3.3,5.4,6.9,5.4c3.7,0,6.8-2.4,6.9-5.3c0.1-2-0.7-3.1-1.7-4.5c-1.1-1.5-2.2-3.2-2.2-5.9
		c0-4.7,3.7-6,7-7.2c3.6-1.3,7-2.5,7.4-7.8c-0.6-0.3-1-0.9-1.2-1.5l-2.2-6.2h-1.1c-1.6,0-2.9-1.3-2.9-2.9H19.5V39h2.2v-2.4
		c0-1.6,1.3-2.9,2.9-2.9h37.8c0.8,0,1.5,0.7,1.5,1.5c0,0.8-0.7,1.5-1.5,1.5L24.7,36.6z M84.6,46.8h11.5c0.8,0,1.5-0.7,1.5-1.5V18.3
		c0-2.4-2-4.4-4.4-4.4h-8.6V46.8z M79.5,46.8h2.2v-4.9h-2.2V46.8z M19.5,46.8h2.2v-4.9h-2.2V46.8z M8.1,13.9c-2.4,0-4.4,2-4.4,4.4
		v27.1c0,0.8,0.7,1.5,1.5,1.5h11.5V13.9H8.1z M79.5,39h2.2V25.6h-2.9c0,1.6-1.3,2.9-2.9,2.9h-1.4l-1.9,5.2h4c1.6,0,2.9,1.3,2.9,2.9
		L79.5,39L79.5,39z M67.6,28.5l1.9,5.2l1.9-5.2H67.6z M63.4,19.7v5.8h12.4v-5.8H63.4z M78.7,22.7h2.9v-2.9h-2.9V22.7z M19.5,22.7
		h40.9v-2.9H19.5L19.5,22.7z M93.1,31.9c-0.9,0-1.6-0.7-1.6-1.6s0.7-1.6,1.6-1.6c0.9,0,1.6,0.7,1.6,1.6S93.9,31.9,93.1,31.9z
		 M93.1,26.1c-0.9,0-1.6-0.7-1.6-1.6s0.7-1.6,1.6-1.6c0.9,0,1.6,0.7,1.6,1.6S93.9,26.1,93.1,26.1z M93.1,20.2
		c-0.9,0-1.6-0.7-1.6-1.6s0.7-1.6,1.6-1.6c0.9,0,1.6,0.7,1.6,1.6S93.9,20.2,93.1,20.2z"/>
</g>
</svg>
