<?xml version="1.0" encoding="utf-8"?>
<!-- Generator: Adobe Illustrator 24.0.2, SVG Export Plug-In . SVG Version: 6.00 Build 0)  -->
<svg version="1.1" id="off" xmlns="http://www.w3.org/2000/svg" xmlns:xlink="http://www.w3.org/1999/xlink" x="0px" y="0px"
	 viewBox="0 0 101.2 101.2" style="enable-background:new 0 0 101.2 101.2;" xml:space="preserve">
<style type="text/css">
	.st0{fill:#E9762F;}
	.st1{fill:#7382A3;}
	.st2{fill:#A4AAC2;}
	.st3{fill:#FFFFFF;}
	.st4{display:none;fill:#3F3F3F;}
	.st5{fill:#3F3F3F;}
	.st6{fill:none;stroke:#E9762E;stroke-width:0.5941;stroke-miterlimit:10;}
	.st7{clip-path:url(#SVGID_2_);}
	.st8{fill:#727276;}
	.st9{fill:#E9762E;}
	.st10{clip-path:url(#SVGID_6_);}
	.st11{fill:#E9762E;stroke:#E9762E;stroke-width:0.5;stroke-miterlimit:10;}
</style>
<rect y="30.4" class="st4" width="101.2" height="40.3"/>
<g>
	<path class="st11" d="M37.7,51.6v3.1h-0.5v-9h2.4c0.7,0.1,1.3,0.4,1.7,0.9c0.6,0.6,0.9,1.3,0.9,2.1c0,0.8-0.3,1.5-0.9,2.1
		s-1.3,0.9-2.1,0.9H37.7z M37.7,46.2v4.8h1.5c0.7,0,1.2-0.2,1.7-0.7c0.5-0.5,0.7-1,0.7-1.7c0-0.7-0.2-1.2-0.7-1.7
		c-0.5-0.5-1-0.7-1.7-0.7H37.7z"/>
	<path class="st11" d="M44.9,49.6c-0.4,0.1-0.7,0.3-1.1,0.7c-0.3,0.4-0.5,0.8-0.5,1.2v3.2h-0.5v-5.5h0.5v1.2c0.2-0.6,0.6-1,1.3-1.2
		L44.9,49.6z"/>
	<path class="st11" d="M48.5,48.7c0.9,0,1.6,0.3,2.2,0.9s0.9,1.3,0.9,2.2c0,0.8-0.3,1.6-0.9,2.2c-0.6,0.6-1.3,0.9-2.2,0.9
		c-0.8,0-1.6-0.3-2.2-0.9c-0.6-0.6-0.9-1.3-0.9-2.2c0-0.9,0.3-1.6,0.9-2.2C46.9,49,47.6,48.7,48.5,48.7z M46.7,50
		c-0.5,0.5-0.7,1.1-0.7,1.8s0.2,1.3,0.7,1.8c0.5,0.5,1.1,0.7,1.8,0.7c0.7,0,1.3-0.2,1.8-0.7c0.5-0.5,0.7-1.1,0.7-1.8
		s-0.2-1.3-0.7-1.8s-1.1-0.7-1.8-0.7C47.8,49.2,47.2,49.5,46.7,50z"/>
	<path class="st11" d="M58.6,54.7h-0.5v-1.1c-0.1,0.1-0.2,0.3-0.3,0.4c-0.6,0.6-1.3,0.9-2.2,0.9c-0.8,0-1.6-0.3-2.2-0.9
		c-0.6-0.6-0.9-1.3-0.9-2.2c0-0.9,0.3-1.6,0.9-2.2c0.6-0.6,1.3-0.9,2.2-0.9c0.9,0,1.6,0.3,2.2,0.9c0.1,0.1,0.2,0.2,0.3,0.4v-4.2h0.5
		V54.7z M58.1,52.3v-1c-0.1-0.5-0.3-0.9-0.7-1.3c-0.5-0.5-1.1-0.7-1.8-0.7c-0.7,0-1.3,0.3-1.8,0.7S53,51.1,53,51.8s0.2,1.3,0.7,1.8
		c0.5,0.5,1.1,0.7,1.8,0.7c0.7,0,1.3-0.3,1.8-0.7C57.7,53.2,58,52.8,58.1,52.3z"/>
	<path class="st11" d="M62,54.8c-0.7,0-1.2-0.2-1.6-0.6s-0.6-0.9-0.6-1.5v-3.4h0.5v3.4c0,0.5,0.2,0.9,0.5,1.2
		c0.3,0.3,0.8,0.5,1.3,0.5c0.5,0,0.9-0.2,1.2-0.5c0.3-0.3,0.5-0.7,0.5-1.2v-3.4h0.5v3.4c0,0.6-0.2,1.1-0.6,1.5S62.6,54.8,62,54.8z"
		/>
	<path class="st11" d="M70.1,53.4l0.5,0.2c-0.1,0.1-0.2,0.3-0.3,0.4c-0.6,0.6-1.3,0.9-2.2,0.9c-0.8,0-1.6-0.3-2.2-0.9
		c-0.6-0.6-0.9-1.3-0.9-2.2c0-0.9,0.3-1.6,0.9-2.2c0.6-0.6,1.3-0.9,2.2-0.9c0.9,0,1.6,0.3,2.2,0.9c0.1,0.1,0.2,0.3,0.3,0.4l-0.5,0.2
		C70.1,50.1,70,50,69.9,50c-0.5-0.5-1.1-0.7-1.8-0.7c-0.7,0-1.3,0.2-1.8,0.7s-0.7,1.1-0.7,1.8c0,0.7,0.2,1.3,0.7,1.8
		s1.1,0.7,1.8,0.7c0.7,0,1.3-0.3,1.8-0.7C70,53.5,70.1,53.4,70.1,53.4z"/>
	<path class="st11" d="M72.3,49.2v-2.3h0.5v2.3h1.1v0.5h-1.1v5h-0.5v-5h-1.1v-0.5H72.3z"/>
	<path class="st11" d="M77.7,48.7c0.9,0,1.6,0.3,2.2,0.9s0.9,1.3,0.9,2.2c0,0.8-0.3,1.6-0.9,2.2c-0.6,0.6-1.3,0.9-2.2,0.9
		c-0.8,0-1.6-0.3-2.2-0.9c-0.6-0.6-0.9-1.3-0.9-2.2c0-0.9,0.3-1.6,0.9-2.2C76.1,49,76.8,48.7,77.7,48.7z M75.9,50
		c-0.5,0.5-0.7,1.1-0.7,1.8s0.2,1.3,0.7,1.8c0.5,0.5,1.1,0.7,1.8,0.7c0.7,0,1.3-0.2,1.8-0.7c0.5-0.5,0.7-1.1,0.7-1.8
		S80,50.5,79.5,50s-1.1-0.7-1.8-0.7C77,49.2,76.4,49.5,75.9,50z"/>
	<path class="st11" d="M83.3,51.7c-0.4-0.2-0.7-0.4-0.9-0.6c-0.3-0.3-0.4-0.6-0.4-0.9c0-0.4,0.1-0.7,0.4-0.9
		c0.3-0.3,0.6-0.4,0.9-0.4c0.4,0,0.7,0.1,0.9,0.4c0.2,0.2,0.3,0.5,0.3,0.8v0l-0.4,0.2c0-0.3-0.1-0.5-0.3-0.6s-0.3-0.2-0.6-0.2
		c-0.2,0-0.4,0.1-0.6,0.2s-0.2,0.4-0.2,0.6c0,0.2,0.1,0.4,0.2,0.6c0.1,0.1,0.3,0.2,0.6,0.4c0.5,0.3,0.8,0.5,1,0.7
		c0.3,0.3,0.5,0.7,0.5,1.1c0,0.5-0.2,0.8-0.5,1.2s-0.7,0.5-1.2,0.5s-0.8-0.2-1.2-0.5s-0.5-0.7-0.5-1.1l0.5-0.1
		c0,0.3,0.1,0.6,0.3,0.8c0.2,0.2,0.5,0.3,0.8,0.3s0.6-0.1,0.8-0.3c0.2-0.2,0.3-0.5,0.3-0.8c0-0.3-0.1-0.6-0.3-0.8
		C83.9,52.1,83.6,52,83.3,51.7z"/>
</g>
<path class="st9" d="M33.4,66.1L33.4,66.1c-0.4,0-0.7-0.3-0.7-0.7V35.8c0-0.4,0.3-0.7,0.7-0.7l0,0c0.4,0,0.7,0.3,0.7,0.7v29.5
	C34.1,65.7,33.8,66.1,33.4,66.1z"/>
<g>
	<path class="st3" d="M29.4,48.3h-0.7c-0.1-0.3-0.3-0.5-0.7-0.5h-0.7V46c0-0.1,0-0.1-0.1-0.2l-5.2-3c-0.1,0-0.1,0-0.2,0l-5.2,3
		c-0.1,0-0.1,0.1-0.1,0.2v6.1c0,0.1,0,0.1,0.1,0.2l5.2,3c0,0,0.1,0,0.1,0c0,0,0.1,0,0.1,0l2.8-1.6v1.2c0,0.5,0.4,0.8,0.8,0.8
		c0,0,0,0,0,0h3.8c0.5,0,0.8-0.4,0.8-0.8c0,0,0,0,0,0v-5.7C30.2,48.7,29.8,48.3,29.4,48.3z M28,48.2c0.2,0,0.3,0.1,0.3,0.3l0,0v0
		c0,0.2-0.1,0.3-0.3,0.3c0,0,0,0,0,0h-1.1c-0.2,0-0.3-0.1-0.3-0.3l0,0v0c0-0.2,0.1-0.3,0.3-0.3c0,0,0,0,0,0H28z M21.8,43.2l2.2,1.3
		l-4.9,2.8L17,46L21.8,43.2z M21.6,54.8L16.8,52v-5.6l4.9,2.8V54.8z M21.8,48.8l-2.3-1.3l4.9-2.8l2.3,1.3L21.8,48.8z M24.7,49.2v4
		L22,54.8v-5.6l4.8-2.8v1.5h0c-0.3,0-0.6,0.2-0.7,0.5h-0.7C25.1,48.3,24.7,48.7,24.7,49.2z M29.8,54.8c0,0.2-0.2,0.4-0.4,0.4
		c0,0,0,0,0,0h-3.8c-0.2,0-0.4-0.2-0.4-0.4c0,0,0,0,0,0v-5.7c0-0.2,0.2-0.5,0.4-0.5c0,0,0,0,0,0h0.7c0.1,0.3,0.3,0.5,0.6,0.5H28
		c0.3,0,0.6-0.2,0.6-0.5h0.7c0.2,0,0.4,0.2,0.4,0.5V54.8z"/>
	<path class="st3" d="M25.8,51.2H26c0.1,0,0.2-0.1,0.2-0.2s-0.1-0.2-0.2-0.2h0v-0.5h0.5c0,0.1,0.1,0.1,0.2,0.1
		c0.1,0,0.2-0.1,0.2-0.2V50c0-0.1-0.1-0.2-0.2-0.2h-0.9c-0.1,0-0.2,0.1-0.2,0.2c0,0,0,0,0,0V51C25.6,51.1,25.6,51.2,25.8,51.2
		C25.8,51.2,25.8,51.2,25.8,51.2z"/>
	<path class="st3" d="M25.8,52.9h0.9c0.1,0,0.2-0.1,0.2-0.2v-0.9c0-0.1-0.1-0.2-0.2-0.2h-0.9c-0.1,0-0.2,0.1-0.2,0.2v0.9
		C25.6,52.9,25.6,52.9,25.8,52.9z M26,52h0.5v0.5H26V52z"/>
	<path class="st3" d="M26,54.3L26,54.3l0-0.5h0.5c0,0.1,0.1,0.2,0.2,0.2c0.1,0,0.2-0.1,0.2-0.2v-0.2c0-0.1-0.1-0.2-0.2-0.2h-0.9
		c-0.1,0-0.2,0.1-0.2,0.2v0.9c0,0.1,0.1,0.2,0.2,0.2c0,0,0,0,0,0H26c0.1,0,0.2-0.1,0.2-0.2S26.1,54.3,26,54.3L26,54.3z"/>
	<path class="st3" d="M27.1,50.1l-0.6,0.6l-0.2-0.2c-0.1-0.1-0.2-0.1-0.3,0s-0.1,0.2,0,0.3l0.3,0.3c0.1,0.1,0.2,0.1,0.3,0
		c0,0,0,0,0,0l0.7-0.7c0.1-0.1,0.1-0.2,0-0.3C27.3,50,27.2,50,27.1,50.1L27.1,50.1z"/>
	<path class="st3" d="M27.1,53.7l-0.6,0.6l-0.2-0.2c-0.1-0.1-0.2-0.1-0.3,0s-0.1,0.2,0,0.3l0.3,0.3c0.1,0.1,0.2,0.1,0.3,0
		c0,0,0,0,0,0l0.7-0.7c0.1-0.1,0.1-0.2,0-0.3S27.2,53.6,27.1,53.7L27.1,53.7z"/>
	<path class="st3" d="M29.1,50.3h-1.2c-0.1,0-0.2,0.1-0.2,0.2s0.1,0.2,0.2,0.2h1.2c0.1,0,0.2-0.1,0.2-0.2S29.2,50.3,29.1,50.3z"/>
	<path class="st3" d="M29.1,52.1h-1.2c-0.1,0-0.2,0.1-0.2,0.2s0.1,0.2,0.2,0.2h1.2c0.1,0,0.2-0.1,0.2-0.2S29.2,52.1,29.1,52.1z"/>
	<path class="st3" d="M29.1,53.9h-1.2c-0.1,0-0.2,0.1-0.2,0.2s0.1,0.2,0.2,0.2h1.2c0.1,0,0.2-0.1,0.2-0.2S29.2,53.9,29.1,53.9z"/>
</g>
</svg>
