<?xml version="1.0" encoding="utf-8"?>
<!-- Generator: Adobe Illustrator 24.0.2, SVG Export Plug-In . SVG Version: 6.00 Build 0)  -->
<svg version="1.1" id="off" xmlns="http://www.w3.org/2000/svg" xmlns:xlink="http://www.w3.org/1999/xlink" x="0px" y="0px"
	 viewBox="0 0 70.8 32.3" style="enable-background:new 0 0 70.8 32.3;" xml:space="preserve">
<style type="text/css">
	.st0{fill:#E9762F;}
	.st1{fill:#7382A3;}
	.st2{fill:#A4AAC2;}
	.st3{fill:#FFFFFF;}
	.st4{display:none;fill:#3F3F3F;}
	.st5{fill:#3F3F3F;}
	.st6{fill:none;stroke:#E9762E;stroke-width:0.5941;stroke-miterlimit:10;}
	.st7{clip-path:url(#SVGID_2_);}
	.st8{fill:#727276;}
	.st9{fill:#E9762E;}
	.st10{clip-path:url(#SVGID_6_);}
	.st11{fill:#E9762E;stroke:#E9762E;stroke-width:0.5;stroke-miterlimit:10;}
</style>
<rect x="-15.3" y="-3.9" class="st4" width="101.2" height="40.3"/>
<g>
	<path class="st11" d="M22.4,17.2v3.1h-0.5v-9h2.4c0.7,0.1,1.3,0.4,1.7,0.9c0.6,0.6,0.9,1.3,0.9,2.1c0,0.8-0.3,1.5-0.9,2.1
		s-1.3,0.9-2.1,0.9H22.4z M22.4,11.9v4.8h1.5c0.7,0,1.2-0.2,1.7-0.7c0.5-0.5,0.7-1,0.7-1.7c0-0.7-0.2-1.2-0.7-1.7
		c-0.5-0.5-1-0.7-1.7-0.7H22.4z"/>
	<path class="st11" d="M29.6,15.3c-0.4,0.1-0.7,0.3-1.1,0.7c-0.3,0.4-0.5,0.8-0.5,1.2v3.2h-0.5v-5.5H28V16c0.2-0.6,0.6-1,1.3-1.2
		L29.6,15.3z"/>
	<path class="st11" d="M33.2,14.3c0.9,0,1.6,0.3,2.2,0.9s0.9,1.3,0.9,2.2c0,0.8-0.3,1.6-0.9,2.2c-0.6,0.6-1.3,0.9-2.2,0.9
		c-0.8,0-1.6-0.3-2.2-0.9c-0.6-0.6-0.9-1.3-0.9-2.2c0-0.9,0.3-1.6,0.9-2.2C31.6,14.6,32.3,14.3,33.2,14.3z M31.4,15.6
		c-0.5,0.5-0.7,1.1-0.7,1.8s0.2,1.3,0.7,1.8c0.5,0.5,1.1,0.7,1.8,0.7c0.7,0,1.3-0.2,1.8-0.7c0.5-0.5,0.7-1.1,0.7-1.8
		s-0.2-1.3-0.7-1.8s-1.1-0.7-1.8-0.7C32.4,14.9,31.8,15.1,31.4,15.6z"/>
	<path class="st11" d="M43.2,20.3h-0.5v-1.1c-0.1,0.1-0.2,0.3-0.3,0.4c-0.6,0.6-1.3,0.9-2.2,0.9c-0.8,0-1.6-0.3-2.2-0.9
		c-0.6-0.6-0.9-1.3-0.9-2.2c0-0.9,0.3-1.6,0.9-2.2c0.6-0.6,1.3-0.9,2.2-0.9c0.9,0,1.6,0.3,2.2,0.9c0.1,0.1,0.2,0.2,0.3,0.4v-4.2h0.5
		V20.3z M42.7,17.9v-1c-0.1-0.5-0.3-0.9-0.7-1.3c-0.5-0.5-1.1-0.7-1.8-0.7c-0.7,0-1.3,0.3-1.8,0.7s-0.7,1.1-0.7,1.8s0.2,1.3,0.7,1.8
		c0.5,0.5,1.1,0.7,1.8,0.7c0.7,0,1.3-0.3,1.8-0.7C42.4,18.8,42.6,18.4,42.7,17.9z"/>
	<path class="st11" d="M46.6,20.4c-0.7,0-1.2-0.2-1.6-0.6s-0.6-0.9-0.6-1.5v-3.4h0.5v3.4c0,0.5,0.2,0.9,0.5,1.2
		c0.3,0.3,0.8,0.5,1.3,0.5c0.5,0,0.9-0.2,1.2-0.5c0.3-0.3,0.5-0.7,0.5-1.2v-3.4h0.5v3.4c0,0.6-0.2,1.1-0.6,1.5S47.3,20.4,46.6,20.4z
		"/>
	<path class="st11" d="M54.8,19l0.5,0.2c-0.1,0.1-0.2,0.3-0.3,0.4c-0.6,0.6-1.3,0.9-2.2,0.9c-0.8,0-1.6-0.3-2.2-0.9
		c-0.6-0.6-0.9-1.3-0.9-2.2c0-0.9,0.3-1.6,0.9-2.2c0.6-0.6,1.3-0.9,2.2-0.9c0.9,0,1.6,0.3,2.2,0.9c0.1,0.1,0.2,0.3,0.3,0.4l-0.5,0.2
		c-0.1-0.1-0.1-0.1-0.2-0.2c-0.5-0.5-1.1-0.7-1.8-0.7c-0.7,0-1.3,0.2-1.8,0.7s-0.7,1.1-0.7,1.8c0,0.7,0.2,1.3,0.7,1.8
		s1.1,0.7,1.8,0.7c0.7,0,1.3-0.3,1.8-0.7C54.7,19.2,54.7,19.1,54.8,19z"/>
	<path class="st11" d="M57,14.8v-2.3h0.5v2.3h1.1v0.5h-1.1v5H57v-5h-1.1v-0.5H57z"/>
	<path class="st11" d="M62.3,14.3c0.9,0,1.6,0.3,2.2,0.9s0.9,1.3,0.9,2.2c0,0.8-0.3,1.6-0.9,2.2c-0.6,0.6-1.3,0.9-2.2,0.9
		c-0.8,0-1.6-0.3-2.2-0.9c-0.6-0.6-0.9-1.3-0.9-2.2c0-0.9,0.3-1.6,0.9-2.2C60.8,14.6,61.5,14.3,62.3,14.3z M60.5,15.6
		c-0.5,0.5-0.7,1.1-0.7,1.8s0.2,1.3,0.7,1.8c0.5,0.5,1.1,0.7,1.8,0.7c0.7,0,1.3-0.2,1.8-0.7c0.5-0.5,0.7-1.1,0.7-1.8
		s-0.2-1.3-0.7-1.8s-1.1-0.7-1.8-0.7C61.6,14.9,61,15.1,60.5,15.6z"/>
	<path class="st11" d="M67.9,17.4c-0.4-0.2-0.7-0.4-0.9-0.6c-0.3-0.3-0.4-0.6-0.4-0.9c0-0.4,0.1-0.7,0.4-0.9
		c0.3-0.3,0.6-0.4,0.9-0.4c0.4,0,0.7,0.1,0.9,0.4c0.2,0.2,0.3,0.5,0.3,0.8v0l-0.4,0.2c0-0.3-0.1-0.5-0.3-0.6S68.2,15,68,15
		c-0.2,0-0.4,0.1-0.6,0.2s-0.2,0.4-0.2,0.6c0,0.2,0.1,0.4,0.2,0.6c0.1,0.1,0.3,0.2,0.6,0.4c0.5,0.3,0.8,0.5,1,0.7
		c0.3,0.3,0.5,0.7,0.5,1.1c0,0.5-0.2,0.8-0.5,1.2s-0.7,0.5-1.2,0.5s-0.8-0.2-1.2-0.5s-0.5-0.7-0.5-1.1l0.5-0.1
		c0,0.3,0.1,0.6,0.3,0.8c0.2,0.2,0.5,0.3,0.8,0.3s0.6-0.1,0.8-0.3c0.2-0.2,0.3-0.5,0.3-0.8c0-0.3-0.1-0.6-0.3-0.8
		C68.5,17.8,68.3,17.6,67.9,17.4z"/>
</g>
<path class="st9" d="M18.1,31.7L18.1,31.7c-0.4,0-0.7-0.3-0.7-0.7V1.5c0-0.4,0.3-0.7,0.7-0.7h0c0.4,0,0.7,0.3,0.7,0.7V31
	C18.8,31.4,18.5,31.7,18.1,31.7z"/>
<g>
	<path class="st3" d="M14,14h-0.7c-0.1-0.3-0.3-0.5-0.7-0.5h-0.7v-1.8c0-0.1,0-0.1-0.1-0.2l-5.2-3c-0.1,0-0.1,0-0.2,0l-5.2,3
		c-0.1,0-0.1,0.1-0.1,0.2v6.1c0,0.1,0,0.1,0.1,0.2l5.2,3c0,0,0.1,0,0.1,0c0,0,0.1,0,0.1,0l2.8-1.6v1.2c0,0.5,0.4,0.8,0.8,0.8
		c0,0,0,0,0,0H14c0.5,0,0.8-0.4,0.8-0.8c0,0,0,0,0,0v-5.7C14.9,14.4,14.5,14,14,14z M12.7,13.9c0.2,0,0.3,0.1,0.3,0.3l0,0v0
		c0,0.2-0.1,0.3-0.3,0.3c0,0,0,0,0,0h-1.1c-0.2,0-0.3-0.1-0.3-0.3l0,0v0c0-0.2,0.1-0.3,0.3-0.3c0,0,0,0,0,0H12.7z M6.5,8.9l2.2,1.3
		l-4.9,2.8l-2.2-1.3L6.5,8.9z M6.3,20.4l-4.9-2.8V12l4.9,2.8V20.4z M6.5,14.5l-2.3-1.3l4.9-2.8l2.3,1.3L6.5,14.5z M9.4,14.8v4
		l-2.7,1.5v-5.6l4.8-2.8v1.5h0c-0.3,0-0.6,0.2-0.7,0.5h-0.7C9.7,14,9.4,14.4,9.4,14.8z M14.5,20.5c0,0.2-0.2,0.4-0.4,0.4
		c0,0,0,0,0,0h-3.8c-0.2,0-0.4-0.2-0.4-0.4c0,0,0,0,0,0v-5.7c0-0.2,0.2-0.5,0.4-0.5c0,0,0,0,0,0h0.7c0.1,0.3,0.3,0.5,0.6,0.5h1.1
		c0.3,0,0.6-0.2,0.6-0.5H14c0.2,0,0.4,0.2,0.4,0.5V20.5z"/>
	<path class="st3" d="M10.4,16.8h0.2c0.1,0,0.2-0.1,0.2-0.2s-0.1-0.2-0.2-0.2h0v-0.5h0.5c0,0.1,0.1,0.1,0.2,0.1
		c0.1,0,0.2-0.1,0.2-0.2v-0.1c0-0.1-0.1-0.2-0.2-0.2h-0.9c-0.1,0-0.2,0.1-0.2,0.2c0,0,0,0,0,0v0.9C10.2,16.7,10.3,16.8,10.4,16.8
		C10.4,16.8,10.4,16.8,10.4,16.8z"/>
	<path class="st3" d="M10.4,18.6h0.9c0.1,0,0.2-0.1,0.2-0.2v-0.9c0-0.1-0.1-0.2-0.2-0.2h-0.9c-0.1,0-0.2,0.1-0.2,0.2v0.9
		C10.2,18.5,10.3,18.6,10.4,18.6z M10.6,17.7h0.5v0.5h-0.5V17.7z"/>
	<path class="st3" d="M10.6,20L10.6,20l0-0.5h0.5c0,0.1,0.1,0.2,0.2,0.2c0.1,0,0.2-0.1,0.2-0.2v-0.2c0-0.1-0.1-0.2-0.2-0.2h-0.9
		c-0.1,0-0.2,0.1-0.2,0.2v0.9c0,0.1,0.1,0.2,0.2,0.2c0,0,0,0,0,0h0.2c0.1,0,0.2-0.1,0.2-0.2S10.7,20,10.6,20L10.6,20z"/>
	<path class="st3" d="M11.8,15.7l-0.6,0.6L11,16.1c-0.1-0.1-0.2-0.1-0.3,0c-0.1,0.1-0.1,0.2,0,0.3l0.3,0.3c0.1,0.1,0.2,0.1,0.3,0
		c0,0,0,0,0,0l0.7-0.7c0.1-0.1,0.1-0.2,0-0.3C12,15.7,11.9,15.7,11.8,15.7L11.8,15.7z"/>
	<path class="st3" d="M11.8,19.4l-0.6,0.6L11,19.8c-0.1-0.1-0.2-0.1-0.3,0c-0.1,0.1-0.1,0.2,0,0.3l0.3,0.3c0.1,0.1,0.2,0.1,0.3,0
		c0,0,0,0,0,0l0.7-0.7c0.1-0.1,0.1-0.2,0-0.3C12,19.3,11.9,19.3,11.8,19.4L11.8,19.4z"/>
	<path class="st3" d="M13.8,16h-1.2c-0.1,0-0.2,0.1-0.2,0.2s0.1,0.2,0.2,0.2h1.2c0.1,0,0.2-0.1,0.2-0.2S13.9,16,13.8,16z"/>
	<path class="st3" d="M13.8,17.8h-1.2c-0.1,0-0.2,0.1-0.2,0.2s0.1,0.2,0.2,0.2h1.2c0.1,0,0.2-0.1,0.2-0.2S13.9,17.8,13.8,17.8z"/>
	<path class="st3" d="M13.8,19.6h-1.2c-0.1,0-0.2,0.1-0.2,0.2c0,0.1,0.1,0.2,0.2,0.2h1.2c0.1,0,0.2-0.1,0.2-0.2
		C14,19.6,13.9,19.6,13.8,19.6z"/>
</g>
</svg>
