<svg id="off" xmlns="http://www.w3.org/2000/svg" viewBox="0 0 70.83 32.35"><defs><style>.cls-1{fill:#3f3f3f;}.cls-2{fill:#e9762e;stroke:#e9762e;stroke-miterlimit:10;stroke-width:0.5px;}.cls-3{fill:#fff;}</style></defs><title>titulo pedido</title><rect class="cls-1" x="0.98" y="5.77" width="68.61" height="22.01" rx="11.01"/><path class="cls-2" d="M24.12,18.24v3.11h-.51v-9H26a3,3,0,0,1,1.74.85,2.93,2.93,0,0,1,0,4.15,2.79,2.79,0,0,1-2.07.86Zm0-5.35v4.84h1.52a2.42,2.42,0,0,0,1.71-4.13,2.33,2.33,0,0,0-1.71-.71Z"/><path class="cls-2" d="M29.29,18.15a1.27,1.27,0,0,0,0,.28,2.54,2.54,0,0,0,4.34,1.79,3.07,3.07,0,0,0,.25-.26l.54.19a2.78,2.78,0,0,1-.41.45,2.93,2.93,0,0,1-2.18.91,3.08,3.08,0,0,1-2.17-5.26,3.08,3.08,0,0,1,4.35,0,2.61,2.61,0,0,1,.8,1.9Zm.09-.52h4.84a2.36,2.36,0,0,0-.61-1,2.53,2.53,0,0,0-3.6,0A2.56,2.56,0,0,0,29.38,17.63Z"/><path class="cls-2" d="M41.57,21.35h-.5V20.23a3.87,3.87,0,0,1-.32.37,3,3,0,0,1-2.18.91,3.08,3.08,0,1,1,0-6.16,3,3,0,0,1,2.18.9c.11.12.22.24.32.37V12.38h.5Zm-.5-2.42v-1a2.52,2.52,0,0,0-.7-1.3,2.45,2.45,0,0,0-1.8-.75,2.42,2.42,0,0,0-1.8.75,2.54,2.54,0,1,0,3.6,3.59A2.49,2.49,0,0,0,41.07,18.93Z"/><path class="cls-2" d="M43.5,14a.47.47,0,0,1,.15.35.49.49,0,0,1-.15.36.49.49,0,0,1-.35.15.51.51,0,0,1-.51-.51.47.47,0,0,1,.15-.35.49.49,0,0,1,.36-.15A.49.49,0,0,1,43.5,14Zm-.1,1.8v5.51h-.5V15.84Z"/><path class="cls-2" d="M50.71,21.35H50.2V20.23a2.83,2.83,0,0,1-.32.37,3.07,3.07,0,0,1-4.35,0,3.08,3.08,0,1,1,4.35-4.36,3.68,3.68,0,0,1,.32.37V12.38h.51Zm-.51-2.42v-1a2.39,2.39,0,0,0-.7-1.3,2.55,2.55,0,1,0-3.6,3.6,2.48,2.48,0,0,0,1.8.74,2.45,2.45,0,0,0,1.8-.75A2.36,2.36,0,0,0,50.2,18.93Z"/><path class="cls-2" d="M54.81,15.35A3.08,3.08,0,0,1,57,20.61a3.08,3.08,0,1,1-4.35-4.36A3,3,0,0,1,54.81,15.35ZM53,16.63a2.54,2.54,0,0,0,0,3.6,2.56,2.56,0,0,0,3.6,0,2.55,2.55,0,1,0-3.6-3.6Z"/><path class="cls-2" d="M60.4,18.4a4.72,4.72,0,0,1-.89-.6,1.34,1.34,0,0,1,0-1.87,1.28,1.28,0,0,1,.94-.39,1.22,1.22,0,0,1,.9.36,1.07,1.07,0,0,1,.35.8v0l-.43.17a1.15,1.15,0,0,0-.27-.64.74.74,0,0,0-.55-.21.81.81,0,0,0-.58,1.39,3.31,3.31,0,0,0,.59.43,4.27,4.27,0,0,1,1,.7A1.56,1.56,0,0,1,62,19.72a1.59,1.59,0,0,1-.48,1.16,1.63,1.63,0,0,1-2.31,0,1.46,1.46,0,0,1-.48-1.05l.51-.13a1.15,1.15,0,0,0,.33.83,1.09,1.09,0,0,0,.8.33,1.13,1.13,0,0,0,1.13-1.14,1.09,1.09,0,0,0-.33-.8A4.6,4.6,0,0,0,60.4,18.4Z"/><path class="cls-3" d="M15.13,16.17a.27.27,0,1,0-.26-.26A.27.27,0,0,0,15.13,16.17Z"/><path class="cls-3" d="M20.88,14.05H19.31l-2.42-3.33a.8.8,0,0,0-1.39.79l0,0,1.9,2.51H12.85l1.9-2.51,0,0a.8.8,0,0,0-1.39-.79L11,14.05H9.39a1.05,1.05,0,0,0-1.06,1.06,1.07,1.07,0,0,0,.72,1,.28.28,0,0,0,.16.05h0a.25.25,0,0,1,.22.21l.91,5a.79.79,0,0,0,.78.65h8a.79.79,0,0,0,.78-.65l.9-5a.28.28,0,0,1,.23-.21h0a.28.28,0,0,0,.16-.05,1.08,1.08,0,0,0,.72-1A1.05,1.05,0,0,0,20.88,14.05ZM16,11.24a.27.27,0,0,1,.47-.25l0,0,2.2,3h-.56ZM13.82,11l0,0a.26.26,0,0,1,.36-.1.27.27,0,0,1,.11.35l-2.13,2.81h-.56Zm7.06,4.62H16.2a.27.27,0,1,0,0,.53h4.1l0,.12-.9,5a.27.27,0,0,1-.26.22H11.16a.26.26,0,0,1-.26-.22l-.9-5a.5.5,0,0,0,0-.13h4.11a.27.27,0,1,0,0-.53H9.39a.53.53,0,0,1-.53-.53.53.53,0,0,1,.53-.53H20.88a.53.53,0,0,1,.53.53A.53.53,0,0,1,20.88,15.64Z"/><path class="cls-3" d="M15.13,17a.79.79,0,0,0-.79.8V19.9a.79.79,0,0,0,.79.79.79.79,0,0,0,.8-.79V17.77A.8.8,0,0,0,15.13,17Zm.27,2.93a.27.27,0,0,1-.53,0V17.77a.27.27,0,1,1,.53,0Z"/><path class="cls-3" d="M17.79,20.69a.79.79,0,0,0,.8-.79V17.77a.8.8,0,0,0-.8-.8.79.79,0,0,0-.79.8V19.9A.79.79,0,0,0,17.79,20.69Zm-.26-2.92a.27.27,0,1,1,.53,0V19.9a.27.27,0,0,1-.53,0Z"/><path class="cls-3" d="M12.47,17a.79.79,0,0,0-.79.8V19.9a.79.79,0,0,0,.79.79.79.79,0,0,0,.8-.79V17.77A.8.8,0,0,0,12.47,17Zm.27,2.93a.27.27,0,0,1-.53,0V17.77a.27.27,0,1,1,.53,0Z"/></svg>